<svg xmlns="http://www.w3.org/2000/svg" viewBox="0 0 100 100" id="1531486220" class="svg u_1531486220" data-icon-name="li-cards" fill="white"> <g> <path d="M45.1,53.9c0.4,0,0.8-0.2,1.1-0.6l6.1-10.4c0.8-1.4,1.1-3.1,0.6-4.7c-0.4-1.6-1.5-3-2.9-3.8c-2.9-1.7-6.9-0.6-8.5,2.3
		c-0.1,0.3-0.3,0.5-0.4,0.8c-0.2-0.2-0.5-0.3-0.7-0.5c-2.9-1.7-6.9-0.6-8.5,2.3c-0.8,1.4-1.1,3.1-0.6,4.7c0.4,1.6,1.5,3,2.9,3.8
		l10.4,6C44.7,53.8,44.9,53.9,45.1,53.9z M33.6,43.3c-0.3-1-0.1-2,0.4-2.8c0.7-1.2,1.9-1.9,3.3-1.9c0.7,0,1.3,0.2,1.9,0.5
		c0.9,0.5,1.5,1.3,1.7,2.3l0,0c0.2,0.7,0.9,1.1,1.5,0.9c0.7-0.2,1.1-0.9,0.9-1.5c-0.3-1-0.1-2,0.4-2.8c1-1.7,3.4-2.4,5.1-1.4
		c0.9,0.5,1.5,1.3,1.7,2.3c0.3,1,0.1,2-0.4,2.8l-5.5,9.4l-9.3-5.4C34.4,45.1,33.8,44.2,33.6,43.3z"></path> 
 <path d="M83.4,30.6c-0.7-1.2-1.8-2.1-3.2-2.4l-8.5-2.3v-2.7c0-2.9-2.4-5.2-5.2-5.2h-8.7l-0.7-2.6c-0.7-2.7-3.7-4.4-6.4-3.7L19.8,20
		c-1.4,0.4-2.5,1.2-3.2,2.4c-0.7,1.2-0.9,2.6-0.5,4l13.5,50.2c0.5,1.8,1.9,3.2,3.6,3.7v0.1l30.9,8.3c0.4,0.1,0.9,0.2,1.4,0.2
		c0.9,0,1.8-0.2,2.6-0.7c1.2-0.7,2.1-1.8,2.4-3.2L84,34.8C84.3,33.2,84.1,31.8,83.4,30.6z M66.5,20.4c1.5,0,2.8,1.2,2.8,2.8v37.5
		L58.5,20.4H66.5z M31.9,75.8L18.5,25.6c-0.2-0.7-0.1-1.4,0.3-2.1c0.4-0.6,1-1.1,1.7-1.3l30.9-8.3c0.2-0.1,0.5-0.1,0.7-0.1
		c1.3,0,2.3,0.8,2.7,2L68.3,66c0.4,1.5-0.5,3-1.9,3.4l-30.9,8.3C33.9,78.1,32.3,77.2,31.9,75.8z M69.2,70.4v4.7
		c0,1.5-1.2,2.7-2.8,2.7H44.6l22.3-6C67.8,71.6,68.6,71.1,69.2,70.4z M68.1,84.1c-0.2,0.7-0.6,1.3-1.3,1.7c-0.6,0.4-1.4,0.5-2.1,0.3
		l-21.3-5.7h23.1c1,0,2-0.3,2.8-0.8L68.1,84.1z M81.5,33.9l-9.8,36.5v-42l7.8,2.1c0.7,0.2,1.3,0.6,1.7,1.3
		C81.6,32.4,81.7,33.2,81.5,33.9z"></path> 
</g> 
</svg>