<svg xmlns="http://www.w3.org/2000/svg" xmlns:xlink="http://www.w3.org/1999/xlink" width="1080" zoomandpan="magnify" viewbox="0 0 810 809.999993" height="1080" preserveaspectratio="xMidYMid meet" version="1.0" id="1799978354" class="svg u_1799978354" data-icon-custom="true" data-icon-name="6.svg">
  <defs>
   <clippath id="79b138fd18">
    <path d="M 0 23.289062 L 383 23.289062 L 383 459 L 0 459 Z M 0 23.289062 " clip-rule="nonzero">
    </path>
   </clippath>
   <clippath id="8385ae1168">
    <path d="M 427 23.800781 L 809.996094 23.800781 L 809.996094 458.339844 L 427 458.339844 Z M 427 23.800781 " clip-rule="nonzero">
    </path>
   </clippath>
   <clippath id="220813b21d">
    <path d="M 275.539062 555 L 534.585938 555 L 534.585938 728.875 L 275.539062 728.875 Z M 275.539062 555 " clip-rule="nonzero">
    </path>
   </clippath>
  </defs>
  <g clip-path="url(#79b138fd18)">
   <path fill="#fdaf7e" d="M 343.339844 132.691406 L 227.492188 99.191406 L 237.121094 45.503906 L 361.128906 81.863281 Z M 375.820312 66.378906 L 231.910156 24.1875 C 229.363281 23.441406 226.660156 23.789062 224.449219 25.144531 C 224.261719 25.261719 224.074219 25.390625 223.890625 25.515625 C 221.988281 26.894531 220.683594 28.976562 220.257812 31.351562 L 207.257812 103.871094 C 206.371094 108.8125 209.453125 113.746094 214.300781 115.148438 L 219.46875 116.640625 L 218.617188 118.769531 C 212.230469 134.746094 200.402344 141.222656 160.378906 161.222656 C 148.632812 167.089844 134.015625 174.402344 116.949219 183.382812 C 107.710938 188.246094 99.519531 193.308594 92.214844 198.585938 C 43.3125 233.933594 34.652344 278.644531 24.066406 333.347656 C 23.667969 335.398438 23.679688 335.382812 23.777344 334.898438 C 23.738281 335.113281 23.6875 335.351562 23.632812 335.632812 C 16 373.78125 0.515625 431.101562 0.359375 431.675781 C 0.109375 432.609375 0 433.585938 0.0390625 434.570312 C 0.0898438 435.773438 0.789062 446.515625 10 453.1875 C 17.347656 458.507812 27.515625 460.121094 39.324219 455.429688 C 60.546875 447.003906 92.957031 399.78125 98.316406 349.511719 C 98.878906 344.226562 92.539062 340.5625 87.378906 341.257812 C 82.214844 341.953125 80.605469 346.816406 79.621094 352.035156 C 68.980469 408.390625 46.105469 430.515625 33.058594 437.085938 C 26.753906 440.261719 22.265625 438.828125 20.710938 437.757812 C 19.878906 437.1875 19.433594 436.164062 19.203125 435.371094 C 22.035156 424.785156 35.28125 374.792969 42.226562 340.117188 C 43.351562 334.496094 44.414062 329 45.453125 323.636719 C 57.554688 261.101562 62.785156 233.863281 126.1875 200.488281 C 143.082031 191.589844 157 184.636719 169.277344 178.503906 C 210.089844 158.109375 226.980469 149.667969 236.230469 126.546875 L 238.046875 122.011719 L 318.894531 145.390625 C 318.0625 147.800781 317.195312 150.351562 316.273438 153.03125 C 311.03125 165.261719 309.96875 177.839844 308.9375 190.003906 C 306.996094 212.933594 305.164062 234.59375 276.28125 256.957031 C 257.140625 272.089844 232.710938 278.394531 211.160156 283.960938 C 191.59375 289.011719 174.703125 293.378906 165.414062 303.671875 C 156 314.109375 132.84375 325.96875 118.203125 325.035156 C 114.492188 324.800781 111.914062 323.777344 110.554688 321.996094 C 105.386719 315.234375 108.289062 309.496094 120.257812 294.539062 C 121.949219 292.421875 123.699219 290.230469 125.367188 288.023438 C 133.082031 277.773438 144.21875 271.710938 157.113281 264.691406 C 171 257.132812 186.738281 248.5625 200.359375 232.976562 C 203.765625 229.078125 203.300781 223.003906 199.320312 219.410156 C 195.34375 215.816406 189.359375 216.054688 185.953125 219.957031 C 174.453125 233.121094 160.828125 240.53125 147.65625 247.707031 C 140.414062 251.648438 133.039062 255.664062 126.199219 260.601562 C 120.296875 264.871094 114.792969 269.828125 110.125 276.027344 C 108.621094 278.027344 107.03125 280.015625 105.347656 282.125 C 99.914062 288.910156 94.296875 295.929688 91.300781 303.789062 C 87.339844 314.183594 88.867188 324.421875 95.714844 333.382812 C 99.167969 337.898438 105.785156 343.4375 117.722656 344.199219 C 138.820312 345.535156 166.769531 331.164062 179.632812 316.902344 C 185.289062 310.628906 200.441406 306.71875 216.484375 302.574219 C 238.617188 296.859375 266.160156 289.746094 288.21875 272.316406 C 323.367188 245.101562 325.738281 217.078125 327.832031 192.351562 C 328.785156 181.101562 329.683594 170.472656 333.828125 160.96875 C 333.929688 160.738281 334.019531 160.503906 334.101562 160.261719 C 335.261719 156.871094 336.351562 153.691406 337.363281 150.730469 L 347.15625 153.566406 C 351.910156 154.941406 356.777344 152.460938 358.394531 147.84375 L 382.449219 79.097656 C 383.328125 76.589844 383.109375 73.78125 381.851562 71.367188 C 380.589844 68.945312 378.402344 67.136719 375.820312 66.378906 " fill-opacity="1" fill-rule="nonzero">
   </path>
  </g>
  <g clip-path="url(#8385ae1168)">
   <path fill="#fdaf7e" d="M 466.6875 132.691406 L 448.898438 81.863281 L 572.90625 45.503906 L 582.535156 99.191406 Z M 809.671875 431.671875 C 809.511719 431.097656 794.03125 373.78125 786.398438 335.632812 C 786.339844 335.351562 786.292969 335.113281 786.25 334.898438 C 786.347656 335.382812 786.363281 335.398438 785.960938 333.347656 C 775.375 278.644531 766.71875 233.933594 717.816406 198.585938 C 710.511719 193.304688 702.324219 188.246094 693.082031 183.378906 C 676.011719 174.398438 661.394531 167.089844 649.648438 161.222656 C 609.625 141.222656 597.800781 134.746094 591.410156 118.769531 L 590.558594 116.640625 L 595.726562 115.148438 C 600.578125 113.746094 603.65625 108.8125 602.773438 103.871094 L 589.769531 31.351562 C 589.34375 28.972656 588.042969 26.894531 586.136719 25.515625 C 585.957031 25.386719 585.769531 25.261719 585.578125 25.144531 C 583.367188 23.785156 580.664062 23.441406 578.121094 24.1875 L 434.207031 66.378906 C 431.628906 67.136719 429.441406 68.945312 428.179688 71.367188 C 426.917969 73.777344 426.703125 76.585938 427.578125 79.09375 L 451.636719 147.839844 C 453.25 152.460938 458.121094 154.9375 462.871094 153.566406 L 472.664062 150.730469 C 473.679688 153.6875 474.765625 156.871094 475.925781 160.261719 C 476.007812 160.503906 476.101562 160.738281 476.199219 160.96875 C 480.34375 170.472656 481.246094 181.101562 482.195312 192.351562 C 484.289062 217.074219 486.660156 245.101562 521.808594 272.316406 C 543.871094 289.746094 571.410156 296.855469 593.542969 302.570312 C 609.585938 306.71875 624.738281 310.628906 630.394531 316.902344 C 643.261719 331.164062 671.207031 345.535156 692.308594 344.199219 C 704.246094 343.4375 710.859375 337.898438 714.316406 333.382812 C 721.164062 324.421875 722.6875 314.183594 718.730469 303.789062 C 715.734375 295.929688 710.117188 288.910156 704.683594 282.121094 C 703 280.015625 701.410156 278.023438 699.902344 276.023438 C 695.238281 269.828125 689.734375 264.871094 683.828125 260.601562 C 676.996094 255.660156 669.617188 251.648438 662.371094 247.707031 C 649.203125 240.53125 635.570312 233.121094 624.078125 219.957031 C 620.667969 216.054688 614.6875 215.816406 610.707031 219.410156 C 606.730469 223.003906 606.261719 229.078125 609.667969 232.976562 C 623.289062 248.558594 639.027344 257.128906 652.917969 264.691406 C 665.808594 271.710938 676.945312 277.773438 684.667969 288.023438 C 686.328125 290.230469 688.082031 292.421875 689.773438 294.535156 C 701.746094 309.496094 704.636719 315.234375 699.472656 321.996094 C 698.117188 323.777344 695.539062 324.800781 691.824219 325.035156 C 677.1875 325.96875 654.027344 314.109375 644.613281 303.671875 C 635.324219 293.378906 618.4375 289.011719 598.867188 283.960938 C 577.316406 278.394531 552.886719 272.089844 533.75 256.957031 C 504.867188 234.59375 503.035156 212.933594 501.089844 190 C 500.0625 177.839844 499 165.261719 493.753906 153.03125 C 492.832031 150.347656 491.964844 147.800781 491.136719 145.390625 L 571.980469 122.011719 L 573.796875 126.546875 C 583.050781 149.667969 599.941406 158.105469 640.753906 178.503906 C 653.03125 184.636719 666.945312 191.589844 683.84375 200.488281 C 747.242188 233.859375 752.476562 261.101562 764.578125 323.636719 C 765.613281 329 766.679688 334.492188 767.804688 340.117188 C 774.746094 374.792969 787.992188 424.785156 790.824219 435.371094 C 790.59375 436.164062 790.152344 437.1875 789.320312 437.757812 C 787.761719 438.828125 783.277344 440.261719 776.96875 437.085938 C 763.925781 430.515625 741.046875 408.386719 730.40625 352.03125 C 729.421875 346.816406 727.816406 341.953125 722.652344 341.257812 C 717.492188 340.5625 711.152344 344.226562 711.710938 349.511719 C 717.074219 399.78125 749.480469 447.003906 770.707031 455.429688 C 782.515625 460.121094 792.679688 458.507812 800.03125 453.1875 C 809.242188 446.515625 809.941406 435.773438 809.988281 434.570312 C 810.03125 433.585938 809.917969 432.609375 809.671875 431.671875 " fill-opacity="1" fill-rule="nonzero">
   </path>
  </g>
  <g clip-path="url(#220813b21d)">
   <path fill="#fdaf7e" d="M 484.191406 556.460938 C 482.734375 555.605469 481.074219 555.152344 479.386719 555.152344 C 476.046875 555.152344 472.917969 556.9375 471.226562 559.816406 C 469.9375 561.992188 469.578125 564.542969 470.210938 566.992188 C 470.84375 569.445312 472.394531 571.5 474.574219 572.789062 C 501.710938 588.773438 515.46875 615.054688 515.46875 650.898438 C 515.46875 660.035156 514.921875 693.621094 514.066406 709.933594 L 475.742188 709.933594 L 475.742188 662.554688 C 475.742188 657.332031 471.492188 653.082031 466.265625 653.082031 C 461.042969 653.082031 456.792969 657.332031 456.792969 662.554688 L 456.792969 709.933594 L 353.234375 709.933594 L 353.234375 660.472656 C 353.234375 655.25 348.984375 651 343.761719 651 C 338.539062 651 334.289062 655.25 334.289062 660.472656 L 334.289062 709.933594 L 295.964844 709.933594 C 295.105469 693.609375 294.558594 660.027344 294.558594 650.898438 C 294.558594 615.230469 308.1875 589.027344 335.070312 573.011719 C 337.246094 571.71875 338.785156 569.652344 339.40625 567.199219 C 340.027344 564.75 339.65625 562.203125 338.363281 560.023438 C 336.660156 557.171875 333.539062 555.402344 330.21875 555.402344 C 328.515625 555.402344 326.84375 555.863281 325.375 556.734375 C 292.820312 576.128906 275.613281 608.691406 275.613281 650.898438 C 275.613281 655.320312 276.234375 711.390625 277.933594 721.042969 C 278.730469 725.582031 282.652344 728.875 287.261719 728.875 L 522.769531 728.875 C 527.375 728.875 531.300781 725.582031 532.097656 721.046875 C 533.796875 711.390625 534.417969 655.320312 534.417969 650.898438 C 534.417969 608.476562 517.046875 575.820312 484.191406 556.460938 " fill-opacity="1" fill-rule="nonzero">
   </path>
  </g>
  <path fill="#fdaf7e" d="M 405.015625 425.671875 C 439.789062 425.671875 468.078125 453.960938 468.078125 488.734375 C 468.078125 523.507812 439.789062 551.800781 405.015625 551.800781 C 370.238281 551.800781 341.949219 523.507812 341.949219 488.734375 C 341.949219 453.960938 370.238281 425.671875 405.015625 425.671875 Z M 405.015625 570.742188 C 450.234375 570.742188 487.023438 533.957031 487.023438 488.734375 C 487.023438 443.515625 450.234375 406.726562 405.015625 406.726562 C 359.792969 406.726562 323.007812 443.515625 323.007812 488.734375 C 323.007812 533.957031 359.792969 570.742188 405.015625 570.742188 " fill-opacity="1" fill-rule="nonzero">
  </path>
  <path fill="#fdaf7e" d="M 254.285156 642.847656 L 176.203125 642.847656 L 176.203125 588.566406 C 176.203125 583.34375 171.957031 579.089844 166.730469 579.089844 C 161.507812 579.089844 157.257812 583.34375 157.257812 588.566406 L 157.257812 642.847656 L 127.929688 642.847656 C 127.253906 628.75 126.824219 601.871094 126.824219 594.667969 C 126.824219 565.074219 138.15625 543.394531 160.5 530.226562 C 162.679688 528.945312 164.230469 526.886719 164.863281 524.433594 C 165.5 521.988281 165.140625 519.4375 163.855469 517.257812 C 162.160156 514.378906 159.03125 512.589844 155.6875 512.589844 C 154.003906 512.589844 152.34375 513.046875 150.882812 513.902344 C 122.75 530.480469 107.878906 558.410156 107.878906 594.667969 C 107.878906 595.152344 108.308594 645.164062 109.851562 653.964844 C 110.652344 658.5 114.574219 661.792969 119.183594 661.792969 L 254.285156 661.792969 C 259.507812 661.792969 263.757812 657.546875 263.757812 652.320312 C 263.757812 647.097656 259.507812 642.847656 254.285156 642.847656 " fill-opacity="1" fill-rule="nonzero">
  </path>
  <path fill="#fdaf7e" d="M 281.226562 512.804688 C 277.902344 512.804688 274.785156 514.578125 273.082031 517.429688 C 271.789062 519.601562 271.417969 522.148438 272.039062 524.601562 C 272.660156 527.058594 274.199219 529.121094 276.371094 530.414062 C 284.578125 535.304688 291.378906 541.464844 296.585938 548.726562 C 298.363281 551.203125 301.242188 552.683594 304.289062 552.683594 C 306.277344 552.683594 308.183594 552.066406 309.804688 550.90625 C 311.859375 549.433594 313.21875 547.25 313.628906 544.75 C 314.042969 542.253906 313.457031 539.746094 311.980469 537.691406 C 305.25 528.296875 296.53125 520.367188 286.066406 514.140625 C 284.601562 513.265625 282.929688 512.804688 281.226562 512.804688 " fill-opacity="1" fill-rule="nonzero">
  </path>
  <path fill="#fdaf7e" d="M 279.300781 600.742188 L 279.300781 588.566406 C 279.300781 583.34375 275.050781 579.089844 269.828125 579.089844 C 264.605469 579.089844 260.355469 583.34375 260.355469 588.566406 L 260.355469 600.742188 C 260.355469 605.964844 264.605469 610.214844 269.828125 610.214844 C 275.050781 610.214844 279.300781 605.964844 279.300781 600.742188 " fill-opacity="1" fill-rule="nonzero">
  </path>
  <path fill="#fdaf7e" d="M 218.28125 406.632812 C 246.714844 406.632812 269.851562 429.765625 269.851562 458.203125 C 269.851562 486.636719 246.714844 509.769531 218.28125 509.769531 C 189.84375 509.769531 166.710938 486.636719 166.710938 458.203125 C 166.710938 429.765625 189.84375 406.632812 218.28125 406.632812 Z M 218.28125 528.71875 C 257.164062 528.71875 288.796875 497.085938 288.796875 458.203125 C 288.796875 419.316406 257.164062 387.683594 218.28125 387.683594 C 179.398438 387.683594 147.765625 419.316406 147.765625 458.203125 C 147.765625 497.085938 179.398438 528.71875 218.28125 528.71875 " fill-opacity="1" fill-rule="nonzero">
  </path>
  <path fill="#fdaf7e" d="M 659.144531 513.902344 C 657.6875 513.046875 656.027344 512.589844 654.34375 512.589844 C 650.996094 512.589844 647.871094 514.378906 646.175781 517.257812 C 644.890625 519.4375 644.535156 521.988281 645.164062 524.433594 C 645.796875 526.886719 647.347656 528.945312 649.527344 530.226562 C 671.875 543.390625 683.199219 565.074219 683.199219 594.667969 C 683.199219 601.871094 682.777344 628.753906 682.097656 642.847656 L 652.765625 642.847656 L 652.765625 588.566406 C 652.765625 583.34375 648.523438 579.089844 643.296875 579.089844 C 638.074219 579.089844 633.824219 583.34375 633.824219 588.566406 L 633.824219 642.847656 L 555.746094 642.847656 C 550.523438 642.847656 546.273438 647.097656 546.273438 652.320312 C 546.273438 657.546875 550.523438 661.792969 555.746094 661.792969 L 690.847656 661.792969 C 695.453125 661.792969 699.378906 658.5 700.175781 653.964844 C 701.722656 645.164062 702.148438 595.152344 702.148438 594.667969 C 702.148438 558.410156 687.28125 530.480469 659.144531 513.902344 " fill-opacity="1" fill-rule="nonzero">
  </path>
  <path fill="#fdaf7e" d="M 500.226562 550.90625 C 501.847656 552.066406 503.75 552.683594 505.738281 552.683594 C 508.789062 552.683594 511.667969 551.203125 513.441406 548.726562 C 518.648438 541.464844 525.449219 535.304688 533.660156 530.414062 C 538.144531 527.738281 539.621094 521.917969 536.945312 517.429688 C 535.246094 514.578125 532.125 512.804688 528.800781 512.804688 C 527.101562 512.804688 525.425781 513.265625 523.957031 514.140625 C 513.496094 520.371094 504.777344 528.296875 498.046875 537.691406 C 495 541.933594 495.980469 547.863281 500.226562 550.90625 " fill-opacity="1" fill-rule="nonzero">
  </path>
  <path fill="#fdaf7e" d="M 549.671875 600.742188 L 549.671875 588.566406 C 549.671875 583.34375 545.425781 579.089844 540.199219 579.089844 C 534.976562 579.089844 530.730469 583.34375 530.730469 588.566406 L 530.730469 600.742188 C 530.730469 605.964844 534.976562 610.214844 540.199219 610.214844 C 545.425781 610.214844 549.671875 605.964844 549.671875 600.742188 " fill-opacity="1" fill-rule="nonzero">
  </path>
  <path fill="#fdaf7e" d="M 591.75 406.632812 C 620.183594 406.632812 643.320312 429.765625 643.320312 458.203125 C 643.320312 486.636719 620.183594 509.769531 591.75 509.769531 C 563.3125 509.769531 540.179688 486.636719 540.179688 458.203125 C 540.179688 429.765625 563.3125 406.632812 591.75 406.632812 Z M 591.75 528.71875 C 630.628906 528.71875 662.265625 497.085938 662.265625 458.203125 C 662.265625 419.316406 630.628906 387.683594 591.75 387.683594 C 552.867188 387.683594 521.234375 419.316406 521.234375 458.203125 C 521.234375 497.085938 552.867188 528.71875 591.75 528.71875 " fill-opacity="1" fill-rule="nonzero">
  </path>
 </svg>