<svg xmlns="http://www.w3.org/2000/svg" xmlns:xlink="http://www.w3.org/1999/xlink" width="500" zoomandpan="magnify" viewbox="0 0 375 374.999991" height="500" preserveaspectratio="xMidYMid meet" version="1.0" id="1966285443" class="svg u_1966285443" data-icon-custom="true" data-icon-name="11.svg">
  <defs>
   <clippath id="e4fec49da1">
    <path d="M 87 236 L 195 236 L 195 337.773438 L 87 337.773438 Z M 87 236 " clip-rule="nonzero">
    </path>
   </clippath>
   <clippath id="cb3d97ae2b">
    <path d="M 197 236 L 306 236 L 306 337.773438 L 197 337.773438 Z M 197 236 " clip-rule="nonzero">
    </path>
   </clippath>
   <clippath id="758c9a8045">
    <path d="M 55.6875 196 L 195 196 L 195 284 L 55.6875 284 Z M 55.6875 196 " clip-rule="nonzero">
    </path>
   </clippath>
   <clippath id="719a91c19b">
    <path d="M 198.199219 196 L 332.910156 196 L 332.910156 275.457031 L 198.199219 275.457031 Z M 198.199219 196 " clip-rule="nonzero">
    </path>
   </clippath>
   <clippath id="1d3fb4d25f">
    <path d="M 80 22.023438 L 160 22.023438 L 160 109 L 80 109 Z M 80 22.023438 " clip-rule="nonzero">
    </path>
   </clippath>
  </defs>
  <g clip-path="url(#e4fec49da1)">
   <path fill="#7bea47" d="M 173.480469 286.328125 C 173.308594 286.328125 173.132812 286.296875 172.960938 286.230469 L 87.402344 252.609375 L 87.402344 303.566406 L 194.960938 337.453125 L 194.960938 236.445312 L 174.792969 285.445312 C 174.570312 286 174.039062 286.328125 173.480469 286.328125 " fill-opacity="1" fill-rule="nonzero">
   </path>
  </g>
  <g clip-path="url(#cb3d97ae2b)">
   <path fill="#7bea47" d="M 215.976562 278.519531 C 215.414062 278.519531 214.886719 278.183594 214.664062 277.636719 L 197.804688 236.472656 L 197.804688 337.453125 L 305.363281 303.566406 L 305.363281 251.152344 L 216.394531 278.460938 C 216.253906 278.5 216.117188 278.519531 215.976562 278.519531 " fill-opacity="1" fill-rule="nonzero">
   </path>
  </g>
  <path fill="#7bea47" d="M 297.6875 195.484375 L 299.949219 194.769531 L 301.808594 194.183594 C 302.070312 194.101562 302.347656 194.101562 302.597656 194.175781 L 196.792969 160.835938 C 196.527344 160.75 196.242188 160.75 195.972656 160.835938 L 90.210938 194.160156 C 90.453125 194.101562 90.707031 194.105469 90.957031 194.183594 L 92.816406 194.769531 L 95.082031 195.484375 L 95.085938 195.484375 L 196.382812 163.5625 L 297.683594 195.484375 L 297.6875 195.484375 " fill-opacity="1" fill-rule="nonzero">
  </path>
  <g clip-path="url(#758c9a8045)">
   <path fill="#ece552" d="M 172.699219 283.074219 L 194.476562 230.148438 L 87.402344 196.410156 L 86.515625 196.128906 L 85.980469 196.835938 L 84.5625 198.726562 L 55.6875 237.09375 L 84.5625 248.441406 L 85.980469 248.996094 L 87.402344 249.558594 L 172.699219 283.074219 " fill-opacity="1" fill-rule="nonzero">
   </path>
  </g>
  <g clip-path="url(#719a91c19b)">
   <path fill="#ece552" d="M 308.203125 199.496094 L 306.78125 197.183594 L 306.152344 196.164062 L 305.363281 196.410156 L 198.28125 230.148438 L 216.800781 275.363281 L 305.363281 248.179688 L 306.78125 247.746094 L 308.203125 247.308594 L 332.910156 239.726562 L 308.203125 199.496094 " fill-opacity="1" fill-rule="nonzero">
   </path>
  </g>
  <path fill="#64d1d7" d="M 165.140625 162.410156 C 184.277344 162.410156 199.792969 183.925781 199.792969 210.464844 C 199.792969 183.925781 215.308594 162.410156 234.445312 162.410156 C 215.308594 162.410156 199.792969 140.890625 199.792969 114.355469 C 199.792969 140.890625 184.277344 162.410156 165.140625 162.410156 " fill-opacity="1" fill-rule="nonzero">
  </path>
  <path fill="#64d1d7" d="M 188.476562 106.707031 C 188.476562 98.035156 193.542969 91.007812 199.792969 91.007812 C 193.542969 91.007812 188.476562 83.980469 188.476562 75.3125 C 188.476562 83.980469 183.40625 91.007812 177.15625 91.007812 C 183.40625 91.007812 188.476562 98.035156 188.476562 106.707031 " fill-opacity="1" fill-rule="nonzero">
  </path>
  <path fill="#64d1d7" d="M 149.277344 120.441406 C 149.277344 130.378906 143.46875 138.433594 136.304688 138.433594 C 143.46875 138.433594 149.277344 146.488281 149.277344 156.425781 C 149.277344 146.488281 155.085938 138.433594 162.25 138.433594 C 155.085938 138.433594 149.277344 130.378906 149.277344 120.441406 " fill-opacity="1" fill-rule="nonzero">
  </path>
  <g clip-path="url(#1d3fb4d25f)">
   <path fill="#64d1d7" d="M 113.664062 56.792969 C 129.722656 75.074219 137.132812 108.261719 137.132812 108.261719 L 140.214844 84.574219 L 159.789062 99.71875 C 159.789062 99.71875 146.851562 65.003906 109.339844 44.640625 L 118.089844 38.230469 L 105.5625 34.480469 L 101.472656 22.058594 L 94.035156 32.8125 L 80.957031 32.863281 L 88.890625 43.261719 L 84.898438 55.714844 L 97.234375 51.382812 L 107.84375 59.03125 L 107.632812 49.847656 C 109.269531 51.761719 111.253906 54.050781 113.664062 56.792969 " fill-opacity="1" fill-rule="nonzero">
   </path>
  </g>
  <path fill="#fdaf7e" d="M 224.460938 142.960938 L 224.214844 141.722656 L 223.054688 141.214844 L 224.15625 140.597656 L 224.28125 139.339844 L 225.210938 140.199219 L 226.445312 139.925781 L 225.914062 141.074219 L 226.554688 142.164062 L 225.300781 142.015625 L 224.460938 142.960938 " fill-opacity="1" fill-rule="nonzero">
  </path>
  <path fill="#fdaf7e" d="M 238.296875 124.398438 L 235.976562 122.957031 L 238.527344 121.976562 L 239.179688 119.324219 L 240.898438 121.449219 L 243.625 121.25 L 242.136719 123.542969 L 243.167969 126.074219 L 240.527344 125.367188 L 238.441406 127.128906 L 238.296875 124.398438 " fill-opacity="1" fill-rule="nonzero">
  </path>
  <path fill="#fdaf7e" d="M 164.125 151.335938 L 161.804688 149.894531 L 164.355469 148.914062 L 165.011719 146.261719 L 166.730469 148.382812 L 169.457031 148.1875 L 167.96875 150.476562 L 169 153.007812 L 166.359375 152.300781 L 164.269531 154.0625 L 164.125 151.335938 " fill-opacity="1" fill-rule="nonzero">
  </path>
  <path fill="#fdaf7e" d="M 240.007812 108.5625 L 241.066406 105.316406 L 239.011719 102.59375 L 242.425781 102.597656 L 244.378906 99.804688 L 245.429688 103.050781 L 248.695312 104.046875 L 245.929688 106.046875 L 245.992188 109.460938 L 243.234375 107.449219 L 240.007812 108.5625 " fill-opacity="1" fill-rule="nonzero">
  </path>
  <path fill="#fdaf7e" d="M 118.207031 103.277344 L 116.140625 101.171875 L 119.066406 100.796875 L 120.433594 98.175781 L 121.695312 100.84375 L 124.609375 101.335938 L 122.460938 103.363281 L 122.894531 106.28125 L 120.304688 104.867188 L 117.660156 106.179688 L 118.207031 103.277344 " fill-opacity="1" fill-rule="nonzero">
  </path>
  <path fill="#fdaf7e" d="M 257.84375 98.238281 L 254.683594 95.019531 L 259.15625 94.441406 L 261.246094 90.441406 L 263.175781 94.519531 L 267.621094 95.269531 L 264.339844 98.363281 L 265.003906 102.824219 L 261.046875 100.660156 L 257.007812 102.667969 L 257.84375 98.238281 " fill-opacity="1" fill-rule="nonzero">
  </path>
  <path fill="#fdaf7e" d="M 261.101562 77.320312 L 257.863281 79.890625 L 258.125 84.015625 L 254.675781 81.734375 L 250.835938 83.253906 L 251.941406 79.273438 L 249.304688 76.085938 L 253.4375 75.910156 L 255.648438 72.417969 L 257.097656 76.292969 L 261.101562 77.320312 " fill-opacity="1" fill-rule="nonzero">
  </path>
  <path fill="#fdaf7e" d="M 151.460938 76.777344 L 152.726562 78.324219 L 152.183594 80.246094 L 154.046875 79.515625 L 155.707031 80.628906 L 155.589844 78.632812 L 157.160156 77.398438 L 155.226562 76.894531 L 154.535156 75.015625 L 153.457031 76.699219 L 151.460938 76.777344 " fill-opacity="1" fill-rule="nonzero">
  </path>
  <path fill="#fdaf7e" d="M 123.363281 43.765625 L 124.382812 44.746094 L 124.160156 46.140625 L 125.40625 45.476562 L 126.667969 46.117188 L 126.417969 44.726562 L 127.417969 43.730469 L 126.019531 43.535156 L 125.378906 42.273438 L 124.761719 43.546875 L 123.363281 43.765625 " fill-opacity="1" fill-rule="nonzero">
  </path>
  <path fill="#fdaf7e" d="M 112.554688 32.664062 L 113.585938 33.714844 L 113.316406 35.160156 L 114.632812 34.503906 L 115.921875 35.210938 L 115.703125 33.753906 L 116.773438 32.742188 L 115.324219 32.5 L 114.691406 31.171875 L 114.011719 32.476562 L 112.554688 32.664062 " fill-opacity="1" fill-rule="nonzero">
  </path>
  <path fill="#fdaf7e" d="M 113.359375 64.351562 L 114.542969 63.167969 L 112.882812 62.9375 L 112.121094 61.441406 L 111.390625 62.953125 L 109.734375 63.214844 L 110.941406 64.378906 L 110.683594 66.035156 L 112.160156 65.242188 L 113.65625 66.003906 L 113.359375 64.351562 " fill-opacity="1" fill-rule="nonzero">
  </path>
  <path fill="#fdaf7e" d="M 139.316406 58.464844 L 139.890625 59.753906 L 139.164062 60.960938 L 140.566406 60.8125 L 141.492188 61.878906 L 141.78125 60.5 L 143.082031 59.949219 L 141.859375 59.242188 L 141.738281 57.839844 L 140.691406 58.785156 L 139.316406 58.464844 " fill-opacity="1" fill-rule="nonzero">
  </path>
  <path fill="#fdaf7e" d="M 215.503906 124.308594 L 215.015625 127.136719 L 217.558594 125.800781 L 220.097656 127.136719 L 219.613281 124.308594 L 221.671875 122.304688 L 218.828125 121.890625 L 217.558594 119.316406 L 216.289062 121.890625 L 213.445312 122.304688 L 215.503906 124.308594 " fill-opacity="1" fill-rule="nonzero">
  </path>
  <path fill="#fdaf7e" d="M 179.683594 147.863281 L 181.246094 147.042969 L 182.808594 147.863281 L 182.507812 146.125 L 183.773438 144.890625 L 182.027344 144.640625 L 181.246094 143.054688 L 180.464844 144.640625 L 178.71875 144.890625 L 179.984375 146.125 L 179.683594 147.863281 " fill-opacity="1" fill-rule="nonzero">
  </path>
  <path fill="#fdaf7e" d="M 215.996094 91.980469 L 217.558594 91.160156 L 219.117188 91.980469 L 218.820312 90.242188 L 220.085938 89.007812 L 218.339844 88.753906 L 217.558594 87.175781 L 216.777344 88.753906 L 215.03125 89.007812 L 216.296875 90.242188 L 215.996094 91.980469 " fill-opacity="1" fill-rule="nonzero">
  </path>
  <path fill="#fdaf7e" d="M 227.355469 66.140625 L 228.917969 65.320312 L 230.480469 66.140625 L 230.179688 64.402344 L 231.445312 63.171875 L 229.699219 62.917969 L 228.917969 61.335938 L 228.136719 62.917969 L 226.390625 63.171875 L 227.65625 64.402344 L 227.355469 66.140625 " fill-opacity="1" fill-rule="nonzero">
  </path>
  <path fill="#fdaf7e" d="M 116.285156 135.929688 L 117.847656 135.109375 L 119.410156 135.929688 L 119.109375 134.191406 L 120.375 132.960938 L 118.628906 132.707031 L 117.847656 131.125 L 117.066406 132.707031 L 115.320312 132.960938 L 116.585938 134.191406 L 116.285156 135.929688 " fill-opacity="1" fill-rule="nonzero">
  </path>
  <path fill="#fdaf7e" d="M 162.425781 181.660156 L 161.644531 180.078125 L 160.863281 181.660156 L 159.117188 181.914062 L 160.382812 183.144531 L 160.085938 184.886719 L 161.644531 184.0625 L 163.207031 184.886719 L 162.910156 183.144531 L 164.171875 181.914062 L 162.425781 181.660156 " fill-opacity="1" fill-rule="nonzero">
  </path>
  <path fill="#fdaf7e" d="M 243.085938 191.957031 L 242.785156 193.695312 L 244.347656 192.875 L 245.910156 193.695312 L 245.609375 191.957031 L 246.875 190.726562 L 245.128906 190.472656 L 244.347656 188.890625 L 243.566406 190.472656 L 241.820312 190.726562 L 243.085938 191.957031 " fill-opacity="1" fill-rule="nonzero">
  </path>
  <path fill="#fdaf7e" d="M 137.574219 154.304688 L 136.304688 151.730469 L 135.03125 154.304688 L 132.191406 154.71875 L 134.246094 156.722656 L 133.761719 159.550781 L 136.304688 158.214844 L 138.84375 159.550781 L 138.359375 156.722656 L 140.414062 154.71875 L 137.574219 154.304688 " fill-opacity="1" fill-rule="nonzero">
  </path>
  <path fill="#fdaf7e" d="M 167.203125 109.421875 L 169.742188 108.085938 L 172.285156 109.421875 L 171.800781 106.589844 L 173.855469 104.585938 L 171.015625 104.171875 L 169.742188 101.597656 L 168.472656 104.171875 L 165.632812 104.585938 L 167.6875 106.589844 L 167.203125 109.421875 " fill-opacity="1" fill-rule="nonzero">
  </path>
  <path fill="#fdaf7e" d="M 171.3125 55.8125 L 173.855469 54.476562 L 176.394531 55.8125 L 175.910156 52.984375 L 177.964844 50.980469 L 175.125 50.570312 L 173.855469 47.992188 L 172.582031 50.570312 L 169.742188 50.980469 L 171.800781 52.984375 L 171.3125 55.8125 " fill-opacity="1" fill-rule="nonzero">
  </path>
  <path fill="#64d1d7" d="M 234.175781 121.179688 L 232.386719 120.3125 L 230.648438 121.285156 L 230.921875 119.3125 L 229.460938 117.960938 L 231.421875 117.613281 L 232.253906 115.804688 L 233.191406 117.5625 L 235.167969 117.792969 L 233.789062 119.230469 L 234.175781 121.179688 " fill-opacity="1" fill-rule="nonzero">
  </path>
  <path fill="#64d1d7" d="M 224.917969 110.898438 L 223.125 110.03125 L 221.390625 111.003906 L 221.664062 109.035156 L 220.203125 107.679688 L 222.160156 107.332031 L 222.996094 105.527344 L 223.933594 107.28125 L 225.90625 107.515625 L 224.527344 108.949219 L 224.917969 110.898438 " fill-opacity="1" fill-rule="nonzero">
  </path>
  <path fill="#64d1d7" d="M 155.761719 112.71875 L 153.96875 111.851562 L 152.234375 112.820312 L 152.507812 110.851562 L 151.042969 109.5 L 153.003906 109.148438 L 153.835938 107.34375 L 154.773438 109.097656 L 156.75 109.332031 L 155.371094 110.765625 L 155.761719 112.71875 " fill-opacity="1" fill-rule="nonzero">
  </path>
  <path fill="#64d1d7" d="M 251.167969 155.539062 L 249.378906 154.667969 L 247.640625 155.640625 L 247.914062 153.667969 L 246.453125 152.320312 L 248.410156 151.96875 L 249.246094 150.160156 L 250.183594 151.917969 L 252.160156 152.152344 L 250.777344 153.585938 L 251.167969 155.539062 " fill-opacity="1" fill-rule="nonzero">
  </path>
  <path fill="#64d1d7" d="M 185.632812 108.917969 L 183.84375 108.050781 L 182.105469 109.019531 L 182.378906 107.050781 L 180.917969 105.699219 L 182.878906 105.347656 L 183.710938 103.542969 L 184.648438 105.296875 L 186.625 105.53125 L 185.246094 106.964844 L 185.632812 108.917969 " fill-opacity="1" fill-rule="nonzero">
  </path>
  <path fill="#64d1d7" d="M 166.03125 124.371094 L 164.242188 123.503906 L 162.507812 124.476562 L 162.78125 122.503906 L 161.320312 121.152344 L 163.277344 120.800781 L 164.109375 118.996094 L 165.046875 120.75 L 167.023438 120.984375 L 165.644531 122.417969 L 166.03125 124.371094 " fill-opacity="1" fill-rule="nonzero">
  </path>
  <path fill="#64d1d7" d="M 227.453125 134.710938 L 227.859375 133.210938 L 226.859375 132.019531 L 228.414062 131.941406 L 229.242188 130.621094 L 229.792969 132.078125 L 231.304688 132.453125 L 230.09375 133.429688 L 230.199219 134.980469 L 228.894531 134.132812 L 227.453125 134.710938 " fill-opacity="1" fill-rule="nonzero">
  </path>
  <path fill="#64d1d7" d="M 173.644531 136.484375 L 174.050781 134.984375 L 173.050781 133.789062 L 174.605469 133.714844 L 175.433594 132.394531 L 175.984375 133.847656 L 177.496094 134.226562 L 176.28125 135.203125 L 176.390625 136.753906 L 175.085938 135.902344 L 173.644531 136.484375 " fill-opacity="1" fill-rule="nonzero">
  </path>
  <path fill="#64d1d7" d="M 132.03125 130.605469 L 132.441406 129.105469 L 131.441406 127.910156 L 132.996094 127.835938 L 133.820312 126.515625 L 134.375 127.96875 L 135.882812 128.347656 L 134.671875 129.324219 L 134.777344 130.875 L 133.476562 130.023438 L 132.03125 130.605469 " fill-opacity="1" fill-rule="nonzero">
  </path>
  <path fill="#64d1d7" d="M 253.574219 130.605469 L 253.980469 129.105469 L 252.980469 127.910156 L 254.535156 127.835938 L 255.359375 126.515625 L 255.914062 127.96875 L 257.425781 128.347656 L 256.210938 129.324219 L 256.320312 130.875 L 255.015625 130.023438 L 253.574219 130.605469 " fill-opacity="1" fill-rule="nonzero">
  </path>
  <path fill="#64d1d7" d="M 234.082031 139.8125 L 234.59375 138.902344 L 234.140625 137.964844 L 235.160156 138.167969 L 235.914062 137.445312 L 236.035156 138.480469 L 236.957031 138.972656 L 236.007812 139.410156 L 235.824219 140.4375 L 235.117188 139.671875 L 234.082031 139.8125 " fill-opacity="1" fill-rule="nonzero">
  </path>
  <path fill="#64d1d7" d="M 190.839844 117.328125 L 191.351562 116.417969 L 190.894531 115.480469 L 191.917969 115.683594 L 192.671875 114.960938 L 192.792969 115.996094 L 193.714844 116.488281 L 192.765625 116.925781 L 192.582031 117.953125 L 191.875 117.183594 L 190.839844 117.328125 " fill-opacity="1" fill-rule="nonzero">
  </path>
  <path fill="#64d1d7" d="M 250.292969 88.8125 L 252.113281 89.933594 L 250.117188 90.710938 L 249.609375 92.789062 L 248.257812 91.132812 L 246.125 91.292969 L 247.28125 89.492188 L 246.46875 87.511719 L 248.539062 88.058594 L 250.171875 86.671875 L 250.292969 88.8125 " fill-opacity="1" fill-rule="nonzero">
  </path>
  <path fill="#64d1d7" d="M 251.511719 116.34375 L 251.792969 115.046875 L 250.890625 114.070312 L 252.210938 113.9375 L 252.859375 112.777344 L 253.394531 113.996094 L 254.699219 114.253906 L 253.707031 115.136719 L 253.863281 116.457031 L 252.714844 115.785156 L 251.511719 116.34375 " fill-opacity="1" fill-rule="nonzero">
  </path>
  <path fill="#64d1d7" d="M 130.472656 118.183594 L 130.757812 116.886719 L 129.855469 115.910156 L 131.175781 115.777344 L 131.824219 114.617188 L 132.359375 115.835938 L 133.664062 116.09375 L 132.671875 116.976562 L 132.828125 118.296875 L 131.679688 117.625 L 130.472656 118.183594 " fill-opacity="1" fill-rule="nonzero">
  </path>
  <path fill="#64d1d7" d="M 131.1875 53.003906 L 131.757812 52.359375 L 130.898438 52.292969 L 130.464844 51.550781 L 130.136719 52.34375 L 129.296875 52.527344 L 129.949219 53.089844 L 129.867188 53.945312 L 130.601562 53.496094 L 131.386719 53.839844 L 131.1875 53.003906 " fill-opacity="1" fill-rule="nonzero">
  </path>
  <path fill="#64d1d7" d="M 208.242188 102.695312 L 208.8125 102.050781 L 207.957031 101.984375 L 207.519531 101.242188 L 207.191406 102.035156 L 206.351562 102.222656 L 207.007812 102.78125 L 206.921875 103.636719 L 207.65625 103.1875 L 208.445312 103.53125 L 208.242188 102.695312 " fill-opacity="1" fill-rule="nonzero">
  </path>
  <path fill="#64d1d7" d="M 153.898438 61.019531 L 154.550781 61.578125 L 154.46875 62.433594 L 155.203125 61.984375 L 155.988281 62.328125 L 155.789062 61.492188 L 156.359375 60.847656 L 155.503906 60.78125 L 155.066406 60.039062 L 154.738281 60.832031 L 153.898438 61.019531 " fill-opacity="1" fill-rule="nonzero">
  </path>
  <path fill="#64d1d7" d="M 275.253906 73.496094 L 262.109375 64.234375 L 277.429688 59.34375 L 282.175781 43.980469 L 291.5625 57.039062 L 307.640625 56.808594 L 298.121094 69.765625 L 303.308594 84.988281 L 288.042969 79.941406 L 275.171875 89.578125 L 275.253906 73.496094 " fill-opacity="1" fill-rule="nonzero">
  </path>
  <path fill="#64d1d7" d="M 243.492188 115.230469 C 243.507812 114.730469 243.929688 114.332031 244.433594 114.347656 C 244.933594 114.363281 245.332031 114.785156 245.316406 115.289062 C 245.300781 115.789062 244.878906 116.1875 244.378906 116.171875 C 243.875 116.15625 243.480469 115.734375 243.492188 115.230469 " fill-opacity="1" fill-rule="nonzero">
  </path>
  <path fill="#64d1d7" d="M 235.539062 133.765625 C 235.550781 133.332031 235.914062 132.988281 236.347656 133 C 236.785156 133.015625 237.125 133.378906 237.113281 133.8125 C 237.097656 134.246094 236.734375 134.585938 236.300781 134.574219 C 235.867188 134.5625 235.523438 134.199219 235.539062 133.765625 " fill-opacity="1" fill-rule="nonzero">
  </path>
  <path fill="#64d1d7" d="M 230.453125 126.492188 C 230.46875 126.050781 230.835938 125.703125 231.277344 125.714844 C 231.71875 125.730469 232.066406 126.097656 232.054688 126.539062 C 232.042969 126.980469 231.671875 127.332031 231.230469 127.316406 C 230.789062 127.304688 230.441406 126.933594 230.453125 126.492188 " fill-opacity="1" fill-rule="nonzero">
  </path>
  <path fill="#64d1d7" d="M 121.570312 116.433594 C 121.582031 115.992188 121.949219 115.644531 122.390625 115.65625 C 122.835938 115.671875 123.183594 116.039062 123.167969 116.480469 C 123.15625 116.921875 122.785156 117.269531 122.34375 117.257812 C 121.902344 117.242188 121.554688 116.875 121.570312 116.433594 " fill-opacity="1" fill-rule="nonzero">
  </path>
  <path fill="#64d1d7" d="M 234.976562 110.054688 C 234.992188 109.542969 235.421875 109.140625 235.933594 109.15625 C 236.445312 109.171875 236.847656 109.601562 236.832031 110.109375 C 236.816406 110.621094 236.386719 111.023438 235.875 111.007812 C 235.367188 110.992188 234.964844 110.566406 234.976562 110.054688 " fill-opacity="1" fill-rule="nonzero">
  </path>
  <path fill="#64d1d7" d="M 251.84375 98.84375 C 251.824219 99.578125 251.210938 100.152344 250.480469 100.132812 C 249.746094 100.109375 249.167969 99.496094 249.191406 98.765625 C 249.214844 98.03125 249.824219 97.457031 250.558594 97.480469 C 251.289062 97.5 251.867188 98.109375 251.84375 98.84375 " fill-opacity="1" fill-rule="nonzero">
  </path>
  <path fill="#64d1d7" d="M 263.917969 82.636719 C 264.851562 82.660156 265.585938 83.441406 265.558594 84.375 C 265.53125 85.308594 264.75 86.042969 263.816406 86.015625 C 262.882812 85.988281 262.148438 85.207031 262.175781 84.273438 C 262.203125 83.339844 262.984375 82.605469 263.917969 82.636719 " fill-opacity="1" fill-rule="nonzero">
  </path>
  <path fill="#64d1d7" d="M 263.097656 73.585938 C 263.082031 74.105469 262.648438 74.515625 262.128906 74.5 C 261.609375 74.484375 261.199219 74.046875 261.214844 73.527344 C 261.230469 73.007812 261.664062 72.597656 262.183594 72.617188 C 262.707031 72.628906 263.113281 73.066406 263.097656 73.585938 " fill-opacity="1" fill-rule="nonzero">
  </path>
  <path fill="#64d1d7" d="M 271.789062 78.664062 C 272.566406 78.691406 273.175781 79.335938 273.148438 80.109375 C 273.125 80.882812 272.480469 81.492188 271.707031 81.46875 C 270.933594 81.445312 270.328125 80.796875 270.347656 80.023438 C 270.371094 79.253906 271.019531 78.640625 271.789062 78.664062 " fill-opacity="1" fill-rule="nonzero">
  </path>
  <path fill="#64d1d7" d="M 272.566406 99.46875 C 272.589844 98.734375 273.203125 98.160156 273.933594 98.179688 C 274.667969 98.207031 275.242188 98.816406 275.222656 99.546875 C 275.199219 100.28125 274.585938 100.859375 273.855469 100.835938 C 273.121094 100.8125 272.546875 100.203125 272.566406 99.46875 " fill-opacity="1" fill-rule="nonzero">
  </path>
  <path fill="#64d1d7" d="M 257.390625 108.382812 C 257.414062 107.601562 258.066406 106.984375 258.851562 107.007812 C 259.632812 107.03125 260.25 107.683594 260.226562 108.46875 C 260.203125 109.25 259.546875 109.867188 258.765625 109.84375 C 257.984375 109.820312 257.367188 109.167969 257.390625 108.382812 " fill-opacity="1" fill-rule="nonzero">
  </path>
  <path fill="#64d1d7" d="M 172.4375 77.777344 C 172.460938 76.996094 173.113281 76.382812 173.898438 76.402344 C 174.679688 76.429688 175.296875 77.082031 175.273438 77.867188 C 175.25 78.648438 174.597656 79.265625 173.8125 79.242188 C 173.027344 79.214844 172.414062 78.5625 172.4375 77.777344 " fill-opacity="1" fill-rule="nonzero">
  </path>
  <path fill="#64d1d7" d="M 284.375 90.921875 C 284.378906 90.804688 284.476562 90.710938 284.597656 90.714844 C 284.714844 90.71875 284.808594 90.816406 284.804688 90.9375 C 284.800781 91.054688 284.699219 91.148438 284.582031 91.144531 C 284.460938 91.140625 284.371094 91.042969 284.375 90.921875 " fill-opacity="1" fill-rule="nonzero">
  </path>
  <path fill="#64d1d7" d="M 228.917969 143.097656 C 228.925781 142.867188 229.117188 142.6875 229.34375 142.695312 C 229.574219 142.703125 229.753906 142.890625 229.746094 143.121094 C 229.738281 143.351562 229.550781 143.53125 229.320312 143.523438 C 229.089844 143.515625 228.910156 143.324219 228.917969 143.097656 " fill-opacity="1" fill-rule="nonzero">
  </path>
  <path fill="#64d1d7" d="M 222.53125 147.03125 C 222.535156 146.839844 222.699219 146.6875 222.890625 146.695312 C 223.082031 146.699219 223.234375 146.863281 223.230469 147.054688 C 223.222656 147.246094 223.0625 147.398438 222.871094 147.390625 C 222.675781 147.386719 222.523438 147.226562 222.53125 147.03125 " fill-opacity="1" fill-rule="nonzero">
  </path>
  <path fill="#64d1d7" d="M 219.792969 152.984375 C 219.792969 152.9375 219.832031 152.898438 219.878906 152.902344 C 219.925781 152.902344 219.964844 152.941406 219.960938 152.988281 C 219.960938 153.035156 219.921875 153.074219 219.875 153.070312 C 219.828125 153.070312 219.789062 153.03125 219.792969 152.984375 " fill-opacity="1" fill-rule="nonzero">
  </path>
  <path fill="#64d1d7" d="M 119.648438 75.75 C 119.632812 75.464844 119.394531 75.246094 119.109375 75.257812 C 118.824219 75.273438 118.605469 75.515625 118.621094 75.796875 C 118.632812 76.082031 118.875 76.300781 119.160156 76.289062 C 119.441406 76.273438 119.660156 76.035156 119.648438 75.75 " fill-opacity="1" fill-rule="nonzero">
  </path>
  <path fill="#64d1d7" d="M 111.925781 58.835938 C 111.914062 58.550781 111.671875 58.332031 111.390625 58.347656 C 111.105469 58.359375 110.886719 58.601562 110.898438 58.886719 C 110.914062 59.167969 111.152344 59.386719 111.4375 59.375 C 111.722656 59.359375 111.941406 59.117188 111.925781 58.835938 " fill-opacity="1" fill-rule="nonzero">
  </path>
  <path fill="#64d1d7" d="M 101.980469 58.285156 C 101.964844 58 101.722656 57.78125 101.4375 57.792969 C 101.15625 57.804688 100.9375 58.050781 100.949219 58.332031 C 100.964844 58.617188 101.207031 58.835938 101.488281 58.824219 C 101.773438 58.808594 101.992188 58.566406 101.980469 58.285156 " fill-opacity="1" fill-rule="nonzero">
  </path>
  <path fill="#64d1d7" d="M 127.304688 92.921875 C 127.289062 92.632812 127.042969 92.410156 126.753906 92.421875 C 126.464844 92.4375 126.242188 92.679688 126.257812 92.972656 C 126.269531 93.257812 126.515625 93.480469 126.804688 93.46875 C 127.09375 93.457031 127.316406 93.210938 127.304688 92.921875 " fill-opacity="1" fill-rule="nonzero">
  </path>
  <path fill="#64d1d7" d="M 138.605469 52.339844 C 138.644531 53.164062 139.34375 53.796875 140.167969 53.757812 C 140.992188 53.71875 141.625 53.015625 141.585938 52.195312 C 141.546875 51.371094 140.847656 50.738281 140.023438 50.777344 C 139.199219 50.816406 138.566406 51.519531 138.605469 52.339844 " fill-opacity="1" fill-rule="nonzero">
  </path>
  <path fill="#64d1d7" d="M 177.230469 123.300781 C 177.269531 124.121094 177.96875 124.757812 178.792969 124.714844 C 179.613281 124.675781 180.25 123.976562 180.210938 123.15625 C 180.171875 122.332031 179.46875 121.695312 178.648438 121.738281 C 177.824219 121.777344 177.191406 122.476562 177.230469 123.300781 " fill-opacity="1" fill-rule="nonzero">
  </path>
  <path fill="#64d1d7" d="M 109.921875 116.527344 C 109.964844 117.351562 110.664062 117.984375 111.484375 117.945312 C 112.308594 117.90625 112.941406 117.207031 112.902344 116.382812 C 112.863281 115.5625 112.164062 114.925781 111.339844 114.964844 C 110.519531 115.007812 109.882812 115.707031 109.921875 116.527344 " fill-opacity="1" fill-rule="nonzero">
  </path>
  <path fill="#64d1d7" d="M 227.429688 96.707031 C 227.46875 97.527344 228.167969 98.164062 228.992188 98.125 C 229.8125 98.085938 230.449219 97.386719 230.40625 96.5625 C 230.367188 95.738281 229.667969 95.105469 228.847656 95.144531 C 228.023438 95.183594 227.390625 95.882812 227.429688 96.707031 " fill-opacity="1" fill-rule="nonzero">
  </path>
  <path fill="#64d1d7" d="M 199.796875 107.414062 C 199.835938 108.238281 200.535156 108.875 201.355469 108.835938 C 202.179688 108.792969 202.816406 108.09375 202.777344 107.269531 C 202.734375 106.449219 202.035156 105.816406 201.214844 105.855469 C 200.390625 105.894531 199.757812 106.59375 199.796875 107.414062 " fill-opacity="1" fill-rule="nonzero">
  </path>
  <path fill="#64d1d7" d="M 204.601562 61.515625 C 204.640625 62.339844 205.339844 62.972656 206.164062 62.933594 C 206.984375 62.894531 207.621094 62.195312 207.582031 61.371094 C 207.539062 60.550781 206.84375 59.914062 206.019531 59.953125 C 205.195312 59.992188 204.5625 60.691406 204.601562 61.515625 " fill-opacity="1" fill-rule="nonzero">
  </path>
  <path fill="#64d1d7" d="M 143.160156 67.097656 C 143.179688 67.527344 143.546875 67.863281 143.976562 67.839844 C 144.40625 67.820312 144.738281 67.453125 144.71875 67.023438 C 144.699219 66.59375 144.332031 66.261719 143.902344 66.28125 C 143.46875 66.300781 143.136719 66.667969 143.160156 67.097656 " fill-opacity="1" fill-rule="nonzero">
  </path>
  <path fill="#64d1d7" d="M 157.914062 85.6875 C 157.929688 86.015625 158.210938 86.269531 158.539062 86.257812 C 158.871094 86.238281 159.125 85.960938 159.109375 85.628906 C 159.09375 85.296875 158.8125 85.042969 158.480469 85.058594 C 158.152344 85.074219 157.894531 85.355469 157.914062 85.6875 " fill-opacity="1" fill-rule="nonzero">
  </path>
  <path fill="#64d1d7" d="M 154.488281 102.921875 C 154.5 103.175781 154.714844 103.375 154.972656 103.363281 C 155.226562 103.347656 155.421875 103.132812 155.410156 102.878906 C 155.398438 102.625 155.179688 102.429688 154.925781 102.4375 C 154.671875 102.453125 154.476562 102.667969 154.488281 102.921875 " fill-opacity="1" fill-rule="nonzero">
  </path>
  <path fill="#64d1d7" d="M 147.214844 94.421875 C 146.921875 94.433594 146.695312 94.683594 146.710938 94.976562 C 146.722656 95.273438 146.972656 95.5 147.265625 95.484375 C 147.5625 95.472656 147.789062 95.222656 147.773438 94.929688 C 147.757812 94.632812 147.507812 94.40625 147.214844 94.421875 " fill-opacity="1" fill-rule="nonzero">
  </path>
  <path fill="#64d1d7" d="M 145.746094 104.519531 C 145.765625 104.910156 146.097656 105.210938 146.492188 105.195312 C 146.882812 105.175781 147.183594 104.839844 147.167969 104.449219 C 147.148438 104.058594 146.8125 103.753906 146.421875 103.773438 C 146.03125 103.792969 145.726562 104.125 145.746094 104.519531 " fill-opacity="1" fill-rule="nonzero">
  </path>
  <path fill="#64d1d7" d="M 206.871094 80.101562 C 206.890625 80.492188 207.226562 80.796875 207.617188 80.777344 C 208.007812 80.757812 208.3125 80.425781 208.292969 80.03125 C 208.273438 79.640625 207.941406 79.339844 207.546875 79.359375 C 207.15625 79.378906 206.855469 79.710938 206.871094 80.101562 " fill-opacity="1" fill-rule="nonzero">
  </path>
  <path fill="#64d1d7" d="M 190.496094 67.875 C 190.515625 68.265625 190.847656 68.570312 191.242188 68.550781 C 191.632812 68.53125 191.933594 68.199219 191.914062 67.808594 C 191.894531 67.414062 191.5625 67.113281 191.171875 67.132812 C 190.78125 67.148438 190.476562 67.484375 190.496094 67.875 " fill-opacity="1" fill-rule="nonzero">
  </path>
  <path fill="#64d1d7" d="M 142.402344 100.058594 C 142.128906 100.070312 141.917969 100.304688 141.929688 100.578125 C 141.945312 100.851562 142.175781 101.0625 142.453125 101.050781 C 142.726562 101.039062 142.9375 100.804688 142.921875 100.53125 C 142.910156 100.257812 142.675781 100.042969 142.402344 100.058594 " fill-opacity="1" fill-rule="nonzero">
  </path>
  <path fill="#64d1d7" d="M 236.300781 81.136719 C 236.027344 81.148438 235.816406 81.378906 235.828125 81.65625 C 235.839844 81.929688 236.074219 82.140625 236.347656 82.128906 C 236.625 82.113281 236.835938 81.882812 236.820312 81.605469 C 236.808594 81.332031 236.574219 81.121094 236.300781 81.136719 " fill-opacity="1" fill-rule="nonzero">
  </path>
  <path fill="#64d1d7" d="M 119.273438 67.984375 C 119.257812 67.699219 119.019531 67.480469 118.734375 67.496094 C 118.449219 67.507812 118.230469 67.75 118.246094 68.035156 C 118.257812 68.316406 118.5 68.539062 118.785156 68.523438 C 119.066406 68.507812 119.289062 68.265625 119.273438 67.984375 " fill-opacity="1" fill-rule="nonzero">
  </path>
  <path fill="#64d1d7" d="M 124.570312 82.679688 C 124.539062 82.070312 124.023438 81.601562 123.417969 81.632812 C 122.808594 81.660156 122.339844 82.175781 122.371094 82.785156 C 122.398438 83.390625 122.914062 83.859375 123.523438 83.832031 C 124.128906 83.800781 124.597656 83.285156 124.570312 82.679688 " fill-opacity="1" fill-rule="nonzero">
  </path>
  <path fill="#64d1d7" d="M 117.054688 43.414062 C 117.074219 43.816406 117.421875 44.132812 117.824219 44.113281 C 118.230469 44.09375 118.542969 43.746094 118.523438 43.339844 C 118.503906 42.9375 118.160156 42.625 117.753906 42.644531 C 117.347656 42.664062 117.035156 43.007812 117.054688 43.414062 " fill-opacity="1" fill-rule="nonzero">
  </path>
  <path fill="#64d1d7" d="M 124.785156 50.316406 C 124.796875 50.570312 125.011719 50.765625 125.269531 50.753906 C 125.523438 50.742188 125.71875 50.523438 125.707031 50.269531 C 125.695312 50.015625 125.476562 49.816406 125.222656 49.828125 C 124.96875 49.84375 124.773438 50.058594 124.785156 50.316406 " fill-opacity="1" fill-rule="nonzero">
  </path>
 </svg>