 <svg xmlns="http://www.w3.org/2000/svg" xmlnsXlink="http://www.w3.org/1999/xlink" width="500" height="500" viewbox="0 0 375 374.999991">
                        <defs>
                            <clippath id="d6c70491fb">
                                <path d="M 124 38 L 322 38 L 322 324.75 L 124 324.75 Z M 124 38 " clip-rule="nonzero">
                                </path>
                            </clippath>
                            <clippath id="ef1b195fa5">
                                <path d="M 64.347656 170 L 107 170 L 107 180 L 64.347656 180 Z M 64.347656 170 " clip-rule="nonzero">
                                </path>
                            </clippath>
                        </defs>
                        <path fill="#fdaf7e" d="M 116.199219 148.835938 L 84.882812 126.464844 C 82.875 125.035156 80.078125 125.496094 78.644531 127.507812 C 77.207031 129.515625 77.671875 132.3125 79.683594 133.75 L 111 156.117188 C 111.789062 156.679688 112.695312 156.949219 113.597656 156.949219 C 114.992188 156.949219 116.367188 156.296875 117.238281 155.074219 C 118.675781 153.066406 118.210938 150.269531 116.199219 148.835938 Z M 116.199219 148.835938 " fill-opacity="1" fill-rule="nonzero">
                        </path>
                        <path fill="#fdaf7e" d="M 111 195.808594 L 79.683594 218.175781 C 77.671875 219.613281 77.207031 222.410156 78.644531 224.417969 C 79.515625 225.640625 80.890625 226.292969 82.285156 226.292969 C 83.1875 226.292969 84.09375 226.019531 84.882812 225.460938 L 116.199219 203.089844 C 118.210938 201.652344 118.675781 198.859375 117.238281 196.851562 C 115.804688 194.839844 113.007812 194.375 111 195.808594 Z M 111 195.808594 " fill-opacity="1" fill-rule="nonzero">
                        </path>
                        <g clip-path="url(#d6c70491fb)">
                            <path fill="#fdaf7e" d="M 320.082031 105.742188 C 319.6875 105.398438 310.222656 97.347656 299.328125 98.890625 C 293.09375 99.777344 287.828125 103.472656 283.667969 109.878906 C 283.574219 110.027344 283.492188 110.175781 283.414062 110.332031 L 270.871094 135.65625 L 277.328125 59.035156 C 277.464844 57.414062 276.710938 55.84375 275.355469 54.941406 C 274.894531 54.628906 263.941406 47.460938 253.515625 52.359375 C 245.304688 56.222656 240.3125 66.136719 238.707031 81.667969 L 236.253906 98.976562 C 229.371094 74.382812 221.488281 49.046875 216.132812 40.523438 C 215.402344 39.355469 214.167969 38.589844 212.796875 38.453125 C 212.402344 38.417969 203.082031 37.558594 196.40625 44.453125 C 191.054688 49.972656 189.109375 58.535156 190.621094 69.898438 C 190.636719 70.023438 190.65625 70.148438 190.683594 70.273438 L 202.359375 123.136719 L 154.625 127.023438 C 153.207031 127.140625 151.929688 127.921875 151.183594 129.128906 L 125.875 170.011719 C 125.226562 171.0625 125.039062 172.339844 125.363281 173.535156 C 125.683594 174.726562 126.488281 175.734375 127.582031 176.316406 C 127.828125 176.449219 130.53125 177.855469 134.554688 179 C 132.320312 179.523438 130.011719 180.253906 127.628906 181.1875 C 125.363281 182.074219 124.21875 184.605469 125.058594 186.890625 L 139.609375 226.601562 C 139.835938 227.222656 140.199219 227.785156 140.671875 228.25 L 163.5625 250.75 C 165.410156 256.867188 174.566406 284.101562 195.0625 299.472656 C 195.5 301.96875 196.351562 306.597656 197.347656 310.742188 L 197.652344 312.074219 C 199.152344 318.734375 201.554688 324.714844 214.351562 324.714844 L 256.421875 324.714844 C 270.886719 324.714844 271.679688 312.589844 272.320312 302.847656 L 279.175781 209.207031 L 321.265625 110.886719 C 322.035156 109.097656 321.554688 107.015625 320.082031 105.742188 Z M 270.65625 206.375 C 270.460938 206.828125 270.34375 207.3125 270.308594 207.808594 L 263.390625 302.261719 C 262.621094 314 261.710938 315.765625 256.421875 315.765625 L 214.351562 315.765625 C 207.65625 315.765625 207.4375 314.792969 206.382812 310.113281 C 206.382812 310.113281 203.59375 296.273438 203.582031 296.207031 C 203.386719 295.015625 202.722656 293.953125 201.734375 293.261719 C 180.59375 278.433594 171.933594 247.511719 171.847656 247.203125 C 171.640625 246.4375 171.230469 245.742188 170.667969 245.1875 L 147.664062 222.578125 L 135.035156 188.113281 C 141.441406 186.308594 146.8125 186.597656 151.039062 188.972656 C 158.953125 193.417969 160.890625 203.996094 160.90625 204.085938 C 161.183594 205.742188 162.367188 207.101562 163.964844 207.609375 L 186.109375 214.636719 C 187.925781 215.214844 189.914062 214.574219 191.050781 213.039062 L 207.1875 191.320312 C 208.089844 190.105469 208.316406 188.515625 207.789062 187.097656 L 198.300781 161.542969 C 197.859375 160.359375 196.945312 159.421875 195.777344 158.949219 C 194.605469 158.476562 193.296875 158.523438 192.160156 159.074219 C 180.429688 164.730469 169.542969 156.15625 169.097656 155.800781 C 167.980469 154.886719 166.488281 154.566406 165.097656 154.945312 C 163.703125 155.324219 162.578125 156.351562 162.074219 157.703125 C 159.625 164.273438 155.933594 168.546875 151.097656 170.398438 C 145.882812 172.394531 140.148438 171.371094 136.292969 170.183594 L 157.601562 135.757812 L 204.355469 131.953125 L 220 171.046875 C 220.921875 173.34375 223.527344 174.457031 225.816406 173.539062 C 228.113281 172.621094 229.226562 170.015625 228.308594 167.722656 L 212.167969 127.386719 C 212.234375 126.878906 212.234375 126.359375 212.117188 125.832031 L 199.464844 68.53125 C 198.398438 60.285156 199.539062 54.136719 202.769531 50.742188 C 204.960938 48.441406 207.835938 47.683594 209.769531 47.445312 C 218.484375 64.527344 234.421875 125.140625 241.949219 156.167969 C 242.445312 158.214844 244.277344 159.589844 246.296875 159.589844 C 246.644531 159.589844 247 159.546875 247.351562 159.460938 C 249.753906 158.878906 251.226562 156.460938 250.644531 154.058594 C 250.285156 152.578125 246.835938 138.402344 242.082031 120.417969 C 242.234375 120.0625 242.363281 119.6875 242.417969 119.28125 L 247.585938 82.757812 C 248.847656 70.601562 252.199219 62.894531 257.285156 60.476562 C 261.128906 58.648438 265.566406 60.035156 268.167969 61.210938 L 258.289062 178.375 C 258.082031 180.835938 259.910156 183 262.371094 183.207031 C 262.5 183.21875 262.625 183.222656 262.753906 183.222656 C 265.054688 183.222656 267.007812 181.460938 267.207031 179.125 L 268.945312 158.511719 C 269.515625 158.097656 270.007812 157.5625 270.339844 156.886719 L 291.3125 114.542969 C 293.992188 110.492188 297.015625 108.269531 300.542969 107.753906 C 304.792969 107.128906 309.015625 109.097656 311.621094 110.683594 Z M 151.882812 179.539062 C 152.667969 179.328125 153.449219 179.074219 154.230469 178.777344 C 160.160156 176.527344 164.851562 172.179688 168.230469 165.820312 C 173.304688 168.535156 181.882812 171.644531 191.480469 168.882812 L 198.554688 187.933594 L 185.773438 205.140625 L 169.074219 199.84375 C 167.757812 195.253906 164.160156 186.121094 155.5 181.214844 C 154.335938 180.554688 153.132812 179.996094 151.882812 179.539062 Z M 151.882812 179.539062 " fill-opacity="1" fill-rule="nonzero">
                            </path>
                        </g>
                        <g clip-path="url(#ef1b195fa5)">
                            <path fill="#fdaf7e" d="M 106.890625 174.84375 C 106.890625 172.375 104.886719 170.371094 102.414062 170.371094 L 68.863281 170.371094 C 66.390625 170.371094 64.386719 172.375 64.386719 174.84375 C 64.386719 177.316406 66.390625 179.316406 68.863281 179.316406 L 102.414062 179.316406 C 104.886719 179.316406 106.890625 177.316406 106.890625 174.84375 Z M 106.890625 174.84375 " fill-opacity="1" fill-rule="nonzero">
                            </path>
                        </g>
                    </svg>