<svg xmlns="http://www.w3.org/2000/svg" xmlns:xlink="http://www.w3.org/1999/xlink" width="500" zoomandpan="magnify" viewbox="0 0 375 374.999991" height="500" preserveaspectratio="xMidYMid meet" version="1.0" id="1006712579" class="svg u_1006712579" data-icon-custom="true" data-icon-name="9.svg">
   <defs>
    <clippath id="579e74e352">
     <path d="M 56.175781 56.175781 L 337.425781 56.175781 L 337.425781 337.425781 L 56.175781 337.425781 Z M 56.175781 56.175781 " clip-rule="nonzero">
     </path>
    </clippath>
   </defs>
   <path fill="#ffffff" d="M 334.769531 196.875 C 334.769531 273.066406 273.003906 334.820312 196.816406 334.820312 C 120.636719 334.820312 58.871094 273.066406 58.871094 196.875 C 58.871094 120.683594 120.636719 58.929688 196.816406 58.929688 C 273.003906 58.929688 334.769531 120.683594 334.769531 196.875 " fill-opacity="1" fill-rule="nonzero">
   </path>
   <g clip-path="url(#579e74e352)">
    <path fill="#7bea47" d="M 196.824219 61.601562 C 122.238281 61.601562 61.558594 122.273438 61.558594 196.878906 C 61.558594 271.464844 122.238281 332.132812 196.824219 332.132812 C 271.402344 332.132812 332.082031 271.464844 332.082031 196.878906 C 332.082031 122.273438 271.402344 61.601562 196.824219 61.601562 Z M 196.824219 337.5 C 177.835938 337.5 159.421875 333.777344 142.078125 326.445312 C 133.746094 322.933594 125.707031 318.554688 118.191406 313.496094 C 110.746094 308.460938 103.742188 302.675781 97.382812 296.308594 C 91.019531 289.933594 85.238281 282.9375 80.210938 275.488281 C 75.132812 267.972656 70.769531 259.941406 67.242188 251.601562 C 59.910156 234.273438 56.191406 215.847656 56.191406 196.878906 C 56.191406 177.886719 59.910156 159.460938 67.242188 142.128906 C 70.769531 133.796875 75.132812 125.765625 80.210938 118.246094 C 85.238281 110.800781 91.019531 103.796875 97.382812 97.425781 C 103.742188 91.058594 110.746094 85.300781 118.191406 80.265625 C 125.707031 75.183594 133.746094 70.828125 142.078125 67.292969 C 159.421875 59.960938 177.835938 56.238281 196.824219 56.238281 C 215.804688 56.238281 234.222656 59.960938 251.5625 67.292969 C 259.894531 70.828125 267.933594 75.183594 275.449219 80.265625 C 282.894531 85.300781 289.898438 91.058594 296.265625 97.425781 C 302.621094 103.796875 308.402344 110.800781 313.433594 118.246094 C 318.515625 125.765625 322.878906 133.796875 326.398438 142.128906 C 333.734375 159.460938 337.453125 177.886719 337.453125 196.878906 C 337.453125 215.847656 333.734375 234.273438 326.398438 251.601562 C 322.878906 259.941406 318.515625 267.972656 313.433594 275.488281 C 308.402344 282.9375 302.621094 289.933594 296.265625 296.308594 C 289.898438 302.675781 282.894531 308.460938 275.449219 313.496094 C 267.933594 318.554688 259.894531 322.933594 251.5625 326.445312 C 234.222656 333.777344 215.804688 337.5 196.824219 337.5 " fill-opacity="1" fill-rule="nonzero">
    </path>
   </g>
   <path fill="#7bea47" d="M 326.171875 196.875 C 326.171875 268.125 268.414062 325.878906 197.164062 325.878906 C 125.925781 325.878906 68.167969 268.125 68.167969 196.875 C 68.167969 125.625 125.925781 67.867188 197.164062 67.867188 C 268.414062 67.867188 326.171875 125.625 326.171875 196.875 " fill-opacity="1" fill-rule="nonzero">
   </path>
   <path fill="#7bea47" d="M 197.164062 69.488281 C 126.921875 69.488281 69.777344 126.640625 69.777344 196.867188 C 69.777344 267.121094 126.921875 324.273438 197.164062 324.273438 C 267.414062 324.273438 324.558594 267.121094 324.558594 196.867188 C 324.558594 126.640625 267.414062 69.488281 197.164062 69.488281 Z M 197.164062 327.496094 C 179.535156 327.496094 162.429688 324.035156 146.328125 317.21875 C 138.585938 313.949219 131.125 309.90625 124.140625 305.191406 C 117.222656 300.519531 110.71875 295.148438 104.808594 289.238281 C 98.902344 283.328125 93.539062 276.816406 88.863281 269.902344 C 84.144531 262.917969 80.09375 255.464844 76.820312 247.710938 C 70.007812 231.625 66.554688 214.503906 66.554688 196.867188 C 66.554688 179.257812 70.007812 162.140625 76.820312 146.050781 C 80.09375 138.296875 84.144531 130.84375 88.863281 123.859375 C 93.539062 116.925781 98.902344 110.433594 104.808594 104.523438 C 110.71875 98.617188 117.222656 93.246094 124.140625 88.570312 C 131.125 83.855469 138.585938 79.8125 146.328125 76.542969 C 162.429688 69.726562 179.535156 66.269531 197.164062 66.269531 C 214.800781 66.269531 231.90625 69.726562 248.007812 76.542969 C 255.75 79.8125 263.210938 83.855469 270.195312 88.570312 C 277.113281 93.246094 283.617188 98.617188 289.527344 104.523438 C 295.433594 110.433594 300.804688 116.925781 305.472656 123.859375 C 310.191406 130.84375 314.242188 138.296875 317.515625 146.050781 C 324.328125 162.140625 327.78125 179.257812 327.78125 196.867188 C 327.78125 214.503906 324.328125 231.625 317.515625 247.710938 C 314.242188 255.464844 310.191406 262.917969 305.472656 269.902344 C 300.804688 276.816406 295.433594 283.328125 289.527344 289.238281 C 283.617188 295.148438 277.113281 300.519531 270.195312 305.191406 C 263.210938 309.90625 255.75 313.949219 248.007812 317.21875 C 231.90625 324.035156 214.800781 327.496094 197.164062 327.496094 " fill-opacity="1" fill-rule="nonzero">
   </path>
   <path fill="#ffffff" d="M 290.269531 196.878906 C 290.269531 248.285156 248.582031 289.980469 197.164062 289.980469 C 145.753906 289.980469 104.074219 248.285156 104.074219 196.878906 C 104.074219 145.449219 145.753906 103.777344 197.164062 103.777344 C 248.582031 103.777344 290.269531 145.449219 290.269531 196.878906 " fill-opacity="1" fill-rule="nonzero">
   </path>
   <path fill="#7bea47" d="M 197.164062 105.394531 C 146.726562 105.394531 105.679688 146.4375 105.679688 196.894531 C 105.679688 247.324219 146.726562 288.367188 197.164062 288.367188 C 247.617188 288.367188 288.65625 247.324219 288.65625 196.894531 C 288.65625 146.4375 247.617188 105.394531 197.164062 105.394531 Z M 197.164062 291.582031 C 184.382812 291.582031 171.984375 289.082031 160.304688 284.15625 C 149.027344 279.371094 138.898438 272.542969 130.199219 263.84375 C 121.5 255.144531 114.675781 245.035156 109.902344 233.746094 C 104.964844 222.0625 102.460938 209.660156 102.460938 196.894531 C 102.460938 184.101562 104.964844 171.699219 109.902344 160.015625 C 114.675781 148.75 121.5 138.617188 130.199219 129.914062 C 138.898438 121.21875 149.027344 114.390625 160.304688 109.625 C 171.984375 104.679688 184.382812 102.179688 197.164062 102.179688 C 209.953125 102.179688 222.351562 104.679688 234.03125 109.625 C 245.3125 114.390625 255.4375 121.21875 264.132812 129.914062 C 272.835938 138.617188 279.660156 148.75 284.433594 160.015625 C 289.371094 171.699219 291.875 184.101562 291.875 196.894531 C 291.875 209.660156 289.371094 222.0625 284.433594 233.746094 C 279.660156 245.035156 272.835938 255.144531 264.132812 263.84375 C 255.4375 272.542969 245.3125 279.371094 234.03125 284.15625 C 222.351562 289.082031 209.953125 291.582031 197.164062 291.582031 " fill-opacity="1" fill-rule="nonzero">
   </path>
   <path fill="#ffffff" d="M 150.570312 90.171875 L 147.148438 93.539062 C 145.832031 92.355469 144.285156 92.238281 142.515625 93.164062 C 140.621094 94.140625 139.972656 95.210938 140.558594 96.324219 C 140.789062 96.765625 141.160156 97.042969 141.679688 97.160156 C 142.195312 97.300781 143.136719 97.136719 144.496094 96.722656 C 146.78125 96 148.507812 95.601562 149.675781 95.488281 C 150.847656 95.371094 151.996094 95.558594 153.109375 96.066406 C 154.226562 96.601562 155.0625 97.390625 155.621094 98.460938 C 156.503906 100.132812 156.554688 101.96875 155.777344 103.941406 C 154.996094 105.890625 153.214844 107.609375 150.421875 109.078125 C 148.332031 110.164062 146.320312 110.679688 144.398438 110.582031 C 142.476562 110.492188 140.835938 109.703125 139.46875 108.261719 L 143.417969 105.011719 C 144.824219 106.496094 146.664062 106.636719 148.9375 105.429688 C 150.03125 104.871094 150.746094 104.246094 151.078125 103.570312 C 151.414062 102.917969 151.441406 102.316406 151.160156 101.78125 C 150.875 101.226562 150.40625 100.945312 149.761719 100.898438 C 149.117188 100.855469 148.035156 101.058594 146.503906 101.527344 C 143.640625 102.410156 141.4375 102.710938 139.890625 102.429688 C 138.339844 102.179688 137.136719 101.226562 136.28125 99.574219 C 135.417969 97.925781 135.347656 96.207031 136.074219 94.375 C 136.796875 92.539062 138.289062 91.054688 140.550781 89.84375 C 144.558594 87.753906 147.898438 87.847656 150.570312 90.171875 " fill-opacity="1" fill-rule="nonzero">
   </path>
   <path fill="#ffffff" d="M 164.464844 93.941406 L 169.167969 92.589844 L 164.8125 86.191406 Z M 166.878906 79.953125 L 179.589844 98.128906 L 174.007812 99.710938 L 171.453125 95.964844 L 164.289062 98.011719 L 164.085938 102.550781 L 159.53125 103.855469 L 160.867188 81.675781 L 166.878906 79.953125 " fill-opacity="1" fill-rule="nonzero">
   </path>
   <path fill="#ffffff" d="M 197.1875 79.9375 L 186.421875 80.773438 L 186.785156 85.457031 L 195.292969 84.804688 L 195.59375 88.722656 L 187.082031 89.371094 L 187.71875 97.546875 L 182.125 97.964844 L 180.507812 77.070312 L 196.867188 75.8125 L 197.1875 79.9375 " fill-opacity="1" fill-rule="nonzero">
   </path>
   <path fill="#ffffff" d="M 219.640625 81.960938 L 208.734375 80.699219 L 208.242188 84.960938 L 216.816406 85.964844 L 216.355469 89.878906 L 207.78125 88.878906 L 207.253906 93.417969 L 218.160156 94.703125 L 217.683594 98.824219 L 201.324219 96.914062 L 203.746094 76.085938 L 220.105469 78 L 219.640625 81.960938 " fill-opacity="1" fill-rule="nonzero">
   </path>
   <path fill="#ffffff" d="M 241.082031 84.082031 L 239.847656 88.035156 L 234.394531 86.335938 L 229.414062 102.394531 L 224.183594 100.769531 L 229.171875 84.707031 L 223.683594 83.007812 L 224.914062 79.050781 L 241.082031 84.082031 " fill-opacity="1" fill-rule="nonzero">
   </path>
   <path fill="#ffffff" d="M 263.050781 95.210938 L 250.917969 102.480469 L 246.730469 110.246094 L 241.984375 107.6875 L 246.171875 99.925781 L 245.535156 85.796875 L 251.058594 88.777344 L 251.167969 97.835938 L 258.78125 92.933594 L 263.050781 95.210938 " fill-opacity="1" fill-rule="nonzero">
   </path>
   <path fill="#ffffff" d="M 168.789062 296.585938 L 158.707031 292.714844 L 157.023438 297.113281 L 164.996094 300.152344 L 163.59375 303.828125 L 155.621094 300.769531 L 152.691406 308.421875 L 147.457031 306.421875 L 154.953125 286.839844 L 170.269531 292.714844 L 168.789062 296.585938 " fill-opacity="1" fill-rule="nonzero">
   </path>
   <path fill="#ffffff" d="M 179.066406 294.347656 L 174.699219 314.867188 L 169.429688 313.742188 L 173.796875 293.230469 L 179.066406 294.347656 " fill-opacity="1" fill-rule="nonzero">
   </path>
   <path fill="#ffffff" d="M 189.613281 299.472656 L 189.410156 304.828125 L 192.722656 304.941406 C 193.800781 304.980469 194.585938 304.941406 195.085938 304.828125 C 195.578125 304.699219 196.027344 304.410156 196.425781 303.953125 C 196.828125 303.488281 197.039062 302.964844 197.058594 302.351562 C 197.085938 301.753906 196.914062 301.226562 196.546875 300.746094 C 196.183594 300.285156 195.773438 299.976562 195.332031 299.847656 C 194.882812 299.734375 194.042969 299.648438 192.800781 299.605469 Z M 189.273438 308.40625 L 188.960938 316.699219 L 183.527344 316.484375 L 184.316406 295.542969 L 194.449219 295.914062 C 196.3125 296.007812 197.808594 296.25 198.925781 296.6875 C 200.042969 297.125 200.949219 297.871094 201.65625 298.96875 C 202.355469 300.042969 202.683594 301.226562 202.632812 302.523438 C 202.535156 305.027344 201.140625 306.785156 198.429688 307.773438 L 202.328125 317.207031 L 196.371094 316.988281 L 193.144531 308.539062 L 189.273438 308.40625 " fill-opacity="1" fill-rule="nonzero">
   </path>
   <path fill="#ffffff" d="M 224.199219 297.355469 L 219.929688 299.578125 C 219.023438 298.039062 217.585938 297.46875 215.617188 297.839844 C 213.515625 298.214844 212.582031 299.03125 212.808594 300.28125 C 212.90625 300.761719 213.179688 301.15625 213.632812 301.421875 C 214.089844 301.683594 215.03125 301.816406 216.457031 301.816406 C 218.851562 301.816406 220.621094 301.925781 221.773438 302.167969 C 222.925781 302.410156 223.960938 302.933594 224.871094 303.75 C 225.785156 304.582031 226.355469 305.59375 226.570312 306.777344 C 226.917969 308.625 226.429688 310.382812 225.105469 312.050781 C 223.773438 313.695312 221.5625 314.796875 218.464844 315.371094 C 216.140625 315.808594 214.074219 315.699219 212.265625 315.039062 C 210.457031 314.378906 209.117188 313.148438 208.246094 311.347656 L 212.976562 309.414062 C 213.882812 311.238281 215.597656 311.917969 218.121094 311.460938 C 219.335938 311.238281 220.203125 310.84375 220.714844 310.316406 C 221.234375 309.765625 221.441406 309.21875 221.332031 308.625 C 221.21875 308.007812 220.863281 307.59375 220.257812 307.351562 C 219.652344 307.132812 218.554688 307 216.945312 307 C 213.960938 307 211.765625 306.628906 210.367188 305.921875 C 208.964844 305.195312 208.09375 303.949219 207.761719 302.125 C 207.425781 300.300781 207.867188 298.613281 209.101562 297.09375 C 210.335938 295.558594 212.210938 294.570312 214.71875 294.085938 C 219.167969 293.277344 222.324219 294.347656 224.199219 297.355469 " fill-opacity="1" fill-rule="nonzero">
   </path>
   <path fill="#ffffff" d="M 241.703125 285.828125 L 243.238281 289.683594 L 237.933594 291.792969 L 244.160156 307.417969 L 239.078125 309.445312 L 232.847656 293.820312 L 227.511719 295.957031 L 225.976562 292.101562 L 241.703125 285.828125 " fill-opacity="1" fill-rule="nonzero">
   </path>
   <path fill="#7bea47" d="M 271.523438 176.214844 L 271.523438 217.5625 L 217.847656 217.5625 L 217.847656 271.242188 L 176.488281 271.242188 L 176.488281 217.5625 L 122.816406 217.5625 L 122.816406 176.214844 L 176.488281 176.214844 L 176.488281 122.53125 L 217.847656 122.53125 L 217.847656 176.214844 L 271.523438 176.214844 " fill-opacity="1" fill-rule="nonzero">
   </path>
   <path fill="#7bea47" d="M 178.40625 269.3125 L 215.933594 269.3125 L 215.933594 215.652344 L 269.609375 215.652344 L 269.609375 178.125 L 215.933594 178.125 L 215.933594 124.4375 L 178.40625 124.4375 L 178.40625 178.125 L 124.726562 178.125 L 124.726562 215.652344 L 178.40625 215.652344 Z M 219.757812 273.15625 L 174.578125 273.15625 L 174.578125 219.472656 L 120.902344 219.472656 L 120.902344 174.28125 L 174.578125 174.28125 L 174.578125 120.613281 L 219.757812 120.613281 L 219.757812 174.28125 L 273.433594 174.28125 L 273.433594 219.472656 L 219.757812 219.472656 L 219.757812 273.15625 " fill-opacity="1" fill-rule="nonzero">
   </path>
  </svg>