<svg xmlns="http://www.w3.org/2000/svg" xmlns:xlink="http://www.w3.org/1999/xlink" width="500" zoomandpan="magnify" viewbox="0 0 375 374.999991" height="500" preserveaspectratio="xMidYMid meet" version="1.0" id="1315684215" class="svg u_1315684215" data-icon-custom="true" data-icon-name="5.svg">
  <defs>
   <clippath id="45a0d191a3">
    <path d="M 61 266 L 311 266 L 311 337.3125 L 61 337.3125 Z M 61 266 " clip-rule="nonzero">
    </path>
   </clippath>
   <clippath id="2982b865ea">
    <path d="M 42 34.3125 L 330 34.3125 L 330 144 L 42 144 Z M 42 34.3125 " clip-rule="nonzero">
    </path>
   </clippath>
   <clippath id="b3388a9624">
    <path d="M 34.3125 266 L 337.3125 266 L 337.3125 276 L 34.3125 276 Z M 34.3125 266 " clip-rule="nonzero">
    </path>
   </clippath>
   <clippath id="d315294ab5">
    <path d="M 34.3125 133 L 337.3125 133 L 337.3125 144 L 34.3125 144 Z M 34.3125 133 " clip-rule="nonzero">
    </path>
   </clippath>
  </defs>
  <path fill="#fdaf7e" d="M 219.0625 129.054688 L 152.742188 129.054688 C 150.945312 129.054688 149.308594 128.042969 148.5 126.4375 L 129.554688 88.539062 C 128.605469 86.640625 129.035156 84.34375 130.605469 82.917969 C 132.183594 81.484375 134.507812 81.277344 136.304688 82.40625 L 169.097656 102.902344 L 181.410156 65.976562 C 182.054688 64.042969 183.863281 62.734375 185.902344 62.734375 C 187.9375 62.734375 189.746094 64.039062 190.390625 65.976562 L 202.703125 102.902344 L 235.5 82.40625 C 237.292969 81.277344 239.621094 81.484375 241.199219 82.917969 C 242.765625 84.34375 243.195312 86.640625 242.25 88.539062 L 223.300781 126.4375 C 222.496094 128.042969 220.855469 129.054688 219.0625 129.054688 Z M 155.667969 119.582031 L 216.132812 119.582031 L 226.246094 99.359375 L 202.628906 114.125 C 201.394531 114.894531 199.886719 115.058594 198.511719 114.566406 C 197.148438 114.070312 196.082031 112.984375 195.625 111.605469 L 185.90625 82.453125 L 176.183594 111.605469 C 175.726562 112.984375 174.664062 114.070312 173.300781 114.566406 C 171.929688 115.058594 170.421875 114.894531 169.183594 114.125 L 145.566406 99.359375 L 155.679688 119.582031 Z M 155.667969 119.582031 " fill-opacity="1" fill-rule="nonzero">
  </path>
  <path fill="#fdaf7e" d="M 185.902344 72.210938 C 180.675781 72.210938 176.425781 67.960938 176.425781 62.734375 C 176.425781 57.511719 180.675781 53.261719 185.902344 53.261719 C 191.125 53.261719 195.375 57.511719 195.375 62.734375 C 195.375 67.960938 191.125 72.210938 185.902344 72.210938 Z M 185.902344 62.734375 Z M 185.902344 62.734375 Z M 185.902344 62.734375 Z M 185.902344 62.734375 Z M 185.902344 62.734375 Z M 185.902344 62.734375 Z M 185.902344 62.734375 Z M 185.902344 62.734375 Z M 185.902344 62.734375 " fill-opacity="1" fill-rule="nonzero">
  </path>
  <path fill="#fdaf7e" d="M 133.792969 95.894531 C 128.566406 95.894531 124.320312 91.648438 124.320312 86.421875 C 124.320312 81.195312 128.566406 76.949219 133.792969 76.949219 C 139.019531 76.949219 143.265625 81.195312 143.265625 86.421875 C 143.265625 91.648438 139.019531 95.894531 133.792969 95.894531 Z M 133.792969 86.421875 Z M 133.792969 86.421875 Z M 133.792969 86.421875 Z M 133.792969 86.421875 Z M 133.792969 86.421875 Z M 133.792969 86.421875 Z M 133.792969 86.421875 Z M 133.792969 86.421875 Z M 133.792969 86.421875 " fill-opacity="1" fill-rule="nonzero">
  </path>
  <path fill="#fdaf7e" d="M 238.007812 95.894531 C 232.785156 95.894531 228.535156 91.648438 228.535156 86.421875 C 228.535156 81.195312 232.785156 76.949219 238.007812 76.949219 C 243.234375 76.949219 247.484375 81.195312 247.484375 86.421875 C 247.484375 91.648438 243.234375 95.894531 238.007812 95.894531 Z M 238.007812 86.421875 Z M 238.007812 86.421875 Z M 238.007812 86.421875 Z M 238.007812 86.421875 Z M 238.007812 86.421875 Z M 238.007812 86.421875 Z M 238.007812 86.421875 Z M 238.007812 86.421875 Z M 238.007812 86.421875 " fill-opacity="1" fill-rule="nonzero">
  </path>
  <g clip-path="url(#45a0d191a3)">
   <path fill="#fdaf7e" d="M 185.902344 337.488281 C 137.046875 337.488281 90.902344 313.722656 62.476562 273.921875 C 60.953125 271.792969 61.449219 268.832031 63.574219 267.3125 C 65.703125 265.792969 68.65625 266.285156 70.183594 268.414062 C 96.839844 305.730469 140.097656 328.011719 185.902344 328.011719 C 231.703125 328.011719 274.964844 305.730469 301.621094 268.414062 C 303.140625 266.285156 306.101562 265.792969 308.226562 267.3125 C 310.355469 268.828125 310.851562 271.789062 309.328125 273.921875 C 280.898438 313.722656 234.761719 337.488281 185.902344 337.488281 Z M 185.902344 337.488281 " fill-opacity="1" fill-rule="nonzero">
   </path>
  </g>
  <g clip-path="url(#2982b865ea)">
   <path fill="#fdaf7e" d="M 324.945312 143.265625 C 322.972656 143.265625 321.132812 142.027344 320.464844 140.054688 C 300.847656 82.476562 246.773438 43.789062 185.902344 43.789062 C 125.027344 43.789062 70.953125 82.476562 51.34375 140.054688 C 50.5 142.53125 47.8125 143.855469 45.332031 143.015625 C 42.859375 142.171875 41.527344 139.476562 42.375 137.003906 C 63.296875 75.578125 120.972656 34.3125 185.902344 34.3125 C 250.828125 34.3125 308.507812 75.578125 329.425781 137.003906 C 330.273438 139.476562 328.941406 142.171875 326.46875 143.015625 C 325.96875 143.1875 325.445312 143.273438 324.945312 143.273438 Z M 324.945312 143.265625 " fill-opacity="1" fill-rule="nonzero">
   </path>
  </g>
  <g clip-path="url(#b3388a9624)">
   <path fill="#fdaf7e" d="M 332.75 275.90625 L 39.050781 275.90625 C 36.429688 275.90625 34.3125 273.789062 34.3125 271.167969 C 34.3125 268.550781 36.429688 266.433594 39.050781 266.433594 L 332.75 266.433594 C 335.371094 266.433594 337.488281 268.550781 337.488281 271.167969 C 337.488281 273.789062 335.371094 275.90625 332.75 275.90625 Z M 332.75 275.90625 " fill-opacity="1" fill-rule="nonzero">
   </path>
  </g>
  <g clip-path="url(#d315294ab5)">
   <path fill="#fdaf7e" d="M 332.75 143.265625 L 39.050781 143.265625 C 36.429688 143.265625 34.3125 141.144531 34.3125 138.53125 C 34.3125 135.914062 36.429688 133.792969 39.050781 133.792969 L 332.75 133.792969 C 335.371094 133.792969 337.488281 135.914062 337.488281 138.53125 C 337.488281 141.144531 335.371094 143.265625 332.75 143.265625 Z M 332.75 143.265625 " fill-opacity="1" fill-rule="nonzero">
   </path>
  </g>
  <path fill="#fdaf7e" d="M 214.324219 252.222656 L 204.851562 252.222656 C 197.015625 252.222656 190.636719 245.84375 190.636719 238.007812 L 190.636719 219.0625 C 190.636719 216.441406 192.753906 214.324219 195.375 214.324219 C 197.996094 214.324219 200.113281 216.441406 200.113281 219.0625 L 200.113281 238.007812 C 200.113281 240.625 202.234375 242.746094 204.851562 242.746094 L 214.324219 242.746094 C 216.945312 242.746094 219.0625 244.863281 219.0625 247.484375 C 219.0625 250.101562 216.945312 252.222656 214.324219 252.222656 Z M 214.324219 252.222656 " fill-opacity="1" fill-rule="nonzero">
  </path>
  <path fill="#fdaf7e" d="M 228.535156 252.222656 C 225.914062 252.222656 223.796875 250.101562 223.796875 247.484375 L 223.796875 219.0625 C 223.796875 216.441406 225.914062 214.324219 228.535156 214.324219 C 231.15625 214.324219 233.273438 216.441406 233.273438 219.0625 L 233.273438 247.484375 C 233.273438 250.101562 231.15625 252.222656 228.535156 252.222656 Z M 228.535156 252.222656 " fill-opacity="1" fill-rule="nonzero">
  </path>
  <path fill="#fdaf7e" d="M 290.117188 242.746094 C 282.28125 242.746094 275.90625 236.371094 275.90625 228.535156 L 275.90625 219.0625 C 275.90625 216.441406 278.023438 214.324219 280.644531 214.324219 C 283.261719 214.324219 285.378906 216.441406 285.378906 219.0625 L 285.378906 228.535156 C 285.378906 231.148438 287.503906 233.273438 290.117188 233.273438 C 292.734375 233.273438 294.855469 231.148438 294.855469 228.535156 L 294.855469 219.0625 C 294.855469 216.441406 296.972656 214.324219 299.59375 214.324219 C 302.210938 214.324219 304.328125 216.441406 304.328125 219.0625 L 304.328125 228.535156 C 304.328125 236.371094 297.953125 242.746094 290.117188 242.746094 Z M 290.117188 242.746094 " fill-opacity="1" fill-rule="nonzero">
  </path>
  <path fill="#fdaf7e" d="M 290.117188 252.222656 C 287.5 252.222656 285.378906 250.101562 285.378906 247.484375 L 285.378906 238.007812 C 285.378906 235.390625 287.5 233.273438 290.117188 233.273438 C 292.738281 233.273438 294.855469 235.390625 294.855469 238.007812 L 294.855469 247.484375 C 294.855469 250.101562 292.738281 252.222656 290.117188 252.222656 Z M 290.117188 252.222656 " fill-opacity="1" fill-rule="nonzero">
  </path>
  <path fill="#fdaf7e" d="M 256.957031 252.222656 C 254.339844 252.222656 252.222656 250.101562 252.222656 247.484375 L 252.222656 219.0625 C 252.222656 216.441406 254.339844 214.324219 256.957031 214.324219 C 259.578125 214.324219 261.695312 216.441406 261.695312 219.0625 L 261.695312 247.484375 C 261.695312 250.101562 259.578125 252.222656 256.957031 252.222656 Z M 256.957031 252.222656 " fill-opacity="1" fill-rule="nonzero">
  </path>
  <path fill="#fdaf7e" d="M 266.433594 223.796875 L 247.484375 223.796875 C 244.863281 223.796875 242.746094 221.679688 242.746094 219.0625 C 242.746094 216.441406 244.863281 214.324219 247.484375 214.324219 L 266.433594 214.324219 C 269.050781 214.324219 271.167969 216.441406 271.167969 219.0625 C 271.167969 221.679688 269.050781 223.796875 266.433594 223.796875 Z M 266.433594 223.796875 " fill-opacity="1" fill-rule="nonzero">
  </path>
  <path fill="#fdaf7e" d="M 176.425781 252.222656 C 173.808594 252.222656 171.691406 250.101562 171.691406 247.484375 L 171.691406 228.535156 C 171.691406 225.921875 169.566406 223.796875 166.953125 223.796875 C 164.335938 223.796875 162.214844 225.921875 162.214844 228.535156 L 162.214844 247.484375 C 162.214844 250.101562 160.097656 252.222656 157.476562 252.222656 C 154.859375 252.222656 152.742188 250.101562 152.742188 247.484375 L 152.742188 228.535156 C 152.742188 220.699219 159.117188 214.324219 166.953125 214.324219 C 174.789062 214.324219 181.164062 220.699219 181.164062 228.535156 L 181.164062 247.484375 C 181.164062 250.101562 179.046875 252.222656 176.425781 252.222656 Z M 176.425781 252.222656 " fill-opacity="1" fill-rule="nonzero">
  </path>
  <path fill="#fdaf7e" d="M 176.425781 242.746094 L 157.476562 242.746094 C 154.859375 242.746094 152.742188 240.628906 152.742188 238.007812 C 152.742188 235.390625 154.859375 233.273438 157.476562 233.273438 L 176.425781 233.273438 C 179.046875 233.273438 181.164062 235.390625 181.164062 238.007812 C 181.164062 240.628906 179.046875 242.746094 176.425781 242.746094 Z M 176.425781 242.746094 " fill-opacity="1" fill-rule="nonzero">
  </path>
  <path fill="#fdaf7e" d="M 129.054688 252.222656 C 121.21875 252.222656 114.84375 245.84375 114.84375 238.007812 L 114.84375 219.0625 C 114.84375 216.441406 116.960938 214.324219 119.582031 214.324219 C 122.199219 214.324219 124.320312 216.441406 124.320312 219.0625 L 124.320312 238.007812 C 124.320312 240.625 126.441406 242.746094 129.054688 242.746094 C 131.671875 242.746094 133.792969 240.625 133.792969 238.007812 L 133.792969 219.0625 C 133.792969 216.441406 135.910156 214.324219 138.53125 214.324219 C 141.148438 214.324219 143.265625 216.441406 143.265625 219.0625 L 143.265625 238.007812 C 143.265625 245.84375 136.890625 252.222656 129.054688 252.222656 Z M 129.054688 252.222656 " fill-opacity="1" fill-rule="nonzero">
  </path>
  <path fill="#fdaf7e" d="M 86.421875 252.222656 C 75.972656 252.222656 67.472656 243.722656 67.472656 233.273438 C 67.472656 222.820312 75.972656 214.324219 86.421875 214.324219 C 96.871094 214.324219 105.371094 222.820312 105.371094 233.273438 C 105.371094 243.722656 96.871094 252.222656 86.421875 252.222656 Z M 86.421875 223.796875 C 81.195312 223.796875 76.949219 228.046875 76.949219 233.273438 C 76.949219 238.496094 81.195312 242.746094 86.421875 242.746094 C 91.648438 242.746094 95.894531 238.496094 95.894531 233.273438 C 95.894531 228.046875 91.648438 223.796875 86.421875 223.796875 Z M 86.421875 223.796875 " fill-opacity="1" fill-rule="nonzero">
  </path>
  <path fill="#fdaf7e" d="M 100.632812 252.222656 C 99.421875 252.222656 98.207031 251.757812 97.285156 250.832031 L 92.546875 246.097656 C 90.695312 244.242188 90.695312 241.25 92.546875 239.398438 C 94.398438 237.546875 97.394531 237.546875 99.246094 239.398438 L 103.980469 244.132812 C 105.835938 245.988281 105.835938 248.980469 103.980469 250.832031 C 103.058594 251.757812 101.84375 252.222656 100.632812 252.222656 Z M 100.632812 252.222656 " fill-opacity="1" fill-rule="nonzero">
  </path>
  <path fill="#fdaf7e" d="M 143.265625 204.847656 C 140.648438 204.847656 138.53125 202.730469 138.53125 200.113281 L 138.53125 162.214844 C 138.53125 159.601562 140.648438 157.476562 143.265625 157.476562 C 145.886719 157.476562 148.003906 159.601562 148.003906 162.214844 L 148.003906 200.113281 C 148.003906 202.730469 145.886719 204.847656 143.265625 204.847656 Z M 143.265625 204.847656 " fill-opacity="1" fill-rule="nonzero">
  </path>
  <path fill="#fdaf7e" d="M 119.582031 204.847656 C 116.960938 204.847656 114.84375 202.730469 114.84375 200.113281 L 114.84375 162.214844 C 114.84375 159.601562 116.960938 157.476562 119.582031 157.476562 C 122.199219 157.476562 124.320312 159.601562 124.320312 162.214844 L 124.320312 200.113281 C 124.320312 202.730469 122.199219 204.847656 119.582031 204.847656 Z M 119.582031 204.847656 " fill-opacity="1" fill-rule="nonzero">
  </path>
  <path fill="#fdaf7e" d="M 143.265625 185.902344 L 119.582031 185.902344 C 116.960938 185.902344 114.84375 183.777344 114.84375 181.164062 C 114.84375 178.550781 116.960938 176.425781 119.582031 176.425781 L 143.265625 176.425781 C 145.886719 176.425781 148.003906 178.550781 148.003906 181.164062 C 148.003906 183.777344 145.886719 185.902344 143.265625 185.902344 Z M 143.265625 185.902344 " fill-opacity="1" fill-rule="nonzero">
  </path>
  <path fill="#fdaf7e" d="M 252.222656 204.847656 C 249.601562 204.847656 247.484375 202.730469 247.484375 200.113281 L 247.484375 162.214844 C 247.484375 159.601562 249.601562 157.476562 252.222656 157.476562 C 254.839844 157.476562 256.957031 159.601562 256.957031 162.214844 L 256.957031 200.113281 C 256.957031 202.730469 254.839844 204.847656 252.222656 204.847656 Z M 252.222656 204.847656 " fill-opacity="1" fill-rule="nonzero">
  </path>
  <path fill="#fdaf7e" d="M 228.535156 204.847656 C 225.914062 204.847656 223.796875 202.730469 223.796875 200.113281 L 223.796875 162.214844 C 223.796875 159.601562 225.914062 157.476562 228.535156 157.476562 C 231.15625 157.476562 233.273438 159.601562 233.273438 162.214844 L 233.273438 200.113281 C 233.273438 202.730469 231.15625 204.847656 228.535156 204.847656 Z M 228.535156 204.847656 " fill-opacity="1" fill-rule="nonzero">
  </path>
  <path fill="#fdaf7e" d="M 252.222656 185.902344 L 228.535156 185.902344 C 225.914062 185.902344 223.796875 183.777344 223.796875 181.164062 C 223.796875 178.550781 225.914062 176.425781 228.535156 176.425781 L 252.222656 176.425781 C 254.839844 176.425781 256.957031 178.550781 256.957031 181.164062 C 256.957031 183.777344 254.839844 185.902344 252.222656 185.902344 Z M 252.222656 185.902344 " fill-opacity="1" fill-rule="nonzero">
  </path>
  <path fill="#fdaf7e" d="M 162.214844 204.847656 C 159.597656 204.847656 157.476562 202.730469 157.476562 200.113281 L 157.476562 162.214844 C 157.476562 159.601562 159.597656 157.476562 162.214844 157.476562 C 164.835938 157.476562 166.953125 159.601562 166.953125 162.214844 L 166.953125 200.113281 C 166.953125 202.730469 164.835938 204.847656 162.214844 204.847656 Z M 162.214844 204.847656 " fill-opacity="1" fill-rule="nonzero">
  </path>
  <path fill="#fdaf7e" d="M 195.375 204.847656 C 184.925781 204.847656 176.425781 196.351562 176.425781 185.902344 L 176.425781 176.425781 C 176.425781 165.976562 184.925781 157.476562 195.375 157.476562 C 200.757812 157.476562 205.902344 159.777344 209.492188 163.789062 C 211.238281 165.734375 211.078125 168.730469 209.132812 170.476562 C 207.179688 172.21875 204.191406 172.058594 202.441406 170.113281 C 200.636719 168.105469 198.066406 166.953125 195.375 166.953125 C 190.148438 166.953125 185.902344 171.203125 185.902344 176.425781 L 185.902344 185.902344 C 185.902344 191.125 190.148438 195.375 195.375 195.375 C 200.601562 195.375 204.851562 191.125 204.851562 185.902344 C 202.230469 185.902344 200.113281 183.777344 200.113281 181.164062 C 200.113281 178.550781 202.230469 176.425781 204.851562 176.425781 L 209.585938 176.425781 C 212.207031 176.425781 214.324219 178.550781 214.324219 181.164062 L 214.324219 185.902344 C 214.324219 196.351562 205.824219 204.847656 195.375 204.847656 Z M 195.375 204.847656 " fill-opacity="1" fill-rule="nonzero">
  </path>
 </svg>