<svg xmlns="http://www.w3.org/2000/svg" xmlns:xlink="http://www.w3.org/1999/xlink" width="500" zoomandpan="magnify" viewbox="0 0 375 374.999991" height="500" preserveaspectratio="xMidYMid meet" version="1.0" id="1046340170" class="svg u_1046340170" data-icon-custom="true" data-icon-name="7.svg">
  <defs>
   <clippath id="c68994a7fd">
    <path d="M 36.089844 37.5 L 337.394531 37.5 L 337.394531 336 L 36.089844 336 Z M 36.089844 37.5 " clip-rule="nonzero">
    </path>
   </clippath>
  </defs>
  <g clip-path="url(#c68994a7fd)">
   <path fill="#7bea47" d="M 337.394531 186.753906 C 337.394531 193.890625 330.914062 200.484375 329.9375 207.347656 C 328.933594 214.382812 333.285156 222.527344 331.328125 229.207031 C 329.335938 236.003906 321.257812 240.503906 318.351562 246.855469 C 315.414062 253.277344 317.285156 262.324219 313.492188 268.210938 C 309.679688 274.136719 300.660156 276.175781 296.0625 281.480469 C 291.457031 286.792969 290.710938 296.003906 285.398438 300.613281 C 280.097656 305.210938 270.871094 304.644531 264.949219 308.460938 C 259.0625 312.25 255.761719 320.886719 249.339844 323.824219 C 242.988281 326.730469 234.304688 323.589844 227.507812 325.582031 C 220.828125 327.539062 215.21875 334.890625 208.183594 335.890625 C 201.316406 336.871094 193.875 331.40625 186.742188 331.40625 C 179.605469 331.40625 172.164062 336.871094 165.300781 335.890625 C 158.265625 334.890625 152.65625 327.539062 145.976562 325.582031 C 139.179688 323.589844 130.496094 326.730469 124.144531 323.824219 C 117.722656 320.886719 114.421875 312.25 108.535156 308.457031 C 102.609375 304.644531 93.386719 305.210938 88.082031 300.613281 C 82.769531 296.003906 82.027344 286.789062 77.417969 281.480469 C 72.820312 276.175781 63.804688 274.136719 59.988281 268.210938 C 56.199219 262.324219 58.066406 253.277344 55.128906 246.855469 C 52.226562 240.503906 44.148438 236.003906 42.15625 229.207031 C 40.195312 222.527344 44.550781 214.382812 43.546875 207.347656 C 42.570312 200.484375 36.089844 193.890625 36.089844 186.753906 C 36.089844 179.617188 42.570312 173.023438 43.546875 166.160156 C 44.550781 159.125 40.195312 150.980469 42.15625 144.300781 C 44.148438 137.503906 52.226562 133.003906 55.128906 126.652344 C 58.066406 120.234375 56.199219 111.183594 59.988281 105.296875 C 63.804688 99.375 72.820312 97.332031 77.417969 92.03125 C 82.027344 86.71875 82.773438 77.503906 88.082031 72.898438 C 93.386719 68.300781 102.609375 68.863281 108.535156 65.050781 C 114.421875 61.257812 117.722656 52.621094 124.144531 49.683594 C 130.496094 46.777344 139.179688 49.921875 145.976562 47.929688 C 152.65625 45.96875 158.265625 38.621094 165.300781 37.617188 C 172.164062 36.636719 179.605469 42.105469 186.742188 42.105469 C 193.875 42.105469 201.316406 36.636719 208.183594 37.617188 C 215.21875 38.621094 220.828125 45.96875 227.507812 47.929688 C 234.304688 49.921875 242.988281 46.777344 249.339844 49.683594 C 255.761719 52.621094 259.0625 61.257812 264.949219 65.050781 C 270.871094 68.863281 280.097656 68.300781 285.398438 72.898438 C 290.710938 77.503906 291.457031 86.71875 296.0625 92.03125 C 300.660156 97.332031 309.679688 99.375 313.492188 105.296875 C 317.285156 111.183594 315.414062 120.234375 318.351562 126.652344 C 321.257812 133.003906 329.335938 137.503906 331.328125 144.300781 C 333.285156 150.980469 328.933594 159.125 329.9375 166.160156 C 330.914062 173.023438 337.394531 179.617188 337.394531 186.753906 " fill-opacity="1" fill-rule="nonzero">
   </path>
  </g>
  <path fill="#ffffff" d="M 186.742188 55.933594 C 169.082031 55.933594 151.945312 59.390625 135.820312 66.210938 C 120.242188 72.800781 106.25 82.234375 94.234375 94.25 C 82.21875 106.261719 72.785156 120.253906 66.199219 135.832031 C 59.375 151.960938 55.917969 169.09375 55.917969 186.753906 C 55.917969 204.417969 59.375 221.550781 66.199219 237.675781 C 72.785156 253.253906 82.21875 267.246094 94.234375 279.261719 C 106.25 291.277344 120.242188 300.707031 135.820312 307.296875 C 151.945312 314.117188 169.082031 317.578125 186.742188 317.578125 C 204.402344 317.578125 221.535156 314.117188 237.664062 307.296875 C 253.242188 300.707031 267.234375 291.277344 279.246094 279.261719 C 291.261719 267.246094 300.695312 253.253906 307.285156 237.675781 C 314.105469 221.550781 317.566406 204.417969 317.566406 186.753906 C 317.566406 169.09375 314.105469 151.960938 307.285156 135.832031 C 300.695312 120.253906 291.261719 106.261719 279.246094 94.25 C 267.234375 82.234375 253.242188 72.800781 237.664062 66.210938 C 221.535156 59.390625 204.402344 55.933594 186.742188 55.933594 Z M 186.742188 320.792969 C 168.648438 320.792969 151.09375 317.25 134.566406 310.257812 C 118.605469 303.507812 104.273438 293.84375 91.960938 281.535156 C 79.652344 269.226562 69.988281 254.890625 63.238281 238.929688 C 56.25 222.402344 52.703125 204.847656 52.703125 186.753906 C 52.703125 168.660156 56.25 151.105469 63.238281 134.582031 C 69.988281 118.621094 79.652344 104.285156 91.960938 91.976562 C 104.273438 79.667969 118.605469 70.003906 134.566406 63.25 C 151.09375 56.261719 168.648438 52.71875 186.742188 52.71875 C 204.835938 52.71875 222.390625 56.261719 238.914062 63.25 C 254.875 70.003906 269.210938 79.667969 281.519531 91.976562 C 293.828125 104.285156 303.492188 118.621094 310.246094 134.582031 C 317.234375 151.105469 320.78125 168.660156 320.78125 186.753906 C 320.78125 204.847656 317.234375 222.402344 310.246094 238.929688 C 303.492188 254.890625 293.828125 269.226562 281.519531 281.535156 C 269.210938 293.84375 254.875 303.507812 238.914062 310.257812 C 222.390625 317.25 204.835938 320.792969 186.742188 320.792969 " fill-opacity="1" fill-rule="nonzero">
  </path>
  <path fill="#ffffff" d="M 186.742188 98.832031 C 174.871094 98.832031 163.355469 101.160156 152.519531 105.742188 C 142.050781 110.171875 132.648438 116.511719 124.570312 124.585938 C 116.496094 132.660156 110.15625 142.0625 105.730469 152.53125 C 101.144531 163.371094 98.820312 174.886719 98.820312 186.753906 C 98.820312 198.625 101.144531 210.140625 105.730469 220.976562 C 110.15625 231.445312 116.496094 240.847656 124.570312 248.925781 C 132.648438 257 142.050781 263.339844 152.519531 267.765625 C 163.355469 272.351562 174.871094 274.675781 186.742188 274.675781 C 198.613281 274.675781 210.125 272.351562 220.964844 267.765625 C 231.433594 263.339844 240.835938 257 248.910156 248.925781 C 256.984375 240.847656 263.324219 231.445312 267.753906 220.976562 C 272.339844 210.140625 274.664062 198.625 274.664062 186.753906 C 274.664062 174.886719 272.339844 163.371094 267.753906 152.53125 C 263.324219 142.0625 256.984375 132.660156 248.910156 124.585938 C 240.835938 116.511719 231.433594 110.171875 220.964844 105.742188 C 210.125 101.160156 198.613281 98.832031 186.742188 98.832031 Z M 186.742188 278.007812 C 174.421875 278.007812 162.472656 275.59375 151.222656 270.835938 C 140.355469 266.238281 130.59375 259.660156 122.214844 251.28125 C 113.835938 242.902344 107.257812 233.140625 102.660156 222.273438 C 97.902344 211.023438 95.488281 199.074219 95.488281 186.753906 C 95.488281 174.4375 97.902344 162.484375 102.660156 151.234375 C 107.257812 140.367188 113.835938 130.609375 122.214844 122.230469 C 130.59375 113.851562 140.355469 107.269531 151.222656 102.675781 C 162.472656 97.914062 174.421875 95.503906 186.742188 95.503906 C 199.058594 95.503906 211.011719 97.914062 222.261719 102.675781 C 233.128906 107.269531 242.886719 113.851562 251.265625 122.230469 C 259.648438 130.609375 266.226562 140.367188 270.824219 151.234375 C 275.582031 162.484375 277.996094 174.4375 277.996094 186.753906 C 277.996094 199.074219 275.582031 211.023438 270.824219 222.273438 C 266.226562 233.140625 259.648438 242.902344 251.265625 251.28125 C 242.886719 259.660156 233.128906 266.238281 222.261719 270.835938 C 211.011719 275.59375 199.058594 278.007812 186.742188 278.007812 " fill-opacity="1" fill-rule="nonzero">
  </path>
  <path fill="#ffffff" d="M 281.910156 137.386719 C 281.753906 137.386719 281.59375 137.371094 281.4375 137.339844 C 281.285156 137.308594 281.132812 137.261719 280.984375 137.199219 C 280.839844 137.140625 280.699219 137.066406 280.570312 136.980469 C 280.4375 136.890625 280.3125 136.789062 280.203125 136.679688 C 280.089844 136.566406 279.988281 136.445312 279.902344 136.3125 C 279.8125 136.179688 279.738281 136.039062 279.679688 135.894531 C 279.617188 135.75 279.570312 135.597656 279.539062 135.441406 C 279.511719 135.285156 279.492188 135.125 279.492188 134.96875 C 279.492188 134.335938 279.753906 133.710938 280.203125 133.261719 C 280.3125 133.148438 280.4375 133.046875 280.570312 132.960938 C 280.699219 132.875 280.839844 132.796875 280.984375 132.738281 C 281.132812 132.679688 281.285156 132.632812 281.4375 132.601562 C 281.75 132.539062 282.070312 132.539062 282.382812 132.601562 C 282.535156 132.632812 282.6875 132.679688 282.835938 132.738281 C 282.980469 132.796875 283.121094 132.875 283.25 132.960938 C 283.382812 133.046875 283.507812 133.148438 283.617188 133.261719 C 284.066406 133.710938 284.328125 134.335938 284.328125 134.96875 C 284.328125 135.125 284.308594 135.285156 284.28125 135.441406 C 284.25 135.597656 284.203125 135.75 284.144531 135.894531 C 284.082031 136.039062 284.007812 136.179688 283.921875 136.3125 C 283.832031 136.445312 283.730469 136.566406 283.617188 136.679688 C 283.507812 136.789062 283.382812 136.890625 283.25 136.980469 C 283.121094 137.066406 282.980469 137.140625 282.835938 137.199219 C 282.6875 137.261719 282.535156 137.308594 282.382812 137.339844 C 282.226562 137.371094 282.066406 137.386719 281.910156 137.386719 " fill-opacity="1" fill-rule="nonzero">
  </path>
  <path fill="#ffffff" d="M 291.609375 169.113281 C 291.371094 167.800781 292.246094 166.542969 293.558594 166.304688 C 294.871094 166.070312 296.128906 166.941406 296.363281 168.257812 C 296.601562 169.570312 295.726562 170.828125 294.414062 171.0625 C 294.269531 171.089844 294.125 171.101562 293.984375 171.101562 C 292.835938 171.101562 291.820312 170.28125 291.609375 169.113281 Z M 294.121094 206.890625 C 292.796875 206.6875 291.890625 205.457031 292.089844 204.136719 C 292.289062 202.816406 293.519531 201.910156 294.839844 202.105469 C 296.160156 202.308594 297.070312 203.539062 296.871094 204.859375 C 296.691406 206.058594 295.660156 206.917969 294.484375 206.917969 C 294.363281 206.917969 294.242188 206.90625 294.121094 206.890625 " fill-opacity="1" fill-rule="nonzero">
  </path>
  <path fill="#ffffff" d="M 283.347656 240.957031 C 283.191406 240.957031 283.03125 240.941406 282.875 240.910156 C 282.722656 240.875 282.570312 240.832031 282.421875 240.769531 C 282.277344 240.710938 282.136719 240.636719 282.007812 240.550781 C 281.875 240.460938 281.75 240.359375 281.640625 240.25 C 281.191406 239.796875 280.929688 239.175781 280.929688 238.539062 C 280.929688 238.382812 280.949219 238.222656 280.980469 238.066406 C 281.007812 237.910156 281.054688 237.761719 281.117188 237.613281 C 281.175781 237.46875 281.25 237.328125 281.339844 237.195312 C 281.425781 237.066406 281.527344 236.941406 281.640625 236.832031 C 281.75 236.71875 281.875 236.617188 282.007812 236.527344 C 282.136719 236.441406 282.277344 236.367188 282.421875 236.304688 C 282.570312 236.246094 282.722656 236.199219 282.875 236.167969 C 283.1875 236.105469 283.507812 236.105469 283.820312 236.167969 C 283.972656 236.199219 284.125 236.246094 284.273438 236.304688 C 284.417969 236.367188 284.558594 236.441406 284.6875 236.527344 C 284.820312 236.617188 284.945312 236.71875 285.054688 236.832031 C 285.167969 236.941406 285.269531 237.066406 285.355469 237.195312 C 285.445312 237.328125 285.519531 237.46875 285.578125 237.613281 C 285.640625 237.761719 285.6875 237.910156 285.714844 238.066406 C 285.746094 238.222656 285.765625 238.382812 285.765625 238.539062 C 285.765625 239.175781 285.503906 239.796875 285.054688 240.25 C 284.945312 240.359375 284.820312 240.460938 284.6875 240.550781 C 284.558594 240.636719 284.417969 240.710938 284.273438 240.769531 C 284.125 240.832031 283.972656 240.875 283.820312 240.910156 C 283.664062 240.941406 283.503906 240.957031 283.347656 240.957031 " fill-opacity="1" fill-rule="nonzero">
  </path>
  <path fill="#ffffff" d="M 90.132812 240.957031 C 89.976562 240.957031 89.816406 240.941406 89.660156 240.910156 C 89.507812 240.875 89.355469 240.832031 89.210938 240.769531 C 89.0625 240.710938 88.921875 240.636719 88.792969 240.550781 C 88.660156 240.460938 88.535156 240.359375 88.425781 240.25 C 87.976562 239.796875 87.714844 239.175781 87.714844 238.539062 C 87.714844 238.382812 87.734375 238.222656 87.765625 238.066406 C 87.796875 237.910156 87.839844 237.761719 87.902344 237.613281 C 87.960938 237.46875 88.035156 237.328125 88.125 237.195312 C 88.210938 237.066406 88.3125 236.941406 88.425781 236.832031 C 88.535156 236.71875 88.660156 236.617188 88.792969 236.527344 C 88.921875 236.441406 89.0625 236.367188 89.210938 236.304688 C 89.355469 236.246094 89.507812 236.199219 89.660156 236.167969 C 89.972656 236.105469 90.292969 236.105469 90.605469 236.167969 C 90.761719 236.199219 90.910156 236.246094 91.058594 236.304688 C 91.203125 236.367188 91.34375 236.441406 91.476562 236.527344 C 91.605469 236.617188 91.730469 236.71875 91.84375 236.832031 C 91.953125 236.941406 92.054688 237.066406 92.144531 237.195312 C 92.230469 237.328125 92.304688 237.46875 92.367188 237.613281 C 92.425781 237.761719 92.472656 237.910156 92.503906 238.066406 C 92.535156 238.222656 92.550781 238.382812 92.550781 238.539062 C 92.550781 239.175781 92.292969 239.796875 91.84375 240.25 C 91.730469 240.359375 91.605469 240.460938 91.476562 240.550781 C 91.34375 240.636719 91.203125 240.710938 91.058594 240.769531 C 90.910156 240.832031 90.761719 240.875 90.605469 240.910156 C 90.449219 240.941406 90.292969 240.957031 90.132812 240.957031 " fill-opacity="1" fill-rule="nonzero">
  </path>
  <path fill="#ffffff" d="M 79.066406 171.0625 C 77.753906 170.828125 76.878906 169.574219 77.113281 168.257812 C 77.351562 166.945312 78.609375 166.070312 79.921875 166.308594 C 81.234375 166.542969 82.109375 167.800781 81.871094 169.113281 C 81.664062 170.28125 80.644531 171.105469 79.496094 171.105469 C 79.355469 171.105469 79.214844 171.09375 79.066406 171.0625 Z M 76.613281 204.859375 C 76.414062 203.542969 77.320312 202.308594 78.640625 202.109375 C 79.960938 201.910156 81.191406 202.820312 81.390625 204.140625 C 81.589844 205.460938 80.683594 206.691406 79.363281 206.890625 C 79.238281 206.910156 79.117188 206.917969 78.996094 206.917969 C 77.824219 206.917969 76.792969 206.058594 76.613281 204.859375 " fill-opacity="1" fill-rule="nonzero">
  </path>
  <path fill="#ffffff" d="M 91.570312 137.386719 C 90.933594 137.386719 90.3125 137.128906 89.863281 136.679688 C 89.75 136.566406 89.652344 136.445312 89.5625 136.3125 C 89.472656 136.179688 89.398438 136.039062 89.339844 135.894531 C 89.277344 135.75 89.234375 135.597656 89.199219 135.441406 C 89.171875 135.285156 89.152344 135.125 89.152344 134.96875 C 89.152344 134.8125 89.171875 134.652344 89.199219 134.496094 C 89.234375 134.34375 89.277344 134.191406 89.339844 134.046875 C 89.398438 133.898438 89.472656 133.757812 89.5625 133.628906 C 89.652344 133.496094 89.75 133.371094 89.863281 133.261719 C 89.972656 133.148438 90.097656 133.046875 90.230469 132.960938 C 90.359375 132.875 90.5 132.796875 90.648438 132.738281 C 90.792969 132.679688 90.945312 132.632812 91.097656 132.601562 C 91.410156 132.539062 91.730469 132.539062 92.042969 132.601562 C 92.195312 132.632812 92.347656 132.679688 92.496094 132.738281 C 92.640625 132.796875 92.78125 132.875 92.910156 132.960938 C 93.042969 133.046875 93.167969 133.148438 93.28125 133.261719 C 93.730469 133.710938 93.988281 134.335938 93.988281 134.96875 C 93.988281 135.125 93.972656 135.285156 93.941406 135.441406 C 93.910156 135.597656 93.863281 135.75 93.804688 135.894531 C 93.742188 136.039062 93.667969 136.179688 93.582031 136.3125 C 93.492188 136.445312 93.390625 136.566406 93.28125 136.679688 C 93.167969 136.789062 93.042969 136.890625 92.910156 136.980469 C 92.78125 137.066406 92.640625 137.140625 92.496094 137.199219 C 92.347656 137.261719 92.195312 137.308594 92.042969 137.339844 C 91.886719 137.371094 91.730469 137.386719 91.570312 137.386719 " fill-opacity="1" fill-rule="nonzero">
  </path>
  <path fill="#ffffff" d="M 156.015625 185.597656 C 156.015625 188.382812 157.878906 190.640625 160.179688 190.640625 C 162.480469 190.640625 164.34375 188.382812 164.34375 185.597656 C 164.34375 182.8125 162.480469 180.554688 160.179688 180.554688 C 157.878906 180.554688 156.015625 182.8125 156.015625 185.597656 " fill-opacity="1" fill-rule="nonzero">
  </path>
  <path fill="#ffffff" d="M 217.46875 185.597656 C 217.46875 182.8125 215.605469 180.554688 213.304688 180.554688 C 211.003906 180.554688 209.140625 182.8125 209.140625 185.597656 C 209.140625 188.382812 211.003906 190.640625 213.304688 190.640625 C 215.605469 190.640625 217.46875 188.382812 217.46875 185.597656 " fill-opacity="1" fill-rule="nonzero">
  </path>
  <path fill="#ffffff" d="M 186.742188 197.800781 C 185.910156 197.800781 185.234375 198.476562 185.234375 199.308594 L 185.234375 202.734375 C 185.234375 203.566406 185.910156 204.242188 186.742188 204.242188 C 187.574219 204.242188 188.25 203.566406 188.25 202.734375 L 188.25 199.308594 C 188.25 198.476562 187.574219 197.800781 186.742188 197.800781 " fill-opacity="1" fill-rule="nonzero">
  </path>
  <path fill="#ffffff" d="M 169.207031 218.804688 C 168.929688 218.019531 168.070312 217.609375 167.285156 217.882812 C 166.5 218.160156 166.085938 219.019531 166.363281 219.804688 C 168.382812 225.554688 176.761719 229.574219 186.742188 229.574219 C 196.722656 229.574219 205.101562 225.554688 207.121094 219.804688 C 207.394531 219.019531 206.984375 218.160156 206.199219 217.882812 C 205.414062 217.609375 204.554688 218.019531 204.277344 218.808594 C 202.726562 223.226562 195.1875 226.558594 186.742188 226.558594 C 178.296875 226.558594 170.757812 223.226562 169.207031 218.804688 " fill-opacity="1" fill-rule="nonzero">
  </path>
  <path fill="#ffffff" d="M 251.246094 196.628906 C 250.726562 200.542969 248.792969 203.632812 246.3125 204.503906 C 245.34375 204.84375 244.378906 204.8125 243.457031 204.429688 C 242.84375 204.175781 242.5 203.507812 242.621094 202.855469 C 243.21875 199.574219 243.53125 196.195312 243.53125 192.746094 C 243.53125 188.972656 243.15625 185.242188 242.429688 181.601562 C 242.308594 181 242.585938 180.382812 243.121094 180.074219 C 244.089844 179.511719 245.304688 179.035156 246.492188 179.199219 C 247.625 179.355469 248.605469 180.070312 249.5 181.394531 C 251.382812 184.191406 252.082031 190.3125 251.246094 196.628906 Z M 130.847656 202.863281 C 130.964844 203.519531 130.621094 204.1875 130.003906 204.4375 C 129.089844 204.816406 128.132812 204.839844 127.171875 204.503906 C 124.691406 203.632812 122.753906 200.542969 122.238281 196.625 C 121.398438 190.3125 122.101562 184.191406 123.984375 181.394531 C 124.875 180.070312 125.859375 179.355469 126.988281 179.199219 C 128.179688 179.035156 129.394531 179.511719 130.359375 180.074219 C 130.894531 180.382812 131.171875 181 131.050781 181.601562 C 130.328125 185.242188 129.953125 188.972656 129.953125 192.746094 C 129.953125 196.175781 130.253906 199.558594 130.847656 202.863281 Z M 252 179.710938 C 250.617188 177.664062 248.902344 176.488281 246.902344 176.214844 C 245.472656 176.019531 244.113281 176.316406 242.917969 176.8125 C 242.132812 177.140625 241.234375 176.726562 240.980469 175.914062 C 238.519531 167.988281 234.324219 160.640625 228.59375 154.40625 C 219.023438 143.988281 206.015625 137.542969 191.972656 136.261719 C 191.144531 136.1875 190.410156 136.796875 190.335938 137.625 C 190.257812 138.457031 190.871094 139.1875 191.699219 139.261719 C 204.996094 140.476562 217.308594 146.578125 226.375 156.445312 C 235.496094 166.371094 240.519531 179.261719 240.519531 192.746094 C 240.519531 222.296875 216.339844 246.386719 186.625 246.449219 C 172.285156 246.417969 158.808594 240.820312 148.675781 230.679688 C 141.300781 223.300781 136.34375 214.15625 134.1875 204.207031 C 134.179688 204.136719 134.164062 204.066406 134.144531 204 C 133.367188 200.339844 132.964844 196.574219 132.964844 192.746094 C 132.964844 179.261719 137.988281 166.371094 147.109375 156.445312 C 156.164062 146.589844 168.460938 140.492188 181.742188 139.269531 C 181.800781 139.261719 181.859375 139.253906 181.917969 139.246094 C 190.453125 137.929688 190.449219 131.9375 190.445312 126.648438 L 190.445312 126.320312 C 190.445312 125.964844 190.449219 125.597656 190.453125 125.226562 C 190.488281 121.964844 190.53125 117.90625 187.820312 115.453125 C 186.070312 113.867188 183.855469 113.273438 181.578125 113.78125 C 178.753906 114.40625 176.167969 116.628906 174.988281 119.4375 C 174.195312 121.328125 174.332031 123.535156 175.355469 125.332031 C 176.269531 126.9375 177.996094 127.894531 179.84375 127.84375 C 181.207031 127.804688 182.410156 127.210938 183.257812 126.351562 C 184.035156 125.5625 183.691406 124.234375 182.628906 123.929688 C 182.605469 123.929688 181.78125 123.582031 181.0625 124.300781 C 180.792969 124.570312 180.382812 124.8125 179.753906 124.832031 C 179.003906 124.851562 178.339844 124.484375 177.976562 123.84375 C 177.410156 122.847656 177.332031 121.640625 177.769531 120.605469 C 178.554688 118.726562 180.390625 117.128906 182.230469 116.71875 C 183.566406 116.425781 184.765625 116.75 185.800781 117.6875 C 187.503906 119.230469 187.472656 122.261719 187.441406 125.191406 C 187.4375 125.574219 187.433594 125.953125 187.433594 126.320312 L 187.433594 126.648438 C 187.4375 132.5 187.183594 135.371094 181.511719 136.257812 C 181.480469 136.265625 181.449219 136.269531 181.421875 136.269531 C 167.410156 137.570312 154.441406 144.011719 144.890625 154.40625 C 139.160156 160.640625 134.960938 167.988281 132.5 175.914062 C 132.25 176.726562 131.347656 177.140625 130.5625 176.8125 C 129.371094 176.316406 128.007812 176.019531 126.582031 176.214844 C 124.578125 176.488281 122.863281 177.664062 121.484375 179.714844 C 118.691406 183.859375 118.535156 191.628906 119.25 197.023438 C 119.925781 202.128906 122.578125 206.085938 126.171875 207.347656 C 126.945312 207.617188 127.730469 207.75 128.507812 207.75 C 129.140625 207.75 129.769531 207.660156 130.386719 207.484375 C 131.152344 207.265625 131.941406 207.730469 132.160156 208.492188 C 134.777344 217.589844 139.667969 225.929688 146.542969 232.8125 C 157.242188 243.515625 171.476562 249.429688 186.625 249.460938 C 212.523438 249.410156 234.4375 232.066406 241.300781 208.460938 C 241.519531 207.707031 242.316406 207.257812 243.070312 207.476562 C 243.695312 207.660156 244.332031 207.75 244.976562 207.75 C 245.753906 207.75 246.539062 207.617188 247.308594 207.347656 C 250.902344 206.085938 253.554688 202.128906 254.234375 197.023438 C 254.949219 191.628906 254.792969 183.859375 252 179.710938 " fill-opacity="1" fill-rule="nonzero">
  </path>
  <path fill="#ffffff" d="M 133.300781 273.191406 C 128.742188 270.320312 124.359375 272.757812 122.039062 276.445312 C 119.25 280.875 120.003906 285.347656 123.964844 287.839844 C 125.300781 288.679688 126.664062 289.101562 127.976562 289.101562 C 129.617188 289.101562 131.179688 288.449219 132.535156 287.15625 C 132.601562 287.09375 132.632812 287.003906 132.625 286.910156 C 132.617188 286.816406 132.566406 286.734375 132.484375 286.683594 L 130.425781 285.386719 C 130.320312 285.320312 130.183594 285.328125 130.085938 285.402344 C 129.082031 286.160156 127.511719 287.011719 125.429688 285.703125 C 122.515625 283.867188 123.15625 280.542969 124.730469 278.046875 C 126.296875 275.558594 128.988281 273.535156 131.84375 275.335938 C 133.570312 276.417969 134.140625 277.828125 133.640625 279.769531 C 133.609375 279.894531 133.660156 280.027344 133.773438 280.097656 L 135.824219 281.386719 C 135.898438 281.4375 135.992188 281.449219 136.074219 281.421875 C 136.160156 281.394531 136.226562 281.332031 136.261719 281.25 C 137.535156 278.171875 136.429688 275.160156 133.300781 273.191406 " fill-opacity="1" fill-rule="nonzero">
  </path>
  <path fill="#ffffff" d="M 154.941406 283.820312 L 152.695312 282.910156 C 152.621094 282.882812 152.539062 282.882812 152.464844 282.914062 C 152.390625 282.945312 152.332031 283.003906 152.304688 283.078125 L 149.894531 289.035156 L 142.90625 286.210938 L 145.316406 280.253906 C 145.378906 280.097656 145.300781 279.921875 145.148438 279.859375 L 142.902344 278.953125 C 142.828125 278.921875 142.746094 278.921875 142.671875 278.953125 C 142.597656 278.984375 142.539062 279.042969 142.511719 279.117188 L 136.390625 294.25 C 136.328125 294.40625 136.402344 294.578125 136.558594 294.644531 L 138.804688 295.550781 C 138.878906 295.582031 138.960938 295.582031 139.035156 295.546875 C 139.109375 295.515625 139.167969 295.457031 139.195312 295.382812 L 141.910156 288.671875 L 148.898438 291.496094 L 146.183594 298.210938 C 146.152344 298.285156 146.152344 298.367188 146.183594 298.441406 C 146.21875 298.515625 146.277344 298.570312 146.351562 298.601562 L 148.597656 299.511719 C 148.632812 299.523438 148.671875 299.53125 148.710938 299.53125 C 148.828125 299.53125 148.941406 299.460938 148.988281 299.34375 L 155.105469 284.210938 C 155.136719 284.136719 155.136719 284.054688 155.105469 283.980469 C 155.074219 283.90625 155.015625 283.847656 154.941406 283.820312 " fill-opacity="1" fill-rule="nonzero">
  </path>
  <path fill="#ffffff" d="M 162.945312 285.921875 L 160.597656 285.316406 C 160.4375 285.273438 160.273438 285.371094 160.230469 285.53125 L 156.15625 301.339844 C 156.136719 301.414062 156.148438 301.5 156.1875 301.566406 C 156.230469 301.632812 156.292969 301.683594 156.371094 301.707031 L 158.71875 302.3125 C 158.742188 302.316406 158.769531 302.320312 158.792969 302.320312 C 158.929688 302.320312 159.050781 302.230469 159.085938 302.09375 L 163.160156 286.289062 C 163.179688 286.210938 163.167969 286.128906 163.128906 286.058594 C 163.085938 285.988281 163.019531 285.941406 162.945312 285.921875 " fill-opacity="1" fill-rule="nonzero">
  </path>
  <path fill="#ffffff" d="M 177.351562 302.894531 L 169.289062 301.757812 L 171.242188 287.925781 C 171.253906 287.84375 171.230469 287.765625 171.183594 287.703125 C 171.136719 287.636719 171.066406 287.597656 170.984375 287.585938 L 168.585938 287.246094 C 168.421875 287.222656 168.269531 287.335938 168.246094 287.503906 L 165.964844 303.664062 C 165.953125 303.742188 165.976562 303.824219 166.023438 303.886719 C 166.070312 303.953125 166.144531 303.992188 166.222656 304.003906 L 176.660156 305.476562 C 176.675781 305.480469 176.691406 305.480469 176.703125 305.480469 C 176.835938 305.480469 176.953125 305.394531 176.992188 305.269531 L 177.597656 303.28125 C 177.621094 303.195312 177.609375 303.105469 177.5625 303.03125 C 177.515625 302.957031 177.4375 302.90625 177.351562 302.894531 " fill-opacity="1" fill-rule="nonzero">
  </path>
  <path fill="#ffffff" d="M 186.304688 303.238281 L 186.085938 291.578125 L 189.074219 291.523438 C 189.117188 291.523438 189.164062 291.519531 189.207031 291.519531 C 192.894531 291.519531 194.265625 294.402344 194.316406 297.121094 C 194.386719 300.910156 192.550781 303.121094 189.28125 303.183594 Z M 189.265625 288.886719 L 183.316406 289 C 183.234375 289 183.160156 289.03125 183.105469 289.089844 C 183.046875 289.148438 183.015625 289.226562 183.019531 289.304688 L 183.324219 305.625 C 183.328125 305.789062 183.460938 305.921875 183.625 305.921875 C 183.625 305.921875 183.628906 305.921875 183.628906 305.921875 L 189.496094 305.8125 C 191.898438 305.765625 193.933594 304.878906 195.371094 303.242188 C 196.753906 301.671875 197.492188 299.464844 197.445312 297.023438 C 197.398438 294.570312 196.59375 292.5 195.117188 291.039062 C 193.648438 289.585938 191.621094 288.84375 189.265625 288.886719 " fill-opacity="1" fill-rule="nonzero">
  </path>
  <path fill="#ffffff" d="M 209.023438 294.132812 L 205.941406 294.722656 L 205.070312 290.167969 L 208.359375 289.539062 C 210.253906 289.175781 211.359375 289.75 211.644531 291.246094 C 211.847656 292.316406 211.734375 293.613281 209.023438 294.132812 Z M 216.054688 299.476562 L 215.84375 298.375 C 215.445312 296.289062 214.578125 295.058594 213.207031 294.640625 C 214.4375 293.691406 214.964844 292.179688 214.636719 290.453125 C 214.375 289.105469 213.671875 288.050781 212.59375 287.410156 C 211.480469 286.746094 210.011719 286.5625 208.347656 286.882812 L 201.933594 288.109375 C 201.769531 288.140625 201.664062 288.300781 201.695312 288.460938 L 204.761719 304.496094 C 204.777344 304.574219 204.820312 304.644531 204.886719 304.6875 C 204.9375 304.722656 204.996094 304.738281 205.058594 304.738281 C 205.074219 304.738281 205.09375 304.738281 205.113281 304.734375 L 207.464844 304.285156 C 207.628906 304.253906 207.734375 304.09375 207.703125 303.933594 L 206.433594 297.289062 L 209.226562 296.753906 C 211.902344 296.242188 212.523438 297.03125 212.902344 299.003906 L 212.980469 299.421875 C 213.277344 300.964844 213.507812 302.179688 213.957031 302.855469 C 214.023438 302.953125 214.144531 303.007812 214.261719 302.984375 L 216.558594 302.542969 C 216.660156 302.523438 216.738281 302.460938 216.78125 302.371094 C 216.820312 302.277344 216.8125 302.175781 216.761719 302.089844 C 216.445312 301.574219 216.238281 300.457031 216.054688 299.476562 " fill-opacity="1" fill-rule="nonzero">
  </path>
  <path fill="#ffffff" d="M 234.238281 294.191406 C 234.222656 294.101562 234.167969 294.03125 234.089844 293.988281 C 234.015625 293.945312 233.921875 293.9375 233.839844 293.964844 L 225.796875 296.886719 L 224.136719 292.3125 L 231.429688 289.667969 C 231.503906 289.636719 231.566406 289.582031 231.601562 289.511719 C 231.632812 289.4375 231.636719 289.355469 231.609375 289.28125 L 230.910156 287.351562 C 230.882812 287.277344 230.828125 287.214844 230.753906 287.183594 C 230.683594 287.148438 230.597656 287.144531 230.523438 287.171875 L 223.234375 289.820312 L 221.832031 285.964844 L 229.484375 283.1875 C 229.636719 283.132812 229.71875 282.960938 229.664062 282.800781 L 228.964844 280.875 C 228.9375 280.800781 228.878906 280.738281 228.808594 280.703125 C 228.734375 280.671875 228.652344 280.667969 228.578125 280.695312 L 218.417969 284.382812 C 218.34375 284.410156 218.28125 284.464844 218.246094 284.539062 C 218.214844 284.609375 218.210938 284.691406 218.238281 284.769531 L 223.808594 300.109375 C 223.851562 300.234375 223.96875 300.308594 224.089844 300.308594 C 224.125 300.308594 224.160156 300.304688 224.195312 300.292969 L 234.457031 296.5625 C 234.597656 296.515625 234.679688 296.367188 234.652344 296.222656 L 234.238281 294.191406 " fill-opacity="1" fill-rule="nonzero">
  </path>
  <path fill="#ffffff" d="M 253.070312 286.425781 L 245 272.238281 C 244.960938 272.167969 244.894531 272.117188 244.816406 272.097656 C 244.738281 272.074219 244.660156 272.085938 244.589844 272.125 L 242.621094 273.246094 C 242.476562 273.328125 242.425781 273.511719 242.507812 273.65625 L 245.785156 279.417969 C 246.761719 281.136719 247.699219 282.78125 248.574219 284.171875 C 246.589844 282.996094 242.84375 280.917969 239.714844 279.183594 C 238.335938 278.417969 237.054688 277.707031 236.054688 277.148438 C 235.964844 277.097656 235.851562 277.097656 235.757812 277.148438 L 233.019531 278.707031 C 232.949219 278.746094 232.898438 278.8125 232.878906 278.886719 C 232.855469 278.964844 232.867188 279.046875 232.90625 279.117188 L 240.980469 293.304688 C 241.019531 293.375 241.082031 293.425781 241.160156 293.445312 C 241.1875 293.453125 241.214844 293.457031 241.242188 293.457031 C 241.292969 293.457031 241.34375 293.445312 241.390625 293.417969 L 243.367188 292.292969 C 243.511719 292.210938 243.5625 292.027344 243.480469 291.882812 L 240.394531 286.460938 C 239.214844 284.386719 238.078125 282.402344 237.171875 280.933594 C 240.199219 282.722656 247.46875 286.828125 250.082031 288.304688 C 250.175781 288.355469 250.285156 288.355469 250.378906 288.304688 L 252.957031 286.835938 C 253.101562 286.753906 253.152344 286.570312 253.070312 286.425781 " fill-opacity="1" fill-rule="nonzero">
  </path>
  <path fill="#ffffff" d="M 130.503906 90.027344 C 127.566406 90.925781 126.855469 90.667969 126.289062 89.703125 C 125.398438 88.191406 126.695312 87.125 127.546875 86.621094 C 129.128906 85.6875 130.359375 85.808594 131.421875 87.003906 C 131.519531 87.113281 131.675781 87.136719 131.800781 87.0625 L 133.917969 85.816406 C 133.992188 85.769531 134.046875 85.699219 134.0625 85.613281 C 134.078125 85.53125 134.058594 85.445312 134.007812 85.375 C 133.25 84.34375 132.175781 83.640625 130.984375 83.398438 C 129.546875 83.105469 127.984375 83.445312 126.339844 84.414062 C 123.285156 86.214844 122.261719 88.992188 123.734375 91.492188 C 125.023438 93.679688 127.113281 94.09375 130.941406 92.929688 C 134.0625 91.972656 134.976562 92.382812 135.648438 93.523438 C 136.40625 94.8125 135.886719 96.035156 134.148438 97.0625 C 132.339844 98.125 130.851562 97.996094 129.59375 96.660156 C 129.5 96.558594 129.34375 96.539062 129.222656 96.609375 L 127.105469 97.859375 C 127.03125 97.902344 126.976562 97.976562 126.960938 98.0625 C 126.945312 98.144531 126.964844 98.234375 127.019531 98.304688 C 127.660156 99.117188 129.09375 100.523438 131.375 100.523438 C 132.476562 100.523438 133.777344 100.195312 135.28125 99.308594 C 138.660156 97.316406 139.777344 94.40625 138.195312 91.71875 C 137.148438 89.945312 135.492188 88.511719 130.503906 90.027344 " fill-opacity="1" fill-rule="nonzero">
  </path>
  <path fill="#ffffff" d="M 145.371094 79.234375 C 146.109375 80.136719 147.210938 81.40625 148.785156 83.222656 L 149.777344 84.367188 L 145.703125 85.945312 L 145.671875 85.226562 C 145.5625 82.730469 145.46875 80.652344 145.371094 79.234375 Z M 146.003906 75.757812 C 145.917969 75.664062 145.785156 75.628906 145.667969 75.675781 L 142.871094 76.761719 C 142.75 76.808594 142.675781 76.921875 142.679688 77.050781 L 143.203125 94.351562 C 143.207031 94.449219 143.257812 94.542969 143.339844 94.59375 C 143.390625 94.628906 143.445312 94.644531 143.503906 94.644531 C 143.542969 94.644531 143.578125 94.640625 143.613281 94.625 L 145.855469 93.757812 C 145.976562 93.710938 146.050781 93.59375 146.046875 93.46875 L 145.914062 88.710938 L 151.496094 86.546875 L 154.65625 90.132812 C 154.738281 90.230469 154.871094 90.261719 154.988281 90.214844 L 157.386719 89.285156 C 157.480469 89.25 157.550781 89.171875 157.570312 89.078125 C 157.59375 88.980469 157.570312 88.878906 157.503906 88.804688 L 146.003906 75.757812 " fill-opacity="1" fill-rule="nonzero">
  </path>
  <path fill="#ffffff" d="M 169.183594 76.671875 C 169.164062 76.59375 169.117188 76.523438 169.050781 76.480469 C 168.984375 76.4375 168.902344 76.425781 168.824219 76.441406 L 161.535156 78.023438 L 160.59375 73.675781 L 168.386719 71.984375 C 168.550781 71.949219 168.652344 71.789062 168.617188 71.625 L 168.183594 69.621094 C 168.164062 69.542969 168.117188 69.476562 168.050781 69.429688 C 167.984375 69.386719 167.902344 69.371094 167.824219 69.390625 L 157.410156 71.652344 C 157.246094 71.6875 157.144531 71.847656 157.179688 72.011719 L 160.644531 87.964844 C 160.675781 88.101562 160.800781 88.199219 160.9375 88.199219 C 160.960938 88.199219 160.980469 88.199219 161.003906 88.195312 L 163.328125 87.6875 C 163.40625 87.671875 163.472656 87.621094 163.519531 87.554688 C 163.558594 87.488281 163.574219 87.40625 163.558594 87.328125 L 162.101562 80.617188 L 169.386719 79.03125 C 169.464844 79.015625 169.535156 78.96875 169.578125 78.902344 C 169.621094 78.835938 169.636719 78.753906 169.617188 78.675781 L 169.183594 76.671875 " fill-opacity="1" fill-rule="nonzero">
  </path>
  <path fill="#ffffff" d="M 186.847656 82.042969 L 178.308594 82.601562 L 177.988281 77.75 L 185.730469 77.242188 C 185.894531 77.230469 186.019531 77.085938 186.011719 76.917969 L 185.875 74.875 C 185.871094 74.792969 185.832031 74.71875 185.773438 74.664062 C 185.710938 74.613281 185.636719 74.585938 185.554688 74.59375 L 177.8125 75.101562 L 177.546875 71.011719 L 185.664062 70.476562 C 185.832031 70.464844 185.957031 70.320312 185.945312 70.15625 L 185.8125 68.109375 C 185.808594 68.03125 185.769531 67.953125 185.710938 67.902344 C 185.648438 67.851562 185.574219 67.824219 185.492188 67.828125 L 174.707031 68.539062 C 174.539062 68.546875 174.414062 68.691406 174.425781 68.859375 L 175.496094 85.144531 C 175.507812 85.304688 175.640625 85.425781 175.796875 85.425781 C 175.804688 85.425781 175.808594 85.425781 175.816406 85.425781 L 186.714844 84.710938 C 186.863281 84.699219 186.984375 84.582031 186.996094 84.433594 L 187.164062 82.367188 C 187.171875 82.28125 187.140625 82.195312 187.082031 82.132812 C 187.019531 82.070312 186.933594 82.039062 186.847656 82.042969 " fill-opacity="1" fill-rule="nonzero">
  </path>
  <path fill="#ffffff" d="M 211.820312 70.160156 L 201.28125 68.570312 C 201.117188 68.542969 200.960938 68.65625 200.9375 68.824219 L 198.5 84.960938 C 198.488281 85.042969 198.507812 85.121094 198.554688 85.1875 C 198.601562 85.25 198.671875 85.292969 198.753906 85.304688 L 201.105469 85.660156 C 201.121094 85.664062 201.136719 85.664062 201.152344 85.664062 C 201.296875 85.664062 201.425781 85.558594 201.449219 85.40625 L 202.472656 78.617188 L 209.847656 79.730469 C 210.015625 79.753906 210.167969 79.640625 210.191406 79.476562 L 210.5 77.449219 C 210.511719 77.367188 210.492188 77.289062 210.441406 77.226562 C 210.394531 77.160156 210.324219 77.117188 210.246094 77.105469 L 202.871094 75.992188 L 203.535156 71.59375 L 211.421875 72.785156 C 211.585938 72.808594 211.742188 72.695312 211.765625 72.53125 L 212.074219 70.503906 C 212.082031 70.425781 212.066406 70.34375 212.015625 70.28125 C 211.96875 70.214844 211.898438 70.171875 211.820312 70.160156 " fill-opacity="1" fill-rule="nonzero">
  </path>
  <path fill="#ffffff" d="M 227.367188 83.519531 C 225.636719 88.75 222.265625 88.261719 220.894531 87.808594 C 219.476562 87.339844 218.492188 86.363281 218.046875 84.980469 C 217.636719 83.699219 217.707031 82.101562 218.242188 80.480469 C 219.191406 77.605469 220.945312 76.039062 223.09375 76.039062 C 223.605469 76.039062 224.140625 76.125 224.691406 76.308594 C 226.164062 76.796875 227.136719 77.734375 227.578125 79.097656 C 227.984375 80.347656 227.910156 81.878906 227.367188 83.519531 Z M 225.617188 73.832031 C 221.046875 72.320312 216.882812 74.625 215.25 79.5625 C 213.613281 84.503906 215.511719 88.8125 219.96875 90.285156 C 220.933594 90.605469 221.847656 90.753906 222.707031 90.753906 C 226.527344 90.753906 229.230469 87.855469 230.351562 84.46875 C 231.136719 82.097656 231.117188 79.839844 230.292969 77.933594 C 229.453125 75.984375 227.835938 74.566406 225.617188 73.832031 " fill-opacity="1" fill-rule="nonzero">
  </path>
  <path fill="#ffffff" d="M 243.953125 84.933594 C 244.8125 85.394531 245.367188 85.929688 245.605469 86.515625 C 245.832031 87.070312 245.769531 87.683594 245.417969 88.332031 C 245.039062 89.03125 244.566406 89.425781 243.976562 89.53125 C 243.34375 89.644531 242.53125 89.4375 241.5625 88.914062 L 238.800781 87.421875 L 241.003906 83.339844 Z M 248.582031 85.960938 C 248.136719 84.742188 247.113281 83.671875 245.621094 82.867188 L 239.875 79.761719 C 239.804688 79.726562 239.722656 79.71875 239.644531 79.738281 C 239.570312 79.761719 239.503906 79.816406 239.464844 79.886719 L 231.710938 94.25 C 231.632812 94.394531 231.6875 94.578125 231.832031 94.65625 L 233.9375 95.792969 C 234.007812 95.832031 234.089844 95.84375 234.167969 95.820312 C 234.242188 95.796875 234.308594 95.742188 234.347656 95.671875 L 237.558594 89.722656 L 240.0625 91.070312 C 241.226562 91.699219 241.855469 92.285156 242.035156 92.90625 C 242.195312 93.464844 242.035156 94.132812 241.492188 95.136719 L 241.285156 95.515625 C 240.542969 96.894531 239.953125 97.984375 239.875 98.789062 C 239.863281 98.910156 239.921875 99.027344 240.03125 99.082031 L 242.089844 100.195312 C 242.132812 100.21875 242.183594 100.230469 242.230469 100.230469 C 242.277344 100.230469 242.324219 100.21875 242.367188 100.199219 C 242.457031 100.152344 242.515625 100.070312 242.53125 99.972656 C 242.609375 99.371094 243.15625 98.375 243.636719 97.496094 L 244.167969 96.511719 C 245.175781 94.640625 245.285156 93.140625 244.484375 91.949219 C 246.035156 91.996094 247.402344 91.152344 248.238281 89.609375 C 248.890625 88.398438 249.007812 87.136719 248.582031 85.960938 " fill-opacity="1" fill-rule="nonzero">
  </path>
 </svg>