<?xml version="1.0" encoding="UTF-8"?>
<svg version="1.1" xmlns="http://www.w3.org/2000/svg" width="3968" height="3837">
<path d="M0 0 C1.18454773 0.00182281 2.36909546 0.00364563 3.58953857 0.00552368 C21.73807929 0.05245666 39.53039415 0.5777607 57.5 3.3125 C58.62728516 3.47878906 59.75457031 3.64507812 60.91601562 3.81640625 C100.32287667 9.79721147 138.4900542 21.21704756 174.5 38.3125 C175.51529785 38.79332031 176.5305957 39.27414063 177.57666016 39.76953125 C214.48009398 57.39852311 247.36044637 80.77590782 277.5 108.3125 C278.50484479 109.21264558 279.51007228 110.11236407 280.515625 111.01171875 C316.77804572 143.67282955 343.85898067 184.4216845 366.5 227.3125 C374.4910783 225.96080494 382.16908552 223.71292382 389.92340088 221.40222168 C445.48790912 204.9412881 502.75412373 196.13082206 560.5 192.3125 C561.57040527 192.24047363 562.64081055 192.16844727 563.74365234 192.09423828 C644.86163277 186.93280729 727.69669921 196.28078533 935.59033203 263.93554688 C938.59588122 265.35787423 941.60839085 266.76477281 944.62109375 268.171875 C968.76376494 279.52267497 991.84808709 292.42720057 1014.50976562 306.46191406 C1017.01631464 308.01315847 1019.52901157 309.55317363 1022.046875 311.0859375 C1040.18409857 322.18366101 1057.52532801 334.52303217 1074.5 347.3125 C1075.10102539 347.76431641 1075.70205078 348.21613281 1076.32128906 348.68164062 C1092.7561083 361.07199074 1108.77964582 374.17616262 1123.98828125 388.046875 C1126.0931474 389.9455101 1128.21776007 391.81447825 1130.35546875 393.67578125 C1141.68882938 403.57846169 1152.41201214 414.12410958 1163.0625 424.75 C1163.57901123 425.26392303 1164.09552246 425.77784607 1164.62768555 426.30734253 C1169.916357 431.57508229 1175.12025136 436.86975898 1179.97729492 442.54467773 C1182.36236078 445.31367916 1184.87524373 447.95996711 1187.375 450.625 C1191.8337948 455.41764915 1196.06120791 460.33439828 1200.16015625 465.44140625 C1202.35834372 468.13868136 1204.61011362 470.77515543 1206.88989258 473.40307617 C1212.52359687 479.89885542 1217.9069054 486.53978656 1223.07177734 493.41601562 C1224.67072734 495.53920256 1226.28265016 497.65223997 1227.89453125 499.765625 C1242.74522127 519.31099829 1256.51696337 539.48247177 1269.5 560.3125 C1270.67304688 559.78785156 1271.84609375 559.26320313 1273.0546875 558.72265625 C1331.73717786 532.7318154 1392.20322801 510.86890086 1454.5 495.3125 C1455.17645569 495.14230347 1455.85291138 494.97210693 1456.54986572 494.79675293 C1540.59156553 473.66007834 1627.51511983 465.02273383 1928.5 509.3125 C1929.22598389 509.54797546 1929.95196777 509.78345093 1930.69995117 510.02606201 C1971.90969219 523.42848666 2011.60318795 540.23104503 2050.5 559.3125 C2051.71301596 559.90535003 2052.92607048 560.49812115 2054.13916016 561.09082031 C2069.84774999 568.7764057 2085.33656211 576.73090548 2100.45361328 585.5390625 C2103.20726297 587.14208473 2105.96726672 588.73363958 2108.72937012 590.32203674 C2123.56562529 598.86228917 2138.12267967 607.7096321 2152.36376953 617.21972656 C2155.25327043 619.14785997 2158.1484413 621.06704805 2161.04580688 622.98332214 C2175.0081983 632.21944832 2188.95300352 641.4721306 2202.5 651.3125 C2203.24185547 651.85003906 2203.98371094 652.38757813 2204.74804688 652.94140625 C2220.85438998 664.63815501 2236.54951928 676.82084211 2251.95703125 689.421875 C2254.84756054 691.78567203 2257.7606944 694.11867817 2260.6875 696.4375 C2265.07055112 699.93070349 2269.34569867 703.54216924 2273.61181641 707.17626953 C2277.05595484 710.10626682 2280.540656 712.97574093 2284.0625 715.8125 C2289.13607493 719.93940206 2293.93741142 724.31352558 2298.73046875 728.7578125 C2300.95918393 730.81363722 2303.20767919 732.82866957 2305.5 734.8125 C2310.39524687 739.0604415 2315.14631974 743.46539388 2319.91357422 747.85546875 C2321.50210515 749.31443345 2323.09586496 750.76745777 2324.69140625 752.21875 C2329.48882821 756.58708577 2334.23024826 760.97828165 2338.77099609 765.6159668 C2340.4195696 767.23358008 2342.12204085 768.71801614 2343.88671875 770.20703125 C2349.45186661 775.04989668 2354.62311139 780.28607711 2359.82739258 785.50952148 C2361.558947 787.246436 2363.29578359 788.97793889 2365.03320312 790.70898438 C2370.23249214 795.90548003 2375.34182449 801.11252103 2380.11499023 806.70922852 C2381.97017505 808.85676926 2383.96391469 810.83719336 2386 812.8125 C2389.32426543 816.09765643 2392.4463983 819.47030688 2395.48828125 823.015625 C2398.10280636 826.0007527 2400.80054146 828.9042756 2403.5 831.8125 C2407.91517115 836.57867085 2412.26922634 841.38097708 2416.5 846.3125 C2416.91685059 846.7976709 2417.33370117 847.2828418 2417.76318359 847.78271484 C2420.28161129 850.71431525 2422.79656014 853.64885656 2425.30859375 856.5859375 C2427.42030934 859.05424374 2429.5376464 861.51753309 2431.66015625 863.9765625 C2437.41527166 870.65032634 2443.03600001 877.39680997 2448.5 884.3125 C2449.43391639 885.47734844 2450.36889082 886.64134907 2451.3046875 887.8046875 C2463.03543836 902.39203216 2474.33033252 917.29245622 2485.5 932.3125 C2486.02400391 933.01375 2486.54800781 933.715 2487.08789062 934.4375 C2498.46979347 949.71281915 2508.86672624 965.67950675 2519.35296631 981.57501221 C2520.34112845 983.07184676 2521.33171019 984.56708347 2522.32275391 986.06201172 C2571.47043673 1060.23669317 2610.51405377 1142.64166379 2666.5 1399.3125 C2666.63099342 1401.08534111 2666.63099342 1401.08534111 2666.76463318 1402.89399719 C2667.45512175 1412.99988064 2667.67912613 1423.05991438 2667.703125 1433.1875 C2667.70595238 1434.01653839 2667.70877975 1434.84557678 2667.71169281 1435.69973755 C2667.72657306 1440.10956113 2667.73586605 1444.5193531 2667.74023438 1448.92919922 C2667.74456474 1452.47520546 2667.75825829 1456.0209609 2667.78125 1459.56689453 C2667.98736777 1492.06335584 2666.48298886 1524.38741859 2662.1875 1556.625 C2662.08328735 1557.42971741 2661.97907471 1558.23443481 2661.8717041 1559.0635376 C2650.38749802 1647.59885371 2625.30517656 1734.00052635 2548.5 1895.3125 C2547.89430176 1896.39499023 2547.28860352 1897.47748047 2546.66455078 1898.59277344 C2537.39142936 1915.12443822 2527.71357194 1931.33919234 2517.5 1947.3125 C2517.01756836 1948.06998535 2516.53513672 1948.8274707 2516.03808594 1949.60791016 C2512.89664971 1954.53461262 2509.70869525 1959.42939384 2506.5 1964.3125 C2505.89542969 1965.23562988 2505.29085937 1966.15875977 2504.66796875 1967.10986328 C2497.1593298 1978.5560947 2489.55899658 1989.85180078 2481.23046875 2000.71875 C2478.54159071 2004.22936131 2475.98243066 2007.82183939 2473.4375 2011.4375 C2464.85843051 2023.55917032 2455.37679109 2034.99590157 2445.98535156 2046.49072266 C2444.64945103 2048.12919895 2443.32038316 2049.77324048 2441.9921875 2051.41796875 C2437.74825686 2056.66003638 2433.38701605 2061.75218168 2428.8359375 2066.73046875 C2426.96585502 2068.79756661 2425.14056759 2070.88928423 2423.32128906 2073.00048828 C2419.71072449 2077.12865659 2415.9155544 2081.02526397 2412.0234375 2084.88671875 C2411.31189514 2085.59680084 2410.60035278 2086.30688293 2409.86724854 2087.03848267 C2408.33573478 2088.5662173 2406.80306785 2090.09279662 2405.26934814 2091.61831665 C2402.83649465 2094.03830168 2400.40687051 2096.46148843 2397.97802734 2098.88549805 C2391.94766508 2104.90255432 2385.91185563 2110.91413687 2379.8762207 2116.92590332 C2374.76619427 2122.01614193 2369.65825906 2127.10846193 2364.55303955 2132.20352173 C2362.1694133 2134.58070672 2359.7827752 2136.95483867 2357.39599609 2139.32885742 C2355.92270231 2140.79851575 2354.44955038 2142.26831632 2352.9765625 2143.73828125 C2352.32077209 2144.38890533 2351.66498169 2145.03952942 2350.98931885 2145.70986938 C2347.94143655 2148.75740633 2345.00097019 2151.84742954 2342.19339323 2155.1186862 C2338.86620468 2158.93839828 2335.39154596 2162.55919892 2331.80170441 2166.13105011 C2331.16258454 2166.77102422 2330.52346467 2167.41099834 2329.86497754 2168.07036561 C2327.73530638 2170.20167342 2325.60209609 2172.32940202 2323.46887207 2174.45715332 C2321.92080412 2176.00494107 2320.37295799 2177.55295072 2318.82531404 2179.10116243 C2314.58129325 2183.34547825 2310.33416852 2187.58667608 2306.08653283 2191.82737374 C2301.50251094 2196.4050141 2296.92139845 2200.9855644 2292.33995056 2205.56578064 C2284.40340772 2213.49960138 2276.46493806 2221.43149081 2268.52537537 2229.36228943 C2257.03799062 2240.83705481 2245.55390141 2252.31511416 2234.07068282 2263.79404861 C2228.71725897 2269.14546642 2223.36367442 2274.49672346 2218.01004791 2279.84793854 C2217.2062143 2280.65141063 2217.2062143 2280.65141063 2216.38614162 2281.47111448 C2203.63828478 2294.21316332 2190.88885425 2306.95363721 2178.13916016 2319.69384766 C2177.58148966 2320.2511045 2177.02381917 2320.80836135 2176.44924957 2321.38250477 C2167.39961555 2330.42542203 2158.34988598 2339.46824367 2149.30014455 2348.51105344 C2140.82033077 2356.98437416 2132.340552 2365.45772992 2123.86083984 2373.93115234 C2123.303471 2374.48810659 2122.74610216 2375.04506085 2122.17184336 2375.6188925 C2109.4437749 2388.33751045 2096.71615763 2401.05657946 2083.98995209 2413.77706146 C2083.45492219 2414.31185037 2082.91989229 2414.84663928 2082.36864936 2415.39763391 C2077.02691562 2420.73698214 2071.68526065 2426.07640917 2066.34372322 2431.4159538 C2054.87402904 2442.88133406 2043.40296034 2454.34533424 2031.92909192 2465.80653726 C2023.56573442 2474.16070477 2015.20413296 2482.51662626 2006.84424555 2490.87426627 C2002.31611891 2495.40104731 1997.78716308 2499.92699081 1993.25601006 2504.45074272 C1989.10759274 2508.59240962 1984.96148949 2512.73637852 1980.81720632 2516.88218206 C1979.3181804 2518.38093666 1977.81830433 2519.87884155 1976.31749016 2521.37580544 C1974.27542834 2523.41287158 1972.23649801 2525.45302321 1970.19829559 2527.49394989 C1969.61705608 2528.07227654 1969.03581657 2528.65060319 1968.43696374 2529.24645489 C1964.83934606 2532.8570617 1961.45952661 2536.60873367 1958.12406864 2540.46216099 C1956.04524955 2542.83060772 1953.8619006 2545.07226361 1951.63173008 2547.29823112 C1950.72401027 2548.20670858 1949.81629047 2549.11518604 1948.881064 2550.05119312 C1947.89321065 2551.03481323 1946.90531228 2552.01838814 1945.91737366 2553.00192261 C1944.85261771 2554.06568085 1943.78808637 2555.12966395 1942.72375864 2556.19385064 C1939.81565001 2559.10032271 1936.90444691 2562.00367755 1933.99272168 2564.90652585 C1930.84629449 2568.04448923 1927.70281261 2571.18540059 1924.55900574 2574.32598877 C1919.11546227 2579.76324584 1913.67019936 2585.1987759 1908.2238636 2590.63323593 C1900.33974037 2598.50034911 1892.45935839 2606.37120168 1884.58006697 2614.24315383 C1871.78222771 2627.02905672 1858.98288571 2639.81345393 1846.18188477 2652.59619141 C1845.41636315 2653.3606229 1844.65084153 2654.1250544 1843.86212229 2654.91265048 C1832.99838482 2665.76077756 1822.13315625 2676.60740997 1811.26733004 2687.45344485 C1810.50211162 2688.21726997 1809.73689319 2688.98109508 1808.94848633 2689.76806641 C1808.18420376 2690.53095545 1807.41992119 2691.29384448 1806.63247854 2692.07985137 C1793.87752141 2704.81175355 1781.12644167 2717.54753081 1768.37851804 2730.2864753 C1760.5223226 2738.1368267 1752.66289143 2745.98391057 1744.79923355 2753.82678701 C1739.4093269 2759.20295849 1734.02305973 2764.58275837 1728.6396125 2769.96539794 C1725.53638864 2773.06791968 1722.43156394 2776.16879317 1719.32229233 2779.26525497 C1716.47124267 2782.10462061 1713.62492843 2784.94864824 1710.78217261 2787.79631688 C1709.7577546 2788.82088511 1708.73166407 2789.84378466 1707.70365883 2790.86475359 C1702.13504754 2796.39723963 1696.92874597 2802.02045649 1692.11801237 2808.22820389 C1690.16907263 2810.73879503 1688.08647712 2813.09686838 1685.9375 2815.4375 C1683.31786624 2818.29978414 1680.73343293 2821.18551201 1678.1875 2824.11328125 C1667.53820825 2836.30588666 1656.2311247 2847.76138891 1644.28515625 2858.68017578 C1642.66256188 2860.16385548 1641.04854249 2861.6561468 1639.4375 2863.15234375 C1635.08572516 2867.16413618 1630.66723824 2871.03078835 1626.0625 2874.75 C1615.40966107 2883.37045491 1605.67957578 2892.96880649 1596.01635742 2902.66577148 C1594.17545292 2904.51208246 1592.32919728 2906.35292273 1590.48242188 2908.19335938 C1589.28353312 2909.39290838 1588.08495431 2910.59276726 1586.88671875 2911.79296875 C1586.34802658 2912.32963669 1585.80933441 2912.86630463 1585.25431824 2913.41923523 C1582.46562351 2916.22479179 1579.79917484 2919.0926774 1577.22023344 2922.09283781 C1573.88310212 2925.92006933 1570.40019566 2929.55059256 1566.80170441 2933.13105011 C1566.16258454 2933.77102422 1565.52346467 2934.41099834 1564.86497754 2935.07036561 C1562.73530638 2937.20167342 1560.60209609 2939.32940202 1558.46887207 2941.45715332 C1556.92080412 2943.00494107 1555.37295799 2944.55295072 1553.82531404 2946.10116243 C1549.58129325 2950.34547825 1545.33416852 2954.58667608 1541.08653283 2958.82737374 C1536.50251094 2963.4050141 1531.92139845 2967.9855644 1527.33995056 2972.56578064 C1519.40340772 2980.49960138 1511.46493806 2988.43149081 1503.52537537 2996.36228943 C1492.03799062 3007.83705481 1480.55390141 3019.31511416 1469.07068282 3030.79404861 C1463.71725897 3036.14546642 1458.36367442 3041.49672346 1453.01004791 3046.84793854 C1452.2062143 3047.65141063 1452.2062143 3047.65141063 1451.38614162 3048.47111448 C1438.63828478 3061.21316332 1425.88885425 3073.95363721 1413.13916016 3086.69384766 C1412.58148966 3087.2511045 1412.02381917 3087.80836135 1411.44924957 3088.38250477 C1402.39961555 3097.42542203 1393.34988598 3106.46824367 1384.30014455 3115.51105344 C1375.82033077 3123.98437416 1367.340552 3132.45772992 1358.86083984 3140.93115234 C1358.303471 3141.48810659 1357.74610216 3142.04506085 1357.17184336 3142.6188925 C1344.4437749 3155.33751045 1331.71615763 3168.05657946 1318.98995209 3180.77706146 C1318.45492219 3181.31185037 1317.91989229 3181.84663928 1317.36864936 3182.39763391 C1312.02691562 3187.73698214 1306.68526065 3193.07640917 1301.34372322 3198.4159538 C1289.87402904 3209.88133406 1278.40296034 3221.34533424 1266.92909192 3232.80653726 C1258.56573442 3241.16070477 1250.20413296 3249.51662626 1241.84424555 3257.87426627 C1237.31611891 3262.40104731 1232.78716308 3266.92699081 1228.25601006 3271.45074272 C1224.10759274 3275.59240962 1219.96148949 3279.73637852 1215.81720632 3283.88218206 C1214.3181804 3285.38093666 1212.81830433 3286.87884155 1211.31749016 3288.37580544 C1209.27542834 3290.41287158 1207.23649801 3292.45302321 1205.19829559 3294.49394989 C1204.61705608 3295.07227654 1204.03581657 3295.65060319 1203.43696374 3296.24645489 C1200.5124933 3299.18148408 1197.71238183 3302.17963574 1195 3305.3125 C1191.74346281 3309.07387638 1188.327508 3312.62291595 1184.80170441 3316.13105011 C1184.16258454 3316.77102422 1183.52346467 3317.41099834 1182.86497754 3318.07036561 C1180.73530638 3320.20167342 1178.60209609 3322.32940202 1176.46887207 3324.45715332 C1174.92080412 3326.00494107 1173.37295799 3327.55295072 1171.82531404 3329.10116243 C1167.58129325 3333.34547825 1163.33416852 3337.58667608 1159.08653283 3341.82737374 C1154.50251094 3346.4050141 1149.92139845 3350.9855644 1145.33995056 3355.56578064 C1137.40340772 3363.49960138 1129.46493806 3371.43149081 1121.52537537 3379.36228943 C1110.03799062 3390.83705481 1098.55390141 3402.31511416 1087.07068282 3413.79404861 C1081.71725897 3419.14546642 1076.36367442 3424.49672346 1071.01004791 3429.84793854 C1070.2062143 3430.65141063 1070.2062143 3430.65141063 1069.38614162 3431.47111448 C1056.63828478 3444.21316332 1043.88885425 3456.95363721 1031.13916016 3469.69384766 C1030.58148966 3470.2511045 1030.02381917 3470.80836135 1029.44924957 3471.38250477 C1020.39961555 3480.42542203 1011.34988598 3489.46824367 1002.30014455 3498.51105344 C993.82033077 3506.98437416 985.340552 3515.45772992 976.86083984 3523.93115234 C976.303471 3524.48810659 975.74610216 3525.04506085 975.17184336 3525.6188925 C962.4437749 3538.33751045 949.71615763 3551.05657946 936.98995209 3563.77706146 C936.45492219 3564.31185037 935.91989229 3564.84663928 935.36864936 3565.39763391 C930.02691562 3570.73698214 924.68526065 3576.07640917 919.34372322 3581.4159538 C907.87402904 3592.88133406 896.40296034 3604.34533424 884.92909192 3615.80653726 C876.56573442 3624.16070477 868.20413296 3632.51662626 859.84424555 3640.87426627 C855.31611891 3645.40104731 850.78716308 3649.92699081 846.25601006 3654.45074272 C842.10759274 3658.59240962 837.96148949 3662.73637852 833.81720632 3666.88218206 C832.3181804 3668.38093666 830.81830433 3669.87884155 829.31749016 3671.37580544 C827.27542834 3673.41287158 825.23649801 3675.45302321 823.19829559 3677.49394989 C822.61705608 3678.07227654 822.03581657 3678.65060319 821.43696374 3679.24645489 C817.83254948 3682.86388282 814.42944295 3686.61255977 811.09993104 3690.48466634 C808.57623085 3693.3678557 805.88759952 3696.07631011 803.18037415 3698.786026 C802.58510034 3699.38568206 801.98982654 3699.98533811 801.37651414 3700.60316557 C799.40608832 3702.58681346 797.43221578 3704.56699245 795.45825195 3706.54711914 C794.03498222 3707.97830189 792.6118913 3709.40966248 791.18896484 3710.84118652 C786.54246588 3715.51372917 781.89066744 3720.1809765 777.23828125 3724.84765625 C775.63392141 3726.45737979 774.02956849 3728.06711022 772.4252224 3729.67684746 C765.75746411 3736.36619303 759.08828378 3743.0541154 752.41537189 3749.73832035 C742.85729058 3759.31268837 733.30783629 3768.89548199 723.770037 3778.4900561 C717.05588709 3785.24281076 710.3322693 3791.98604338 703.60144013 3798.72217268 C699.58218514 3802.74508907 695.56726188 3806.77212146 691.56237221 3810.80934334 C687.80325052 3814.59838486 684.03260813 3818.37555744 680.25258636 3822.14374542 C678.86468066 3823.53142916 677.481081 3824.92343442 676.10204887 3826.31993675 C674.22553161 3828.21893503 672.33442346 3830.10205615 670.43867493 3831.98182678 C669.89091363 3832.54347017 669.34315233 3833.10511356 668.7787922 3833.68377644 C667.23715687 3835.19337559 667.23715687 3835.19337559 664.5 3837.3125 C661.08261337 3837.18522946 659.48559422 3835.66999325 657.12768555 3833.29663086 C656.4898967 3832.66184311 655.85210785 3832.02705536 655.19499207 3831.37303162 C654.51576187 3830.68145462 653.83653168 3829.98987762 653.13671875 3829.27734375 C652.42651077 3828.5652626 651.7163028 3827.85318146 650.98457336 3827.11952209 C649.48074711 3825.60897114 647.9805242 3824.09482562 646.48364258 3822.57739258 C644.21348542 3820.27633908 641.93307986 3817.98588072 639.65039062 3815.69726562 C638.18688052 3814.22457369 636.72397097 3812.75128466 635.26171875 3811.27734375 C634.58856125 3810.59993637 633.91540375 3809.92252899 633.22184753 3809.22459412 C632.5746022 3808.56774124 631.92735687 3807.91088837 631.26049805 3807.23413086 C630.70186569 3806.6686705 630.14323334 3806.10321014 629.56767273 3805.52061462 C627.77881747 3803.6102555 626.07255898 3801.66095773 624.36651325 3799.67733097 C620.59877636 3795.36622712 616.62574247 3791.30406535 612.56811523 3787.26708984 C611.79936538 3786.49819113 611.03061552 3785.72929241 610.23857021 3784.93709373 C607.68094574 3782.38015966 605.11977299 3779.8268105 602.55859375 3777.2734375 C600.71650297 3775.43326733 598.87464081 3773.59286829 597.0329895 3771.7522583 C593.07590105 3767.79804656 589.11704421 3763.84561264 585.15701294 3759.89434814 C579.42345836 3754.17339253 573.69318389 3748.44916027 567.96377981 3742.72404838 C558.65567099 3733.42299557 549.34569603 3724.12381327 540.03417969 3714.82617188 C539.47773879 3714.27055879 538.9212979 3713.71494571 538.34799516 3713.14249587 C534.39871335 3709.19911393 530.44936448 3705.25579915 526.5 3701.3125 C521.9885605 3696.80798905 517.47715135 3692.3034477 512.96582031 3687.79882812 C512.13218289 3686.96643289 512.13218289 3686.96643289 511.28170431 3686.11722159 C502.00339316 3676.85261322 492.72705848 3667.58602831 483.45212269 3658.31804085 C477.73936674 3652.60975553 472.02484355 3646.90325049 466.30799794 3641.19906092 C461.92570635 3636.82621873 457.54597861 3632.45081702 453.16717148 3628.07448578 C451.37460397 3626.28378725 449.58117372 3624.49395188 447.78680801 3622.70505524 C445.33283659 3620.25832685 442.88199969 3617.80849952 440.43188477 3615.35791016 C439.72555121 3614.65517157 439.01921766 3613.95243298 438.29148006 3613.22839928 C434.45114848 3609.38012492 430.8200462 3605.42009022 427.26736546 3601.30613136 C424.17645096 3597.81950439 420.87018044 3594.55234883 417.56811523 3591.26708984 C416.79936538 3590.49819113 416.03061552 3589.72929241 415.23857021 3588.93709373 C412.68094574 3586.38015966 410.11977299 3583.8268105 407.55859375 3581.2734375 C405.71650297 3579.43326733 403.87464081 3577.59286829 402.0329895 3575.7522583 C398.07590105 3571.79804656 394.11704421 3567.84561264 390.15701294 3563.89434814 C384.42345836 3558.17339253 378.69318389 3552.44916027 372.96377981 3546.72404838 C363.65567099 3537.42299557 354.34569603 3528.12381327 345.03417969 3518.82617188 C344.47773879 3518.27055879 343.9212979 3517.71494571 343.34799516 3517.14249587 C339.39871335 3513.19911393 335.44936448 3509.25579915 331.5 3505.3125 C326.9885605 3500.80798905 322.47715135 3496.3034477 317.96582031 3491.79882812 C317.13218289 3490.96643289 317.13218289 3490.96643289 316.28170431 3490.11722159 C307.00339316 3480.85261322 297.72705848 3471.58602831 288.45212269 3462.31804085 C282.73936674 3456.60975553 277.02484355 3450.90325049 271.30799794 3445.19906092 C266.92570635 3440.82621873 262.54597861 3436.45081702 258.16717148 3432.07448578 C256.37460397 3430.28378725 254.58117372 3428.49395188 252.78680801 3426.70505524 C250.33283659 3424.25832685 247.88199969 3421.80849952 245.43188477 3419.35791016 C244.72555121 3418.65517157 244.01921766 3417.95243298 243.29148006 3417.22839928 C240.08104535 3414.01132458 236.97321886 3410.75535591 234.00237274 3407.31487274 C230.35968753 3403.09671045 226.47976634 3399.15874908 222.53015137 3395.22912598 C221.75731796 3394.45614371 220.98448455 3393.68316144 220.18823195 3392.88675547 C217.61678796 3390.31600192 215.04179549 3387.74883328 212.46679688 3385.18164062 C210.61485402 3383.33161836 208.76313976 3381.48136723 206.91163635 3379.63090515 C202.93326695 3375.65541254 198.95312909 3371.68169776 194.97181702 3367.70915222 C189.20749357 3361.9574273 183.44644982 3356.2024261 177.68627661 3350.44654518 C168.32825345 3341.09557814 158.96836414 3331.74648158 149.60693359 3322.39892578 C149.04750209 3321.84032209 148.48807058 3321.28171839 147.9116866 3320.70618731 C143.94117431 3316.74157489 139.97059496 3312.77702963 136 3308.8125 C131.4643092 3304.28373774 126.92864875 3299.75494509 122.39306641 3295.22607422 C121.83432113 3294.66815707 121.27557585 3294.11023992 120.6998989 3293.53541619 C111.37186731 3284.22108716 102.04581202 3274.90478175 92.72115564 3265.5870738 C86.97769018 3259.8480791 81.23245739 3254.11086471 75.4849025 3248.37596548 C71.07911004 3243.97962207 66.67588111 3239.58071946 62.27357292 3235.18088722 C60.47133004 3233.38051339 58.66822437 3231.58100275 56.86418343 3229.78243065 C54.39707512 3227.32256483 51.93310069 3224.85960054 49.46984863 3222.39587402 C48.40451188 3221.33592972 48.40451188 3221.33592972 47.31765318 3220.25457239 C43.46809113 3216.39709 39.82706612 3212.42876733 36.26603079 3208.3047967 C33.17568608 3204.81851345 29.86972824 3201.55189893 26.56811523 3198.26708984 C25.79936538 3197.49819113 25.03061552 3196.72929241 24.23857021 3195.93709373 C21.68094574 3193.38015966 19.11977299 3190.8268105 16.55859375 3188.2734375 C14.71650297 3186.43326733 12.87464081 3184.59286829 11.0329895 3182.7522583 C7.07590105 3178.79804656 3.11704421 3174.84561264 -0.84298706 3170.89434814 C-6.57654164 3165.17339253 -12.30681611 3159.44916027 -18.03622019 3153.72404838 C-27.34432901 3144.42299557 -36.65430397 3135.12381327 -45.96582031 3125.82617188 C-46.52226121 3125.27055879 -47.0787021 3124.71494571 -47.65200484 3124.14249587 C-51.60128665 3120.19911393 -55.55063552 3116.25579915 -59.5 3112.3125 C-64.0114395 3107.80798905 -68.52284865 3103.3034477 -73.03417969 3098.79882812 C-73.86781711 3097.96643289 -73.86781711 3097.96643289 -74.71829569 3097.11722159 C-83.99660684 3087.85261322 -93.27294152 3078.58602831 -102.54787731 3069.31804085 C-108.26063326 3063.60975553 -113.97515645 3057.90325049 -119.69200206 3052.19906092 C-124.07429365 3047.82621873 -128.45402139 3043.45081702 -132.83282852 3039.07448578 C-134.62539603 3037.28378725 -136.41882628 3035.49395188 -138.21319199 3033.70505524 C-140.66716341 3031.25832685 -143.11800031 3028.80849952 -145.56811523 3026.35791016 C-146.27444879 3025.65517157 -146.98078234 3024.95243298 -147.70851994 3024.22839928 C-151.62044253 3020.30838585 -155.33544151 3016.27739428 -158.9538995 3012.08527756 C-160.824475 3009.94045303 -162.78294551 3007.90650726 -164.79649353 3005.89575195 C-165.5718042 3005.11906662 -166.34711487 3004.34238129 -167.1459198 3003.54216003 C-167.97167007 3002.72000504 -168.79742035 3001.89785004 -169.64819336 3001.05078125 C-170.53679047 3000.16203812 -171.42538757 2999.27329498 -172.34091187 2998.35762024 C-174.7539091 2995.94519616 -177.169088 2993.53499767 -179.58530498 2991.12580109 C-182.11886452 2988.5985356 -184.64955142 2986.06839673 -187.18055725 2983.53857422 C-191.96301363 2978.75921343 -196.74801108 2973.98240527 -201.53394943 2969.20653152 C-206.98702739 2963.76467001 -212.43723193 2958.3199345 -217.88720882 2952.87496758 C-229.08830073 2941.68429989 -240.29295717 2930.49720825 -251.5 2919.3125 C-249.75988814 2915.60203185 -247.64050115 2913.18192571 -244.74658203 2910.25268555 C-244.26503662 2909.76281662 -243.78349121 2909.27294769 -243.28735352 2908.76823425 C-241.69958749 2907.15644035 -240.10432576 2905.55234596 -238.5078125 2903.94921875 C-237.39916461 2902.83160361 -236.29059434 2901.71391147 -235.18209839 2900.59614563 C-232.86062658 2898.25820414 -230.53481458 2895.92467457 -228.20654297 2893.59350586 C-225.21961961 2890.60118101 -222.24921138 2887.59301094 -219.28247261 2884.58069134 C-217.00039045 2882.26892725 -214.70719687 2879.96843824 -212.41073227 2877.67096901 C-211.31018896 2876.56621075 -210.2137807 2875.45731751 -209.12158585 2874.34430504 C-207.59664795 2872.79261899 -206.05682442 2871.2574038 -204.51220703 2869.7253418 C-203.63887726 2868.84694138 -202.76554749 2867.96854095 -201.86575317 2867.06352234 C-199.5 2865.3125 -199.5 2865.3125 -197.43766785 2865.30804443 C-195.01914019 2866.56176992 -193.40905221 2868.03669688 -191.48510742 2869.97094727 C-190.70717331 2870.74588028 -189.9292392 2871.52081329 -189.12773132 2872.31922913 C-188.29538467 2873.16392258 -187.46303802 2874.00861603 -186.60546875 2874.87890625 C-185.30709831 2876.18008644 -185.30709831 2876.18008644 -183.98249817 2877.5075531 C-182.14912655 2879.34765273 -180.3193591 2881.19134928 -178.49291992 2883.03833008 C-175.71579108 2885.84639378 -172.9283449 2888.64385671 -170.13867188 2891.43945312 C-168.35615072 2893.23115411 -166.5742305 2895.02345319 -164.79296875 2896.81640625 C-163.96669479 2897.64693008 -163.14042084 2898.47745392 -162.28910828 2899.33314514 C-161.50171768 2900.13014328 -160.71432709 2900.92714142 -159.90307617 2901.74829102 C-159.22008957 2902.43810562 -158.53710297 2903.12792023 -157.8334198 2903.83863831 C-155.94350207 2905.8423048 -154.14398504 2907.87665929 -152.34990406 2909.96427822 C-148.58832128 2914.27043085 -144.62022672 2918.32642233 -140.56811523 2922.35791016 C-139.79936538 2923.12680887 -139.03061552 2923.89570759 -138.23857021 2924.68790627 C-135.68094574 2927.24484034 -133.11977299 2929.7981895 -130.55859375 2932.3515625 C-128.71650297 2934.19173267 -126.87464081 2936.03213171 -125.0329895 2937.8727417 C-121.07590105 2941.82695344 -117.11704421 2945.77938736 -113.15701294 2949.73065186 C-107.42345836 2955.45160747 -101.69318389 2961.17583973 -95.96377981 2966.90095162 C-86.65567099 2976.20200443 -77.34569603 2985.50118673 -68.03417969 2994.79882812 C-67.47773879 2995.35444121 -66.9212979 2995.91005429 -66.34799516 2996.48250413 C-62.39871335 3000.42588607 -58.44936448 3004.36920085 -54.5 3008.3125 C-49.9885605 3012.81701095 -45.47715135 3017.3215523 -40.96582031 3021.82617188 C-40.13218289 3022.65856711 -40.13218289 3022.65856711 -39.28170431 3023.50777841 C-30.00339316 3032.77238678 -20.72705848 3042.03897169 -11.45212269 3051.30695915 C-5.73936674 3057.01524447 -0.02484355 3062.72174951 5.69200206 3068.42593908 C10.07429365 3072.79878127 14.45402139 3077.17418298 18.83282852 3081.55051422 C20.62539603 3083.34121275 22.41882628 3085.13104812 24.21319199 3086.91994476 C26.66716341 3089.36667315 29.11800031 3091.81650048 31.56811523 3094.26708984 C32.27444879 3094.96982843 32.98078234 3095.67256702 33.70851994 3096.39660072 C37.54885152 3100.24487508 41.1799538 3104.20490978 44.73263454 3108.31886864 C47.82354904 3111.80549561 51.12981956 3115.07265117 54.43188477 3118.35791016 C55.20063462 3119.12680887 55.96938448 3119.89570759 56.76142979 3120.68790627 C59.31905426 3123.24484034 61.88022701 3125.7981895 64.44140625 3128.3515625 C66.28349703 3130.19173267 68.12535919 3132.03213171 69.9670105 3133.8727417 C73.92409895 3137.82695344 77.88295579 3141.77938736 81.84298706 3145.73065186 C87.57654164 3151.45160747 93.30681611 3157.17583973 99.03622019 3162.90095162 C108.34432901 3172.20200443 117.65430397 3181.50118673 126.96582031 3190.79882812 C127.52226121 3191.35444121 128.0787021 3191.91005429 128.65200484 3192.48250413 C132.60128665 3196.42588607 136.55063552 3200.36920085 140.5 3204.3125 C145.0114395 3208.81701095 149.52284865 3213.3215523 154.03417969 3217.82617188 C154.86781711 3218.65856711 154.86781711 3218.65856711 155.71829569 3219.50777841 C164.99660684 3228.77238678 174.27294152 3238.03897169 183.54787731 3247.30695915 C189.26063326 3253.01524447 194.97515645 3258.72174951 200.69200206 3264.42593908 C205.07429365 3268.79878127 209.45402139 3273.17418298 213.83282852 3277.55051422 C215.62539603 3279.34121275 217.41882628 3281.13104812 219.21319199 3282.91994476 C221.66716341 3285.36667315 224.11800031 3287.81650048 226.56811523 3290.26708984 C227.27444879 3290.96982843 227.98078234 3291.67256702 228.70851994 3292.39660072 C232.54885152 3296.24487508 236.1799538 3300.20490978 239.73263454 3304.31886864 C242.82354904 3307.80549561 246.12981956 3311.07265117 249.43188477 3314.35791016 C250.20063462 3315.12680887 250.96938448 3315.89570759 251.76142979 3316.68790627 C254.31905426 3319.24484034 256.88022701 3321.7981895 259.44140625 3324.3515625 C261.28349703 3326.19173267 263.12535919 3328.03213171 264.9670105 3329.8727417 C268.92409895 3333.82695344 272.88295579 3337.77938736 276.84298706 3341.73065186 C282.57654164 3347.45160747 288.30681611 3353.17583973 294.03622019 3358.90095162 C303.34432901 3368.20200443 312.65430397 3377.50118673 321.96582031 3386.79882812 C322.52226121 3387.35444121 323.0787021 3387.91005429 323.65200484 3388.48250413 C327.60128665 3392.42588607 331.55063552 3396.36920085 335.5 3400.3125 C340.0114395 3404.81701095 344.52284865 3409.3215523 349.03417969 3413.82617188 C349.86781711 3414.65856711 349.86781711 3414.65856711 350.71829569 3415.50777841 C359.99660684 3424.77238678 369.27294152 3434.03897169 378.54787731 3443.30695915 C384.26063326 3449.01524447 389.97515645 3454.72174951 395.69200206 3460.42593908 C400.07429365 3464.79878127 404.45402139 3469.17418298 408.83282852 3473.55051422 C410.62539603 3475.34121275 412.41882628 3477.13104812 414.21319199 3478.91994476 C416.66716341 3481.36667315 419.11800031 3483.81650048 421.56811523 3486.26708984 C422.27444879 3486.96982843 422.98078234 3487.67256702 423.70851994 3488.39660072 C426.91895465 3491.61367542 430.02678114 3494.86964409 432.99762726 3498.31012726 C436.64031247 3502.52828955 440.52023366 3506.46625092 444.46984863 3510.39587402 C445.24268204 3511.16885629 446.01551545 3511.94183856 446.81176805 3512.73824453 C449.38321204 3515.30899808 451.95820451 3517.87616672 454.53320312 3520.44335938 C456.38514598 3522.29338164 458.23686024 3524.14363277 460.08836365 3525.99409485 C464.06673305 3529.96958746 468.04687091 3533.94330224 472.02818298 3537.91584778 C477.79250643 3543.6675727 483.55355018 3549.4225739 489.31372339 3555.17845482 C498.67174655 3564.52942186 508.03163586 3573.87851842 517.39306641 3583.22607422 C517.95249791 3583.78467791 518.51192942 3584.34328161 519.0883134 3584.91881269 C523.05882569 3588.88342511 527.02940504 3592.84797037 531 3596.8125 C535.5356908 3601.34126226 540.07135125 3605.87005491 544.60693359 3610.39892578 C545.16567887 3610.95684293 545.72442415 3611.51476008 546.3001011 3612.08958381 C555.62813269 3621.40391284 564.95418798 3630.72021825 574.27884436 3640.0379262 C580.02230982 3645.7769209 585.76754261 3651.51413529 591.5150975 3657.24903452 C595.92088996 3661.64537793 600.32411889 3666.04428054 604.72642708 3670.44411278 C606.52866996 3672.24448661 608.33177563 3674.04399725 610.13581657 3675.84256935 C612.60292488 3678.30243517 615.06689931 3680.76539946 617.53015137 3683.22912598 C618.59548812 3684.28907028 618.59548812 3684.28907028 619.68234682 3685.37042761 C623.58545045 3689.28156173 627.30952667 3693.29042459 630.90239859 3697.48905325 C633.70462351 3700.68741543 636.72797479 3703.66325241 639.74609375 3706.65625 C640.40207047 3707.31081177 641.05804718 3707.96537354 641.73390198 3708.63977051 C643.79940145 3710.69973823 645.86837595 3712.75617366 647.9375 3714.8125 C649.35114434 3716.2211205 650.76455786 3717.62997267 652.17773438 3719.0390625 C655.61583149 3722.46622133 659.05704656 3725.89022019 662.5 3729.3125 C667.9157015 3724.79303136 672.9465773 3720.00757957 677.92541504 3715.0140686 C678.74725108 3714.19379256 679.56908711 3713.37351651 680.41582727 3712.52838361 C682.68002427 3710.26746946 684.94198609 3708.00434729 687.20298696 3705.74023771 C689.64839327 3703.29255959 692.09668681 3700.84777224 694.54460144 3698.40260315 C699.33340121 3693.61824123 704.1195042 3688.83119039 708.90463388 3684.04315807 C712.79558937 3680.14994048 716.68752433 3676.25770456 720.58015442 3672.36616135 C721.13503254 3671.81143646 721.68991066 3671.25671157 722.26160327 3670.68517684 C723.38898718 3669.55811267 724.51637333 3668.43105073 725.64376169 3667.303991 C736.20623861 3656.74436314 746.76565276 3646.18167686 757.32401615 3635.61793618 C766.37361908 3626.56386697 775.42583886 3617.51242103 784.47998047 3608.46289062 C795.00541821 3597.94281093 805.52922337 3587.42110244 816.05044889 3576.89680994 C817.17357903 3575.77336126 818.29671125 3574.64991467 819.41984558 3573.52647018 C819.97238185 3572.97377964 820.52491811 3572.4210891 821.0941979 3571.85165036 C824.97836576 3567.96662095 828.86368894 3564.08274928 832.74946594 3560.19932938 C837.48900184 3555.46260539 842.22673692 3550.72408888 846.96221077 3545.9833038 C849.37599596 3543.56690017 851.79055585 3541.15128501 854.20731163 3538.7378521 C856.83205986 3536.11584442 859.45369569 3533.49076287 862.07458496 3530.86489868 C862.83150084 3530.11021352 863.58841672 3529.35552837 864.36826944 3528.57797396 C865.0780524 3527.86558326 865.78783536 3527.15319255 866.51912689 3526.41921425 C867.4253335 3525.51276411 867.4253335 3525.51276411 868.34984732 3524.58800185 C870.23489881 3522.59305601 872.0344793 3520.55677656 873.83016109 3518.48198974 C877.14890415 3514.6698281 880.61641704 3511.05787799 884.19829559 3507.49394989 C884.83741546 3506.85397578 885.47653533 3506.21400166 886.13502246 3505.55463439 C888.26469362 3503.42332658 890.39790391 3501.29559798 892.53112793 3499.16784668 C894.07919588 3497.62005893 895.62704201 3496.07204928 897.17468596 3494.52383757 C901.41870675 3490.27952175 905.66583148 3486.03832392 909.91346717 3481.79762626 C914.49748906 3477.2199859 919.07860155 3472.6394356 923.66004944 3468.05921936 C931.59659228 3460.12539862 939.53506194 3452.19350919 947.47462463 3444.26271057 C958.96200938 3432.78794519 970.44609859 3421.30988584 981.92931718 3409.83095139 C987.28274103 3404.47953358 992.63632558 3399.12827654 997.98995209 3393.77706146 C998.52584116 3393.2414134 999.06173024 3392.70576534 999.61385838 3392.15388552 C1012.36171522 3379.41183668 1025.11114575 3366.67136279 1037.86083984 3353.93115234 C1038.41851034 3353.3738955 1038.97618083 3352.81663865 1039.55075043 3352.24249523 C1048.60038445 3343.19957797 1057.65011402 3334.15675633 1066.69985545 3325.11394656 C1075.17966923 3316.64062584 1083.659448 3308.16727008 1092.13916016 3299.69384766 C1092.696529 3299.13689341 1093.25389784 3298.57993915 1093.82815664 3298.0061075 C1106.5562251 3285.28748955 1119.28384237 3272.56842054 1132.01004791 3259.84793854 C1132.54507781 3259.31314963 1133.08010771 3258.77836072 1133.63135064 3258.22736609 C1138.97308438 3252.88801786 1144.31473935 3247.54859083 1149.65627678 3242.2090462 C1161.12597096 3230.74366594 1172.59703966 3219.27966576 1184.07090808 3207.81846274 C1192.43426558 3199.46429523 1200.79586704 3191.10837374 1209.15575445 3182.75073373 C1213.68388109 3178.22395269 1218.21283692 3173.69800919 1222.74398994 3169.17425728 C1226.89240726 3165.03259038 1231.03851051 3160.88862148 1235.18279368 3156.74281794 C1236.6818196 3155.24406334 1238.18169567 3153.74615845 1239.68250984 3152.24919456 C1241.72457166 3150.21212842 1243.76350199 3148.17197679 1245.80170441 3146.13105011 C1246.38294392 3145.55272346 1246.96418343 3144.97439681 1247.56303626 3144.37854511 C1250.4875067 3141.44351592 1253.28761817 3138.44536426 1256 3135.3125 C1259.25653719 3131.55112362 1262.672492 3128.00208405 1266.19829559 3124.49394989 C1266.83741546 3123.85397578 1267.47653533 3123.21400166 1268.13502246 3122.55463439 C1270.26469362 3120.42332658 1272.39790391 3118.29559798 1274.53112793 3116.16784668 C1276.07919588 3114.62005893 1277.62704201 3113.07204928 1279.17468596 3111.52383757 C1283.41870675 3107.27952175 1287.66583148 3103.03832392 1291.91346717 3098.79762626 C1296.49748906 3094.2199859 1301.07860155 3089.6394356 1305.66004944 3085.05921936 C1313.59659228 3077.12539862 1321.53506194 3069.19350919 1329.47462463 3061.26271057 C1340.96200938 3049.78794519 1352.44609859 3038.30988584 1363.92931718 3026.83095139 C1369.28274103 3021.47953358 1374.63632558 3016.12827654 1379.98995209 3010.77706146 C1380.52584116 3010.2414134 1381.06173024 3009.70576534 1381.61385838 3009.15388552 C1394.36171522 2996.41183668 1407.11114575 2983.67136279 1419.86083984 2970.93115234 C1420.41851034 2970.3738955 1420.97618083 2969.81663865 1421.55075043 2969.24249523 C1430.60038445 2960.19957797 1439.65011402 2951.15675633 1448.69985545 2942.11394656 C1457.17966923 2933.64062584 1465.659448 2925.16727008 1474.13916016 2916.69384766 C1474.696529 2916.13689341 1475.25389784 2915.57993915 1475.82815664 2915.0061075 C1488.5562251 2902.28748955 1501.28384237 2889.56842054 1514.01004791 2876.84793854 C1514.54507781 2876.31314963 1515.08010771 2875.77836072 1515.63135064 2875.22736609 C1520.97308438 2869.88801786 1526.31473935 2864.54859083 1531.65627678 2859.2090462 C1543.12597096 2847.74366594 1554.59703966 2836.27966576 1566.07090808 2824.81846274 C1574.43426558 2816.46429523 1582.79586704 2808.10837374 1591.15575445 2799.75073373 C1595.68388109 2795.22395269 1600.21283692 2790.69800919 1604.74398994 2786.17425728 C1608.89240726 2782.03259038 1613.03851051 2777.88862148 1617.18279368 2773.74281794 C1618.6818196 2772.24406334 1620.18169567 2770.74615845 1621.68250984 2769.24919456 C1623.72457166 2767.21212842 1625.76350199 2765.17197679 1627.80170441 2763.13105011 C1628.38294392 2762.55272346 1628.96418343 2761.97439681 1629.56303626 2761.37854511 C1633.73874141 2757.18776365 1637.6472443 2752.80064589 1641.5 2748.3125 C1642.23605469 2747.45785156 1642.97210937 2746.60320313 1643.73046875 2745.72265625 C1677.89332036 2704.74087218 1702.68517238 2654.6191564 1719.5 2604.3125 C1719.85545898 2603.26336426 1720.21091797 2602.21422852 1720.57714844 2601.13330078 C1729.77919297 2573.72157657 1735.98812589 2545.00337045 1739.5 2516.3125 C1739.64808105 2515.15540527 1739.79616211 2513.99831055 1739.94873047 2512.80615234 C1744.53678742 2475.69178425 1744.32036696 2437.38672253 1739.5 2400.3125 C1739.33902832 2399.03487793 1739.17805664 2397.75725586 1739.01220703 2396.44091797 C1732.10127082 2343.23135629 1715.51868173 2292.21852413 1691.5 2244.3125 C1690.86626465 2243.04116211 1690.86626465 2243.04116211 1690.21972656 2241.74414062 C1677.30479734 2215.99753716 1661.45465866 2191.81876401 1643.5 2169.3125 C1643.00145508 2168.6839209 1642.50291016 2168.0553418 1641.98925781 2167.40771484 C1635.62819125 2159.40514509 1629.12853788 2151.61250903 1622.1328125 2144.15625 C1620.11835528 2141.9803971 1618.17161011 2139.78112741 1616.23828125 2137.53515625 C1612.20746797 2132.90900605 1607.91073265 2128.57621628 1603.5625 2124.25 C1602.80259766 2123.48623047 1602.04269531 2122.72246094 1601.25976562 2121.93554688 C1596.50242065 2117.18632717 1591.59883529 2112.69016824 1586.5 2108.3125 C1585.34341836 2107.29090913 1584.18842501 2106.2675168 1583.03515625 2105.2421875 C1512.70779687 2043.17502297 1423.10589327 2004.37777602 1330.25 1993.0625 C1329.57006989 1992.97932526 1328.89013977 1992.89615051 1328.18960571 1992.81045532 C1245.68904718 1982.84677703 1160.29322092 1996.56264934 1034.5 2056.3125 C1033.68885742 2056.80459961 1032.87771484 2057.29669922 1032.04199219 2057.80371094 C1004.7027913 2074.51160428 979.53292357 2094.04101385 956.08447266 2115.84570312 C954.35974754 2117.44233617 952.62384198 2119.0262439 950.88671875 2120.609375 C942.7855057 2128.00762806 942.7855057 2128.00762806 935.39453125 2136.1015625 C933.28050001 2138.56865875 931.07180449 2140.92796669 928.84619141 2143.29418945 C922.77230316 2149.75491114 916.99868213 2156.34988302 911.5 2163.3125 C910.48986417 2164.55751957 909.47942535 2165.80229335 908.46875 2167.046875 C894.34349334 2184.6320957 881.64111801 2203.70071412 870.5 2223.3125 C870.12004883 2223.97378906 869.74009766 2224.63507812 869.34863281 2225.31640625 C834.63004924 2285.88569422 813.70289639 2353.67591401 808.5 2423.3125 C808.44215332 2424.06273438 808.38430664 2424.81296875 808.32470703 2425.5859375 C804.82827739 2472.89667692 809.22551754 2521.25312655 820.5 2567.3125 C820.76006836 2568.37903809 821.02013672 2569.44557617 821.28808594 2570.54443359 C830.09856637 2606.07212979 843.18532203 2639.58510605 859.5 2672.3125 C859.89010254 2673.0967334 860.28020508 2673.8809668 860.68212891 2674.68896484 C870.85270695 2694.95248294 883.18092021 2713.99485711 896.5 2732.3125 C897.28503906 2733.39700439 897.28503906 2733.39700439 898.0859375 2734.50341797 C905.1153336 2744.17552802 912.6056395 2753.33696848 920.5 2762.3125 C921.15742188 2763.07046875 921.81484375 2763.8284375 922.4921875 2764.609375 C924.15075842 2766.520171 925.8223821 2768.41841528 927.5 2770.3125 C928.18320313 2771.08851563 928.86640625 2771.86453125 929.5703125 2772.6640625 C934.99837365 2778.77299543 940.66748808 2784.58957599 946.5 2790.3125 C944.89017885 2794.41022657 941.92394174 2797.07735294 938.8125 2800.0625 C935.48194376 2803.27820947 932.27654156 2806.52496169 929.26416016 2810.04394531 C925.68156492 2814.15921779 921.90758142 2818.03370878 918.03515625 2821.875 C917.35698349 2822.55175781 916.67881073 2823.22851562 915.98008728 2823.92578125 C913.84325695 2826.05707675 911.70295177 2828.18484218 909.5625 2830.3125 C908.10067877 2831.76929779 906.63908813 2833.22632701 905.17773438 2834.68359375 C901.621146 2838.22923973 898.06143984 2841.77172739 894.5 2845.3125 C891.73412115 2843.9772512 889.67907274 2842.74062818 887.51171875 2840.5546875 C886.97393799 2840.01569824 886.43615723 2839.47670898 885.88208008 2838.92138672 C885.32286865 2838.3492041 884.76365723 2837.77702148 884.1875 2837.1875 C883.60572998 2836.59855957 883.02395996 2836.00961914 882.42456055 2835.40283203 C878.90103436 2831.8127498 875.4870637 2828.15976392 872.23046875 2824.32421875 C870.08466726 2821.82966397 867.85414323 2819.42031018 865.625 2817 C860.7080567 2811.59579205 856.03911311 2806.03587421 851.5 2800.3125 C850.98421387 2799.66394043 850.46842773 2799.01538086 849.93701172 2798.34716797 C798.00412587 2732.85744446 760.33721102 2656.09450328 734.5 2523.3125 C734.35046875 2522.22340332 734.2009375 2521.13430664 734.046875 2520.01220703 C728.4933697 2478.54643306 728.71672174 2432.72390446 734.5 2391.3125 C734.67960676 2389.95910296 734.8582843 2388.60558234 735.03613281 2387.25195312 C737.57824356 2368.0801202 740.99922297 2349.12839551 745.5 2330.3125 C745.77650391 2329.15314941 746.05300781 2327.99379883 746.33789062 2326.79931641 C765.03857056 2249.83314327 801.44344613 2176.03755646 852.05126953 2115.06542969 C854.11994039 2112.56238676 856.14982215 2110.02829624 858.1875 2107.5 C861.95604698 2102.89476644 865.90788304 2098.48376466 869.9453125 2094.11328125 C871.27316417 2092.65751727 872.59754419 2091.19753287 873.87231445 2089.69506836 C879.42122327 2083.17087049 885.48936983 2077.17222283 891.55151367 2071.13061523 C893.43328274 2069.25420525 895.30964738 2067.37251031 897.18554688 2065.49023438 C903.12073781 2059.55145402 909.07043542 2053.72093681 915.5 2048.3125 C916.58375887 2047.36394943 917.66583285 2046.41346985 918.74609375 2045.4609375 C927.01776251 2038.24670446 935.59002543 2031.50876732 944.36523438 2024.91943359 C946.45372361 2023.34733431 948.53256084 2021.76325977 950.609375 2020.17578125 C959.34547616 2013.52076271 968.24754952 2007.22898904 977.5 2001.3125 C978.25845215 2000.82700684 979.0169043 2000.34151367 979.79833984 1999.84130859 C1055.00496091 1951.96333321 1140.02877767 1922.77911527 1236.5 1914.3125 C1237.79059326 1914.22637451 1239.08118652 1914.14024902 1240.41088867 1914.05151367 C1251.83929393 1913.32878295 1263.23795428 1913.1107786 1274.6875 1913.125 C1276.05270782 1913.12590637 1276.05270782 1913.12590637 1277.44549561 1913.12683105 C1358.99358848 1913.27248754 1439.06240955 1931.93826353 1512.5 1967.3125 C1513.41217285 1967.74739746 1514.3243457 1968.18229492 1515.26416016 1968.63037109 C1547.62785894 1984.12112963 1578.06661886 2003.46963766 1606.5 2025.3125 C1607.04188965 2025.72822266 1607.5837793 2026.14394531 1608.14208984 2026.57226562 C1620.94686214 2036.42489748 1633.13966281 2046.90894946 1644.97607422 2057.90185547 C1646.57303688 2059.38010768 1648.17818258 2060.84904637 1649.78515625 2062.31640625 C1658.41121985 2070.20525331 1666.92574014 2078.16548847 1674.53125 2087.0625 C1676.57769493 2089.40129421 1678.68379716 2091.67302829 1680.80517578 2093.94360352 C1686.64411637 2100.19753568 1692.16177947 2106.62181084 1697.5 2113.3125 C1698.42091185 2114.44219208 1699.34284111 2115.57105532 1700.265625 2116.69921875 C1722.85941515 2144.43835206 1741.77089406 2174.74347442 1758.5 2206.3125 C1759.01578613 2207.27994141 1759.53157227 2208.24738281 1760.06298828 2209.24414062 C1793.91698625 2273.21521257 1813.65173535 2346.19691528 1818.5 2418.3125 C1818.62918823 2420.21443115 1818.62918823 2420.21443115 1818.76098633 2422.15478516 C1819.51427893 2433.9588225 1819.70140132 2445.73659806 1819.6875 2457.5625 C1819.68689575 2458.52160278 1819.6862915 2459.48070557 1819.68566895 2460.46887207 C1819.61978354 2499.25287948 1815.01288432 2536.91618274 1807.19262695 2574.83447266 C1806.56486428 2577.98678392 1806.02051614 2581.14112706 1805.5 2584.3125 C1832.39133263 2557.44406613 1859.28002349 2530.57299122 1886.16518399 2503.69838133 C1889.34065375 2500.52416226 1892.51614533 2497.34996501 1895.69165039 2494.17578125 C1896.32382455 2493.5438694 1896.95599871 2492.91195755 1897.60732966 2492.26089686 C1907.83771626 2482.03485921 1918.06986862 2471.81059015 1928.30267692 2461.58697587 C1938.80577229 2451.09323857 1949.30696255 2440.59759763 1959.80639404 2430.10019445 C1966.28291787 2423.62504137 1972.76091553 2417.15137008 1979.2408182 2410.67959827 C1983.68675745 2406.23895302 1988.13084155 2401.7964567 1992.5734861 2397.35251528 C1995.13504794 2394.79031421 1997.6974056 2392.22892284 2000.26197433 2389.66973114 C2003.04733532 2386.89016726 2005.82877777 2384.10670275 2008.60987854 2381.32287598 C2009.41436969 2380.52129767 2010.21886084 2379.71971936 2011.04773051 2378.8938508 C2014.38191845 2375.55083992 2017.64316952 2372.19978558 2020.70635128 2368.60572815 C2026.15688519 2362.286149 2032.18269929 2356.49938155 2038.08850098 2350.61047363 C2039.47982655 2349.21942833 2040.87093016 2347.828161 2042.26183176 2346.43669176 C2046.07259321 2342.62563555 2049.88645563 2338.81769597 2053.70083356 2335.01025987 C2057.81859554 2330.89888374 2061.93344401 2326.78459349 2066.04862976 2322.67063904 C2073.1765787 2315.54557437 2080.30630061 2308.42228785 2087.43717957 2301.30015564 C2097.75531068 2290.99458761 2108.0702032 2280.6857823 2118.38419586 2270.3760727 C2123.19353231 2265.56874222 2128.0030295 2260.76157256 2132.81256866 2255.95444489 C2133.29398335 2255.47327121 2133.77539804 2254.99209753 2134.27140106 2254.49634283 C2145.72162609 2243.05192493 2157.17342518 2231.60908248 2168.62548828 2220.16650391 C2169.12635475 2219.66605108 2169.62722122 2219.16559826 2170.14326546 2218.64998019 C2178.27100258 2210.52895976 2186.39883529 2202.40803501 2194.52667987 2194.28712213 C2202.1426694 2186.67762573 2209.75862389 2179.06809427 2217.37451172 2171.45849609 C2217.87510643 2170.95831597 2218.37570115 2170.45813584 2218.8914654 2169.94279874 C2230.32422588 2158.51948974 2241.75653461 2147.09572913 2253.18743134 2135.67055511 C2253.66807393 2135.19015352 2254.14871652 2134.70975192 2254.64392404 2134.21479269 C2259.44280941 2129.4182929 2264.24161597 2124.62171427 2269.04030496 2119.82501802 C2279.80257543 2109.06725318 2290.56660366 2098.31125296 2301.33322275 2087.55784023 C2308.38422437 2080.51526406 2315.43345792 2073.47092148 2322.48130238 2066.4251858 C2326.54766815 2062.36016498 2330.61486087 2058.29598041 2334.6842556 2054.23399162 C2338.41077964 2050.51422392 2342.13498239 2046.79214836 2345.85737008 2043.06824154 C2347.20296489 2041.72291778 2348.54940815 2040.378442 2349.89679319 2039.03491122 C2356.3156043 2032.63360746 2362.65277594 2026.24915503 2368.5 2019.3125 C2369.95445517 2017.70481627 2371.41220895 2016.10010285 2372.875 2014.5 C2377.60566876 2009.2507925 2382.07170625 2003.81756083 2386.5 1998.3125 C2387.40210662 1997.20293217 2388.30446083 1996.09356559 2389.20703125 1994.984375 C2396.95541991 1985.42337451 2404.38092713 1975.6322073 2411.70214844 1965.74121094 C2412.82509279 1964.22422961 2413.95035737 1962.70895985 2415.07910156 1961.19628906 C2443.44489059 1923.13374701 2468.30952714 1882.237385 2490.5 1840.3125 C2490.99806152 1839.37809082 2491.49612305 1838.44368164 2492.00927734 1837.48095703 C2531.95771076 1762.47864965 2561.7017775 1681.52588582 2559.99511719 1244.34912109 C2540.80279679 1182.04422938 2514.37070476 1122.08287543 2481.09277344 1066.00585938 C2479.67609102 1063.61026764 2478.27472381 1061.20691348 2476.8828125 1058.796875 C2455.77562995 1022.32270685 2431.41243158 987.5154067 2405.5 954.3125 C2405.0555957 953.74192871 2404.61119141 953.17135742 2404.15332031 952.58349609 C2398.7390731 945.63666455 2393.26765354 938.74422182 2387.66796875 931.9453125 C2386.22685627 930.19520474 2384.79190597 928.44000388 2383.36328125 926.6796875 C2378.21061728 920.33367766 2372.93434481 914.10505804 2367.59765625 907.9140625 C2365.57255881 905.56467024 2363.5597527 903.2057486 2361.55859375 900.8359375 C2355.71143968 893.92752496 2349.70584376 887.21017047 2343.48291016 880.63696289 C2339.9694089 876.92125689 2336.56980011 873.12728154 2333.21362305 869.26904297 C2322.37217706 856.89073436 2310.61914052 845.32646477 2299 833.6875 C2298.29650421 832.98141602 2297.59300842 832.27533203 2296.86819458 831.54785156 C2294.82133702 829.49506471 2292.77070574 827.44612702 2290.71875 825.3984375 C2290.11079086 824.78849945 2289.50283173 824.1785614 2288.87644958 823.55014038 C2285.13983359 819.83323635 2281.27737977 816.31480797 2277.29089355 812.86758423 C2275.23896693 811.0858375 2273.25029979 809.2477487 2271.28125 807.375 C2270.57613281 806.70726562 2269.87101562 806.03953125 2269.14453125 805.3515625 C2267.71484375 803.9921875 2266.28515625 802.6328125 2264.85546875 801.2734375 C2260.16781432 796.83430588 2255.39310648 792.52393566 2250.5 788.3125 C2249.93974121 787.83006836 2249.37948242 787.34763672 2248.80224609 786.85058594 C2247.18285648 785.46030454 2245.56069474 784.07333625 2243.9375 782.6875 C2240.19291792 779.48883321 2236.45679789 776.28206958 2232.75390625 773.03515625 C2226.15794189 767.2574624 2219.49260082 761.63912691 2212.56079102 756.26757812 C2208.78319304 753.33746674 2205.09382933 750.33052943 2201.4375 747.25 C2195.26817795 742.07782199 2188.92180791 737.16381821 2182.5 732.3125 C2181.76217285 731.75401367 2181.0243457 731.19552734 2180.26416016 730.62011719 C2161.6736211 716.56284157 2142.86270575 703.02854047 2123.38964844 690.21435547 C2120.75881231 688.48284031 2118.13299383 686.74397505 2115.5078125 685.00390625 C2085.93086358 665.49274389 2055.20934657 648.01183247 2023.6484375 631.92041016 C2020.77059291 630.45069207 2017.90031952 628.96721636 2015.03125 627.48046875 C1941.30451883 589.58117066 1858.96683911 564.13879042 1715.5 546.3125 C1714.78216339 546.27119965 1714.06432678 546.22989929 1713.32473755 546.18734741 C1699.19227997 545.38640558 1685.0914098 545.10869253 1670.9375 545.125 C1669.87252289 545.12593658 1668.80754578 545.12687317 1667.71029663 545.12783813 C1583.23470192 545.2873966 1499.3964774 559.6989283 1409.5 588.3125 C1408.76817505 588.54799561 1408.0363501 588.78349121 1407.28234863 589.02612305 C1375.9042696 599.13509035 1345.22755142 611.32689737 1315.04190063 624.56083679 C1313.79792007 625.10173698 1313.79792007 625.10173698 1312.52880859 625.65356445 C1311.7971347 625.97452591 1311.06546082 626.29548737 1310.31161499 626.62617493 C1308.5 627.3125 1308.5 627.3125 1306.5 627.3125 C1306.82049316 627.9523584 1307.14098633 628.5922168 1307.47119141 629.25146484 C1344.83912592 704.29135315 1368.7895113 785.82196581 1381.8125 885.625 C1381.88795044 886.30900879 1381.96340088 886.99301758 1382.0411377 887.69775391 C1382.6042948 892.89661313 1383.06874964 898.10116732 1383.5 903.3125 C1383.58613556 904.33118164 1383.67227112 905.34986328 1383.76101685 906.39941406 C1385.46941131 927.17409448 1385.86495317 947.84480484 1385.81805801 968.67795181 C1385.81240895 971.22861036 1385.80959402 973.77926224 1385.80697632 976.32992554 C1385.77117899 1000.33101323 1385.47435166 1024.20074111 1382.75323486 1048.07348633 C1382.48595191 1050.43670829 1382.23207367 1052.8011274 1381.97998047 1055.16601562 C1373.32336521 1135.56657718 1352.61356028 1214.50130596 1319.5 1288.3125 C1318.99533203 1289.44139648 1318.49066406 1290.57029297 1317.97070312 1291.73339844 C1305.68012907 1319.08108813 1292.01942594 1345.65393822 1276.5 1371.3125 C1275.85530762 1372.38371094 1275.21061523 1373.45492188 1274.54638672 1374.55859375 C1265.96474263 1388.78731247 1257.11174183 1402.75663989 1247.5 1416.3125 C1246.96810059 1417.0643457 1246.43620117 1417.81619141 1245.88818359 1418.59082031 C1238.01033898 1429.69217205 1229.83862883 1440.55426268 1221.5 1451.3125 C1221.02320801 1451.93108887 1220.54641602 1452.54967773 1220.05517578 1453.18701172 C1213.61658764 1461.53666837 1206.9156326 1469.61080331 1200.00292969 1477.57128906 C1198.52370427 1479.28503755 1197.0602409 1481.01093278 1195.6015625 1482.7421875 C1182.9652275 1497.71654453 1169.29434725 1511.68600705 1155.42700195 1525.51586914 C1153.03673893 1527.90070255 1150.65196242 1530.29093105 1148.26757812 1532.68164062 C1146.72167518 1534.22688372 1145.17546257 1535.77181709 1143.62890625 1537.31640625 C1142.58024132 1538.36810753 1142.58024132 1538.36810753 1141.51039124 1539.4410553 C1137.54442161 1543.38841414 1133.47928326 1547.1626635 1129.23773193 1550.81288147 C1126.83773181 1552.88402063 1124.51591808 1555.03651969 1122.1875 1557.1875 C1117.30112002 1561.63938655 1112.26464457 1565.8455313 1107.11962891 1569.99316406 C1105.31015192 1571.46714863 1103.51966395 1572.96240254 1101.73046875 1574.4609375 C1090.94102896 1583.477265 1079.83117464 1591.98956226 1068.5 1600.3125 C1067.70883789 1600.89451172 1066.91767578 1601.47652344 1066.10253906 1602.07617188 C1056.07934755 1609.43180013 1045.93515591 1616.55371873 1035.5 1623.3125 C1034.2941626 1624.09512207 1034.2941626 1624.09512207 1033.06396484 1624.89355469 C1012.59730119 1638.14051196 991.69813838 1650.41287041 970.18310547 1661.87695312 C967.84458474 1663.12813619 965.515864 1664.39483418 963.19140625 1665.671875 C890.04020662 1705.61260995 807.09913707 1730.06058982 672.65100098 1749.12109375 C670.64803466 1749.29932717 668.64576058 1749.48529314 666.64355469 1749.671875 C625.59487801 1753.36065686 582.52071132 1753.13514415 541.5 1749.3125 C540.03226192 1749.18189372 538.56448679 1749.05170326 537.09667969 1748.921875 C458.39673608 1741.86968145 381.27770788 1723.20065652 273.24462891 1677.60693359 C270.80026902 1676.45411416 268.34759672 1675.32402936 265.88671875 1674.20703125 C255.14264779 1669.30773489 244.81484102 1663.72035782 234.49902344 1657.98046875 C231.37036466 1656.24040063 228.23606704 1654.51076232 225.1015625 1652.78125 C204.59564343 1641.41992494 204.59564343 1641.41992494 195.26806641 1635.06787109 C192.22851692 1632.96066801 192.22851692 1632.96066801 188.68586077 1632.36184051 C185.32807269 1633.82218654 183.0484125 1636.35708417 180.51450896 1638.92539555 C179.91496683 1639.52110342 179.3154247 1640.1168113 178.69771462 1640.73057093 C176.67105564 1642.74797115 174.65534893 1644.77597854 172.63933945 1646.80401707 C171.17547014 1648.26566918 169.71094285 1649.72666256 168.24581444 1651.18705258 C164.19141505 1655.23219844 160.14650348 1659.28672011 156.10297392 1663.3427275 C151.71375705 1667.74220722 147.31588218 1672.13301707 142.91906762 1676.52490133 C135.20437581 1684.2333575 127.49525809 1691.94734766 119.78982544 1699.66505814 C111.51937081 1707.94863291 103.24566404 1716.22893893 94.96793365 1724.5052433 C94.44570953 1725.02738135 93.9234854 1725.5495194 93.3854363 1726.08747982 C90.72274426 1728.74970275 88.05999887 1731.4118723 85.39723461 1734.07402299 C66.10848809 1753.35854352 46.82701603 1772.65032373 27.54936981 1791.94594002 C8.45392969 1811.05913787 -10.64460334 1830.1692365 -29.74730682 1849.27517509 C-30.34021188 1849.86818338 -30.93311693 1850.46119167 -31.5439888 1851.0721699 C-36.95913774 1856.48825842 -42.37432493 1861.90430869 -47.78955803 1867.32031306 C-61.2521817 1880.7848551 -74.71432544 1894.24987692 -88.17614365 1907.71522427 C-88.78921577 1908.32845634 -89.40228789 1908.94168841 -90.03393795 1909.57350327 C-119.86793344 1939.41536635 -149.69639867 1969.2627555 -179.52441406 1999.1105957 C-189.87747278 2009.4705293 -200.23055592 2019.83043849 -210.58374023 2030.19024658 C-211.22583177 2030.83274896 -211.8679233 2031.47525134 -212.52947215 2032.13722349 C-242.3698193 2061.99659727 -272.21408984 2091.85204838 -302.05937532 2121.70648606 C-303.99657364 2123.64427857 -305.93377026 2125.58207277 -307.87096654 2127.51986731 C-320.70869817 2140.36155823 -333.54649748 2153.2031815 -346.38434211 2166.04475946 C-371.92921693 2191.59706409 -397.47369406 2217.14976628 -423.01789805 2242.70274154 C-424.23442351 2243.91968472 -425.45094925 2245.13662763 -426.66747527 2246.35357025 C-481.44385313 2301.14871119 -536.21560349 2355.94847656 -590.98535156 2410.75024414 C-591.49827457 2411.26346696 -592.01119758 2411.77668977 -592.53966371 2412.30546479 C-618.19339144 2437.9741944 -643.84685523 2463.64318778 -669.5 2489.3125 C-673.78378421 2487.6653106 -677.56707962 2485.57257266 -681.4375 2483.125 C-682.46109619 2482.48111328 -682.46109619 2482.48111328 -683.50537109 2481.82421875 C-698.1726066 2472.50797069 -712.45908427 2462.54608862 -726.5 2452.3125 C-727.20656738 2451.79896973 -727.91313477 2451.28543945 -728.64111328 2450.75634766 C-739.72893064 2442.68584761 -750.6416421 2434.41521733 -761.42480469 2425.94238281 C-763.397624 2424.39290732 -765.37396301 2422.84805489 -767.3515625 2421.3046875 C-774.47997128 2415.73436431 -781.51688689 2410.06451613 -788.5 2404.3125 C-790.29157706 2402.85405659 -792.08324502 2401.39572483 -793.875 2399.9375 C-799.59041623 2395.26125036 -805.22447345 2390.49264228 -810.8515625 2385.7109375 C-812.46084004 2384.34572101 -814.07347426 2382.98459803 -815.6875 2381.625 C-826.77009166 2372.28602407 -837.79706425 2362.88750322 -848.44042969 2353.0480957 C-851.02935656 2350.65504735 -853.64025119 2348.29951025 -856.3125 2346 C-860.89660197 2342.02584091 -865.30071155 2337.85952148 -869.7253418 2333.70996094 C-873.66086204 2330.02074602 -877.62708212 2326.37145612 -881.625 2322.75 C-886.49558673 2318.30608192 -891.17921129 2313.70700717 -895.78564453 2308.98999023 C-898.44500101 2306.28552351 -901.15528039 2303.72179904 -904.04296875 2301.26171875 C-909.71775756 2296.35295199 -914.96132283 2291.00026019 -920.25463867 2285.68823242 C-922.05862085 2283.87889067 -923.86788665 2282.07495681 -925.67773438 2280.27148438 C-930.94991747 2275.00202363 -936.13997511 2269.73247687 -940.97631836 2264.05444336 C-943.66054963 2260.98570595 -946.58622318 2258.16123716 -949.5 2255.3125 C-953.75859834 2251.14895966 -957.79548557 2246.88773547 -961.6875 2242.37890625 C-964.85850643 2238.76368556 -968.18684773 2235.29702221 -971.5 2231.8125 C-978.7117091 2224.22777146 -985.58886833 2216.40243791 -992.375 2208.4375 C-995.92401333 2204.28043311 -999.50674022 2200.16674498 -1003.1875 2196.125 C-1006.98507249 2191.93880699 -1010.57065944 2187.61230986 -1014.125 2183.21875 C-1016.66665273 2180.10856968 -1019.2660466 2177.05357786 -1021.875 2174 C-1026.1232031 2169.01220722 -1030.21368192 2163.92128551 -1034.23608398 2158.75024414 C-1037.20435727 2154.94062 -1040.22644509 2151.18168133 -1043.2890625 2147.44750977 C-1049.70876043 2139.61969977 -1055.85333388 2131.62731441 -1061.87841797 2123.49316406 C-1063.61913679 2121.15228775 -1065.37255339 2118.82135458 -1067.12890625 2116.4921875 C-1080.75087698 2098.42452325 -1093.85943472 2080.08119471 -1106.5 2061.3125 C-1107.04575684 2060.50216309 -1107.59151367 2059.69182617 -1108.15380859 2058.85693359 C-1129.67057716 2026.85165659 -1149.77854257 1994.03239776 -1168.5 1960.3125 C-1169.28117187 1958.90895264 -1169.28117187 1958.90895264 -1170.078125 1957.47705078 C-1194.23354527 1913.88219731 -1215.40635719 1868.74369184 -1233.5 1822.3125 C-1233.89384888 1821.30207642 -1233.89384888 1821.30207642 -1234.2956543 1820.27124023 C-1248.51897562 1783.67776387 -1260.63628135 1746.31334358 -1270.5 1708.3125 C-1270.78813568 1707.20572906 -1270.78813568 1707.20572906 -1271.08209229 1706.07659912 C-1283.72386434 1657.38564229 -1292.57342169 1607.71153239 -1297.27996826 1557.62127686 C-1297.49733116 1555.34050396 -1297.72637796 1553.06115168 -1297.95751953 1550.78173828 C-1303.27376626 1497.3647604 -1303.23657125 1441.18782968 -1297.75323486 1387.78790283 C-1297.48759107 1385.19120113 -1297.23320718 1382.59354577 -1296.97998047 1379.99560547 C-1289.6290494 1305.43521102 -1274.91200046 1231.5202984 -1251.5 1160.3125 C-1251.25592407 1159.5662738 -1251.01184814 1158.82004761 -1250.76037598 1158.0512085 C-1232.46677557 1102.15476686 -1209.07912944 1047.73242974 -1180.5 996.3125 C-1179.94505859 995.30735352 -1179.39011719 994.30220703 -1178.81835938 993.26660156 C-1156.65992746 953.19479913 -1131.26324471 914.85682502 -1103.27880859 878.61865234 C-1101.70649004 876.58020586 -1100.14183229 874.53631046 -1098.58203125 872.48828125 C-1091.19664915 862.8011426 -1083.47442617 853.41755817 -1075.57958984 844.14404297 C-1072.72503775 840.78510393 -1069.94083724 837.38044861 -1067.1875 833.9375 C-1062.32043639 827.94794244 -1057.03089616 822.37984747 -1051.73828125 816.76953125 C-1048.73915174 813.58525971 -1045.85576016 810.31644164 -1043.00390625 807 C-1040.87834897 804.6149591 -1038.59898253 802.39991345 -1036.31884766 800.16381836 C-1034.66281427 798.47822089 -1033.14202989 796.74819298 -1031.62109375 794.94140625 C-1026.64331286 789.21847223 -1021.24573441 783.90894717 -1015.87573242 778.55786133 C-1014.06639067 776.75387915 -1012.26245681 774.94461335 -1010.45898438 773.13476562 C-1005.15187382 767.8249146 -999.86316072 762.55189082 -994.11499023 757.71313477 C-992.32167352 756.15784255 -990.66170948 754.50695616 -989 752.8125 C-986.03264677 749.79836418 -982.92654708 747.01332667 -979.72265625 744.25390625 C-977.17023117 742.02445939 -974.68112486 739.73248618 -972.1875 737.4375 C-967.75234354 733.39171256 -963.19041972 729.56566054 -958.51953125 725.796875 C-954.93344214 722.84635408 -951.43537809 719.80404253 -947.9375 716.75 C-942.23604491 711.78538101 -936.46384686 706.96115733 -930.5 702.3125 C-929.19656122 701.28913046 -927.89318115 700.26568615 -926.58984375 699.2421875 C-915.34767744 690.43609639 -903.96948866 681.81991969 -892.5 673.3125 C-891.80600098 672.79429687 -891.11200195 672.27609375 -890.39697266 671.7421875 C-852.82020832 643.74058013 -812.43075637 619.03514154 -771.5 596.3125 C-770.63342773 595.82700684 -769.76685547 595.34151367 -768.87402344 594.84130859 C-736.7192575 576.85613253 -703.50050981 560.5044664 -669.5 546.3125 C-668.79010925 546.01577393 -668.08021851 545.71904785 -667.34881592 545.41333008 C-650.57740526 538.41864517 -633.68222834 531.8561776 -616.5 525.9375 C-615.80638367 525.69785522 -615.11276733 525.45821045 -614.39813232 525.21130371 C-612.45507751 524.54314759 -610.50958374 523.88287383 -608.5625 523.2265625 C-607.46035156 522.8548291 -606.35820313 522.4830957 -605.22265625 522.10009766 C-602.5 521.3125 -602.5 521.3125 -599.5 521.3125 C-596.75874903 530.53426385 -594.02041065 539.75688597 -591.28582001 548.98062706 C-590.01604328 553.2632303 -588.74525306 557.5455274 -587.47216797 561.82714844 C-586.24434718 565.95667231 -585.01916084 570.08696925 -583.79582214 574.21782303 C-583.32787957 575.79621007 -582.85897724 577.3743129 -582.38911438 578.95212936 C-581.73280236 581.15663912 -581.07986425 583.36212119 -580.42773438 585.56787109 C-580.05467163 586.82473724 -579.68160889 588.08160339 -579.29724121 589.3765564 C-578.5 592.3125 -578.5 592.3125 -578.5 594.3125 C-579.21091797 594.54735107 -579.92183594 594.78220215 -580.65429688 595.02416992 C-620.20428749 608.17284032 -658.10627508 624.95731416 -695.5 643.3125 C-696.56911621 643.83344238 -697.63823242 644.35438477 -698.73974609 644.89111328 C-712.66442538 651.67996726 -726.22216699 658.94970822 -739.64550781 666.68017578 C-742.48942342 668.30645185 -745.34694479 669.90547626 -748.2109375 671.49609375 C-762.27115585 679.3175927 -775.92690236 687.67719802 -789.5 696.3125 C-791.72777925 697.72148909 -793.95564535 699.13034089 -796.18359375 700.5390625 C-798.39367069 701.94201304 -800.60331788 703.34564083 -802.8125 704.75 C-803.81974121 705.38784424 -804.82698242 706.02568848 -805.86474609 706.68286133 C-811.69387391 710.40689168 -817.33023729 714.31435523 -822.89868164 718.41723633 C-825.98481443 720.66572519 -829.13576998 722.80076049 -832.30737305 724.92602539 C-841.2181343 730.89836738 -849.73456705 737.24933288 -858.1484375 743.8984375 C-862.3089648 747.18345482 -866.55069664 750.34822863 -870.8125 753.5 C-876.93246442 758.04430474 -882.78266593 762.82941552 -888.55859375 767.80078125 C-891.14504523 770.00939785 -893.76731668 772.14424568 -896.4375 774.25 C-906.1684075 781.97794923 -915.48598816 790.18708554 -924.5859375 798.64453125 C-926.84800296 800.71556437 -929.12976946 802.74715423 -931.44140625 804.76171875 C-943.99903964 815.71716115 -955.77365257 827.48187111 -967.5625 839.25 C-968.24643829 839.9313501 -968.93037659 840.6127002 -969.63504028 841.31469727 C-979.12305494 850.72112078 -979.12305494 850.72112078 -988.0690918 860.63647461 C-990.5666662 863.56188806 -993.23619776 866.32753049 -995.875 869.125 C-1000.50272311 874.06998862 -1004.89827818 879.12477238 -1009.1328125 884.4140625 C-1011.96987564 887.88782628 -1014.91891018 891.25262606 -1017.875 894.625 C-1023.48402367 901.05175303 -1028.81176977 907.64830015 -1034.01953125 914.40234375 C-1035.62634837 916.4755194 -1037.24946191 918.53522434 -1038.875 920.59375 C-1046.19678906 929.88931785 -1053.1971639 939.34597344 -1059.9375 949.0703125 C-1061.59042564 951.4422608 -1063.26205752 953.80015902 -1064.9375 956.15625 C-1072.85337537 967.3132626 -1080.33090375 978.66349672 -1087.5 990.3125 C-1088.13276855 991.33311523 -1088.76553711 992.35373047 -1089.41748047 993.40527344 C-1120.18725098 1043.08601428 -1146.45751728 1095.37602351 -1166.5 1150.3125 C-1166.72905029 1150.93733276 -1166.95810059 1151.56216553 -1167.1940918 1152.20593262 C-1196.16628556 1231.26308765 -1214.30740812 1313.91235925 -1224.5 1456.3125 C-1224.53287109 1457.90674805 -1224.53287109 1457.90674805 -1224.56640625 1459.53320312 C-1226.27728947 1553.00445619 -1210.82525816 1646.82155944 -1123.40948486 1880.46813965 C-1122.02332395 1883.27915975 -1120.65137758 1886.09709938 -1119.27734375 1888.9140625 C-1113.45456948 1900.78461839 -1107.22094996 1912.35162469 -1100.63671875 1923.81640625 C-1098.20813196 1928.04744251 -1095.85717096 1932.31303686 -1093.54248047 1936.60717773 C-1076.57861045 1968.01308822 -1056.76001577 1997.96718719 -1036.5 2027.3125 C-1035.87851074 2028.21371582 -1035.25702148 2029.11493164 -1034.61669922 2030.04345703 C-1014.30240854 2059.44239944 -992.58046927 2087.83360658 -969.9765625 2115.50390625 C-968.66952459 2117.1048548 -967.36576644 2118.70847976 -966.0625 2120.3125 C-960.77412492 2126.80964652 -955.39018667 2133.22134841 -949.95898438 2139.59912109 C-948.97249956 2140.75761347 -947.98684435 2141.9168127 -947.00195312 2143.07666016 C-941.02223614 2150.11648785 -934.96983525 2157.06295347 -928.7265625 2163.87109375 C-926.80866793 2165.97404833 -924.92623955 2168.09919156 -923.0625 2170.25 C-918.78869034 2175.16438066 -914.36407622 2179.94014172 -909.95263672 2184.73046875 C-908.50645626 2186.30546865 -907.06672628 2187.8861171 -905.62890625 2189.46875 C-901.01206 2194.54409684 -896.34108427 2199.52694622 -891.44422913 2204.33583069 C-889.66312399 2206.14665423 -888.00943383 2208.00484972 -886.36499023 2209.93920898 C-882.09243088 2214.85250035 -877.51803317 2219.43815711 -872.91015625 2224.03515625 C-872.00680038 2224.93946884 -871.10344452 2225.84378143 -870.17271423 2226.77549744 C-868.27203932 2228.67684943 -866.37040392 2230.57717553 -864.46704102 2232.47583008 C-862.04881608 2234.88835861 -859.63511042 2237.30535081 -857.22272587 2239.72371769 C-854.89181599 2242.05914575 -852.55706044 2244.39072177 -850.22265625 2246.72265625 C-848.93948265 2248.0088662 -848.93948265 2248.0088662 -847.63038635 2249.32106018 C-843.27076104 2253.66387898 -838.85018736 2257.86454772 -834.17063904 2261.86204529 C-831.82655751 2263.89718515 -829.6647465 2266.08924683 -827.5 2268.3125 C-824.07693209 2271.77181825 -820.59041397 2275.04167746 -816.89453125 2278.203125 C-813.52889723 2281.16795758 -810.27034246 2284.24331114 -807 2287.3125 C-801.91299942 2292.07792991 -796.80416039 2296.78836319 -791.5 2301.3125 C-790.4789719 2302.18727272 -789.45815929 2303.06229699 -788.4375 2303.9375 C-786.6679412 2305.45458897 -784.89803703 2306.97126383 -783.12695312 2308.48657227 C-778.71396572 2312.26387934 -774.32238587 2316.06513469 -769.9375 2319.875 C-760.83986722 2327.77019372 -751.71591574 2335.62381064 -742.26953125 2343.1015625 C-740.12844307 2344.8108092 -738.00355253 2346.53455098 -735.88671875 2348.2734375 C-728.59639052 2354.25614833 -721.23411179 2360.09206058 -713.6574707 2365.70849609 C-707.64645782 2370.17138477 -701.74669108 2374.77019697 -695.87744141 2379.41772461 C-690.91479658 2383.31629349 -685.79737298 2386.88328271 -680.5 2390.3125 C-676.51555609 2388.70806327 -673.83688455 2385.92701601 -670.86832124 2382.9303689 C-670.30709684 2382.3718249 -669.74587244 2381.81328091 -669.16764124 2381.23781134 C-667.274008 2379.35075985 -665.38762717 2377.45661902 -663.50108814 2375.56247711 C-662.1311066 2374.19427724 -660.76068669 2372.82651619 -659.38986662 2371.45915645 C-655.59900392 2367.6752924 -651.8144481 2363.88517339 -648.03083167 2360.09406542 C-643.92301058 2355.98029644 -639.80941853 2351.87230524 -635.69653958 2347.76359415 C-628.0058337 2340.0789629 -620.31967211 2332.38980463 -612.63554079 2324.69859969 C-605.37207883 2317.42855339 -598.10625621 2310.16087495 -590.83830643 2302.89531517 C-590.34972953 2302.40689613 -589.86115262 2301.9184771 -589.35777036 2301.41525748 C-586.86661162 2298.92492272 -584.37541843 2296.43462241 -581.88421392 2293.94433342 C-563.84054154 2275.90713672 -545.80179047 2257.8650249 -527.76571083 2239.82023621 C-509.89977128 2221.94568519 -492.03198767 2204.07298115 -474.16164207 2186.20283508 C-473.04038572 2185.08158666 -471.91912947 2183.96033813 -470.79787333 2182.8390895 C-466.29228065 2178.3335342 -461.78667346 2173.82799343 -457.28104846 2169.32247045 C-444.68528527 2156.72698491 -432.08985533 2144.13116615 -419.49466991 2131.53510284 C-418.92106978 2130.96146304 -418.34746964 2130.38782323 -417.75648768 2129.79680039 C-399.47335364 2111.512358 -381.19165223 2093.22648388 -362.91099262 2074.93956757 C-362.317888 2074.34626 -361.72478338 2073.75295244 -361.11370589 2073.14166586 C-351.48141711 2063.50606816 -341.84922149 2053.87037732 -332.21703055 2044.23468181 C-294.00826852 2006.01202927 -255.79588418 1967.79300236 -217.57983398 1929.57763672 C-216.37182418 1928.36964731 -215.16381447 1927.1616578 -213.95580484 1925.95366821 C-211.54267043 1923.54057398 -209.12953572 1921.12748005 -206.71640082 1918.7143863 C-201.30596329 1913.30404019 -195.8955293 1907.89369055 -190.48510207 1902.48333414 C-189.28684143 1901.28508927 -188.08858046 1900.08684474 -186.89031915 1898.88860055 C-154.90053284 1866.89925924 -122.91320175 1834.90746318 -90.92680424 1802.91473341 C-90.36859572 1802.35641472 -89.8103872 1801.79809603 -89.23526327 1801.22285858 C-81.65842685 1793.6445267 -81.65842685 1793.6445267 -74.08160726 1786.06617798 C-61.79314158 1773.77521473 -49.50439696 1761.48453056 -37.21487069 1749.19462776 C-36.38329307 1748.36302384 -36.38329307 1748.36302384 -35.5349159 1747.51461984 C-33.30047697 1745.28011171 -31.06603606 1743.04560555 -28.83159404 1740.8111005 C-8.12342354 1720.10234467 12.58316237 1699.39200697 33.28655418 1678.67847359 C35.26853273 1676.69553741 37.25051843 1674.71260838 39.23250961 1672.72968483 C39.71894212 1672.24302179 40.20537462 1671.75635876 40.7065475 1671.25494836 C48.42805777 1663.52986538 56.15123982 1655.80645602 63.8751038 1648.08372647 C71.45854044 1640.5013306 79.04015395 1632.91711589 86.61992473 1625.33105542 C90.67936231 1621.26834899 94.73960675 1617.20645755 98.80201717 1613.14672357 C102.48987024 1609.46126507 106.17545703 1605.77355662 109.85916626 1602.08395637 C111.19137844 1600.75043261 112.52444787 1599.41776463 113.85842891 1598.08601033 C115.65603966 1596.29116121 117.45059856 1594.49331723 119.24436873 1592.6946311 C120.03198942 1591.91041932 120.03198942 1591.91041932 120.83552164 1591.11036488 C123.50152546 1588.46298729 123.50152546 1588.46298729 125.5 1585.3125 C124.61513916 1584.89846924 124.61513916 1584.89846924 123.71240234 1584.47607422 C121.60950081 1583.37009003 119.93663477 1582.19472013 118.1015625 1580.6953125 C117.14588379 1579.91776611 117.14588379 1579.91776611 116.17089844 1579.12451172 C115.49575195 1578.56779785 114.82060547 1578.01108398 114.125 1577.4375 C113.41891602 1576.85887207 112.71283203 1576.28024414 111.98535156 1575.68408203 C101.88692371 1567.37876956 91.99189332 1558.88205503 82.4140625 1549.98046875 C80.26859691 1548.01618859 78.10444427 1546.11065896 75.89819336 1544.21777344 C71.14000815 1540.05869414 66.67652581 1535.63296491 62.21484375 1531.16015625 C61.35492325 1530.30119247 60.49500275 1529.4422287 59.60902405 1528.55723572 C57.80184139 1526.75072985 55.99590608 1524.94297538 54.19116211 1523.1340332 C51.44561607 1520.3831319 48.69477454 1517.63760779 45.94335938 1514.89257812 C44.1793668 1513.12792468 42.4156845 1511.36296103 40.65234375 1509.59765625 C39.43175514 1508.38010399 39.43175514 1508.38010399 38.18650818 1507.13795471 C33.42205209 1502.35410711 28.89536001 1497.43587139 24.5 1492.3125 C23.04554483 1490.70481627 21.58779105 1489.10010285 20.125 1487.5 C16.23075382 1483.18475424 12.53345276 1478.74158245 8.87890625 1474.22265625 C6.77063363 1471.64357069 4.62711626 1469.10330984 2.46118164 1466.57299805 C-3.44098225 1459.67151508 -9.05899325 1452.58292479 -14.5 1445.3125 C-15.01933105 1444.61914551 -15.53866211 1443.92579102 -16.07373047 1443.21142578 C-40.58526535 1410.39817397 -62.96968075 1376.25721832 -82.07714844 1340.00683594 C-83.40631454 1337.48990439 -84.7508864 1334.98199928 -86.1015625 1332.4765625 C-127.18955137 1255.93250772 -153.85115566 1171.12008321 -173.703125 993.875 C-173.71014446 992.23535637 -173.7172313 990.59571302 -173.72438049 988.95606995 C-173.74379715 983.74154268 -173.74881468 978.52705976 -173.75 973.3125 C-173.75044186 972.42478283 -173.75088371 971.53706566 -173.75133896 970.62244797 C-173.7579863 945.17328318 -173.66278047 919.85193014 -170.75323486 894.53723145 C-170.48512033 892.18177838 -170.23149924 889.82505384 -169.97998047 887.46777344 C-166.19342979 852.30327235 -160.04315061 817.63030069 -151.5 783.3125 C-152.34244263 783.09968384 -152.34244263 783.09968384 -153.2019043 782.88256836 C-160.9928137 780.74598587 -168.07886966 777.4241271 -175.3125 773.875 C-175.94728271 773.56570557 -176.58206543 773.25641113 -177.23608398 772.93774414 C-209.11773723 757.3782197 -238.9356322 737.86623945 -265.5 714.3125 C-266.85385283 713.14546916 -268.20796995 711.97874475 -269.5625 710.8125 C-280.70268122 701.00818633 -291.84741374 690.96401722 -301.48828125 679.66015625 C-303.07023903 677.81402688 -304.67198426 675.99502912 -306.29296875 674.18359375 C-372.65846155 599.55086852 -405.59055446 502.3535612 -405.9375 383.79296875 C-399.90976863 289.01558677 -362.88539494 199.9056085 -298.1953125 130.23046875 C-295.53388961 127.34918918 -292.9237672 124.4266955 -290.3125 121.5 C-286.85365488 117.68541923 -283.29012856 114.22496863 -279.3515625 110.9140625 C-277.5256348 109.33467356 -275.86194426 107.6754303 -274.1875 105.9375 C-270.12137827 101.81667708 -265.65129231 98.2519931 -261.13671875 94.63720703 C-259.3885065 93.22226078 -257.66216965 91.78337748 -255.9375 90.33984375 C-200.64968088 44.28560182 -132.02484535 15.21786143 -61.1875 4.0625 C-60.23633301 3.91143799 -59.28516602 3.76037598 -58.30517578 3.60473633 C-38.90547407 0.72740061 -19.58975187 -0.06277995 0 0 Z M-220.828125 160.82421875 C-223.0542356 162.89736561 -225.31247618 164.90010465 -227.625 166.875 C-235.17992076 173.44039891 -242.02964557 180.69007418 -248.5 188.3125 C-249.29792969 189.22128906 -250.09585937 190.13007813 -250.91796875 191.06640625 C-296.54243031 243.39219679 -322.72083909 309.62122654 -329.5 378.3125 C-329.57202637 379.01455566 -329.64405273 379.71661133 -329.71826172 380.43994141 C-335.34828834 437.35249165 -323.32847251 497.0585263 -298.5 548.3125 C-297.92862305 549.52244629 -297.92862305 549.52244629 -297.34570312 550.75683594 C-284.66403188 577.60779545 -267.94479709 602.98840866 -247.765625 624.8359375 C-245.87880336 626.89842874 -244.04559182 628.99038158 -242.21875 631.10546875 C-238.54742651 635.31051751 -234.6988537 639.30595494 -230.75 643.25 C-229.6995752 644.29921631 -229.6995752 644.29921631 -228.62792969 645.36962891 C-223.98500291 649.95822129 -219.25430091 654.22195819 -214.1171875 658.25390625 C-211.30042107 660.46948224 -208.59504877 662.79195004 -205.875 665.125 C-186.06967119 681.5997793 -163.5936795 695.00920402 -140.5 706.3125 C-139.67435547 706.71839355 -138.84871094 707.12428711 -137.99804688 707.54248047 C-136.80018555 708.10733154 -136.80018555 708.10733154 -135.578125 708.68359375 C-134.8655957 709.02189209 -134.15306641 709.36019043 -133.41894531 709.70874023 C-131.31532619 710.5767056 -131.31532619 710.5767056 -128.5 709.3125 C-127.10971385 706.53717169 -127.10971385 706.53717169 -125.92578125 703.04296875 C-125.4263876 701.68311358 -124.92678426 700.32333542 -124.42700195 698.96362305 C-124.16488922 698.23766937 -123.90277649 697.5117157 -123.63272095 696.76376343 C-116.7737285 677.83333217 -108.75590896 659.4847182 -100.36260986 641.19268799 C-99.57664186 639.47955245 -98.79376838 637.76499804 -98.01123047 636.05029297 C-92.24740444 623.4690839 -85.85618054 611.29441476 -79.11376953 599.21191406 C-77.44755611 596.21827554 -75.79909533 593.21531997 -74.15234375 590.2109375 C-61.79879542 567.77529407 -48.14473105 546.31670332 -33.5 525.3125 C-33.04850586 524.66168457 -32.59701172 524.01086914 -32.13183594 523.34033203 C-20.37282634 506.42802725 -7.6651341 490.14838582 5.5 474.3125 C5.98839355 473.72500977 6.47678711 473.13751953 6.97998047 472.53222656 C12.35114782 466.09115587 17.83098748 459.76151465 23.47265625 453.5546875 C25.23967199 451.60041576 26.96913529 449.62190263 28.6875 447.625 C38.64447588 436.26154546 49.20728383 425.50280895 59.875 414.8125 C60.4385318 414.24638 61.0020636 413.68026001 61.58267212 413.09698486 C67.1759555 407.48346212 72.76936714 401.91529308 78.80078125 396.76660156 C81.3748968 394.56380958 83.83343112 392.24667465 86.3125 389.9375 C90.93780953 385.66410029 95.70081901 381.62366271 100.609375 377.67578125 C103.24694694 375.51938797 105.82238897 373.31076048 108.38989258 371.07250977 C116.79951723 363.75387624 125.57037733 356.98189587 134.5 350.3125 C135.27569336 349.73177734 136.05138672 349.15105469 136.85058594 348.55273438 C159.54127859 331.59725558 182.97987974 315.52075889 207.5 301.3125 C208.2429834 300.879375 208.9859668 300.44625 209.75146484 300 C237.29100787 283.97375553 265.43942261 269.37744135 294.5 256.3125 C293.08494836 251.55675945 291.07034099 247.35691485 288.625 243.0625 C288.04105469 242.03237793 288.04105469 242.03237793 287.4453125 240.98144531 C277.67092856 224.02136192 266.04495649 208.30970161 253.5 193.3125 C252.86118896 192.53616211 252.86118896 192.53616211 252.20947266 191.74414062 C241.37122522 178.58256921 229.59473844 165.91552422 216.13671875 155.39453125 C213.73382104 153.49713202 211.43101171 151.51596089 209.13256836 149.49438477 C155.16666118 102.4263124 80.46357165 77.29888409 9.5 75.3125 C8.8208252 75.29058594 8.14165039 75.26867187 7.44189453 75.24609375 C-75.31654654 72.89555815 -160.30627838 104.11557473 -220.828125 160.82421875 Z M546.5 269.3125 C545.8179248 269.37566406 545.13584961 269.43882812 544.43310547 269.50390625 C508.30751464 272.86059973 472.76325344 278.79350653 437.5 287.3125 C436.24799805 287.61349609 434.99599609 287.91449219 433.70605469 288.22460938 C348.60344534 309.02389831 267.53742725 347.19343809 196.5 398.3125 C195.28352783 399.18672607 195.28352783 399.18672607 194.04248047 400.07861328 C183.49005617 407.68988806 173.23942403 415.59456206 163.21923828 423.89306641 C160.80694282 425.88470029 158.37004633 427.84568419 155.9375 429.8125 C138.06390648 444.48485289 121.3253883 460.30632904 105.00561523 476.67651367 C102.91049908 478.77707104 100.8099769 480.87211874 98.70898438 482.96679688 C97.34603287 484.33040811 95.98339103 485.69432893 94.62109375 487.05859375 C93.70063515 487.97601601 93.70063515 487.97601601 92.76158142 488.91197205 C89.02257315 492.67100769 85.47271197 496.55104345 82.00901794 500.56536865 C80.08813301 502.78935697 78.10773845 504.95614242 76.125 507.125 C71.39384655 512.37387226 66.94123215 517.81812076 62.5 523.3125 C61.48917233 524.54370087 60.47739951 525.77412618 59.46484375 527.00390625 C26.03570954 567.69476218 -1.81549937 612.33679611 -25.5 659.3125 C-26.0480127 660.39772949 -26.59602539 661.48295898 -27.16064453 662.60107422 C-61.61629384 731.29488903 -83.32099608 806.42596737 -62.05395508 1196.06640625 C-45.50786735 1245.87988943 -22.92301479 1293.59142067 4.5 1338.3125 C5.00821289 1339.14394531 5.51642578 1339.97539063 6.04003906 1340.83203125 C22.88368843 1368.31562313 41.72920807 1394.66507434 62.5 1419.3125 C63.50290892 1420.5114639 64.5055263 1421.71067174 65.5078125 1422.91015625 C70.30923167 1428.63843947 75.19702895 1434.27754946 80.234375 1439.80078125 C82.10985944 1441.87998211 83.95302174 1443.97995188 85.7890625 1446.09375 C89.4772008 1450.31629403 93.2778411 1454.42235303 97.125 1458.5 C97.81722656 1459.23395996 98.50945312 1459.96791992 99.22265625 1460.72412109 C111.27847805 1473.48089101 111.27847805 1473.48089101 124.22265625 1485.31640625 C126.82097807 1487.59383755 129.32790535 1489.95577427 131.84057617 1492.3269043 C137.63202622 1497.79138873 143.47296008 1503.0711859 149.69921875 1508.04296875 C152.98825515 1510.70814329 156.17830988 1513.47548122 159.375 1516.25 C165.88064456 1521.87879289 172.62211883 1527.14837659 179.5 1532.3125 C185.47309862 1527.35984539 190.94717826 1522.00629199 196.42550468 1516.51562977 C197.42328754 1515.5191951 198.42128855 1514.52297885 199.41948658 1513.5269601 C202.16012196 1510.79104222 204.8976477 1508.05203138 207.63466965 1505.31249926 C210.61363561 1502.33189777 213.59549024 1499.35418849 216.57697308 1496.37610501 C221.80156897 1491.15666053 227.02429696 1485.93535278 232.24580383 1480.71281815 C240.01052621 1472.94657115 247.77808871 1465.18316941 255.54619214 1457.42030447 C270.22719022 1442.74898003 284.90475591 1428.07422494 299.58120428 1413.39834938 C310.91462328 1402.06538982 322.24884114 1390.7332298 333.58362198 1379.40163231 C336.84567306 1376.14047877 340.10772028 1372.87932136 343.36976635 1369.61816281 C344.18070838 1368.80744184 344.9916504 1367.99672086 345.82716642 1367.16143259 C368.63915926 1344.35559442 391.45004756 1321.54865196 414.25874138 1298.73951435 C415.11877697 1297.87946318 415.97881257 1297.01941201 416.86490984 1296.13329868 C421.22397997 1291.77414544 425.58304213 1287.41498424 429.94210254 1283.05582128 C430.80783627 1282.1900676 431.67357 1281.32431393 432.56553808 1280.43232529 C434.31626278 1278.68156016 436.06698679 1276.93079435 437.81771013 1275.18002786 C465.05751955 1247.93960565 492.30138575 1220.70324645 519.54833984 1193.4699707 C550.15630574 1162.87736408 580.76089347 1132.28138339 611.36071599 1101.68063134 C614.62338122 1098.41789147 617.88605943 1095.15516456 621.14874649 1091.89244652 C621.95210776 1091.08907359 622.75546903 1090.28570067 623.58317458 1089.45798311 C636.51341229 1076.52771462 649.4468561 1063.60065764 662.38141416 1050.67471111 C675.37999932 1037.68460119 688.374839 1024.6907537 701.36589848 1011.69311748 C709.08379891 1003.97152058 716.80445362 996.25270196 724.52910237 988.53785592 C729.69040178 983.38255322 734.84804975 978.22361649 740.00276118 973.06172661 C742.93869573 970.121908 745.87616625 967.18367186 748.81809472 964.24985043 C751.4991599 961.57610867 754.17550438 958.89773105 756.84829894 956.21572233 C758.25373721 954.80777507 759.66403912 953.40468777 761.07458574 952.00185832 C766.23936524 946.80830264 771.00276924 941.43410207 775.57089598 935.70735658 C778.11866339 932.54446982 780.83621455 929.57445622 783.625 926.625 C784.65964089 925.51766163 785.69350034 924.4095926 786.7265625 923.30078125 C787.20899414 922.78338379 787.69142578 922.26598633 788.18847656 921.73291016 C789.82855674 919.95666547 791.42034889 918.1425836 793 916.3125 C799.65330716 908.63184394 806.5555075 901.13302068 813.81895447 894.02598572 C815.5050943 892.3073074 817.06526635 890.52546263 818.62719727 888.69360352 C822.7697236 883.93481787 827.18698145 879.48159798 831.65234375 875.02734375 C832.51130753 874.16742325 833.3702713 873.30750275 834.25526428 872.42152405 C836.06177015 870.61434139 837.86952462 868.80840608 839.6784668 867.00366211 C842.4293681 864.25811607 845.17489221 861.50727454 847.91992188 858.75585938 C849.68457532 856.9918668 851.44953897 855.2281845 853.21484375 853.46484375 C854.43239601 852.24425514 854.43239601 852.24425514 855.67454529 850.99900818 C859.92747193 846.76332093 864.25157803 842.67994441 868.8139801 838.77833557 C871.16213728 836.73683397 873.33016165 834.54098263 875.5 832.3125 C878.92306791 828.85318175 882.40958603 825.58332254 886.10546875 822.421875 C889.47110277 819.45704242 892.72965754 816.38168886 896 813.3125 C901.08692342 808.54714236 906.19462667 803.83511333 911.5 799.3125 C913.79255669 797.3552068 916.08398314 795.39659526 918.375 793.4375 C918.9839209 792.91744385 919.5928418 792.3973877 920.22021484 791.86157227 C923.75719364 788.83292166 927.24434963 785.76062817 930.6875 782.625 C934.87369301 778.82742751 939.20019014 775.24184056 943.59375 771.6875 C946.70393032 769.14584727 949.75892214 766.5464534 952.8125 763.9375 C957.7983051 759.69098984 962.88775824 755.60294677 968.05566406 751.58081055 C972.60897533 748.03161104 977.09291028 744.4038816 981.5625 740.75 C987.81032104 735.65371778 994.12793424 730.67595986 1000.54882812 725.79833984 C1002.86530271 724.03431778 1005.17472865 722.26123371 1007.484375 720.48828125 C1016.23299998 713.78258699 1024.99977804 707.12952397 1034.01171875 700.78125 C1036.55223418 698.9915574 1039.07142499 697.17516689 1041.58203125 695.34375 C1053.38123579 686.74038382 1065.39071462 678.47269485 1077.5 670.3125 C1078.56976074 669.59102783 1078.56976074 669.59102783 1079.66113281 668.85498047 C1088.80615067 662.69715394 1098.03481637 656.6694106 1107.31396484 650.71582031 C1108.73998348 649.80039088 1110.16484539 648.88315631 1111.58837891 647.96386719 C1140.14252975 629.54226531 1169.75899129 612.72634119 1199.5 596.3125 C1199.5 591.66759688 1198.59868254 590.46814853 1196.0546875 586.68359375 C1195.69312057 586.14132141 1195.33155365 585.59904907 1194.95903015 585.04034424 C1193.77408913 583.27012099 1192.57530119 581.50983741 1191.375 579.75 C1190.54914215 578.5266211 1189.7235418 577.30306833 1188.89819336 576.0793457 C1178.70892988 561.03154635 1167.88389413 546.47670877 1156.5 532.3125 C1155.75492188 531.384375 1155.00984375 530.45625 1154.2421875 529.5 C1145.54991102 518.78264119 1136.56182842 508.33406422 1127.16796875 498.2265625 C1125.17425755 496.04895115 1123.23504801 493.8512205 1121.30957031 491.61499023 C1117.65437967 487.43279731 1113.81135786 483.47899559 1109.87890625 479.55859375 C1109.17531479 478.85404556 1108.47172333 478.14949738 1107.74681091 477.42359924 C1106.26985352 475.94596633 1104.79165258 474.46957543 1103.31225586 472.99438477 C1101.06834915 470.75583519 1098.82983296 468.51199527 1096.59179688 466.26757812 C1095.14615382 464.82259596 1093.70020055 463.37792408 1092.25390625 461.93359375 C1091.5953212 461.27298447 1090.93673615 460.61237518 1090.25819397 459.93174744 C1086.38082193 456.07354771 1082.39560832 452.39521992 1078.25091553 448.82530212 C1075.84746796 446.74870818 1073.52046136 444.59267737 1071.1875 442.4375 C1065.78529859 437.51631653 1060.18770102 432.89748347 1054.5 428.3125 C1053.26994984 427.30315906 1052.0408379 426.29267402 1050.8125 425.28125 C1015.07612235 395.91688619 976.17933008 370.31815589 935.26269531 348.77392578 C932.64124723 347.38721774 930.03408852 345.97699845 927.4296875 344.55859375 C850.94667615 303.21095048 764.63345885 280.09154825 652.5 268.3125 C651.19506592 268.22637451 649.89013184 268.14024902 648.5456543 268.05151367 C634.63873317 267.18688487 620.74267236 267.11217 606.8125 267.125 C604.98977066 267.12590637 604.98977066 267.12590637 603.13021851 267.12683105 C584.1678536 267.15237442 565.38678408 267.524862 546.5 269.3125 Z M1189.87255859 688.28955078 C1186.53074891 690.294056 1183.18234573 692.28709212 1179.83203125 694.27734375 C1167.88824873 701.38411389 1156.08066749 708.62919237 1144.5 716.3125 C1143.29614219 717.10884642 1142.0921963 717.90505967 1140.88818359 718.70117188 C1124.27524591 729.69136114 1107.71188911 740.7351594 1091.5 752.3125 C1090.76394531 752.83537598 1090.02789063 753.35825195 1089.26953125 753.89697266 C1078.526016 761.53508701 1068.0047235 769.44219086 1057.54296875 777.4609375 C1053.76862046 780.35177596 1049.97037202 783.2070889 1046.15283203 786.04052734 C1038.08809797 792.02946899 1030.27199406 798.28380527 1022.51318359 804.66259766 C1020.48011761 806.32879459 1018.4389094 807.98442642 1016.39453125 809.63671875 C1009.56079514 815.16056719 1002.77292999 820.72736665 996.08569336 826.42797852 C992.72072804 829.29357564 989.31334549 832.09806185 985.875 834.875 C981.11479947 838.74829272 976.57195216 842.82009992 972.0546875 846.97265625 C969.87302185 848.97084848 967.66988691 850.93398889 965.4375 852.875 C961.60637612 856.20675132 957.83173656 859.59849383 954.0625 863 C951.58734669 865.23367493 949.10631688 867.46067716 946.625 869.6875 C940.8830964 874.85966433 935.17564042 880.06773776 929.5 885.3125 C928.65008736 886.09706322 928.65008736 886.09706322 927.78300476 886.8974762 C915.2544861 898.49478677 903.15095501 910.50519634 891.09423828 922.58789062 C888.38942058 925.29847026 885.68004478 928.0044429 882.96938133 930.70917511 C880.84672225 932.82820177 878.72647337 934.94962721 876.60692215 937.07176208 C875.60865898 938.07068373 874.60967653 939.06888719 873.60990524 940.06629944 C868.54298547 945.12385476 863.59019152 950.2170357 858.92758179 955.65133667 C857.22229529 957.63564288 855.44470386 959.53866879 853.6328125 961.42578125 C852.97974121 962.11043457 852.32666992 962.79508789 851.65380859 963.50048828 C850.98430176 964.20157715 850.31479492 964.90266602 849.625 965.625 C844.48012478 971.04664535 839.58037082 976.54250244 834.9205085 982.3902114 C823.2070187 996.53194964 809.71953997 1009.2311927 796.7331684 1022.18919507 C793.78226284 1025.1348014 790.83433926 1028.08338978 787.88602245 1031.03158683 C782.73152829 1036.18507942 777.57520175 1041.33673272 772.41763687 1046.4871521 C764.74862179 1054.14557244 757.08254388 1061.80692791 749.4170879 1069.46891042 C736.5189964 1082.36103362 723.6187171 1095.25096542 710.71731949 1108.13978004 C692.29664788 1126.54259063 673.8802169 1144.94964138 655.46464943 1163.35755946 C648.07034514 1170.74875509 640.67590414 1178.13981395 633.28146172 1185.53087139 C632.46011338 1186.35184496 631.63876504 1187.17281853 630.79252736 1188.01867008 C611.26425341 1207.53798136 591.73462924 1227.05594148 572.20458984 1246.57348633 C571.35051055 1247.42702122 570.49643125 1248.28055611 569.61647076 1249.1599557 C549.66795715 1269.09573113 529.71880161 1289.03086393 509.76855469 1308.96490479 C508.90910197 1309.82366031 508.04964926 1310.68241584 507.16415252 1311.56719426 C502.82975259 1315.89807622 498.49534824 1320.22895378 494.16094373 1324.55983116 C492.87584655 1325.84388317 492.87584655 1325.84388317 491.56478781 1327.15387563 C489.83554028 1328.8817164 488.10629199 1330.60955643 486.37704294 1332.33739569 C457.84059402 1360.85062206 429.30752221 1389.36722438 400.77819025 1417.88757178 C396.75461238 1421.90987302 392.73098845 1425.93212818 388.70733261 1429.95435143 C387.91545524 1430.74594745 387.12357787 1431.53754347 386.30770421 1432.35312726 C373.54109996 1445.11496674 360.77079611 1457.87309805 347.99902785 1470.62976929 C335.18425094 1483.42951246 322.3729735 1496.23274923 309.56535508 1509.03965537 C301.94776784 1516.65658652 294.32735335 1524.27066429 286.70297266 1531.88079546 C281.62028056 1536.95452693 276.54117098 1542.03182541 271.46503973 1547.11212081 C268.5667466 1550.01257884 265.66683951 1552.91137442 262.76256658 1555.80584583 C260.12631528 1558.43325847 257.49461519 1561.06513798 254.86663679 1563.70082458 C253.46337709 1565.10577465 252.05515582 1566.50576362 250.64680248 1567.90560767 C249.82760816 1568.72904035 249.00841384 1569.55247304 248.16439545 1570.40085822 C247.09469945 1571.46975068 247.09469945 1571.46975068 246.00339342 1572.56023692 C244.28294858 1574.18067963 244.28294858 1574.18067963 244.5 1576.3125 C260.92648384 1585.79234226 277.56991726 1594.76468284 294.5 1603.3125 C295.56637695 1603.85374512 296.63275391 1604.39499023 297.73144531 1604.95263672 C317.50667549 1614.93127005 337.85813126 1623.31925304 358.5 1631.3125 C359.72799316 1631.78816406 360.95598633 1632.26382813 362.22119141 1632.75390625 C414.56000406 1652.76075519 470.15616527 1665.18735815 525.75 1671.625 C527.01811523 1671.77235596 528.28623047 1671.91971191 529.59277344 1672.0715332 C533.89191276 1672.53565101 538.19194608 1672.94150344 542.5 1673.3125 C543.49445129 1673.39863556 544.48890259 1673.48477112 545.51348877 1673.57351685 C564.74587628 1675.18711569 583.86059783 1675.67951053 603.1469841 1675.63055801 C605.41595277 1675.62489784 607.6849139 1675.62208972 609.95388794 1675.61947632 C633.24564096 1675.5805255 656.34385326 1674.99484676 679.5 1672.3125 C680.2718866 1672.22528687 681.04377319 1672.13807373 681.83905029 1672.04821777 C749.54758765 1664.38725434 815.66599136 1647.80594394 878.5 1621.3125 C879.60408203 1620.8479541 880.70816406 1620.3834082 881.84570312 1619.90478516 C909.62739187 1608.11294629 936.9276957 1594.69596823 962.71875 1579.00244141 C965.60466351 1577.24890442 968.50419152 1575.51963642 971.40625 1573.79296875 C983.75725024 1566.40820156 995.75836712 1558.631055 1007.5 1550.3125 C1008.66619873 1549.48637207 1008.66619873 1549.48637207 1009.85595703 1548.64355469 C1023.05265856 1539.26129072 1035.91611476 1529.50424093 1048.5 1519.3125 C1049.77230469 1518.28576172 1049.77230469 1518.28576172 1051.0703125 1517.23828125 C1063.36365314 1507.2566621 1075.17654819 1496.86777516 1086.69482422 1486.00439453 C1088.95037139 1483.89039103 1091.23161361 1481.80562748 1093.51489258 1479.72167969 C1102.75561038 1471.27542542 1111.84902354 1462.62079248 1119.9609375 1453.0703125 C1121.5694055 1451.23322976 1123.25838868 1449.52342213 1125 1447.8125 C1128.71213359 1444.14953374 1132.10680882 1440.27015399 1135.5 1436.3125 C1136.40715539 1435.2691862 1137.31474081 1434.22624621 1138.22265625 1433.18359375 C1144.258698 1426.22723643 1150.07709966 1419.14334631 1155.72265625 1411.8671875 C1157.59836131 1409.45280818 1159.50224137 1407.065406 1161.43359375 1404.6953125 C1168.90338957 1395.52406319 1175.83945836 1386.08629141 1182.5 1376.3125 C1183.23814941 1375.22984863 1183.97629883 1374.14719727 1184.73681641 1373.03173828 C1200.37625381 1350.03680903 1214.99540138 1326.59498255 1228.05712891 1302.02197266 C1229.49908981 1299.31420919 1230.95808358 1296.61610154 1232.41796875 1293.91796875 C1268.46660719 1226.71714433 1291.33371491 1151.88439643 1290.5 804.3125 C1290.16949371 802.96718757 1289.8392586 801.6218085 1289.50927734 800.27636719 C1277.6410075 752.12392336 1260.04579057 705.94686615 1238.5 661.3125 C1225.20976972 661.3125 1201.0968341 681.54787025 1189.87255859 688.28955078 Z " fill="#050708" transform="translate(1300.5,-0.3125)"/>
</svg>
