<svg width="72" height="52" viewBox="0 0 72 52" fill="none" xmlns="http://www.w3.org/2000/svg">
<path d="M32.7273 52H18C13.0255 52 8.78182 50.2992 5.26909 46.8975C1.75636 43.4742 0 39.3033 0 34.385C0 30.16 1.27636 26.39 3.82909 23.075C6.40364 19.76 9.76364 17.6475 13.9091 16.7375C15.2836 11.7542 18.0109 7.72417 22.0909 4.6475C26.1927 1.54917 30.8291 0 36 0C42.3927 0 47.8036 2.21 52.2327 6.63C56.6836 11.0283 58.9091 16.4017 58.9091 22.75C62.6836 23.1833 65.8036 24.8083 68.2691 27.625C70.7564 30.3983 72 33.6483 72 37.375C72 41.4483 70.5709 44.9042 67.7127 47.7425C64.8545 50.5808 61.3745 52 57.2727 52H39.2727V28.7625L44.5091 33.8L49.0909 29.25L36 16.25L22.9091 29.25L27.4909 33.8L32.7273 28.7625V52Z" fill="#006039"/>
</svg>
