<svg width="100%" height="100%" version="1.1" viewBox="0 0 100 100" xmlns="http://www.w3.org/2000/svg"> <path d="m76.746 10.57c0.14844-0.84375 1.3594-0.84375 1.5078 0 1.1055 6.3477 6.0781 11.32 12.426 12.426 0.84375 0.14844 0.84375 1.3594 0 1.5078-6.3477 1.1055-11.32 6.0781-12.426 12.426-0.14844 0.84375-1.3594 0.84375-1.5078 0-1.1055-6.3477-6.0781-11.32-12.426-12.426-0.84375-0.14844-0.84375-1.3594 0-1.5078 6.3477-1.1055 11.32-6.0781 12.426-12.426zm-33.805 6.125c0.36328-1.3672 1.6016-2.3203 3.0195-2.3203h8.0781c1.418 0 2.6562 0.95312 3.0195 2.3203l1.2695 4.75c0.26562 1.0039-0.32812 2.0312-1.332 2.2969-1 0.26562-2.0273-0.32813-2.293-1.3281l-1.1445-4.2891h-7.1172l-0.94531 3.5469c-0.30859 1.1445-1.2227 1.9883-2.3242 2.25-3.0625 0.73047-5.9414 1.9375-8.5469 3.543-0.96484 0.59375-2.2109 0.64453-3.2344 0.050781l-3.1797-1.8398-5.0352 5.0352 1.8398 3.1797c0.59375 1.0234 0.54297 2.2695-0.050781 3.2344-1.6055 2.6055-2.8125 5.4844-3.543 8.5469-0.26172 1.1016-1.1055 2.0156-2.25 2.3242l-3.5469 0.94531v7.1172l3.5469 0.94531c1.1445 0.30859 1.9883 1.2227 2.25 2.3242 0.73047 3.0625 1.9375 5.9414 3.543 8.5469 0.59375 0.96484 0.64453 2.2109 0.050781 3.2344l-1.8398 3.1797 5.0352 5.0352 3.1797-1.8398c1.0234-0.59375 2.2695-0.54297 3.2344 0.050781 2.6055 1.6055 5.4844 2.8125 8.5469 3.543 1.1016 0.26172 2.0156 1.1055 2.3242 2.25l0.94531 3.5469h7.1172l0.94531-3.5469c0.30859-1.1445 1.2227-1.9883 2.3242-2.25 3.0625-0.73047 5.9414-1.9375 8.5469-3.543 0.96484-0.59375 2.2109-0.64453 3.2344-0.050781l3.1797 1.8398 5.0352-5.0352-1.8398-3.1797c-0.59375-1.0234-0.54297-2.2695 0.050781-3.2344 1.6055-2.6055 2.8125-5.4844 3.543-8.5469 0.26172-1.1016 1.1055-2.0156 2.25-2.3242l3.5469-0.94531v-7.1172l-4.2891-1.1445c-1-0.26562-1.5938-1.293-1.3281-2.293 0.26563-1.0039 1.293-1.5977 2.2969-1.332l4.75 1.2695c1.3672 0.36328 2.3203 1.6016 2.3203 3.0195v8.0781c0 1.418-0.95312 2.6562-2.3203 3.0195l-3.6602 0.97656c-0.80078 3.2148-2.0742 6.2422-3.7344 9.0078l1.8984 3.2852c0.71094 1.2227 0.50781 2.7734-0.49219 3.7734l-5.7148 5.7148c-1 1-2.5508 1.2031-3.7734 0.49219l-3.2852-1.8984c-2.7656 1.6602-5.793 2.9336-9.0078 3.7344l-0.97656 3.6602c-0.36328 1.3672-1.6016 2.3203-3.0195 2.3203h-8.0781c-1.418 0-2.6562-0.95312-3.0195-2.3203l-0.97656-3.6602c-3.2148-0.80078-6.2422-2.0742-9.0078-3.7344l-3.2852 1.8984c-1.2227 0.71094-2.7734 0.50781-3.7734-0.49219l-5.7148-5.7148c-1-1-1.2031-2.5508-0.49219-3.7734l1.8984-3.2852c-1.6602-2.7656-2.9336-5.793-3.7344-9.0078l-3.6602-0.97656c-1.3672-0.36328-2.3203-1.6016-2.3203-3.0195v-8.0781c0-1.418 0.95312-2.6562 2.3203-3.0195l3.6602-0.97656c0.80078-3.2148 2.0742-6.2422 3.7344-9.0078l-1.8984-3.2852c-0.71094-1.2227-0.50781-2.7734 0.49219-3.7734l5.7148-5.7148c1-1 2.5508-1.2031 3.7734-0.49219l3.2852 1.8984c2.7656-1.6602 5.793-2.9336 9.0078-3.7344zm-4.8164 35.805c0-6.5586 5.3164-11.875 11.875-11.875s11.875 5.3164 11.875 11.875-5.3164 11.875-11.875 11.875-11.875-5.3164-11.875-11.875zm11.875-15.625c-8.6289 0-15.625 6.9961-15.625 15.625s6.9961 15.625 15.625 15.625 15.625-6.9961 15.625-15.625-6.9961-15.625-15.625-15.625z" fill-rule="evenodd"></path> 
</svg>