<svg width="100%" height="100%" version="1.1" viewBox="0 0 100 100" xmlns="http://www.w3.org/2000/svg"> <path d="m89.227 39.801l-20.312-20.316c-0.57422-0.57422-1.4297-0.74219-2.1797-0.43359-0.74609 0.30859-1.2344 1.0391-1.2344 1.8477v9.5273h-15.5c-1.1055 0-2 0.89453-2 2s0.89453 2 2 2h17.5c1.1055 0 2-0.89453 2-2v-6.6992l15.484 15.484-15.484 15.488v-6.6992c0-1.1055-0.89453-2-2-2h-33.012c0.015625-0.96094 0.015625-2.1875 0.015625-3.7656v-5.7656c0-0.80859-0.48828-1.5391-1.2344-1.8477-0.75-0.3125-1.6055-0.14062-2.1797 0.43359l-20.316 20.312c-0.78125 0.78125-0.78125 2.0469 0 2.8281l20.312 20.316c0.38281 0.38281 0.89453 0.58594 1.4141 0.58594 0.25781 0 0.51953-0.050781 0.76562-0.15234 0.74609-0.30859 1.2344-1.0391 1.2344-1.8477v-9.5352h15.5c1.1055 0 2-0.89453 2-2s-0.89453-2-2-2h-17.5c-1.1055 0-2 0.89453-2 2v0.023438c0 0.22656 0.003906 3.6289 0.003906 6.6797l-15.488-15.484 15.484-15.484c0 2.9883 0 6.3203-0.003906 6.6602-0.003906 0.14062 0.011718 0.28516 0.039062 0.42969 0.18359 0.9375 1.0078 1.6133 1.9609 1.6133h33.004v9.5273c0 0.80859 0.48828 1.5391 1.2344 1.8477 0.75 0.30859 1.6055 0.14062 2.1797-0.43359l20.312-20.312c0.78125-0.78125 0.78125-2.0469 0-2.8281z"></path> 
</svg>