<svg width="100%" height="100%" version="1.1" viewBox="0 0 100 100" xmlns="http://www.w3.org/2000/svg"> <g> <path d="m82.488 98.703h-64.977c-5.0469 0-9.1484-4.1055-9.1484-9.1484v-42.605c0-0.52734 0.42578-0.95312 0.95312-0.95312h81.363c0.52734 0 0.95312 0.42578 0.95312 0.95312v42.602c0.003907 5.0469-4.1016 9.1523-9.1445 9.1523zm-72.215-50.797v41.648c0 3.9922 3.2461 7.2383 7.2383 7.2383h64.977c3.9922 0 7.2383-3.2461 7.2383-7.2383v-41.648z"></path> 
 <path d="m58.68 98.703h-17.359c-0.52734 0-0.95312-0.42578-0.95312-0.95312v-50.797c0-0.52734 0.42578-0.95312 0.95312-0.95312h17.359c0.52734 0 0.95312 0.42578 0.95312 0.95312v50.797c0.003907 0.52734-0.42578 0.95312-0.95312 0.95312zm-16.406-1.9102h15.449l0.003906-48.887h-15.453z"></path> 
 <path d="m40.172 31.797c-0.0625 0-0.125-0.007813-0.1875-0.019531-8.7695-1.7578-14.426-3.8867-16.816-6.3242-2.6602-2.6953-4.1094-6.2695-4.082-10.062 0.03125-3.7969 1.5352-7.3516 4.2461-10.008 2.6719-2.6367 6.2031-4.0859 9.957-4.0859h0.10547c3.7969 0.027344 7.3516 1.5312 10.012 4.2344 2.3281 2.3672 4.3203 7.8086 5.9258 16.168 0.046875 0.25391-0.007812 0.51562-0.15234 0.72656-0.14844 0.21094-0.375 0.35547-0.62891 0.39453-4.0391 0.67188-7.0938 4.0039-7.4219 8.1016-0.023437 0.27344-0.16016 0.51953-0.375 0.6875-0.17188 0.12109-0.375 0.1875-0.58203 0.1875zm-6.8828-28.59c-3.2461 0-6.3047 1.2539-8.6172 3.5352-2.3438 2.3047-3.6484 5.3789-3.6758 8.6641-0.027344 3.2812 1.2305 6.375 3.5352 8.7109 2.0039 2.0469 7.1211 3.9727 14.828 5.5859 0.75-4.1562 3.8359-7.5 7.9141-8.5625-1.4766-7.3633-3.2812-12.285-5.2305-14.27-2.3008-2.3398-5.3789-3.6406-8.6641-3.6641h-0.089844z"></path> 
 <path d="m59.945 31.926c-0.21094 0-0.41797-0.070312-0.58594-0.19922-0.21484-0.16797-0.34766-0.41797-0.36719-0.69141-0.28125-4.1445-3.3359-7.5195-7.4375-8.2148-0.25781-0.042968-0.48438-0.1875-0.62891-0.40234-0.14844-0.21484-0.19922-0.48047-0.14453-0.73438 1.7461-8.332 3.8203-13.727 6.1719-16.039 2.6992-2.6602 6.25-4.0938 10.066-4.082 3.7969 0.03125 7.3516 1.5352 10.008 4.2461 2.6602 2.6992 4.1133 6.2734 4.082 10.066s-1.5352 7.3477-4.2422 10.008c-2.418 2.3867-8.0508 4.4141-16.75 6.0312-0.058594 0.003907-0.11719 0.011719-0.17188 0.011719zm-7.0977-10.781c4.1328 1.0898 7.2266 4.4844 7.9258 8.6953 7.6406-1.4883 12.73-3.3203 14.754-5.3203 2.3438-2.3008 3.6484-5.3789 3.6719-8.6602 0.027343-3.2812-1.2305-6.375-3.5352-8.7109-2.3047-2.3438-5.3789-3.6484-8.6641-3.6758h-0.097656c-3.2461 0-6.3008 1.2539-8.6133 3.5352-1.9648 1.9336-3.8398 6.8125-5.4414 14.137z"></path> 
 <path d="m59.969 32.684c-0.52734 0-0.95312-0.42578-0.95312-0.95312 0-0.22266 0-0.45703-0.019531-0.66797-0.28125-4.168-3.3398-7.5469-7.4375-8.2422-1.2344-0.19141-2.0859-0.14844-3.0078 0-4.0391 0.67188-7.0898 4.0039-7.4219 8.1016-0.019531 0.22656-0.03125 0.4375-0.03125 0.66016 0 0.52734-0.42578 0.95312-0.95312 0.95312-0.52734 0-0.95312-0.42578-0.95312-0.95312 0-0.28516 0.011719-0.55469 0.039063-0.82422 0.39844-4.9609 4.1055-9 9.0117-9.8164 1.1328-0.18359 2.168-0.22656 3.625 0 4.9844 0.84375 8.6953 4.9453 9.0352 9.9727 0.023437 0.24609 0.023437 0.53906 0.023437 0.82422-0.003906 0.51562-0.42969 0.94531-0.95703 0.94531z"></path> 
 <path d="m92.406 48.168h-0.027344l-84.891-0.67188c-0.91797-0.007813-1.7773-0.37109-2.4219-1.0234-0.64453-0.65234-0.99219-1.5195-0.98828-2.4375l0.074219-9.5625c0.007812-0.91797 0.37109-1.7773 1.0234-2.4219 0.65625-0.64453 1.5195-0.96094 2.4375-0.98828l84.891 0.67188c0.91797 0.007813 1.7773 0.37109 2.4219 1.0234 0.64453 0.65234 0.99219 1.5195 0.98828 2.4375l-0.074218 9.5625c-0.007813 0.91797-0.37109 1.7773-1.0234 2.4219-0.64844 0.64062-1.5 0.98828-2.4102 0.98828zm-84.812-15.195c-0.40234 0-0.78125 0.15625-1.0703 0.4375-0.28906 0.28516-0.45313 0.66797-0.45313 1.0742l-0.074218 9.5625c-0.003906 0.40625 0.15234 0.79297 0.4375 1.082 0.28516 0.28906 0.66797 0.45312 1.0742 0.45312l84.891 0.67188c0.38281 0 0.79297-0.15234 1.082-0.4375 0.28906-0.28516 0.45312-0.66797 0.45312-1.0742l0.074218-9.5625c0.007813-0.83984-0.67187-1.5312-1.5117-1.5352l-84.891-0.67188h-0.011719zm87.367 2.2188h0.007812z"></path> 
 <path d="m58.832 47.906h-0.007812l-17.781-0.14062c-0.52734-0.003906-0.95312-0.43359-0.94922-0.96094l0.11719-14.523c0.003906-0.52734 0.42187-0.91016 0.96094-0.94922l17.781 0.14062c0.25391 0 0.49609 0.10547 0.67188 0.28516 0.17969 0.17969 0.27734 0.42578 0.27344 0.67578l-0.11719 14.523c0 0.25391-0.10547 0.49609-0.28516 0.67188-0.17188 0.17969-0.41406 0.27734-0.66406 0.27734zm-16.816-2.043 15.871 0.125 0.10156-12.613-15.871-0.125z"></path> 
</g> 
</svg>