<svg width="100%" height="100%" version="1.1" viewBox="0 0 100 100" xmlns="http://www.w3.org/2000/svg"> <g> <path d="m65.625 65.625h31.25v-62.5h-62.5v31.25h-31.25v62.5h62.5zm-28.125-59.375h56.25v56.25h-28.125v-28.125h-28.125zm25 87.5h-56.25v-4.6875h6.25v-3.125h-6.25v-3.125h6.25v-3.125h-6.25v-3.125h6.25v-3.125h-6.25v-3.125h6.25v-3.125h-6.25v-3.125h6.25v-3.125h-6.25v-3.125h6.25v-3.125h-6.25v-3.125h6.25v-3.125h-6.25v-3.125h6.25v-3.125h-6.25v-4.6875h56.25z"></path> 
 <path d="m79.688 42.188c4.4219 0 8.4102-2.6641 10.105-6.75 1.6914-4.0898 0.75781-8.793-2.3711-11.922s-7.832-4.0625-11.922-2.3711c-4.0859 1.6953-6.75 5.6836-6.75 10.105 0.007812 6.0391 4.8984 10.93 10.938 10.938zm0-18.75c3.1602 0 6.0078 1.9023 7.2188 4.8242 1.207 2.918 0.53906 6.2773-1.6953 8.5117-2.2344 2.2344-5.5938 2.9023-8.5117 1.6953-2.9219-1.2109-4.8242-4.0586-4.8242-7.2188 0.003906-4.3125 3.5-7.8086 7.8125-7.8125z"></path> 
 <path d="m75 26.562h3.125v3.125h-3.125z"></path> 
 <path d="m81.25 26.562h3.125v3.125h-3.125z"></path> 
 <path d="m81.25 32.812h3.125v3.125h-3.125z"></path> 
 <path d="m75 32.812h3.125v3.125h-3.125z"></path> 
 <path d="m70.312 20.312c0-4.4219-2.6641-8.4102-6.75-10.105-4.0898-1.6914-8.793-0.75781-11.922 2.3711s-4.0625 7.832-2.3711 11.922c1.6953 4.0859 5.6836 6.75 10.105 6.75 6.0391-0.007812 10.93-4.8984 10.938-10.938zm-10.938 7.8125c-3.1602 0-6.0078-1.9023-7.2188-4.8242-1.207-2.918-0.53906-6.2773 1.6953-8.5117 2.2344-2.2344 5.5938-2.9023 8.5117-1.6953 2.9219 1.2109 4.8242 4.0586 4.8242 7.2188-0.003906 4.3125-3.5 7.8086-7.8125 7.8125z"></path> 
 <path d="m54.688 15.625h3.125v3.125h-3.125z"></path> 
 <path d="m60.938 15.625h3.125v3.125h-3.125z"></path> 
 <path d="m60.938 21.875h3.125v3.125h-3.125z"></path> 
 <path d="m54.688 21.875h3.125v3.125h-3.125z"></path> 
 <path d="m87.5 20.312h3.125v-10.938h-7.8125v3.125h4.6875z"></path> 
 <path d="m87.5 56.25h3.125v3.125h-3.125z"></path> 
 <path d="m81.25 56.25h3.125v3.125h-3.125z"></path> 
 <path d="m47.98 70.77-2.0195-2.0195 6.707-6.707c0.91406-0.91406 1.4297-2.1562 1.4297-3.4492s-0.51562-2.5352-1.4297-3.4492c-1.9297-1.8398-4.9648-1.8398-6.8945 0l-6.7109 6.707-2.0195-2.0195-2.2109 2.2109 10.938 10.938zm0-13.414c0.68359-0.68359 1.793-0.68359 2.4766 0 0.32812 0.32812 0.51172 0.77344 0.51172 1.2383 0 0.46094-0.18359 0.90625-0.51172 1.2344l-0.45703 0.46094-2.4766-2.4766zm-6.707 6.707 4.0391-4.0391 2.4766 2.4766-4.0391 4.0391z"></path> 
 <path d="m30.793 83.918 8.2695-8.2695 2.0195 2.0195 2.2109-2.2109-10.938-10.938-2.2109 2.2109 2.0195 2.0195-8.2695 8.2695c-1.3945 1.3945-1.875 5.5156-2.0156 7.2266l-0.15625 1.8398 1.8398-0.15625c1.7109-0.14063 5.8359-0.61719 7.2305-2.0117zm-4.6875-4.6875 8.2695-8.2695 2.4766 2.4766-8.2578 8.2578c-1.0664 0.48828-2.207 0.78906-3.375 0.89453 0.10938-1.1602 0.41016-2.2969 0.88672-3.3594z"></path> 
</g> 
</svg>