<svg width="100%" height="100%" version="1.1" viewBox="0 0 100 100" xmlns="http://www.w3.org/2000/svg"> <g> <path d="m86.551 33.438c-0.96875-1.3516-1.8984-2.6484-2.3086-3.9219-0.42188-1.3398-0.46094-2.9688-0.48047-4.7188-0.039063-2.6406-0.070313-5.3711-1.6406-7.5117-1.5781-2.1602-4.1602-3.0508-6.6914-3.8906-1.6289-0.55078-3.1602-1.0781-4.2891-1.8906-1.1016-0.80078-2.0703-2.0898-3.0703-3.4609-1.6016-2.1328-3.2305-4.3633-5.8203-5.2031-2.4688-0.80078-5.0586 0-7.5508 0.76953-1.6719 0.51953-3.2695 1-4.7188 1s-3.0508-0.48047-4.7188-1c-2.5117-0.78125-5.0898-1.582-7.5508-0.76953-2.5781 0.83984-4.2188 3.0508-5.8203 5.2109-1.0195 1.3594-1.9688 2.6602-3.0586 3.4609-1.1211 0.80859-2.6602 1.3398-4.3008 1.8906-2.5117 0.85938-5.1094 1.7305-6.6914 3.8906-1.5586 2.1406-1.6016 4.8711-1.6406 7.5117-0.019531 1.7305-0.050781 3.3594-0.48047 4.7188-0.41016 1.2695-1.3203 2.5508-2.3086 3.9219-1.5586 2.1992-3.1797 4.4688-3.1797 7.2188s1.6211 5.0195 3.1797 7.2109c0.96875 1.3594 1.8984 2.6602 2.3086 3.9219 0.42969 1.3398 0.46094 2.9805 0.48047 4.7188 0.039062 2.6406 0.078125 5.3789 1.6406 7.5195 1.582 2.1445 4.1602 3.0352 6.6914 3.875 1.6406 0.55859 3.1602 1.0781 4.3008 1.8984 1.0898 0.80078 2.0586 2.0781 3.0586 3.4492 0.64844 0.87891 1.3008 1.75 2.0312 2.5508v16.57c0 1.8398 0.94922 3.4883 2.5508 4.4219 1.5898 0.92969 3.4883 0.92969 5.0898 0.019531l7.2891-4.1484c0.69922-0.41016 1.6016-0.41016 2.3008 0l7.2891 4.1484c0.80078 0.44922 1.6484 0.67188 2.5312 0.67188 0.89062 0 1.7617-0.23828 2.5586-0.71094 1.6016-0.92969 2.5508-2.5781 2.5508-4.4219l-0.003906-16.57c0.73047-0.80078 1.3789-1.6719 2.0312-2.5391 1.0195-1.3594 1.9688-2.6602 3.0586-3.4609 1.1211-0.82031 2.6602-1.3398 4.3008-1.8984 2.5117-0.85156 5.1094-1.7305 6.6914-3.8789 1.5586-2.1406 1.6016-4.8711 1.6406-7.5117 0.019531-1.7305 0.050781-3.3711 0.48047-4.7305 0.41016-1.2617 1.3203-2.5391 2.3086-3.9219 1.5586-2.1914 3.1797-4.4609 3.1797-7.2109-0.039062-2.7266-1.6602-4.9961-3.2188-7.1992zm-2.2695 12.832c-1.0586 1.4688-2.1406 3.0117-2.6797 4.6719-0.55078 1.75-0.58984 3.6797-0.60937 5.5391-0.039063 2.3008-0.058594 4.5-1.1016 5.9102-1.0586 1.4492-3.1211 2.1602-5.3281 2.8984-1.75 0.58984-3.5703 1.2109-5.0391 2.2695-1.4492 1.0586-2.5781 2.5781-3.6602 4.0508-1.3984 1.8789-2.7188 3.6406-4.4492 4.2188-1.6289 0.51953-3.6797-0.10938-5.8711-0.78125-1.8008-0.55859-3.6797-1.1289-5.5586-1.1289s-3.7383 0.57031-5.5586 1.1289c-2.1758 0.67188-4.2461 1.3242-5.875 0.78125-1.7305-0.55859-3.0508-2.3398-4.4414-4.2188-1.1016-1.4688-2.2383-2.9883-3.6719-4.0508-1.4688-1.0586-3.2695-1.6797-5.0391-2.2695-2.1914-0.73828-4.2695-1.4492-5.3281-2.8984-1.0391-1.4102-1.0586-3.6094-1.1016-5.9102-0.019531-1.8594-0.050781-3.7891-0.60938-5.5391-0.53906-1.6797-1.6406-3.1992-2.6797-4.6719-1.3711-1.9102-2.6602-3.7383-2.6602-5.6094 0-1.8789 1.2891-3.6797 2.6602-5.6211 1.0586-1.4688 2.1406-3.0117 2.6797-4.6602 0.55859-1.75 0.58984-3.6797 0.60938-5.5391 0.039062-2.3086 0.058594-4.5 1.1016-5.9219 1.0586-1.4492 3.1211-2.1484 5.3281-2.8984 1.75-0.58984 3.5703-1.1992 5.0391-2.2617 1.4492-1.0586 2.5898-2.5898 3.6719-4.0586 1.3906-1.8711 2.7109-3.6406 4.4414-4.2188 0.42969-0.12891 0.87109-0.19922 1.3398-0.19922 1.3516 0 2.8984 0.48047 4.5117 0.98047 1.8086 0.55859 3.6914 1.1406 5.5586 1.1406 1.8789 0 3.7383-0.57812 5.5586-1.1406 2.1797-0.66016 4.2383-1.3203 5.8789-0.78125 1.7188 0.55859 3.0391 2.3516 4.4414 4.2188 1.1016 1.4688 2.2305 3 3.6602 4.0586 1.4688 1.0586 3.2695 1.6719 5.0391 2.2617 2.1914 0.75 4.2812 1.4492 5.3398 2.8984 1.0391 1.4219 1.0508 3.6094 1.0898 5.9219 0.019531 1.8594 0.058594 3.7891 0.62109 5.5391 0.53125 1.6719 1.6289 3.1914 2.6719 4.6602 1.3789 1.9219 2.6602 3.7383 2.6602 5.6211 0.019531 1.8672-1.2617 3.6992-2.6406 5.6094z"></path> 
 <path d="m49.98 11.688c-15.969 0-28.961 13-28.961 28.969s12.988 28.961 28.961 28.961c15.969 0 28.969-12.988 28.969-28.961 0-15.969-13-28.969-28.969-28.969zm0 55.141c-14.422 0-26.172-11.75-26.172-26.172 0-14.43 11.75-26.18 26.172-26.18 14.43 0 26.18 11.75 26.18 26.18 0 14.422-11.75 26.172-26.18 26.172z"></path> 
 <path d="m43.531 39.52c1.4102 0 2.75-0.55078 3.7617-1.5391 1-1 1.5391-2.3203 1.5391-3.7617 0-1.4297-0.55859-2.75-1.5391-3.75-1.0117-1-2.3281-1.5391-3.7617-1.5391-1.4297 0-2.75 0.55078-3.75 1.5391-2.0703 2.0586-2.0703 5.4297 0 7.4883 1.0195 1.0117 2.3398 1.5625 3.75 1.5625z"></path> 
 <path d="m52.68 43.348c-1.0117 1.0117-1.5508 2.3281-1.5508 3.7617 0 1.4297 0.55859 2.75 1.5508 3.75 1 1.0117 2.3203 1.5508 3.75 1.5508 1.4297 0 2.75-0.55859 3.7617-1.5508 1-1 1.5391-2.3203 1.5391-3.75s-0.55859-2.75-1.5391-3.7617c-2.082-2.0586-5.4531-2.0586-7.5117 0z"></path> 
 <path d="m61.32 29.336c-0.55859-0.53906-1.4297-0.53906-1.9688 0l-19.594 19.574c-0.53906 0.53906-0.53906 1.4297 0 1.9688 0.27734 0.27734 0.63281 0.41016 0.98438 0.41016 0.35156 0 0.70703-0.12891 0.98437-0.41016l19.594-19.574c0.53906-0.53906 0.53906-1.4297 0-1.9688z"></path> 
</g> 
</svg>