<svg width="100%" height="100%" version="1.1" viewBox="0 0 100 100" xmlns="http://www.w3.org/2000/svg"> <g> <path d="m0.023438 80.695c0.011719 0.078126 0.027344 0.15625 0.054688 0.23047 0.011719 0.035157 0.019531 0.070313 0.03125 0.10156v0.003906c0.082031 0.21875 0.21484 0.41406 0.38672 0.57422 0.027344 0.023437 0.054687 0.046875 0.082031 0.070312 0.0625 0.050781 0.12891 0.09375 0.19922 0.13672 0.035156 0.019531 0.066406 0.039062 0.10156 0.054688 0.074219 0.035156 0.15234 0.066406 0.23438 0.089843 0.03125 0.011719 0.0625 0.023438 0.097657 0.03125 0.11328 0.027344 0.23437 0.042969 0.35156 0.042969h67.723c0.63672 0 1.207-0.38672 1.4453-0.97656l11.047-27.238v0.003906c-1.0625-0.097656-2.1133-0.28516-3.1445-0.55469l-10.402 25.641h-64.352l14.543-35.938 47.613-0.046875c-0.48047-0.98828-0.87891-2.0195-1.1875-3.0781h-46.426c-1.3008-0.003906-2.4688 0.79688-2.9336 2.0117l-12.363 30.582v-45.094c0-0.86328 0.69922-1.5625 1.5625-1.5625h25.27c0.41406 0 0.8125 0.16406 1.1055 0.45703l4.418 4.418c0.875 0.88281 2.0703 1.3789 3.3125 1.375h25.414c0.12891-1.0586 0.33984-2.1016 0.64062-3.125h-26.055c-0.41406 0-0.8125-0.16406-1.1055-0.45703l-4.418-4.418c-0.875-0.88281-2.0703-1.3789-3.3125-1.375h-25.27c-2.5859 0.003906-4.6836 2.1016-4.6875 4.6875v53.125c0 0.03125 0.0078125 0.0625 0.0078125 0.09375 0.0039063 0.042969 0.0078125 0.085938 0.015625 0.13281z"></path> 
 <path d="m58.594 59.375c0 3.125-4.6875 3.125-4.6875 0s4.6875-3.125 4.6875 0"></path> 
 <path d="m62.938 56.445c0.75 0 1.3945-0.53125 1.5352-1.2656 0.14453-0.73438-0.25391-1.4648-0.94531-1.7461l-8.6914-3.5156c-0.80078-0.32422-1.7148 0.0625-2.0352 0.86328-0.32422 0.80078 0.0625 1.7109 0.86328 2.0352l8.6914 3.5156c0.18359 0.074219 0.38281 0.11328 0.58203 0.11328z"></path> 
 <path d="m39.504 59.375c0 3.125-4.6875 3.125-4.6875 0s4.6875-3.125 4.6875 0"></path> 
 <path d="m40.609 50.781c-0.32422-0.79688-1.2344-1.1836-2.0352-0.86328l-8.6914 3.5156c-0.80078 0.32422-1.1875 1.2344-0.86328 2.0352s1.2344 1.1875 2.0352 0.86328l8.6914-3.5156c0.80078-0.32422 1.1875-1.2344 0.86328-2.0352z"></path> 
 <path d="m40.207 72.941c1.5-1.6719 3.6406-2.6289 5.8867-2.6289s4.3867 0.95703 5.8867 2.6289c0.58984 0.62891 1.5781 0.66406 2.2109 0.078125 0.62891-0.58984 0.66406-1.5781 0.078125-2.2109-2.0938-2.3047-5.0625-3.6211-8.1758-3.6211s-6.082 1.3164-8.1758 3.6211c-0.58594 0.63281-0.55078 1.6211 0.078125 2.2109 0.63281 0.58594 1.6211 0.55078 2.2109-0.078125z"></path> 
 <path d="m100 34.375c0-4.3516-1.7266-8.5234-4.8047-11.602-3.0781-3.0781-7.25-4.8047-11.602-4.8047s-8.5234 1.7266-11.602 4.8047c-3.0781 3.0781-4.8047 7.25-4.8047 11.602s1.7266 8.5234 4.8047 11.602c3.0781 3.0781 7.25 4.8047 11.602 4.8047 4.3516-0.003906 8.5195-1.7344 11.594-4.8125 3.0781-3.0742 4.8086-7.2422 4.8125-11.594zm-3.125 0c0 2.9805-1.0078 5.875-2.8633 8.2109l-18.629-18.629c3.9922-3.1602 9.4375-3.7539 14.016-1.5352 4.5781 2.2188 7.4844 6.8633 7.4766 11.953zm-26.562 0c0-2.9805 1.0078-5.875 2.8633-8.2109l18.629 18.629c-3.9922 3.1602-9.4375 3.7539-14.016 1.5352-4.5781-2.2188-7.4844-6.8633-7.4766-11.953z"></path> 
</g> 
</svg>