<svg width="100%" height="100%" version="1.1" viewBox="0 0 100 100" xmlns="http://www.w3.org/2000/svg"> <path d="m82.66 70.098c-1.6484 0.91797-4.2461 2.6055-7.2461 4.5586-6.5938 4.2969-17.852 11.648-21.379 11.508-2.4688-0.13281-4.8945-0.34766-7.2344-0.55078-5.6914-0.49609-11.785-1.0586-17.93-0.13672l0.003906-14.617c1.9609-0.097656 4.3125-0.29688 6.6719-0.78516 1.4922-0.30859 4.1172-1.5234 6.8984-2.7852 5.4648-2.4766 5.875-2.3906 10.941-1.3477 2.5352 0.51953 10.285 1.8984 10.305 4.332 0.011719 0.61328-0.17188 1.207-0.53906 1.7266-0.69141 0.73828-1.8359 1.457-3.0195 1.2305l-9.293-1.7617c-0.15234-0.03125-0.3125-0.03125-0.46484 0l-4.1055 0.74609c-0.69141 0.125-1.1523 0.79297-1.0352 1.4883 0.12891 0.69531 0.79688 1.1602 1.4883 1.0312l3.8828-0.70703 9.043 1.7188c0.3125 0.058594 0.625 0.085937 0.92578 0.085937 1.3594 0 2.7383-0.54297 3.8828-1.5391 0.11719-0.027344 0.22656-0.070313 0.33594-0.13281l16.871-9.2617c1.0898-0.78906 3.2344-0.56641 3.957 0.41016 0.72656 0.96875-0.42578 2.8438-2.9609 4.7891zm-56.352 18.25c0 0.72656-0.58203 1.3164-1.3164 1.3164h-8.0117c-0.73438 0-1.3164-0.58984-1.3164-1.3164l0.003907-18.98c0-0.72656 0.58203-1.3164 1.3164-1.3164h8.0117c0.73438 0 1.3164 0.58984 1.3164 1.3164zm21.465-57.633c-2.7812-1.957-5.6797-4.1172-7.6523-6.4805-3.668-4.3906-0.91016-6.3711 1.6055-5.1211 1.8477 0.91406 3.5547 5.1836 4.4648 7.3477 0.57812 1.3672 1.1094 2.793 1.582 4.2539zm4.4531 0c0.58203-1.793 1.0898-3.0781 1.8008-4.7578 0.87109-2.0898 2.5-5.9727 4.2578-6.8477 0.98047-0.48828 2.3398-0.55859 3.0195 0.29688 0.61328 0.77734 0.55859 2.4531-1.4141 4.8281-1.9805 2.3633-4.8711 4.5273-7.6641 6.4805zm-38.285-0.34375c0 10.566 6.4141 23.09 17.27 33.938l0.003906-19.875c-1.5352 0-2.7148-1.1953-2.7148-2.6797v-4.043c0-2.8477 2.3164-5.168 5.1641-5.168h10.059c-6.082-2.3242-11.547-3.5586-16.312-3.6641-0.69922-0.019531-1.2617-0.60156-1.25-1.3086 0.023438-0.70703 0.60547-1.2617 1.3164-1.25 4.1289 0.09375 8.7305 0.97266 13.746 2.6211-1.1211-0.96875-2.168-1.9922-3.0625-3.0625-5.5742-6.6797-0.13672-11.473 4.7109-9.0547 2.7383 1.3672 4.4805 5.8008 5.6797 8.6367 0.52734 1.2422 1.0117 2.5273 1.457 3.8398 0.44141-1.3125 0.92578-2.5938 1.457-3.8398 1.2031-2.8398 2.9336-7.2695 5.6797-8.6367 2.2734-1.1328 4.8086-0.72266 6.168 1 0.60547 0.75781 2.2734 3.5859-1.457 8.0547-0.89453 1.0742-1.9492 2.0938-3.0742 3.0625 5.0234-1.6484 9.6289-2.5273 13.758-2.6211 0.71484-0.007812 1.293 0.54688 1.3047 1.25 0.011719 0.70703-0.55078 1.293-1.25 1.3086-4.7539 0.10547-10.223 1.3359-16.301 3.6641h10.047c2.8477 0 5.1641 2.3203 5.1641 5.168v4.043c0 1.4844-1.1836 2.6797-2.7148 2.6797v19.871c10.863-10.844 17.277-23.367 17.277-33.934 0-11.047-8.9922-20.035-20.043-20.035-5.7695 0-11.254 2.4922-15.062 6.832-0.51953 0.58594-1.4258 0.57031-1.9297 0-3.8047-4.3438-9.293-6.832-15.062-6.832-11.043 0-20.027 8.9883-20.027 20.035zm30.039 11.508h-12.809c-0.054687 0-0.11719-0.058594-0.11719-0.12109v-4.043c0-1.4414 1.1758-2.6094 2.6094-2.6094h10.316zm2.5547-6.7773h6.9336v14.379l-2.5547-2.5625c-0.50781-0.5-1.3164-0.5-1.8125 0l-2.5664 2.5625zm9.4961 6.7773v-6.7773h10.305c1.4453 0 2.6094 1.168 2.6094 2.6094v4.043c0 0.066406-0.054687 0.12109-0.11719 0.12109zm3.4727 22.66c2.5664 0.73438 5.875 1.9688 6.7266 4.4531v-24.559h-10.199v8.1367c0 1.1289-1.375 1.7109-2.1875 0.90234l-3.8359-3.8398-3.8477 3.8398c-0.80469 0.80469-2.1797 0.22656-2.1797-0.90234v-8.1367h-10.199v23.191c0.39844-0.066406 0.80859-0.14453 1.2188-0.22656 1.1211-0.23047 3.9609-1.5195 6.3281-2.5977 6.0391-2.7344 6.9883-2.6914 12.625-1.5312 1.8008 0.37891 3.5312 0.69141 5.5508 1.2695zm20.633-1.9023-11.352 6.2266v-0.99609c10.344-9.7344 19.836-23.898 19.836-37.496 0-12.457-10.133-22.594-22.598-22.594-6.0273 0-11.793 2.4141-16.02 6.6719-4.2383-4.2578-9.9922-6.6719-16.031-6.6719-12.453 0-22.598 10.133-22.598 22.594 0 13.609 9.5039 27.754 19.836 37.496v0.085937c-0.88281 0.085937-1.7461 0.14062-2.543 0.17969-0.51953-1.5352-1.9609-2.6445-3.6758-2.6445h-8.0117c-2.1328 0-3.8828 1.7383-3.8828 3.8789v18.98c0 2.1367 1.7461 3.875 3.8828 3.875h8.0117c2.1328 0 3.8828-1.7383 3.8828-3.875v-0.10547c5.6797-0.92578 11.348-0.45313 17.691 0.097656 2.3633 0.20703 4.8086 0.41797 7.3203 0.55469 3.9961 0.25 13.074-5.4844 23.02-11.949 3.0195-1.9609 5.6172-3.6484 7.168-4.5039 0.054687-0.035156 0.11719-0.070312 0.17188-0.11328 5.7695-4.4062 4.418-7.5195 3.5703-8.6523-1.5977-2.1445-5.3711-2.6445-7.6797-1.0391z" fill-rule="evenodd"></path> 
</svg>