<svg width="100%" height="100%" version="1.1" viewBox="0 0 100 100" xmlns="http://www.w3.org/2000/svg"> <path d="m83.25 10.676h-66.5c-4.6016 0-8.332 3.7305-8.332 8.3359v45.832c0 2.2109 0.875 4.3281 2.4414 5.8906 1.5625 1.5664 3.6797 2.4414 5.8906 2.4414h26.113c-0.42578 2.2539-2.1484 4.0352-4.3828 4.543l-8.6992 1.8945c-3.5664 0.80078-6.1055 3.9609-6.125 7.6172v1.043-0.003907c0 0.27734 0.10938 0.54297 0.30469 0.73828 0.19531 0.19531 0.46094 0.30469 0.73828 0.30469h49.438c0.27344 0 0.53906-0.10938 0.73438-0.30469 0.19531-0.19531 0.30469-0.46094 0.30469-0.73828-0.011719-3.6562-2.5547-6.8164-6.125-7.6133l-8.6992-1.9062h0.003907c-2.6172-0.58203-4.4805-2.9023-4.4922-5.582h27.387c2.2109 0 4.3281-0.87891 5.8906-2.4414 1.5664-1.5625 2.4414-3.6836 2.4414-5.8945v-45.832c-0.003906-4.5977-3.7344-8.3242-8.332-8.3242zm-23.344 70.117 8.6992 1.9062c2.2383 0.50391 3.9609 2.2891 4.3945 4.5391h-47.262c-0.011719-2.6914 1.8438-5.0352 4.4688-5.6328l8.6992-1.8945v-0.003907c3.1914-0.71484 5.6016-3.332 6.0508-6.5703h8.8047c-0.007813 3.6797 2.5508 6.8672 6.1445 7.6562zm29.594-15.992c0 3.4531-2.7969 6.25-6.25 6.25h-66.5c-3.4531 0-6.25-2.7969-6.25-6.25v-45.832c0-3.4531 2.7969-6.25 6.25-6.25h66.5c3.4531 0 6.25 2.7969 6.25 6.25zm-7.8125-45.262-63.375 0.003907c-0.57422 0-1.043 0.46484-1.043 1.0391v38.074c0 0.27734 0.10938 0.54297 0.30469 0.73828 0.19531 0.19531 0.46094 0.30469 0.73828 0.30469h63.375c0.27734 0 0.54297-0.10938 0.73828-0.30469 0.19531-0.19531 0.30469-0.46094 0.30469-0.73828v-38.074c0-0.27344-0.10938-0.53906-0.30469-0.73438-0.19531-0.19531-0.46094-0.30469-0.73828-0.30469zm-1.043 38.074h-61.289v-35.988h61.289zm-30.645 4.0547c-1.5078-0.003907-2.8672 0.89844-3.4453 2.2891-0.57813 1.3906-0.25781 2.9922 0.80469 4.0586 1.0664 1.0625 2.668 1.3828 4.0586 0.80469 1.3906-0.57812 2.293-1.9375 2.2891-3.4453-0.003906-2.0469-1.6602-3.7031-3.707-3.707zm0 5.3438c-0.66406 0.003906-1.2617-0.39453-1.5195-1.0039-0.25391-0.60937-0.11719-1.3164 0.34766-1.7852 0.46875-0.46875 1.1719-0.61328 1.7852-0.35938 0.61328 0.25391 1.0117 0.84766 1.0117 1.5117 0 0.89844-0.72656 1.6289-1.625 1.6367zm-19.863-14.93h14.656c1.3789 0 2.7031-0.54688 3.6797-1.5234 0.98047-0.97656 1.5273-2.3008 1.5273-3.6836v-14.457c0-1.3828-0.54688-2.707-1.5273-3.6836-0.97656-0.97656-2.3008-1.5273-3.6797-1.5273h-14.656c-2.8789 0-5.2109 2.332-5.2109 5.2109v14.457c0 1.3828 0.55078 2.707 1.5273 3.6836 0.97656 0.97656 2.3008 1.5234 3.6836 1.5234zm3.7695-22.75h7.168v3.1992c0 0.27734-0.10938 0.54297-0.30469 0.73828-0.19531 0.19531-0.46094 0.30469-0.73828 0.30469h-5.082c-0.57812 0-1.043-0.46875-1.043-1.043zm-6.8945 3.125c0-1.7227 1.3984-3.125 3.125-3.125h1.6875v3.1992c0 1.7266 1.3984 3.125 3.125 3.125h5.082c1.7266 0 3.125-1.3984 3.125-3.125v-3.2383h1.6367c1.7227 0 3.125 1.3984 3.125 3.125v9.9766h-20.906zm0 12.062h20.906v2.3555c0 1.7266-1.4023 3.125-3.125 3.125h-14.656c-1.7266 0-3.125-1.3984-3.125-3.125zm32.926-6.25h10.812c2.3828 0 4.3125-1.9297 4.3125-4.3125 0-2.3789-1.9297-4.3125-4.3125-4.3125h-10.812c-2.3828 0-4.3125 1.9336-4.3125 4.3125 0 2.3828 1.9297 4.3125 4.3125 4.3125zm0-6.543 10.812 0.003907c1.2305 0 2.2305 0.99609 2.2305 2.2266 0 1.2344-1 2.2305-2.2305 2.2305h-10.812c-1.2305 0-2.2305-0.99609-2.2305-2.2305 0-1.2305 1-2.2266 2.2305-2.2266zm0 18 10.812 0.003907c2.3828 0 4.3125-1.9336 4.3125-4.3125 0-2.3828-1.9297-4.3125-4.3125-4.3125h-10.812c-2.3828 0-4.3125 1.9297-4.3125 4.3125 0 2.3789 1.9297 4.3125 4.3125 4.3125zm0-6.543 10.812 0.003906c1.2305 0 2.2305 0.99609 2.2305 2.2305 0 1.2305-1 2.2266-2.2305 2.2266h-10.812c-1.2305 0-2.2305-0.99609-2.2305-2.2266 0-1.2344 1-2.2305 2.2305-2.2305z"></path> 
</svg>