<svg width="100%" height="100%" version="1.1" viewBox="0 0 100 100" xmlns="http://www.w3.org/2000/svg"> <g> <path d="m37.5 17.188h54.688v3.125h-54.688z"></path> 
 <path d="m37.5 79.688h54.688v3.125h-54.688z"></path> 
 <path d="m18.75 26.562c0 0.59375 0.32812 1.1406 0.85938 1.3906l6.25 3.125c0.21875 0.10938 0.45312 0.17188 0.70312 0.17188s0.48438-0.0625 0.70312-0.17188l6.25-3.125c0.53125-0.26562 0.85938-0.8125 0.85938-1.3906v-15.625c0-2.5781-2.1094-4.6875-4.6875-4.6875h-6.25c-2.5781 0-4.6875 2.1094-4.6875 4.6875v6.25h-10.938v3.125h10.938zm3.125-15.625c0-0.85938 0.70312-1.5625 1.5625-1.5625h6.25c0.85938 0 1.5625 0.70312 1.5625 1.5625v14.656l-4.6875 2.3438-4.6875-2.3438z"></path> 
 <path d="m29.688 68.75h-6.25c-2.5781 0-4.6875 2.1094-4.6875 4.6875v6.25h-10.938v3.125h10.938v6.25c0 0.59375 0.32812 1.1406 0.85938 1.3906l6.25 3.125c0.21875 0.10938 0.45312 0.17188 0.70312 0.17188s0.48438-0.0625 0.70312-0.17188l6.25-3.125c0.53125-0.26562 0.85938-0.8125 0.85938-1.3906v-15.625c0-2.5781-2.1094-4.6875-4.6875-4.6875zm1.5625 19.344-4.6875 2.3438-4.6875-2.3438v-14.656c0-0.85938 0.70312-1.5625 1.5625-1.5625h6.25c0.85938 0 1.5625 0.70312 1.5625 1.5625z"></path> 
 <path d="m57.812 42.188c0-2.5781-2.1094-4.6875-4.6875-4.6875h-6.25c-2.5781 0-4.6875 2.1094-4.6875 4.6875v6.25h-34.375v3.125h34.375v6.25c0 0.59375 0.32812 1.1406 0.85938 1.3906l6.25 3.125c0.21875 0.10938 0.45312 0.17188 0.70312 0.17188s0.48438-0.0625 0.70312-0.17188l6.25-3.125c0.53125-0.26562 0.85938-0.8125 0.85938-1.3906v-6.25h34.375v-3.125h-34.375zm-3.125 14.656-4.6875 2.3438-4.6875-2.3438v-14.656c0-0.85938 0.70312-1.5625 1.5625-1.5625h6.25c0.85938 0 1.5625 0.70312 1.5625 1.5625z"></path> 
</g> 
</svg>