<svg width="100%" height="100%" version="1.1" viewBox="0 0 100 100" xmlns="http://www.w3.org/2000/svg"> <g> <path d="m76.668 50.086v-45.086c0-2.7617-2.2383-5-5-5h-66.668c-2.7617 0-5 2.2383-5 5v70c0 2.7617 2.2383 5 5 5h45.5c1.2422 6.1211 4.7305 11.555 9.7773 15.234s11.289 5.332 17.5 4.6406c6.207-0.69141 11.93-3.6836 16.039-8.3867 4.1133-4.6992 6.3164-10.77 6.1797-17.016-0.14062-6.2461-2.6133-12.211-6.9297-16.723-4.3164-4.5156-10.168-7.25-16.398-7.6641zm-71.668-46.754h66.668c0.44141 0 0.86328 0.17578 1.1758 0.48828s0.48828 0.73828 0.48828 1.1797v8.332h-70v-8.332c0-0.92188 0.74609-1.668 1.668-1.668zm0 73.336c-0.92188 0-1.668-0.74609-1.668-1.668v-58.332h70v33.418c-6.3203 0.42578-12.246 3.2305-16.578 7.8555-4.3281 4.625-6.7422 10.723-6.7539 17.059 0 0.5625 0.046875 1.1133 0.085938 1.668zm70 20c-5.7461 0-11.258-2.2852-15.32-6.3477s-6.3477-9.5742-6.3477-15.32 2.2852-11.258 6.3477-15.32 9.5742-6.3477 15.32-6.3477 11.258 2.2852 15.32 6.3477 6.3477 9.5742 6.3477 15.32c-0.007813 5.7461-2.293 11.25-6.3555 15.312s-9.5664 6.3477-15.312 6.3555z"></path> 
 <path d="m60.555 32.414c1.6719-2.2695 1.4336-5.418-0.55859-7.4102-1.9922-1.9922-5.1406-2.2305-7.4102-0.55859-8.0508 5.7812-15.727 12.074-22.973 18.832-0.58984 0.58984-0.9375 1.375-0.97656 2.2031-0.98828 0.18359-1.8945 0.66406-2.6016 1.3711l-0.16797 0.16797c-1.2148 1.2188-1.7148 2.9805-1.3203 4.6562-2.0977-0.019531-4.1172 0.80078-5.6055 2.2734-1.5625 1.8516-2.5195 4.1367-2.75 6.5508-0.22266 1.6719-0.73828 3.293-1.5234 4.7891-0.49219 0.80859-0.54297 1.8086-0.14453 2.6641 0.41406 0.89844 1.25 1.5273 2.2266 1.6797 1.418 0.23438 2.8594 0.36328 4.2969 0.37891 3.7422 0.12891 7.3633-1.3047 10-3.957 1.4766-1.4922 2.293-3.5117 2.2734-5.6055 1.6758 0.41016 3.4453-0.09375 4.6562-1.3242l0.16797-0.16797v0.003907c0.70703-0.71094 1.1836-1.6172 1.3672-2.6016 0.83203-0.042969 1.6133-0.39062 2.2031-0.97656 6.7617-7.2461 13.055-14.918 18.84-22.969zm-28.59 13.227c7.1445-6.6289 14.691-12.812 22.594-18.512 0.94531-0.69531 2.2539-0.59766 3.082 0.23047s0.92578 2.1367 0.23047 3.082c-3.4258 4.6523-12.09 16.168-18.59 22.594l-7.3164-7.3125zm-3.2695 18.059c-2.6133 2.6133-5.7812 3.4219-10.844 2.7266 0.78516-1.668 1.3281-3.4453 1.6094-5.2695 0.14062-1.7578 0.78125-3.4414 1.8398-4.8516 2.0469-1.8633 5.2109-1.7266 7.0898 0.30469 2.0312 1.8789 2.168 5.043 0.30469 7.0898zm7.0898-7.0898-0.16797 0.16797c-0.3125 0.3125-0.73438 0.48828-1.1797 0.48828-0.44141 0-0.86328-0.17578-1.1758-0.48828l-5.0352-5.0352v-0.003907c-0.31641-0.3125-0.49219-0.73438-0.49219-1.1758 0-0.44531 0.17578-0.86719 0.49219-1.1797l0.16797-0.16797h-0.003906c0.65234-0.65234 1.707-0.65234 2.3594 0l5.0391 5.0391h-0.003906c0.65234 0.65234 0.65234 1.707 0 2.3555z"></path> 
 <path d="m86.668 73.332h-10v-10c0-0.91797-0.74609-1.6641-1.668-1.6641s-1.668 0.74609-1.668 1.6641v10h-10c-0.91797 0-1.6641 0.74609-1.6641 1.668s0.74609 1.668 1.6641 1.668h10v10c0 0.91797 0.74609 1.6641 1.668 1.6641s1.668-0.74609 1.668-1.6641v-10h10c0.91797 0 1.6641-0.74609 1.6641-1.668s-0.74609-1.668-1.6641-1.668z"></path> 
 <path d="m8.332 10h1.668c0.92188 0 1.668-0.74609 1.668-1.668 0-0.91797-0.74609-1.6641-1.668-1.6641h-1.668c-0.91797 0-1.6641 0.74609-1.6641 1.6641 0 0.92188 0.74609 1.668 1.6641 1.668z"></path> 
 <path d="m16.668 10h1.668-0.003907c0.92188 0 1.668-0.74609 1.668-1.668 0-0.91797-0.74609-1.6641-1.668-1.6641h-1.6641c-0.92188 0-1.668 0.74609-1.668 1.6641 0 0.92188 0.74609 1.668 1.668 1.668z"></path> 
 <path d="m25 10h1.668c0.91797 0 1.6641-0.74609 1.6641-1.668 0-0.91797-0.74609-1.6641-1.6641-1.6641h-1.668c-0.92188 0-1.668 0.74609-1.668 1.6641 0 0.92188 0.74609 1.668 1.668 1.668z"></path> 
 <path d="m58.332 10h10c0.92188 0 1.668-0.74609 1.668-1.668 0-0.91797-0.74609-1.6641-1.668-1.6641h-10c-0.91797 0-1.6641 0.74609-1.6641 1.6641 0 0.92188 0.74609 1.668 1.6641 1.668z"></path> 
</g> 
</svg>