<svg width="33" height="32" viewBox="0 0 33 32" fill="none" xmlns="http://www.w3.org/2000/svg">
<g clip-path="url(#clip0_550_1179)">
<path d="M0.090271 0.000152588H32.0108V17.2747L30.4308 19.7496L32.0108 21.9522V32.0001H0.090271V15.7155L1.07776 14.5771L0.090271 13.4882V0.000152588Z" fill="#016FD0"/>
<path d="M6.28677 22.2984V17.2745H11.593L12.1623 18.0185L12.7505 17.2745H32.0108V21.952C32.0108 21.952 31.5071 22.2934 30.9246 22.2984H20.2597L19.6179 21.5065V22.2984H17.5145V20.9465C17.5145 20.9465 17.2272 21.1353 16.606 21.1353H15.8901V22.2984H12.7054L12.137 21.5385L11.5597 22.2984H6.28677Z" fill="white"/>
<path d="M0.090271 13.4879L1.28685 10.6913H3.35621L4.03528 12.2578V10.6913H6.60769L7.01194 11.8235L7.40385 10.6913H18.9513V11.2605C18.9513 11.2605 19.5583 10.6913 20.556 10.6913L24.3027 10.7044L24.97 12.2504V10.6913H27.1227L27.7152 11.5794V10.6913H29.8877V15.7153H27.7152L27.1474 14.8243V15.7153H23.9846L23.6665 14.9233H22.8163L22.5034 15.7153H20.3585C19.5 15.7153 18.9513 15.1577 18.9513 15.1577V15.7153H15.7173L15.0754 14.9233V15.7153H3.04965L2.7318 14.9233H1.88424L1.56864 15.7153H0.090271V13.4879Z" fill="white"/>
<path d="M1.71039 11.3106L0.0964661 15.0724H1.14721L1.445 14.3191H3.17619L3.47244 15.0724H4.54633L2.93395 11.3106H1.71039ZM2.30751 12.1861L2.8352 13.5024H1.77828L2.30751 12.1861Z" fill="#016FD0"/>
<path d="M4.65744 15.0719V11.3101L6.15061 11.3156L7.01909 13.741L7.86677 11.3101H9.348V15.0719H8.40989V12.3L7.41547 15.0719H6.59275L5.59555 12.3V15.0719H4.65744Z" fill="#016FD0"/>
<path d="M9.98981 15.0719V11.3101H13.051V12.1515H10.9378V12.795H13.0016V13.5869H10.9378V14.2551H13.051V15.0719H9.98981Z" fill="#016FD0"/>
<path d="M13.5941 11.3106V15.0724H14.5322V13.736H14.9272L16.052 15.0724H17.1984L15.9641 13.6865C16.4707 13.6436 16.9932 13.2078 16.9932 12.531C16.9932 11.7394 16.3734 11.3106 15.6817 11.3106H13.5941ZM14.5322 12.1521H15.6046C15.8618 12.1521 16.0489 12.3538 16.0489 12.5481C16.0489 12.798 15.8065 12.944 15.6185 12.944H14.5322V12.1521Z" fill="#016FD0"/>
<path d="M18.3341 15.0719H17.3763V11.3101H18.3341V15.0719Z" fill="#016FD0"/>
<path d="M20.6053 15.0719H20.3985C19.3982 15.0719 18.7908 14.2818 18.7908 13.2064C18.7908 12.1045 19.3914 11.3101 20.6547 11.3101H21.6915V12.201H20.6167C20.1039 12.201 19.7412 12.6022 19.7412 13.2157C19.7412 13.9442 20.1559 14.2502 20.7534 14.2502H21.0003L20.6053 15.0719Z" fill="#016FD0"/>
<path d="M22.6466 11.3106L21.0327 15.0724H22.0834L22.3812 14.3191H24.1124L24.4087 15.0724H25.4825L23.8702 11.3106H22.6466ZM23.2437 12.1861L23.7714 13.5024H22.7145L23.2437 12.1861Z" fill="#016FD0"/>
<path d="M25.5922 15.0719V11.3101H26.7849L28.3078 13.6736V11.3101H29.2459V15.0719H28.0918L26.5303 12.6465V15.0719H25.5922Z" fill="#016FD0"/>
<path d="M6.92862 21.655V17.8932H9.98983V18.7347H7.87661V19.3781H9.94046V20.1701H7.87661V20.8383H9.98983V21.655H6.92862Z" fill="#016FD0"/>
<path d="M21.9286 21.655V17.8932H24.9898V18.7347H22.8765V19.3781H24.9305V20.1701H22.8765V20.8383H24.9898V21.655H21.9286Z" fill="#016FD0"/>
<path d="M10.1086 21.655L11.5991 19.7973L10.0732 17.8932H11.255L12.1638 19.0703L13.0757 17.8932H14.2113L12.7054 19.7741L14.1986 21.655H13.0169L12.1345 20.4965L11.2736 21.655H10.1086Z" fill="#016FD0"/>
<path d="M14.3101 17.8938V21.6556H15.2729V20.4677H16.2604C17.096 20.4677 17.7293 20.0233 17.7293 19.1591C17.7293 18.4432 17.2326 17.8938 16.3823 17.8938H14.3101ZM15.2729 18.7445H16.3129C16.5828 18.7445 16.7758 18.9104 16.7758 19.1776C16.7758 19.4287 16.5838 19.6107 16.3098 19.6107H15.2729V18.7445Z" fill="#016FD0"/>
<path d="M18.1366 17.8932V21.655H19.0747V20.3186H19.4697L20.5945 21.655H21.741L20.5066 20.2691C21.0132 20.2262 21.5357 19.7904 21.5357 19.1136C21.5357 18.322 20.916 17.8932 20.2242 17.8932H18.1366ZM19.0747 18.7347H20.1471C20.4043 18.7347 20.5915 18.9364 20.5915 19.1307C20.5915 19.3806 20.349 19.5266 20.161 19.5266H19.0747V18.7347Z" fill="#016FD0"/>
<path d="M25.4242 21.655V20.8383H27.3017C27.5795 20.8383 27.6998 20.6878 27.6998 20.5228C27.6998 20.3646 27.5799 20.2047 27.3017 20.2047H26.4533C25.7158 20.2047 25.3051 19.7543 25.3051 19.0781C25.3051 18.4749 25.6812 17.8932 26.7771 17.8932H28.6039L28.2089 18.7396H26.629C26.3269 18.7396 26.234 18.8985 26.234 19.0502C26.234 19.2062 26.3489 19.3781 26.5796 19.3781H27.4683C28.2904 19.3781 28.6471 19.8456 28.6471 20.4578C28.6471 21.116 28.2496 21.655 27.4236 21.655H25.4242Z" fill="#016FD0"/>
<path d="M28.8673 21.655V20.8383H30.7448C31.0226 20.8383 31.1429 20.6878 31.1429 20.5228C31.1429 20.3646 31.023 20.2047 30.7448 20.2047H29.8964C29.1589 20.2047 28.7482 19.7543 28.7482 19.0781C28.7482 18.4749 29.1243 17.8932 30.2202 17.8932H32.0471L31.6521 18.7396H30.0721C29.7701 18.7396 29.6771 18.8985 29.6771 19.0502C29.6771 19.2062 29.792 19.3781 30.0227 19.3781H30.9114C31.7335 19.3781 32.0903 19.8456 32.0903 20.4578C32.0903 21.116 31.6928 21.655 30.8667 21.655H28.8673Z" fill="#016FD0"/>
</g>
<defs>
<clipPath id="clip0_550_1179">
<rect width="32" height="32" fill="white" transform="translate(0.090271)"/>
</clipPath>
</defs>
</svg>
