<svg width="39" height="24" viewBox="0 0 39 24" fill="none" xmlns="http://www.w3.org/2000/svg">
<g clip-path="url(#clip0_636_1058)">
<path d="M35.4829 0H4.2983C4.16842 0 4.03831 0 3.90866 0.000747416C3.79907 0.00151748 3.68973 0.00271788 3.58039 0.00566224C3.34193 0.0120266 3.10143 0.0259104 2.86595 0.0676751C2.62671 0.110165 2.40409 0.17947 2.1869 0.288593C1.97339 0.395745 1.77792 0.535897 1.60852 0.703137C1.43905 0.870377 1.29703 1.06296 1.18847 1.27389C1.07787 1.48822 1.00759 1.70798 0.964835 1.94426C0.922286 2.1767 0.908123 2.41399 0.901697 2.64907C0.898759 2.75697 0.897499 2.86487 0.896786 2.97274C0.896028 3.10096 0.896281 3.22909 0.896281 3.35753V20.6427C0.896281 20.7712 0.896028 20.8991 0.896786 21.0275C0.897499 21.1354 0.898759 21.2433 0.901697 21.3512C0.908123 21.5861 0.922286 21.8234 0.964835 22.0557C1.00759 22.2921 1.07787 22.5118 1.18847 22.7261C1.29703 22.9371 1.43905 23.1299 1.60852 23.2969C1.77792 23.4644 1.97339 23.6045 2.1869 23.7114C2.40409 23.8208 2.62671 23.8902 2.86595 23.9326C3.10143 23.9741 3.34193 23.9882 3.58039 23.9946C3.68973 23.9971 3.79907 23.9985 3.90866 23.999C4.03831 24 4.16842 24 4.2983 24H35.4829C35.6125 24 35.7426 24 35.8723 23.999C35.9816 23.9985 36.091 23.9971 36.2008 23.9946C36.4387 23.9882 36.6792 23.9741 36.9153 23.9326C37.1542 23.8902 37.3768 23.8208 37.5941 23.7114C37.8078 23.6045 38.0027 23.4644 38.1724 23.2969C38.3416 23.1299 38.4837 22.9371 38.5925 22.7261C38.7033 22.5118 38.7735 22.2921 38.8161 22.0557C38.8587 21.8234 38.8725 21.5861 38.8789 21.3512C38.8819 21.2433 38.8834 21.1354 38.8839 21.0275C38.8849 20.8991 38.8849 20.7712 38.8849 20.6427V3.35753C38.8849 3.22909 38.8849 3.10096 38.8839 2.97274C38.8834 2.86487 38.8819 2.75697 38.8789 2.64907C38.8725 2.41399 38.8587 2.1767 38.8161 1.94426C38.7735 1.70798 38.7033 1.48822 38.5925 1.27389C38.4837 1.06296 38.3416 0.870377 38.1724 0.703137C38.0027 0.535897 37.8078 0.395745 37.5941 0.288593C37.3768 0.17947 37.1542 0.110165 36.9153 0.0676751C36.6792 0.0259104 36.4387 0.0120266 36.2008 0.00566224C36.091 0.00271788 35.9816 0.00151748 35.8723 0.000747416C35.7426 0 35.6125 0 35.4829 0Z" fill="black"/>
<path d="M35.4829 0.799957L35.8665 0.800682C35.9704 0.801407 36.0744 0.802517 36.1789 0.805325C36.3606 0.810172 36.5733 0.819888 36.7715 0.854949C36.9438 0.88557 37.0883 0.932137 37.2269 1.0018C37.3638 1.07045 37.4893 1.16042 37.5988 1.26834C37.7087 1.37698 37.8 1.50097 37.8705 1.63756C37.9407 1.77334 37.9876 1.91526 38.0184 2.08653C38.0538 2.28 38.0636 2.49041 38.0686 2.6709C38.0714 2.77277 38.0728 2.87465 38.0733 2.97895C38.0743 3.10508 38.0743 3.23114 38.0743 3.35752V20.6427C38.0743 20.7691 38.0743 20.8949 38.0733 21.0238C38.0728 21.1256 38.0714 21.2275 38.0686 21.3295C38.0636 21.5098 38.0538 21.7201 38.018 21.9158C37.9876 22.0847 37.9407 22.2267 37.8701 22.3631C37.7998 22.4994 37.7087 22.6232 37.5992 22.7312C37.4891 22.8399 37.3641 22.9296 37.2256 22.9989C37.0879 23.0682 36.9437 23.1147 36.7731 23.145C36.5709 23.1806 36.3493 23.1904 36.1824 23.1948C36.0775 23.1972 35.973 23.1986 35.866 23.1991C35.7384 23.2001 35.6104 23.2 35.4829 23.2H4.2983C4.2966 23.2 4.29495 23.2 4.29323 23.2C4.16714 23.2 4.04079 23.2 3.9124 23.1991C3.80772 23.1986 3.70327 23.1972 3.60229 23.1949C3.43163 23.1904 3.20994 23.1806 3.00938 23.1453C2.83731 23.1147 2.69307 23.0682 2.55362 22.998C2.41639 22.9293 2.29147 22.8397 2.18128 22.7308C2.07194 22.6231 1.98108 22.4996 1.91083 22.3632C1.84051 22.2268 1.79346 22.0845 1.76252 21.9135C1.72676 21.7182 1.71694 21.5087 1.71203 21.3297C1.70923 21.2272 1.70806 21.1248 1.70739 21.0229L1.70689 20.7221L1.70691 20.6427V3.35752L1.70689 3.27812L1.70737 2.978C1.70806 2.87551 1.70923 2.77304 1.71203 2.67065C1.71694 2.49147 1.72676 2.28192 1.76282 2.08492C1.79348 1.91553 1.84051 1.77316 1.9112 1.63616C1.9809 1.50074 2.07192 1.37712 2.18184 1.26868C2.29131 1.1606 2.41664 1.07075 2.55474 1.00144C2.6927 0.932114 2.83722 0.88557 3.00928 0.855017C3.20753 0.819866 3.42031 0.810172 3.60254 0.805302C3.70642 0.802517 3.8103 0.801407 3.91339 0.800705L4.2983 0.799957H35.4829Z" fill="white"/>
<path d="M11.2669 8.07221C11.5922 7.67072 11.8129 7.13164 11.7547 6.58076C11.2785 6.60413 10.6975 6.89076 10.3611 7.29257C10.059 7.63665 9.7917 8.1983 9.86139 8.72609C10.3959 8.77184 10.9299 8.46244 11.2669 8.07221Z" fill="black"/>
<path d="M11.7486 8.82914C10.9724 8.78351 10.3124 9.26389 9.94172 9.26389C9.57082 9.26389 9.00318 8.85213 8.38923 8.86323C7.59013 8.87481 6.84866 9.32068 6.44315 10.0298C5.60908 11.4485 6.22304 13.5528 7.03412 14.7082C7.428 15.2798 7.90269 15.9092 8.52817 15.8866C9.11914 15.8637 9.35078 15.509 10.0691 15.509C10.787 15.509 10.9956 15.8866 11.6212 15.8752C12.2699 15.8637 12.6755 15.3033 13.0694 14.7311C13.5213 14.0795 13.7062 13.4503 13.7179 13.4158C13.7062 13.4043 12.4669 12.9351 12.4554 11.5283C12.4437 10.3503 13.4284 9.79001 13.4748 9.75526C12.9187 8.94364 12.0498 8.85213 11.7486 8.82914Z" fill="black"/>
<path d="M18.5074 7.23494C20.1945 7.23494 21.3693 8.38258 21.3693 10.0535C21.3693 11.7303 20.1703 12.8839 18.4651 12.8839H16.5971V15.8154H15.2475V7.23494L18.5074 7.23494ZM16.5971 11.766H18.1457C19.3207 11.766 19.9895 11.1417 19.9895 10.0594C19.9895 8.97728 19.3207 8.35884 18.1517 8.35884H16.5971V11.766Z" fill="black"/>
<path d="M21.7219 14.0375C21.7219 12.9433 22.5715 12.2714 24.078 12.1882L25.8133 12.0871V11.6055C25.8133 10.9098 25.3372 10.4936 24.542 10.4936C23.7886 10.4936 23.3186 10.8503 23.2043 11.4093H21.9751C22.0474 10.2794 23.0234 9.44696 24.5901 9.44696C26.1266 9.44696 27.1087 10.2497 27.1087 11.5044V15.8154H25.8614V14.7867H25.8314C25.4639 15.4825 24.6624 15.9224 23.8309 15.9224C22.5897 15.9224 21.7219 15.1613 21.7219 14.0375ZM25.8133 13.4727V12.9791L24.2526 13.0742C23.4753 13.1278 23.0355 13.4667 23.0355 14.0019C23.0355 14.5488 23.4934 14.9057 24.1924 14.9057C25.1022 14.9057 25.8133 14.2872 25.8133 13.4727Z" fill="black"/>
<path d="M28.2863 18.1167V17.076C28.3825 17.0998 28.5994 17.0998 28.708 17.0998C29.3105 17.0998 29.6359 16.8501 29.8346 16.2079C29.8346 16.196 29.9492 15.8273 29.9492 15.8214L27.6596 9.55994H29.0694L30.6724 14.65H30.6963L32.2993 9.55994H33.6731L31.2988 16.1424C30.7568 17.6588 30.1301 18.1464 28.8165 18.1464C28.708 18.1464 28.3825 18.1344 28.2863 18.1167Z" fill="black"/>
</g>
<defs>
<clipPath id="clip0_636_1058">
<rect width="38" height="24" fill="white" transform="translate(0.89624)"/>
</clipPath>
</defs>
</svg>
