<svg width="50" height="34" viewBox="0 0 50 34" fill="none" xmlns="http://www.w3.org/2000/svg">
<path d="M33.2658 7.78976H17.4998C12.5729 7.78976 8.54185 11.9138 8.54185 16.9542C8.54185 21.9946 12.5729 26.1186 17.4998 26.1186H33.2658C38.1927 26.1186 42.2238 21.9946 42.2238 16.9542C42.2238 11.9138 38.1927 7.78976 33.2658 7.78976Z" fill="white"/>
<path d="M34.6329 7.23562C35.9291 7.23562 37.1887 7.49594 38.3747 8.00594C39.524 8.5 40.5527 9.20656 41.4448 10.1044C42.3318 11.0022 43.0297 12.0488 43.5178 13.2122C44.0216 14.4128 44.2788 15.6878 44.2788 17C44.2788 18.3122 44.0216 19.5872 43.5178 20.7878C43.0297 21.9512 42.3318 22.9925 41.4448 23.8956C40.5579 24.7934 39.524 25.5 38.3747 25.9941C37.1887 26.5041 35.9291 26.7644 34.6329 26.7644H16.1597C14.8634 26.7644 13.6039 26.5041 12.4178 25.9941C11.2685 25.5 10.2399 24.7934 9.34772 23.8956C8.4608 22.9978 7.76281 21.9512 7.27474 20.7878C6.77093 19.5872 6.51377 18.3122 6.51377 17C6.51377 15.6878 6.77093 14.4128 7.27474 13.2122C7.76281 12.0488 8.4608 11.0075 9.34772 10.1044C10.2346 9.20656 11.2685 8.5 12.4178 8.00594C13.6039 7.49594 14.8634 7.23562 16.1597 7.23562H34.6329ZM34.6329 6.375H16.1597C10.3868 6.375 5.66359 11.1563 5.66359 17C5.66359 22.8438 10.3868 27.625 16.1597 27.625H34.6329C40.4057 27.625 45.129 22.8438 45.129 17C45.129 11.1563 40.4057 6.375 34.6329 6.375Z" fill="#3C4043"/>
<path d="M24.4832 17.7053V20.9055H23.4904V13.0029H26.1222C26.7892 13.0029 27.3579 13.2303 27.8233 13.6852C28.2989 14.1401 28.5368 14.6955 28.5368 15.3514C28.5368 16.0232 28.2989 16.5786 27.8233 17.0282C27.3631 17.4779 26.7943 17.7 26.1222 17.7H24.4832V17.7053ZM24.4832 13.9762V16.732H26.1429C26.5358 16.732 26.8667 16.5945 27.1252 16.3247C27.3889 16.055 27.5234 15.727 27.5234 15.3567C27.5234 14.9918 27.3889 14.6691 27.1252 14.3993C26.8667 14.119 26.541 13.9814 26.1429 13.9814H24.4832V13.9762Z" fill="#3C4043"/>
<path d="M31.1323 15.3197C31.8665 15.3197 32.4456 15.5207 32.8696 15.9227C33.2936 16.3247 33.5056 16.8749 33.5056 17.5731V20.9055H32.5594V20.1544H32.518C32.1096 20.7733 31.5615 21.0801 30.879 21.0801C30.2947 21.0801 29.8087 20.9055 29.4158 20.5511C29.0228 20.1967 28.8263 19.7577 28.8263 19.2287C28.8263 18.668 29.0332 18.2237 29.4468 17.8957C29.8604 17.5625 30.4137 17.3985 31.1013 17.3985C31.6908 17.3985 32.1768 17.5096 32.5542 17.7318V17.499C32.5542 17.1446 32.4198 16.8484 32.1458 16.5998C31.8717 16.3512 31.5512 16.2295 31.1841 16.2295C30.6308 16.2295 30.1913 16.4676 29.8708 16.9489L28.997 16.3882C29.4778 15.6741 30.1913 15.3197 31.1323 15.3197ZM29.8501 19.2446C29.8501 19.5091 29.9587 19.7312 30.181 19.9058C30.3981 20.0803 30.6567 20.1703 30.9514 20.1703C31.3702 20.1703 31.7425 20.0116 32.0682 19.6942C32.3939 19.3768 32.5594 19.0066 32.5594 18.5781C32.2492 18.3295 31.82 18.2025 31.2668 18.2025C30.8635 18.2025 30.5274 18.303 30.2585 18.4988C29.9845 18.7051 29.8501 18.9537 29.8501 19.2446Z" fill="#3C4043"/>
<path d="M38.9035 15.4943L35.5944 23.2806H34.5707L35.8012 20.5564L33.6193 15.4943H34.6999L36.2717 19.3769H36.2924L37.8229 15.4943H38.9035Z" fill="#3C4043"/>
<path d="M20.5345 17.06C20.5345 16.7289 20.5055 16.412 20.4518 16.1073H16.2906V17.8529L18.6871 17.8534C18.5899 18.4342 18.2771 18.9293 17.7978 19.2594V20.3919H19.2243C20.0573 19.6032 20.5345 18.4374 20.5345 17.06Z" fill="#4285F4"/>
<path d="M17.7983 19.2594C17.4012 19.5334 16.8899 19.6937 16.2917 19.6937C15.1361 19.6937 14.1558 18.897 13.8047 17.8233H12.3332V18.9912C13.0622 20.4712 14.5606 21.4868 16.2917 21.4868C17.4881 21.4868 18.4932 21.0843 19.2249 20.3914L17.7983 19.2594Z" fill="#34A853"/>
<path d="M13.6661 16.9569C13.6661 16.6554 13.7152 16.3639 13.8047 16.0899V14.922H12.3332C12.0318 15.534 11.8622 16.2248 11.8622 16.9569C11.8622 17.6889 12.0323 18.3798 12.3332 18.9918L13.8047 17.8238C13.7152 17.5498 13.6661 17.2584 13.6661 16.9569Z" fill="#FABB05"/>
<path d="M16.2917 14.2195C16.9447 14.2195 17.5295 14.4496 17.9912 14.8992L19.2554 13.6069C18.4875 12.8754 17.4866 12.4263 16.2917 12.4263C14.5611 12.4263 13.0622 13.4419 12.3332 14.9219L13.8047 16.0899C14.1558 15.0161 15.1361 14.2195 16.2917 14.2195Z" fill="#E94235"/>
</svg>
