<svg width="48" height="32" viewBox="0 0 48 32" fill="none" xmlns="http://www.w3.org/2000/svg">
<path d="M17.1172 5.07812H30.7681V27.7021H17.1172V5.07812Z" fill="#FF5F00"/>
<path d="M18.5243 16.3912C18.5226 14.2127 19.0093 12.0624 19.9475 10.1029C20.8857 8.14342 22.2509 6.42621 23.9397 5.08119C21.848 3.41314 19.3361 2.37587 16.6909 2.08792C14.0457 1.80003 11.3741 2.27307 8.98131 3.45297C6.58857 4.63287 4.57117 6.47208 3.15982 8.76033C1.74846 11.0486 1 13.6937 1 16.3932C1 19.0927 1.74846 21.7376 3.15982 24.0259C4.57117 26.3142 6.58857 28.1534 8.98131 29.3334C11.3741 30.5133 14.0457 30.9863 16.6909 30.6984C19.3361 30.4104 21.848 29.3732 23.9397 27.7051C22.2504 26.3597 20.8849 24.6418 19.9466 22.6816C19.0084 20.7214 18.522 18.5703 18.5243 16.3911V16.3912Z" fill="#EB001B"/>
<path d="M46.8815 16.391C46.8815 19.0907 46.1327 21.7359 44.721 24.0243C43.3094 26.3126 41.2917 28.1518 38.8987 29.3315C36.5056 30.5113 33.8337 30.984 31.1884 30.6957C28.543 30.4073 26.031 29.3695 23.9395 27.7009C25.6276 26.3547 26.9924 24.637 27.9309 22.6775C28.8694 20.7179 29.357 18.5677 29.357 16.389C29.357 14.2103 28.8694 12.0601 27.9309 10.1005C26.9924 8.14095 25.6276 6.42326 23.9395 5.07699C26.031 3.4084 28.543 2.37064 31.1884 2.08232C33.8337 1.79394 36.5056 2.26666 38.8987 3.44645C41.2918 4.62619 43.3095 6.46535 44.7211 8.7537C46.1327 11.0421 46.8815 13.6873 46.8815 16.387V16.391Z" fill="#F79E1B"/>
</svg>
