<svg width="58" height="32" viewBox="0 0 58 32" fill="none" xmlns="http://www.w3.org/2000/svg">
<g clip-path="url(#clip0_801_8892)">
<path d="M24.9122 25.3229H20.2549L23.1679 7.32617H27.8249L24.9122 25.3229Z" fill="#1434CB"/>
<path d="M41.7963 7.76619C40.8777 7.40205 39.4206 7 37.6191 7C33.0198 7 29.7811 9.45049 29.7612 12.9539C29.723 15.5388 32.0801 16.9745 33.843 17.8363C35.6448 18.717 36.2573 19.2919 36.2573 20.0769C36.239 21.2825 34.8013 21.8383 33.4604 21.8383C31.601 21.8383 30.6047 21.5518 29.0907 20.881L28.4774 20.5935L27.8257 24.6333C28.918 25.1306 30.9305 25.5718 33.0198 25.5911C37.9066 25.5911 41.088 23.1786 41.1257 19.4451C41.1443 17.3964 39.8997 15.8266 37.2164 14.5438C35.5875 13.7204 34.5899 13.1652 34.5899 12.3226C34.609 11.5567 35.4337 10.7722 37.2724 10.7722C38.7865 10.7337 39.8989 11.0974 40.7417 11.4613L41.1629 11.6524L41.7963 7.76619V7.76619Z" fill="#1434CB"/>
<path d="M47.9873 18.9473C48.3709 17.9134 49.8467 13.912 49.8467 13.912C49.8274 13.9504 50.2295 12.859 50.4595 12.189L50.785 13.7397C50.785 13.7397 51.6669 18.0475 51.8584 18.9473C51.1306 18.9473 48.9072 18.9473 47.9873 18.9473ZM53.7362 7.32617H50.1337C49.0228 7.32617 48.1788 7.65138 47.6995 8.81937L40.7817 25.3226H45.6685C45.6685 25.3226 46.473 23.1014 46.6459 22.623C47.182 22.623 51.9358 22.623 52.6255 22.623C52.7592 23.2548 53.1812 25.3226 53.1812 25.3226H57.4934L53.7362 7.32617V7.32617Z" fill="#1434CB"/>
<path d="M16.3661 7.32617L11.8051 19.5982L11.3067 17.1093C10.4634 14.2374 7.81888 11.1172 4.86768 9.56571L9.04541 25.3038H13.9704L21.2908 7.32617H16.3661V7.32617Z" fill="#1434CB"/>
<path d="M7.56978 7.32617H0.0766576L0 7.6898C5.8451 9.18325 9.7162 12.7832 11.3067 17.1101L9.67775 8.83896C9.40957 7.68955 8.58543 7.36409 7.56978 7.32617Z" fill="#1434CB"/>
</g>
<defs>
<clipPath id="clip0_801_8892">
<rect width="58" height="32" fill="white"/>
</clipPath>
</defs>
</svg>
