<svg width="100%" height="100%" version="1.1" viewBox="0 0 100 100" xmlns="http://www.w3.org/2000/svg" id="1179219368" class="svg u_1179219368" data-icon-custom="true" data-hover-effect="zoomout"> <path d="m77.898 80.078c-4.9609 0-9.1875-3.4414-10.281-8.1641h-32.898c-1.0938 4.7227-5.3242 8.1641-10.281 8.1641-4.9609 0-9.1875-3.4414-10.281-8.1641h-9.4531c-1.3203 0-2.3906-1.0703-2.3906-2.3906v-47.211c0-1.3203 1.0703-2.3906 2.3906-2.3906h55.797c1.3203 0 2.3906 1.0703 2.3906 2.3906v8.9922h19.875c0.76562 0.003906 1.5195 0.37109 1.9805 1.0547l12.473 18.461 0.47656 1.4297v17.273c0 1.3203-1.0703 2.3906-2.3906 2.3906h-7.1211c-1.0938 4.7227-5.3203 8.1641-10.281 8.1641zm0-21.109c4.9609 0 9.1875 3.4414 10.281 8.1641h4.7305v-12.492h-19.305c-1.3203 0-2.3906-1.0703-2.3906-2.3906v-16.164h-8.3281v31.047h4.7266c1.0938-4.7227 5.3242-8.1641 10.281-8.1641zm-1.9023-22.883v13.777h14.809l-9.3086-13.777zm1.9023 27.664c-3.1875 0-5.7734 2.5859-5.7734 5.7734s2.5859 5.7734 5.7734 5.7734 5.7734-2.5859 5.7734-5.7734-2.5859-5.7734-5.7734-5.7734zm-53.465-4.7812c4.9609 0 9.1875 3.4414 10.281 8.1641h23.391v-42.43h-51.016v42.43h7.0625c1.0938-4.7227 5.3203-8.1641 10.281-8.1641zm0 4.7812c-3.1875 0-5.7734 2.5859-5.7734 5.7734s2.5859 5.7734 5.7734 5.7734 5.7734-2.5859 5.7734-5.7734-2.5859-5.7734-5.7734-5.7734z"></path> 
</svg>