<svg width="208" height="90" viewBox="0 0 208 90" fill="none" xmlns="http://www.w3.org/2000/svg">
<g clip-path="url(#clip0_267_514)">
<mask id="mask0_267_514" style="mask-type:luminance" maskUnits="userSpaceOnUse" x="0" y="0" width="208" height="90">
<path d="M208 0H0V90H208V0Z" fill="white"/>
</mask>
<g mask="url(#mask0_267_514)">
<path d="M169.518 21.0501C168.316 20.944 167.089 20.944 165.895 21.0501L164.916 10.0423C166.759 9.87912 168.646 9.87912 170.495 10.0423L169.518 21.0501Z" fill="#CCA15B"/>
</g>
<mask id="mask1_267_514" style="mask-type:luminance" maskUnits="userSpaceOnUse" x="0" y="0" width="208" height="90">
<path d="M208 0H0V90H208V0Z" fill="white"/>
</mask>
<g mask="url(#mask1_267_514)">
<path d="M169.518 61.6606C168.316 61.7685 167.089 61.7673 165.895 61.6612L164.916 72.6684C166.759 72.8322 168.646 72.8322 170.495 72.6684L169.518 61.6606Z" fill="#CCA15B"/>
</g>
<mask id="mask2_267_514" style="mask-type:luminance" maskUnits="userSpaceOnUse" x="0" y="0" width="208" height="90">
<path d="M208 0H0V90H208V0Z" fill="white"/>
</mask>
<g mask="url(#mask2_267_514)">
<path d="M149.223 49.9419C149.733 51.0355 150.345 52.0938 151.035 53.0755L141.979 59.4258C140.915 57.9124 139.97 56.2807 139.188 54.6005L149.223 49.9419Z" fill="#CCA15B"/>
</g>
<mask id="mask3_267_514" style="mask-type:luminance" maskUnits="userSpaceOnUse" x="0" y="0" width="208" height="90">
<path d="M208 0H0V90H208V0Z" fill="white"/>
</mask>
<g mask="url(#mask3_267_514)">
<path d="M184.443 29.6359C185.135 30.6221 185.749 31.6822 186.254 32.7689L196.29 28.112C195.509 26.4359 194.567 24.8036 193.5 23.2861L184.443 29.6359Z" fill="#CCA15B"/>
</g>
<mask id="mask4_267_514" style="mask-type:luminance" maskUnits="userSpaceOnUse" x="0" y="0" width="208" height="90">
<path d="M208 0H0V90H208V0Z" fill="white"/>
</mask>
<g mask="url(#mask4_267_514)">
<path d="M184.443 53.0755C185.135 52.0892 185.749 51.0285 186.254 49.9419L196.29 54.5994C195.509 56.2749 194.567 57.9066 193.5 59.4247L184.443 53.0755Z" fill="#CCA15B"/>
</g>
<mask id="mask5_267_514" style="mask-type:luminance" maskUnits="userSpaceOnUse" x="0" y="0" width="208" height="90">
<path d="M208 0H0V90H208V0Z" fill="white"/>
</mask>
<g mask="url(#mask5_267_514)">
<path d="M149.223 32.77C149.733 31.6771 150.345 30.6175 151.035 29.637L141.979 23.2861C140.915 24.799 139.97 26.4313 139.188 28.112L149.223 32.77Z" fill="#CCA15B"/>
</g>
<mask id="mask6_267_514" style="mask-type:luminance" maskUnits="userSpaceOnUse" x="0" y="0" width="208" height="90">
<path d="M208 0H0V90H208V0Z" fill="white"/>
</mask>
<g mask="url(#mask6_267_514)">
<path d="M151.999 68.5803C154.006 69.735 156.13 70.6976 157.981 71.2369L161.401 60.7269C160.225 60.3774 158.851 59.7562 157.536 59.0006C156.225 58.2427 155 57.3643 154.108 56.5222L146.704 64.7355C148.098 66.0667 149.995 67.4233 151.999 68.5803Z" fill="#CCA15B"/>
</g>
<mask id="mask7_267_514" style="mask-type:luminance" maskUnits="userSpaceOnUse" x="0" y="0" width="208" height="90">
<path d="M208 0H0V90H208V0Z" fill="white"/>
</mask>
<g mask="url(#mask7_267_514)">
<path d="M183.479 14.1309C185.483 15.2879 187.38 16.6439 188.775 17.9757L181.37 26.1884C180.479 25.3463 179.253 24.4685 177.941 23.7094C176.628 22.9539 175.254 22.3338 174.078 21.9837L177.498 11.4731C179.349 12.0136 181.474 12.9768 183.479 14.1309Z" fill="#CCA15B"/>
</g>
<mask id="mask8_267_514" style="mask-type:luminance" maskUnits="userSpaceOnUse" x="0" y="0" width="208" height="90">
<path d="M208 0H0V90H208V0Z" fill="white"/>
</mask>
<g mask="url(#mask8_267_514)">
<path d="M151.999 14.1309C149.995 15.2879 148.098 16.6439 146.704 17.9757L154.108 26.1884C155 25.3463 156.225 24.4685 157.536 23.7094C158.851 22.9539 160.225 22.3338 161.401 21.9837L157.981 11.4731C156.13 12.0136 154.006 12.9768 151.999 14.1309Z" fill="#CCA15B"/>
</g>
<mask id="mask9_267_514" style="mask-type:luminance" maskUnits="userSpaceOnUse" x="0" y="0" width="208" height="90">
<path d="M208 0H0V90H208V0Z" fill="white"/>
</mask>
<g mask="url(#mask9_267_514)">
<path d="M183.479 68.5803C181.474 69.735 179.349 70.6976 177.498 71.2369L174.078 60.7269C175.254 60.3774 176.628 59.7562 177.941 59.0006C179.253 58.2427 180.479 57.3643 181.37 56.5222L188.775 64.7355C187.38 66.0667 185.483 67.4233 183.479 68.5803Z" fill="#CCA15B"/>
</g>
<mask id="mask10_267_514" style="mask-type:luminance" maskUnits="userSpaceOnUse" x="0" y="0" width="208" height="90">
<path d="M208 0H0V90H208V0Z" fill="white"/>
</mask>
<g mask="url(#mask10_267_514)">
<path d="M199.22 41.356C199.219 39.0443 198.991 36.7251 198.533 34.854L187.708 37.1513C187.993 38.3441 188.142 39.842 188.144 41.356C188.142 42.87 187.993 44.3685 187.708 45.5607L198.533 47.858C198.99 45.9863 199.219 43.6666 199.22 41.356Z" fill="#CCA15B"/>
</g>
<mask id="mask11_267_514" style="mask-type:luminance" maskUnits="userSpaceOnUse" x="0" y="0" width="208" height="90">
<path d="M208 0H0V90H208V0Z" fill="white"/>
</mask>
<g mask="url(#mask11_267_514)">
<path d="M136.259 41.356C136.261 39.0443 136.488 36.7251 136.945 34.854L147.77 37.1513C147.485 38.3441 147.337 39.842 147.334 41.356C147.337 42.87 147.485 44.3685 147.77 45.5607L136.945 47.858C136.488 45.9863 136.261 43.6666 136.259 41.356Z" fill="#CCA15B"/>
</g>
<mask id="mask12_267_514" style="mask-type:luminance" maskUnits="userSpaceOnUse" x="0" y="0" width="208" height="90">
<path d="M208 0H0V90H208V0Z" fill="white"/>
</mask>
<g mask="url(#mask12_267_514)">
<path d="M168.644 31.0247C168.031 30.9705 167.408 30.9705 166.801 31.0247L166.303 25.4248C167.241 25.3412 168.2 25.3412 169.141 25.4248L168.644 31.0247Z" fill="#A7A9AC"/>
</g>
<mask id="mask13_267_514" style="mask-type:luminance" maskUnits="userSpaceOnUse" x="0" y="0" width="208" height="90">
<path d="M208 0H0V90H208V0Z" fill="white"/>
</mask>
<g mask="url(#mask13_267_514)">
<path d="M168.644 51.687C168.031 51.7407 167.408 51.7407 166.801 51.687L166.303 57.2869C167.241 57.3706 168.2 57.3711 169.141 57.2869L168.644 51.687Z" fill="#A7A9AC"/>
</g>
<mask id="mask14_267_514" style="mask-type:luminance" maskUnits="userSpaceOnUse" x="0" y="0" width="208" height="90">
<path d="M208 0H0V90H208V0Z" fill="white"/>
</mask>
<g mask="url(#mask14_267_514)">
<path d="M158.319 45.7244C158.578 46.2798 158.89 46.8191 159.241 47.318L154.632 50.5497C154.09 49.7797 153.609 48.9497 153.213 48.0938L158.319 45.7244Z" fill="#A7A9AC"/>
</g>
<mask id="mask15_267_514" style="mask-type:luminance" maskUnits="userSpaceOnUse" x="0" y="0" width="208" height="90">
<path d="M208 0H0V90H208V0Z" fill="white"/>
</mask>
<g mask="url(#mask15_267_514)">
<path d="M176.238 35.3926C176.591 35.8944 176.902 36.4337 177.16 36.9868L182.267 34.6174C181.869 33.7644 181.388 32.9338 180.846 32.1621L176.238 35.3926Z" fill="#A7A9AC"/>
</g>
<mask id="mask16_267_514" style="mask-type:luminance" maskUnits="userSpaceOnUse" x="0" y="0" width="208" height="90">
<path d="M208 0H0V90H208V0Z" fill="white"/>
</mask>
<g mask="url(#mask16_267_514)">
<path d="M176.238 47.3186C176.591 46.8174 176.902 46.2769 177.16 45.7244L182.267 48.0932C181.869 48.9462 181.388 49.7768 180.846 50.5485L176.238 47.3186Z" fill="#A7A9AC"/>
</g>
<mask id="mask17_267_514" style="mask-type:luminance" maskUnits="userSpaceOnUse" x="0" y="0" width="208" height="90">
<path d="M208 0H0V90H208V0Z" fill="white"/>
</mask>
<g mask="url(#mask17_267_514)">
<path d="M158.319 36.9874C158.578 36.4314 158.89 35.8927 159.241 35.3932L154.632 32.1621C154.09 32.9315 153.609 33.7627 153.213 34.6174L158.319 36.9874Z" fill="#A7A9AC"/>
</g>
<mask id="mask18_267_514" style="mask-type:luminance" maskUnits="userSpaceOnUse" x="0" y="0" width="208" height="90">
<path d="M208 0H0V90H208V0Z" fill="white"/>
</mask>
<g mask="url(#mask18_267_514)">
<path d="M159.732 55.2077C160.752 55.7948 161.832 56.2851 162.776 56.559L164.515 51.2118C163.917 51.033 163.217 50.7186 162.549 50.3339C161.883 49.9475 161.259 49.5016 160.805 49.0725L157.038 53.2512C157.746 53.9284 158.712 54.6182 159.732 55.2077Z" fill="#A7A9AC"/>
</g>
<mask id="mask19_267_514" style="mask-type:luminance" maskUnits="userSpaceOnUse" x="0" y="0" width="208" height="90">
<path d="M208 0H0V90H208V0Z" fill="white"/>
</mask>
<g mask="url(#mask19_267_514)">
<path d="M175.748 27.5048C176.768 28.0931 177.733 28.7841 178.441 29.4612L174.675 33.64C174.22 33.2103 173.598 32.7644 172.93 32.3785C172.262 31.9938 171.563 31.6778 170.965 31.5001L172.704 26.1528C173.646 26.4274 174.728 26.9171 175.748 27.5048Z" fill="#A7A9AC"/>
</g>
<mask id="mask20_267_514" style="mask-type:luminance" maskUnits="userSpaceOnUse" x="0" y="0" width="208" height="90">
<path d="M208 0H0V90H208V0Z" fill="white"/>
</mask>
<g mask="url(#mask20_267_514)">
<path d="M159.732 27.5048C158.712 28.0931 157.746 28.7841 157.037 29.4612L160.804 33.64C161.258 33.2103 161.882 32.7644 162.549 32.3785C163.217 31.9938 163.917 31.6778 164.515 31.5001L162.775 26.1528C161.832 26.4274 160.751 26.9171 159.732 27.5048Z" fill="#A7A9AC"/>
</g>
<mask id="mask21_267_514" style="mask-type:luminance" maskUnits="userSpaceOnUse" x="0" y="0" width="208" height="90">
<path d="M208 0H0V90H208V0Z" fill="white"/>
</mask>
<g mask="url(#mask21_267_514)">
<path d="M175.747 55.2077C174.727 55.7948 173.645 56.2851 172.703 56.559L170.963 51.2118C171.562 51.033 172.261 50.7186 172.929 50.3339C173.597 49.9475 174.219 49.5016 174.674 49.0725L178.44 53.2512C177.733 53.9284 176.767 54.6182 175.747 55.2077Z" fill="#A7A9AC"/>
</g>
<mask id="mask22_267_514" style="mask-type:luminance" maskUnits="userSpaceOnUse" x="0" y="0" width="208" height="90">
<path d="M208 0H0V90H208V0Z" fill="white"/>
</mask>
<g mask="url(#mask22_267_514)">
<path d="M183.756 41.356C183.755 40.1799 183.638 38.9999 183.407 38.0476L177.898 39.2167C178.044 39.8235 178.12 40.586 178.121 41.356C178.12 42.126 178.044 42.8885 177.898 43.4952L183.407 44.6644C183.638 43.7121 183.755 42.5315 183.756 41.356Z" fill="#A7A9AC"/>
</g>
<mask id="mask23_267_514" style="mask-type:luminance" maskUnits="userSpaceOnUse" x="0" y="0" width="208" height="90">
<path d="M208 0H0V90H208V0Z" fill="white"/>
</mask>
<g mask="url(#mask23_267_514)">
<path d="M151.723 41.356C151.724 40.1799 151.84 38.9999 152.073 38.0476L157.58 39.2167C157.435 39.8235 157.359 40.586 157.358 41.356C157.359 42.126 157.435 42.8885 157.58 43.4952L152.073 44.6644C151.84 43.7121 151.724 42.5315 151.723 41.356Z" fill="#A7A9AC"/>
</g>
<mask id="mask24_267_514" style="mask-type:luminance" maskUnits="userSpaceOnUse" x="0" y="0" width="208" height="90">
<path d="M208 0H0V90H208V0Z" fill="white"/>
</mask>
<g mask="url(#mask24_267_514)">
<path d="M80.9897 59.342H81.8671V52.6532H80.9897V59.342ZM94.188 58.0276L91.0286 52.6705L91.0177 52.6526H89.9139V59.342H90.7554V53.7629L94.0349 59.3241L94.0453 59.342H95.0272V52.6526H94.188V58.0276ZM103.938 52.6526H102.149V59.342H103.919C106.054 59.342 107.328 58.1008 107.328 56.021V55.9367C107.328 53.8805 106.061 52.6526 103.938 52.6526ZM106.422 56.0111C106.422 57.689 105.528 58.613 103.901 58.613H103.028V53.3712H103.891C105.983 53.3712 106.422 54.7665 106.422 55.9367V56.0111ZM113.569 59.342H114.447V52.6532H113.569V59.342ZM123.73 52.6768L123.722 52.6526H122.615L120.326 59.2942L120.31 59.342H121.146L121.785 57.4352H124.469L125.11 59.3172L125.118 59.342H125.989L123.73 52.6768ZM122.032 56.7252L123.132 53.4664L124.23 56.7252H122.032Z" fill="black"/>
</g>
<mask id="mask25_267_514" style="mask-type:luminance" maskUnits="userSpaceOnUse" x="0" y="0" width="208" height="90">
<path d="M208 0H0V90H208V0Z" fill="white"/>
</mask>
<g mask="url(#mask25_267_514)">
<path d="M23.698 36.1234H30.1131V43.0972C28.4076 43.7859 26.4062 44.0852 23.5865 44.0852C17.5652 44.0852 13.3587 40.3967 13.3587 35.1158C13.3587 29.8343 17.5652 26.1458 23.5865 26.1458C26.5703 26.1458 29.8036 26.9071 31.8245 28.0866L33.4336 29.025V25.6371L32.8549 25.3389C30.4759 24.1103 27.097 23.4055 23.5865 23.4055C15.0072 23.4055 8.78027 28.33 8.78027 35.1158C8.78027 41.901 15.0072 46.826 23.5865 46.826C27.7081 46.826 31.2308 46.0393 34.0597 44.4867L34.6136 44.1821V33.3826H23.698V36.1234ZM45.9336 38.7431C45.9336 42.2551 45.1354 43.7218 40.1936 43.7218H38.5724V46.4627H40.1936C46.9888 46.4627 50.4341 43.937 50.4341 38.9554V23.7683H45.9336V38.7431ZM57.4523 46.4627H75.4929V43.7218H61.9533V36.1228H70.7747V33.3826H61.9533V26.5086H75.4929V23.7683H57.4523V46.4627ZM89.5778 23.7683H81.0296V46.4627H85.5301V36.6373H89.5778C95.8653 36.6373 99.6207 34.2374 99.6207 30.2184C99.6207 26.1792 95.8659 23.7683 89.5778 23.7683ZM89.5778 33.8965H85.5301V26.5086H89.5778C94.4612 26.5086 95.1196 28.3837 95.1196 30.2184C95.1202 32.037 94.4612 33.8965 89.5778 33.8965ZM124.397 42.2292C122.413 43.3568 119.376 44.0852 116.66 44.0852C110.661 44.0852 106.629 40.4804 106.629 35.1158C106.629 29.7506 110.676 26.1458 116.699 26.1458C119.291 26.1458 122.124 26.8137 123.918 27.8473L125.522 28.7713V25.4231L124.941 25.1249C122.806 24.0325 119.802 23.4055 116.699 23.4055C108.212 23.4055 102.049 28.33 102.049 35.1158C102.049 41.901 108.194 46.826 116.659 46.826C120.025 46.826 123.139 46.1593 125.426 44.9481L125.994 44.647V41.3213L124.397 42.2292Z" fill="black"/>
</g>
<path d="M10.4929 68.8508C10.5195 68.9171 10.5674 68.9777 10.6373 69.0319C10.7072 69.0867 10.8031 69.1369 10.9261 69.1813C11.0486 69.2263 11.2062 69.2684 11.398 69.3082C11.7856 69.3941 12.072 69.5135 12.2557 69.6663C12.4394 69.8186 12.5318 70.0291 12.5318 70.2979C12.5318 70.4467 12.5023 70.5828 12.4434 70.7051C12.3845 70.828 12.3031 70.9329 12.1997 71.0189C12.0963 71.1048 11.9715 71.1711 11.826 71.2179C11.6804 71.264 11.521 71.2871 11.3489 71.2871C11.0705 71.2871 10.8164 71.2421 10.5859 71.1527C10.3555 71.0633 10.136 70.9243 9.92749 70.7363L10.1712 70.4484C10.3532 70.614 10.5374 70.7368 10.7228 70.8182C10.9082 70.8995 11.1219 70.9399 11.3639 70.9399C11.599 70.9399 11.7873 70.8851 11.9282 70.7761C12.0692 70.667 12.1396 70.5228 12.1396 70.3435C12.1396 70.2604 12.1263 70.1872 12.0998 70.122C12.0732 70.058 12.027 69.9986 11.96 69.9455C11.8936 69.8924 11.8017 69.8446 11.6833 69.8013C11.5649 69.758 11.4153 69.7171 11.2322 69.6767C11.033 69.634 10.8591 69.5839 10.7118 69.5273C10.564 69.4708 10.4415 69.4033 10.3457 69.3232C10.2492 69.2436 10.1776 69.1513 10.1314 69.0452C10.0846 68.939 10.0615 68.8133 10.0615 68.6674C10.0615 68.5284 10.0892 68.4009 10.1458 68.285C10.2024 68.169 10.2815 68.0687 10.3844 67.9845C10.4872 67.9003 10.6085 67.8333 10.7471 67.7855C10.8863 67.737 11.0388 67.7134 11.2045 67.7134C11.4598 67.7134 11.6828 67.7486 11.8734 67.8184C12.064 67.8887 12.2482 67.9943 12.4273 68.1356L12.1985 68.4378C12.0362 68.3057 11.8734 68.2094 11.7087 68.15C11.5441 68.0906 11.3732 68.0612 11.1941 68.0612C11.0815 68.0612 10.9793 68.0756 10.8886 68.1056C10.7973 68.1356 10.7194 68.1754 10.6547 68.225C10.59 68.2746 10.5403 68.334 10.5056 68.4044C10.471 68.4736 10.4537 68.5485 10.4537 68.6281C10.4531 68.71 10.4664 68.7845 10.4929 68.8508Z" fill="black"/>
<path d="M15.7571 70.5177C15.6872 70.6832 15.5953 70.8228 15.481 70.9376C15.3666 71.0518 15.2361 71.1394 15.0882 71.2006C14.9404 71.2617 14.789 71.2923 14.6331 71.2923C14.5135 71.2923 14.4044 71.2778 14.305 71.2479C14.2057 71.2179 14.1162 71.1781 14.0364 71.1285C13.9567 71.0789 13.8845 71.0206 13.8199 70.9549C13.7552 70.8885 13.698 70.8193 13.6483 70.7461V72.0317H13.2654V68.6714H13.6483V69.1876C13.7015 69.1115 13.7604 69.0388 13.8251 68.969C13.8897 68.8998 13.9619 68.8392 14.0416 68.7885C14.1214 68.7377 14.2097 68.6956 14.3073 68.6639C14.4049 68.6328 14.5135 68.6172 14.6325 68.6172C14.785 68.6172 14.9346 68.6466 15.0824 68.706C15.2303 68.7654 15.3614 68.8525 15.4781 68.9667C15.5942 69.0809 15.6866 69.2205 15.7565 69.3866C15.8264 69.5527 15.861 69.7402 15.861 69.9518C15.861 70.1635 15.8269 70.3521 15.7571 70.5177ZM15.3966 69.5464C15.3487 69.4247 15.2829 69.3197 15.2003 69.2332C15.1171 69.1461 15.0212 69.0786 14.9115 69.0325C14.8023 68.9869 14.6862 68.9638 14.5632 68.9638C14.4436 68.9638 14.3287 68.9875 14.2178 69.0353C14.1069 69.0832 14.0076 69.1496 13.9198 69.2355C13.832 69.3209 13.7627 69.4247 13.7107 69.5464C13.6593 69.6686 13.6339 69.803 13.6339 69.9513C13.6339 70.1001 13.6593 70.2356 13.7107 70.359C13.7621 70.4825 13.8314 70.5874 13.9198 70.6728C14.0076 70.7582 14.1069 70.8251 14.2178 70.873C14.3287 70.9208 14.4442 70.9445 14.5632 70.9445C14.6856 70.9445 14.8029 70.9226 14.9138 70.8781C15.0247 70.8337 15.1206 70.7697 15.202 70.6855C15.2834 70.6013 15.3476 70.4975 15.3961 70.374C15.444 70.2506 15.4683 70.1116 15.4683 69.9565C15.4688 69.8048 15.4446 69.6686 15.3966 69.5464Z" fill="black"/>
<path d="M18.9856 70.4705C18.9174 70.6343 18.8239 70.7773 18.7049 70.9002C18.5853 71.0224 18.4433 71.1193 18.2775 71.1903C18.1117 71.2618 17.9327 71.2975 17.7409 71.2975C17.5486 71.2975 17.3713 71.2618 17.209 71.1903C17.0467 71.1193 16.9057 71.0236 16.7862 70.9025C16.6666 70.7819 16.5742 70.6406 16.5078 70.4785C16.4414 70.3165 16.4084 70.144 16.4084 69.9617C16.4084 69.7795 16.4414 69.607 16.5078 69.4432C16.5742 69.2794 16.6666 69.1364 16.7862 69.0141C16.9057 68.8912 17.0472 68.7943 17.2113 68.7234C17.3753 68.6525 17.5549 68.6167 17.7507 68.6167C17.9431 68.6167 18.121 68.6525 18.285 68.7234C18.449 68.7943 18.5905 68.8907 18.7101 69.0112C18.8297 69.1323 18.9221 69.2736 18.9885 69.4357C19.0549 69.5978 19.0878 69.7697 19.0878 69.9519C19.0878 70.1342 19.0538 70.3066 18.9856 70.4705ZM18.6229 69.5678C18.5749 69.4455 18.5079 69.3394 18.4219 69.2483C18.3358 69.1577 18.2348 69.0856 18.1187 69.0331C18.0026 68.9801 17.8767 68.9535 17.7409 68.9535C17.6017 68.9535 17.4741 68.9789 17.358 69.0302C17.2419 69.0816 17.1437 69.1525 17.0623 69.2431C16.9808 69.3336 16.9173 69.4398 16.8705 69.5603C16.8237 69.6808 16.8006 69.8106 16.8006 69.949C16.8006 70.0875 16.8249 70.2184 16.8728 70.3407C16.9208 70.4624 16.9872 70.5685 17.0715 70.6573C17.1558 70.7462 17.2563 70.8171 17.3724 70.8702C17.4885 70.9232 17.6144 70.9498 17.7502 70.9498C17.8894 70.9498 18.017 70.9244 18.1331 70.873C18.2492 70.8217 18.3485 70.7513 18.4317 70.6625C18.5143 70.5737 18.579 70.4687 18.6252 70.3482C18.672 70.2276 18.6951 70.0979 18.6951 69.9594C18.6951 69.8204 18.6708 69.6901 18.6229 69.5678Z" fill="black"/>
<path d="M20.161 71.2376H19.7781V68.6715H20.161V69.1179C20.2471 68.9789 20.3597 68.8607 20.4989 68.7632C20.6381 68.6651 20.8189 68.6167 21.0407 68.6167C21.1966 68.6167 21.3347 68.6415 21.4559 68.6911C21.5772 68.7407 21.6795 68.8111 21.7644 68.9016C21.8487 68.9928 21.9134 69.1012 21.9579 69.2269C22.0029 69.3527 22.0249 69.4917 22.0249 69.6439V71.2376H21.6419V69.738C21.6419 69.4997 21.5807 69.3111 21.4583 69.1727C21.3358 69.0337 21.1596 68.9645 20.9309 68.9645C20.8218 68.9645 20.7195 68.9829 20.6254 69.0216C20.5307 69.0591 20.4486 69.1139 20.3793 69.1854C20.3094 69.2563 20.2557 69.3417 20.2176 69.4409C20.1795 69.5401 20.1604 69.6491 20.1604 69.7679L20.161 71.2376Z" fill="black"/>
<path d="M24.5333 70.8425C24.4854 70.937 24.4207 71.0172 24.3392 71.0835C24.2578 71.1493 24.1619 71.2001 24.051 71.2352C23.9401 71.2698 23.82 71.2871 23.6906 71.2871C23.5052 71.2871 23.3175 71.2531 23.1286 71.1851C22.9398 71.1176 22.7723 71.0259 22.6267 70.9094L22.8202 70.6365C22.9594 70.7427 23.1044 70.8234 23.2551 70.8794C23.4059 70.9359 23.5572 70.9636 23.7102 70.9636C23.8662 70.9636 23.9933 70.9272 24.0932 70.8546C24.1925 70.7819 24.2422 70.6827 24.2422 70.557V70.5466C24.2422 70.4837 24.2249 70.4289 24.1896 70.3828C24.155 70.3366 24.1076 70.2962 24.0481 70.2611C23.9886 70.2265 23.9199 70.1959 23.8419 70.1694C23.764 70.1428 23.6837 70.118 23.6011 70.095C23.5017 70.065 23.4012 70.0332 23.3002 69.9981C23.1991 69.9629 23.1078 69.9196 23.027 69.8666C22.9461 69.8135 22.8797 69.7472 22.8283 69.6676C22.7769 69.588 22.7515 69.4888 22.7515 69.3694V69.3596C22.7515 69.2506 22.7728 69.1502 22.8162 69.0591C22.8589 68.9685 22.9195 68.8906 22.9975 68.826C23.0755 68.762 23.1679 68.7118 23.2759 68.6772C23.3839 68.6421 23.5006 68.6248 23.6265 68.6248C23.7853 68.6248 23.9465 68.6507 24.1088 68.702C24.2711 68.7534 24.4184 68.822 24.5512 68.908L24.3774 69.1958C24.2578 69.1196 24.133 69.0591 24.0025 69.0147C23.8714 68.9702 23.7432 68.9477 23.6173 68.9477C23.4648 68.9477 23.3435 68.9835 23.2545 69.055C23.165 69.126 23.1205 69.2142 23.1205 69.3203V69.3307C23.1205 69.3901 23.1384 69.442 23.1754 69.487C23.2118 69.532 23.2603 69.5712 23.3221 69.6035C23.3833 69.637 23.4538 69.6664 23.5335 69.6929C23.6132 69.7195 23.6958 69.746 23.7819 69.7725C23.8812 69.8025 23.98 69.8354 24.0776 69.8717C24.1752 69.9081 24.2641 69.9548 24.3433 70.0107C24.4224 70.0667 24.4865 70.1348 24.535 70.2143C24.583 70.2939 24.6072 70.392 24.6072 70.5074V70.5177C24.6055 70.6406 24.5812 70.7484 24.5333 70.8425Z" fill="black"/>
<path d="M27.7349 70.4705C27.6667 70.6343 27.5732 70.7773 27.4542 70.9002C27.3346 71.0224 27.1925 71.1193 27.0268 71.1903C26.861 71.2618 26.6819 71.2975 26.4902 71.2975C26.2979 71.2975 26.1205 71.2618 25.9582 71.1903C25.7959 71.1193 25.655 71.0236 25.5355 70.9025C25.4159 70.7819 25.3235 70.6406 25.2571 70.4785C25.1906 70.3165 25.1577 70.144 25.1577 69.9617C25.1577 69.7795 25.1906 69.607 25.2571 69.4432C25.3235 69.2794 25.4159 69.1364 25.5355 69.0141C25.655 68.8912 25.7965 68.7943 25.9605 68.7234C26.1246 68.6525 26.3042 68.6167 26.5 68.6167C26.6923 68.6167 26.8702 68.6525 27.0343 68.7234C27.1983 68.7943 27.3398 68.8907 27.4594 69.0112C27.5789 69.1323 27.6713 69.2736 27.7378 69.4357C27.8042 69.5978 27.8371 69.7697 27.8371 69.9519C27.8365 70.1342 27.8024 70.3066 27.7349 70.4705ZM27.3716 69.5678C27.3236 69.4455 27.2566 69.3394 27.1706 69.2483C27.0845 69.1577 26.9834 69.0856 26.8673 69.0331C26.7513 68.9801 26.6253 68.9535 26.4896 68.9535C26.3504 68.9535 26.2228 68.9789 26.1067 69.0302C25.9906 69.0816 25.8924 69.1525 25.811 69.2431C25.7295 69.3336 25.666 69.4398 25.6192 69.5603C25.5724 69.6808 25.5493 69.8106 25.5493 69.949C25.5493 70.0875 25.5736 70.2184 25.6215 70.3407C25.6695 70.4624 25.7359 70.5685 25.8202 70.6573C25.9045 70.7462 26.005 70.8171 26.1211 70.8702C26.2372 70.9232 26.3631 70.9498 26.4989 70.9498C26.6381 70.9498 26.7657 70.9244 26.8818 70.873C26.9979 70.8217 27.0972 70.7513 27.1804 70.6625C27.263 70.5737 27.3277 70.4687 27.3739 70.3482C27.4207 70.2276 27.4438 70.0979 27.4438 69.9594C27.4438 69.8204 27.4201 69.6901 27.3716 69.5678Z" fill="black"/>
<path d="M28.9103 71.2375H28.5273V68.6714H28.9103V69.3411C28.9571 69.235 29.0148 69.1375 29.0841 69.0481C29.154 68.9593 29.2331 68.882 29.3227 68.818C29.4122 68.7534 29.5098 68.7043 29.6161 68.6714C29.7224 68.638 29.8361 68.623 29.9592 68.6265V69.0389H29.9297C29.7905 69.0389 29.6588 69.0637 29.5341 69.1133C29.4099 69.1629 29.3013 69.2373 29.2089 69.337C29.1159 69.4363 29.0431 69.5597 28.99 69.7068C28.9368 69.8544 28.9103 70.024 28.9103 70.2155V71.2375Z" fill="black"/>
<path d="M30.7695 70.4657C30.8227 70.5736 30.8902 70.6642 30.9734 70.7386C31.056 70.813 31.149 70.8695 31.2518 70.9076C31.3546 70.9456 31.462 70.9647 31.5747 70.9647C31.7537 70.9647 31.9068 70.9318 32.0344 70.8655C32.1621 70.7997 32.2787 70.7115 32.3844 70.6024L32.6236 70.8159C32.4942 70.9612 32.3469 71.0783 32.1811 71.1654C32.0154 71.253 31.8098 71.2975 31.5649 71.2975C31.3893 71.2975 31.2235 71.2646 31.0676 71.2006C30.9116 71.136 30.7759 71.0448 30.6586 70.9272C30.542 70.8101 30.449 70.6688 30.3802 70.5032C30.3115 70.3377 30.2769 70.1554 30.2769 69.957C30.2769 69.7719 30.3075 69.5971 30.3687 69.4333C30.4299 69.2701 30.5154 69.1276 30.6246 69.0065C30.7337 68.886 30.8643 68.7908 31.0144 68.7216C31.1652 68.6518 31.3304 68.6172 31.5088 68.6172C31.6977 68.6172 31.8669 68.6529 32.0159 68.7239C32.165 68.7948 32.2909 68.8917 32.3937 69.0146C32.4965 69.1369 32.5745 69.2811 32.627 69.446C32.6802 69.6115 32.7067 69.7892 32.7067 69.9772C32.7067 69.9939 32.7067 70.0124 32.7067 70.032C32.7067 70.0522 32.705 70.0735 32.7021 70.0966H30.6685C30.6835 70.2345 30.7164 70.3579 30.7695 70.4657ZM32.3157 69.8128C32.3053 69.6969 32.2816 69.5856 32.2435 69.48C32.206 69.3739 32.1528 69.2816 32.0858 69.2026C32.0183 69.123 31.9357 69.059 31.8386 69.0111C31.7416 68.9633 31.6284 68.939 31.5002 68.939C31.3881 68.939 31.2842 68.9615 31.1889 69.0059C31.093 69.0509 31.0092 69.1126 30.9365 69.1899C30.8637 69.2672 30.8048 69.3595 30.7586 69.4656C30.7124 69.5718 30.6829 69.6871 30.6696 69.8134L32.3157 69.8128Z" fill="black"/>
<path d="M35.4421 71.2375V70.7207C35.389 70.7974 35.3301 70.8701 35.2654 70.9393C35.2007 71.0091 35.1285 71.0702 35.0488 71.1227C34.9691 71.1752 34.8807 71.2173 34.7831 71.2473C34.6855 71.2773 34.5769 71.2917 34.4579 71.2917C34.302 71.2917 34.1512 71.2617 34.0057 71.2023C33.8601 71.1429 33.729 71.0558 33.6129 70.9422C33.4968 70.828 33.4044 70.6884 33.3345 70.5223C33.2646 70.3562 33.23 70.1682 33.23 69.9565C33.23 69.7448 33.2646 69.5562 33.3345 69.3907C33.4044 69.2257 33.4968 69.0855 33.6129 68.9713C33.729 68.8571 33.8601 68.7689 34.0057 68.7083C34.1512 68.6472 34.302 68.6166 34.4579 68.6166C34.5775 68.6166 34.6866 68.631 34.786 68.661C34.8853 68.691 34.9748 68.7303 35.0546 68.7799C35.1343 68.83 35.2065 68.8877 35.2711 68.954C35.3358 69.0204 35.393 69.0896 35.4427 69.1623V67.613H35.8256V71.2369L35.4421 71.2375ZM35.3803 69.5464C35.3289 69.4247 35.259 69.3209 35.1712 69.2355C35.0834 69.1501 34.9841 69.0832 34.8732 69.0354C34.7623 68.9875 34.6468 68.9638 34.5278 68.9638C34.4019 68.9638 34.2841 68.9858 34.1749 69.0302C34.0657 69.0746 33.9704 69.1386 33.889 69.2228C33.8076 69.307 33.7429 69.4103 33.6949 69.5337C33.647 69.6577 33.6227 69.7967 33.6227 69.9513C33.6227 70.103 33.647 70.2397 33.6949 70.3614C33.7429 70.4836 33.8087 70.588 33.8913 70.6751C33.9745 70.7622 34.0704 70.8297 34.1801 70.8753C34.2893 70.9214 34.4054 70.9445 34.5284 70.9445C34.6479 70.9445 34.7629 70.9208 34.8738 70.873C34.9847 70.8251 35.084 70.7588 35.1718 70.6728C35.2596 70.5869 35.3289 70.4825 35.3809 70.3591C35.4323 70.2356 35.4577 70.1001 35.4577 69.9513C35.4571 69.8031 35.4317 69.6687 35.3803 69.5464Z" fill="black"/>
<path d="M40.6616 70.5177C40.5917 70.6833 40.4999 70.8229 40.3855 70.9376C40.2712 71.0518 40.1406 71.1395 39.9928 71.2006C39.8449 71.2618 39.6936 71.2924 39.5376 71.2924C39.4181 71.2924 39.3089 71.2779 39.2096 71.2479C39.1102 71.218 39.0207 71.1782 38.941 71.1286C38.8613 71.0789 38.7891 71.0207 38.7244 70.9549C38.6597 70.8886 38.6025 70.8194 38.5529 70.7461V71.2381H38.1699V67.6143H38.5529V69.1883C38.606 69.1121 38.6649 69.0395 38.7296 68.9697C38.7943 68.9005 38.8665 68.8399 38.9462 68.7892C39.0259 68.7384 39.1143 68.6963 39.2119 68.6646C39.3095 68.6334 39.4181 68.6178 39.5371 68.6178C39.6895 68.6178 39.8391 68.6473 39.987 68.7067C40.1348 68.7661 40.266 68.8532 40.3826 68.9674C40.4987 69.0816 40.5911 69.2212 40.661 69.3873C40.7309 69.5534 40.7656 69.7408 40.7656 69.9525C40.7656 70.1642 40.7315 70.3522 40.6616 70.5177ZM40.3012 69.5465C40.2533 69.4248 40.1874 69.3198 40.1048 69.2333C40.0216 69.1462 39.9258 69.0787 39.816 69.0325C39.7069 68.987 39.5908 68.9639 39.4677 68.9639C39.3482 68.9639 39.2332 68.9876 39.1224 69.0354C39.0115 69.0833 38.9121 69.1496 38.8243 69.2356C38.7365 69.3209 38.6672 69.4248 38.6152 69.5465C38.5638 69.6687 38.5384 69.8031 38.5384 69.9514C38.5384 70.1002 38.5638 70.2357 38.6152 70.3591C38.6666 70.4826 38.736 70.5875 38.8243 70.6729C38.9121 70.7583 39.0115 70.8252 39.1224 70.873C39.2332 70.9209 39.3488 70.9446 39.4677 70.9446C39.5902 70.9446 39.7074 70.9226 39.8183 70.8782C39.9292 70.8338 40.0251 70.7698 40.1065 70.6856C40.188 70.6014 40.2521 70.4976 40.3006 70.3741C40.3486 70.2507 40.3728 70.1117 40.3728 69.9565C40.3734 69.8049 40.3491 69.6687 40.3012 69.5465Z" fill="black"/>
<path d="M42.6052 71.3218C42.496 71.5865 42.3742 71.7734 42.2396 71.883C42.105 71.9925 41.9421 72.0468 41.7498 72.0468C41.6435 72.0468 41.5476 72.0352 41.4616 72.0139C41.3755 71.9925 41.2895 71.9603 41.2028 71.917L41.3322 71.6148C41.3952 71.6476 41.4575 71.6719 41.5188 71.6869C41.58 71.7013 41.6522 71.7088 41.7354 71.7088C41.8514 71.7088 41.9491 71.6742 42.0288 71.6044C42.1085 71.5352 42.1859 71.4088 42.2627 71.2272L41.0942 68.6709H41.517L42.4515 70.8102L43.2769 68.6709H43.6847L42.6052 71.3218Z" fill="black"/>
<path d="M47.5169 70.2841H47.4967L46.2289 68.4275V71.2369H45.8459V67.7625H46.2433L47.5111 69.6583L48.7789 67.7625H49.1763V71.2369H48.7835V68.4223L47.5169 70.2841Z" fill="black"/>
<path d="M50.1062 68.1103V67.6887H50.5434V68.1103H50.1062ZM50.131 71.2376V68.6715H50.514V71.2376H50.131Z" fill="black"/>
<path d="M51.7863 71.2376H51.4033V68.6715H51.7863V69.1179C51.8723 68.9789 51.9849 68.8607 52.1241 68.7632C52.2633 68.6651 52.4441 68.6167 52.6659 68.6167C52.8219 68.6167 52.9599 68.6415 53.0812 68.6911C53.2025 68.7407 53.3047 68.8111 53.3896 68.9016C53.4739 68.9928 53.5386 69.1012 53.5831 69.2269C53.6282 69.3527 53.6501 69.4917 53.6501 69.6439V71.2376H53.2672V69.738C53.2672 69.4997 53.2059 69.3111 53.0835 69.1727C52.961 69.0337 52.7849 68.9645 52.5562 68.9645C52.447 68.9645 52.3448 68.9829 52.2506 69.0216C52.1559 69.0591 52.0739 69.1139 52.0046 69.1854C51.9347 69.2563 51.881 69.3417 51.8429 69.4409C51.8047 69.5401 51.7857 69.6491 51.7857 69.7679L51.7863 71.2376Z" fill="black"/>
<path d="M54.4756 68.1103V67.6887H54.9128V68.1103H54.4756ZM54.5004 71.2376V68.6715H54.8834V71.2376H54.5004Z" fill="black"/>
<path d="M57.4662 70.8425C57.4182 70.937 57.3535 71.0172 57.2721 71.0835C57.1907 71.1493 57.0948 71.2001 56.9839 71.2352C56.873 71.2698 56.7528 71.2871 56.6235 71.2871C56.4381 71.2871 56.2504 71.2531 56.0615 71.1851C55.8726 71.1176 55.7051 71.0259 55.5596 70.9094L55.7531 70.6365C55.8923 70.7427 56.0372 70.8234 56.188 70.8794C56.3387 70.9359 56.49 70.9636 56.6431 70.9636C56.7991 70.9636 56.9261 70.9272 57.026 70.8546C57.1254 70.7819 57.1751 70.6827 57.1751 70.557V70.5466C57.1751 70.4837 57.1577 70.4289 57.1225 70.3828C57.0878 70.3366 57.0405 70.2962 56.981 70.2611C56.9215 70.2265 56.8528 70.1959 56.7748 70.1694C56.6968 70.1428 56.6165 70.118 56.5339 70.095C56.4346 70.065 56.3341 70.0332 56.233 69.9981C56.132 69.9629 56.0407 69.9196 55.9598 69.8666C55.879 69.8135 55.8125 69.7472 55.7611 69.6676C55.7097 69.588 55.6843 69.4888 55.6843 69.3694V69.3596C55.6843 69.2506 55.7057 69.1502 55.749 69.0591C55.7918 68.9685 55.8524 68.8906 55.9304 68.826C56.0083 68.762 56.1008 68.7118 56.2088 68.6772C56.3168 68.6421 56.4334 68.6248 56.5594 68.6248C56.7182 68.6248 56.8793 68.6507 57.0416 68.702C57.2039 68.7534 57.3512 68.822 57.4841 68.908L57.3102 69.1958C57.1907 69.1196 57.0659 69.0591 56.9354 69.0147C56.8043 68.9702 56.676 68.9477 56.5501 68.9477C56.3976 68.9477 56.2763 68.9835 56.1874 69.055C56.0979 69.126 56.0534 69.2142 56.0534 69.3203V69.3307C56.0534 69.3901 56.0713 69.442 56.1083 69.487C56.1447 69.532 56.1932 69.5712 56.255 69.6035C56.3162 69.637 56.3867 69.6664 56.4664 69.6929C56.5461 69.7195 56.6287 69.746 56.7147 69.7725C56.8141 69.8025 56.9128 69.8354 57.0104 69.8717C57.1081 69.9081 57.197 69.9548 57.2761 70.0107C57.3553 70.0667 57.4194 70.1348 57.4679 70.2143C57.5158 70.2939 57.5401 70.392 57.5401 70.5074V70.5177C57.5378 70.6406 57.5141 70.7484 57.4662 70.8425Z" fill="black"/>
<path d="M58.7207 70.5073C58.7207 70.6659 58.7605 70.7772 58.8402 70.8401C58.9199 70.903 59.0239 70.9341 59.1533 70.9341C59.2191 70.9341 59.2815 70.9278 59.3398 70.9145C59.3976 70.9018 59.46 70.8782 59.5264 70.8453V71.1723C59.46 71.2087 59.3895 71.2363 59.315 71.2548C59.2405 71.2727 59.1568 71.2819 59.0638 71.2819C58.961 71.2819 58.8651 71.2692 58.7756 71.2427C58.686 71.2162 58.6086 71.1741 58.5445 71.1158C58.4804 71.0575 58.4296 70.9831 58.3932 70.8897C58.3568 70.7974 58.3383 70.6861 58.3383 70.5575V69.0083H57.9802V68.6708H58.3383V67.8962H58.7213V68.6708H59.5368V69.0083H58.7213L58.7207 70.5073Z" fill="black"/>
<path d="M60.5951 71.2375H60.2122V68.6714H60.5951V69.3411C60.6419 69.235 60.6996 69.1375 60.7689 69.0481C60.8388 68.9593 60.918 68.882 61.0075 68.818C61.097 68.7534 61.1946 68.7043 61.3009 68.6714C61.4072 68.638 61.5209 68.623 61.644 68.6265V69.0389H61.6145C61.4753 69.0389 61.3436 69.0637 61.2189 69.1133C61.0947 69.1629 60.9861 69.2373 60.8937 69.337C60.8007 69.4363 60.7279 69.5597 60.6748 69.7068C60.6217 69.8544 60.5951 70.024 60.5951 70.2155V71.2375Z" fill="black"/>
<path d="M63.4782 71.3218C63.3691 71.5865 63.2472 71.7734 63.1126 71.883C62.978 71.9925 62.8152 72.0468 62.6228 72.0468C62.5166 72.0468 62.4207 72.0352 62.3346 72.0139C62.2486 71.9925 62.1625 71.9603 62.0759 71.917L62.2052 71.6148C62.2682 71.6476 62.3306 71.6719 62.3918 71.6869C62.453 71.7013 62.5252 71.7088 62.6084 71.7088C62.7245 71.7088 62.8221 71.6742 62.9018 71.6044C62.9815 71.5352 63.0589 71.4088 63.1357 71.2272L61.9673 68.6709H62.3901L63.3246 70.8102L64.15 68.6709H64.5577L63.4782 71.3218Z" fill="black"/>
<path d="M69.0728 70.4705C69.0046 70.6343 68.911 70.7773 68.7921 70.9002C68.6725 71.0224 68.5304 71.1193 68.3647 71.1903C68.1989 71.2618 68.0198 71.2975 67.8281 71.2975C67.6357 71.2975 67.4584 71.2618 67.2961 71.1903C67.1338 71.1193 66.9929 71.0236 66.8733 70.9025C66.7538 70.7819 66.6614 70.6406 66.595 70.4785C66.5285 70.3165 66.4956 70.144 66.4956 69.9617C66.4956 69.7795 66.5285 69.607 66.595 69.4432C66.6614 69.2794 66.7538 69.1364 66.8733 69.0141C66.9929 68.8912 67.1344 68.7943 67.2984 68.7234C67.4625 68.6525 67.6421 68.6167 67.8379 68.6167C68.0302 68.6167 68.2081 68.6525 68.3722 68.7234C68.5362 68.7943 68.6777 68.8907 68.7973 69.0112C68.9168 69.1323 69.0092 69.2736 69.0757 69.4357C69.1421 69.5978 69.175 69.7697 69.175 69.9519C69.175 70.1342 69.1409 70.3066 69.0728 70.4705ZM68.71 69.5678C68.6621 69.4455 68.5951 69.3394 68.509 69.2483C68.423 69.1577 68.3219 69.0856 68.2058 69.0331C68.0897 68.9801 67.9638 68.9535 67.8281 68.9535C67.6889 68.9535 67.5612 68.9789 67.4451 69.0302C67.3291 69.0816 67.2309 69.1525 67.1494 69.2431C67.068 69.3336 67.0045 69.4398 66.9577 69.5603C66.9109 69.6808 66.8878 69.8106 66.8878 69.949C66.8878 70.0875 66.912 70.2184 66.96 70.3407C67.0079 70.4624 67.0743 70.5685 67.1587 70.6573C67.243 70.7462 67.3435 70.8171 67.4596 70.8702C67.5757 70.9232 67.7016 70.9498 67.8373 70.9498C67.9765 70.9498 68.1042 70.9244 68.2203 70.873C68.3363 70.8217 68.4357 70.7513 68.5189 70.6625C68.6015 70.5737 68.6661 70.4687 68.7124 70.3482C68.7591 70.2276 68.7822 70.0979 68.7822 69.9594C68.7822 69.8204 68.758 69.6901 68.71 69.5678Z" fill="black"/>
<path d="M71.2029 68.6807V69.0083H70.3926V71.237H70.0096V69.0083H69.6567V68.6755H70.0096V68.4523C70.0096 68.1709 70.0766 67.9574 70.2112 67.8121C70.3452 67.6662 70.5364 67.5935 70.7853 67.5935C70.8749 67.5935 70.9517 67.5987 71.0164 67.6085C71.081 67.6183 71.1452 67.635 71.2081 67.6581V67.9903C71.1382 67.9707 71.0759 67.9546 71.0192 67.943C70.9626 67.9315 70.9014 67.9263 70.8356 67.9263C70.537 67.9263 70.3885 68.108 70.3885 68.4719V68.6801H71.2029V68.6807Z" fill="black"/>
<path d="M75.9483 70.9371C75.8507 71.0115 75.745 71.075 75.633 71.128C75.5203 71.1811 75.399 71.2226 75.2702 71.252C75.1409 71.282 74.997 71.297 74.8376 71.297C74.5852 71.297 74.3536 71.2503 74.1417 71.158C73.9297 71.0657 73.7454 70.9388 73.5895 70.7785C73.4335 70.6181 73.3123 70.4284 73.2245 70.2104C73.1367 69.9918 73.0928 69.757 73.0928 69.505C73.0928 69.257 73.1367 69.0234 73.2245 68.8053C73.3123 68.5867 73.4341 68.3953 73.5895 68.232C73.7454 68.0682 73.9308 67.939 74.1463 67.8444C74.3617 67.7504 74.5968 67.7031 74.8521 67.7031C75.0109 67.7031 75.1547 67.7164 75.2824 67.7423C75.41 67.7695 75.5284 67.8064 75.6376 67.8542C75.7467 67.9021 75.8478 67.9604 75.9408 68.0278C76.0332 68.0959 76.1228 68.1709 76.2088 68.2539L75.9408 68.5418C75.7918 68.4033 75.6318 68.2891 75.4608 68.1991C75.2899 68.1103 75.0854 68.0653 74.8469 68.0653C74.6545 68.0653 74.4767 68.1017 74.3126 68.1743C74.1486 68.2476 74.0059 68.3485 73.8852 68.4772C73.7645 68.6058 73.6698 68.7575 73.6016 68.9311C73.5335 69.1053 73.5 69.2927 73.5 69.4952C73.5 69.697 73.534 69.8856 73.6016 70.0604C73.6698 70.2363 73.7639 70.388 73.8852 70.5172C74.0065 70.6464 74.1486 70.7479 74.3126 70.8223C74.4767 70.8967 74.6545 70.9336 74.8469 70.9336C75.0854 70.9336 75.291 70.8904 75.4632 70.8021C75.6353 70.7139 75.8045 70.591 75.9703 70.4318L76.229 70.6851C76.1395 70.7791 76.0459 70.8627 75.9483 70.9371Z" fill="black"/>
<path d="M79.2236 70.4705C79.1555 70.6343 79.0619 70.7773 78.9429 70.9002C78.8234 71.0224 78.6813 71.1193 78.5155 71.1903C78.3498 71.2618 78.1707 71.2975 77.979 71.2975C77.7866 71.2975 77.6093 71.2618 77.447 71.1903C77.2847 71.1193 77.1438 71.0236 77.0242 70.9025C76.9047 70.7819 76.8122 70.6406 76.7458 70.4785C76.6794 70.3165 76.6465 70.144 76.6465 69.9617C76.6465 69.7795 76.6794 69.607 76.7458 69.4432C76.8122 69.2794 76.9047 69.1364 77.0242 69.0141C77.1438 68.8912 77.2853 68.7943 77.4493 68.7234C77.6134 68.6525 77.793 68.6167 77.9888 68.6167C78.1811 68.6167 78.359 68.6525 78.523 68.7234C78.6871 68.7943 78.8286 68.8907 78.9481 69.0112C79.0677 69.1323 79.1601 69.2736 79.2265 69.4357C79.2929 69.5978 79.3259 69.7697 79.3259 69.9519C79.3259 70.1342 79.2918 70.3066 79.2236 70.4705ZM78.8609 69.5678C78.813 69.4455 78.746 69.3394 78.6599 69.2483C78.5739 69.1577 78.4728 69.0856 78.3567 69.0331C78.2406 68.9801 78.1147 68.9535 77.979 68.9535C77.8398 68.9535 77.7121 68.9789 77.596 69.0302C77.4799 69.0816 77.3817 69.1525 77.3003 69.2431C77.2189 69.3336 77.1553 69.4398 77.1085 69.5603C77.0618 69.6808 77.0387 69.8106 77.0387 69.949C77.0387 70.0875 77.0629 70.2184 77.1109 70.3407C77.1588 70.4624 77.2252 70.5685 77.3095 70.6573C77.3939 70.7462 77.4944 70.8171 77.6105 70.8702C77.7266 70.9232 77.8525 70.9498 77.9882 70.9498C78.1274 70.9498 78.255 70.9244 78.3711 70.873C78.4872 70.8217 78.5866 70.7513 78.6697 70.6625C78.7523 70.5737 78.817 70.4687 78.8632 70.3482C78.91 70.2276 78.9331 70.0979 78.9331 69.9594C78.9331 69.8204 78.9089 69.6901 78.8609 69.5678Z" fill="black"/>
<path d="M82.2115 68.9292C82.2693 68.8664 82.3351 68.8116 82.4079 68.7654C82.4807 68.7193 82.5627 68.6824 82.6539 68.6564C82.7452 68.6299 82.8469 68.6172 82.9595 68.6172C83.2575 68.6172 83.4914 68.7089 83.6601 68.8929C83.8287 69.0769 83.9136 69.3289 83.9136 69.6502V71.2386H83.5307V69.739C83.5307 69.491 83.4718 69.2995 83.354 69.1657C83.2361 69.0325 83.0733 68.965 82.8642 68.965C82.7677 68.965 82.677 68.9817 82.5904 69.0169C82.5044 69.0521 82.4293 69.1028 82.364 69.1709C82.2993 69.239 82.2479 69.3226 82.2098 69.4218C82.1717 69.5216 82.1526 69.6335 82.1526 69.7598V71.2386H81.7749V69.7298C81.7749 69.4881 81.716 69.3001 81.5981 69.1657C81.4803 69.0325 81.3192 68.965 81.1135 68.965C81.0107 68.965 80.9166 68.9846 80.8305 69.0244C80.7445 69.0642 80.6688 69.1207 80.6041 69.1934C80.5394 69.2661 80.4886 69.3514 80.4522 69.4489C80.4158 69.5464 80.3973 69.6548 80.3973 69.7736V71.2381H80.0144V68.672H80.3973V69.1034C80.4407 69.0411 80.4874 68.9794 80.5388 68.92C80.5903 68.86 80.6492 68.8087 80.7156 68.7637C80.782 68.7187 80.8565 68.6829 80.9391 68.6564C81.0223 68.6299 81.1182 68.6172 81.2279 68.6172C81.4364 68.6172 81.6091 68.6656 81.7448 68.7637C81.8806 68.8612 81.9834 68.9829 82.0533 69.1282C82.1012 69.0578 82.1532 68.9921 82.2115 68.9292Z" fill="black"/>
<path d="M86.9383 68.9292C86.9961 68.8664 87.0619 68.8116 87.1347 68.7654C87.2075 68.7193 87.2895 68.6824 87.3807 68.6564C87.472 68.6299 87.5737 68.6172 87.6863 68.6172C87.9843 68.6172 88.2182 68.7089 88.3869 68.8929C88.5555 69.0769 88.6404 69.3289 88.6404 69.6502V71.2386H88.2575V69.739C88.2575 69.491 88.1986 69.2995 88.0808 69.1657C87.9629 69.0325 87.8001 68.965 87.591 68.965C87.4945 68.965 87.4038 68.9817 87.3172 69.0169C87.2311 69.0521 87.1561 69.1028 87.0908 69.1709C87.0261 69.239 86.9747 69.3226 86.9366 69.4218C86.8985 69.5216 86.8794 69.6335 86.8794 69.7598V71.2386H86.5017V69.7298C86.5017 69.4881 86.4428 69.3001 86.3249 69.1657C86.2071 69.0325 86.046 68.965 85.8403 68.965C85.7375 68.965 85.6434 68.9846 85.5573 69.0244C85.4713 69.0642 85.3956 69.1207 85.3309 69.1934C85.2662 69.2661 85.2154 69.3514 85.179 69.4489C85.1426 69.5464 85.1241 69.6548 85.1241 69.7736V71.2381H84.7412V68.672H85.1241V69.1034C85.1675 69.0411 85.2143 68.9794 85.2657 68.92C85.3171 68.86 85.376 68.8087 85.4424 68.7637C85.5088 68.7187 85.5833 68.6829 85.6659 68.6564C85.7491 68.6299 85.845 68.6172 85.9547 68.6172C86.1632 68.6172 86.3359 68.6656 86.4716 68.7637C86.6074 68.8612 86.7102 68.9829 86.7801 69.1282C86.8286 69.0578 86.8806 68.9921 86.9383 68.9292Z" fill="black"/>
<path d="M89.8044 70.4657C89.8576 70.5736 89.9252 70.6642 90.0083 70.7386C90.0909 70.813 90.1839 70.8695 90.2867 70.9076C90.3895 70.9456 90.497 70.9647 90.6096 70.9647C90.7886 70.9647 90.9417 70.9318 91.0693 70.8655C91.197 70.7997 91.3137 70.7115 91.4194 70.6024L91.6585 70.8159C91.5291 70.9612 91.3818 71.0783 91.216 71.1654C91.0503 71.253 90.8447 71.2975 90.5998 71.2975C90.4242 71.2975 90.2584 71.2646 90.1025 71.2006C89.9465 71.136 89.8108 71.0448 89.6936 70.9272C89.5769 70.8101 89.4839 70.6688 89.4152 70.5032C89.3464 70.3377 89.3118 70.1554 89.3118 69.957C89.3118 69.7719 89.3424 69.5971 89.4036 69.4333C89.4648 69.2701 89.5503 69.1276 89.6595 69.0065C89.7686 68.886 89.8992 68.7908 90.0493 68.7216C90.2001 68.6518 90.3653 68.6172 90.5437 68.6172C90.7326 68.6172 90.9018 68.6529 91.0509 68.7239C91.1999 68.7948 91.3258 68.8917 91.4286 69.0146C91.5314 69.1369 91.6094 69.2811 91.6619 69.446C91.7151 69.6115 91.7416 69.7892 91.7416 69.9772C91.7416 69.9939 91.7416 70.0124 91.7416 70.032C91.7416 70.0522 91.7399 70.0735 91.737 70.0966H89.7034C89.7184 70.2345 89.7519 70.3579 89.8044 70.4657ZM91.3506 69.8128C91.3402 69.6969 91.3165 69.5856 91.2784 69.48C91.2409 69.3739 91.1877 69.2816 91.1207 69.2026C91.0532 69.123 90.9706 69.059 90.8735 69.0111C90.7765 68.9633 90.6633 68.939 90.5351 68.939C90.423 68.939 90.3191 68.9615 90.2238 69.0059C90.1279 69.0509 90.0441 69.1126 89.9714 69.1899C89.8986 69.2672 89.8397 69.3595 89.7935 69.4656C89.7473 69.5718 89.7178 69.6871 89.7045 69.8134L91.3506 69.8128Z" fill="black"/>
<path d="M92.7972 71.2375H92.4143V68.6714H92.7972V69.3411C92.844 69.235 92.9018 69.1375 92.9711 69.0481C93.041 68.9593 93.1201 68.882 93.2096 68.818C93.2992 68.7534 93.3968 68.7043 93.503 68.6714C93.6093 68.638 93.7231 68.623 93.8461 68.6265V69.0389H93.8167C93.6775 69.0389 93.5458 69.0637 93.421 69.1133C93.2968 69.1629 93.1883 69.2373 93.0958 69.337C93.0029 69.4363 92.9301 69.5597 92.8769 69.7068C92.8238 69.8544 92.7972 70.024 92.7972 70.2155V71.2375Z" fill="black"/>
<path d="M96.09 71.1558C95.926 71.2498 95.7233 71.2971 95.4813 71.2971C95.2924 71.2971 95.1174 71.2613 94.9568 71.1898C94.7963 71.1188 94.6571 71.0231 94.5392 70.902C94.4214 70.7814 94.3296 70.6401 94.2632 70.478C94.1967 70.316 94.1638 70.1435 94.1638 69.9613C94.1638 69.779 94.1967 69.6065 94.2632 69.4427C94.3296 69.2789 94.4214 69.1359 94.5392 69.0136C94.6571 68.8908 94.7957 68.7939 94.9568 68.7229C95.118 68.652 95.2924 68.6162 95.4813 68.6162C95.6037 68.6162 95.7146 68.6277 95.8145 68.6508C95.9139 68.6739 96.0051 68.7068 96.0877 68.7477C96.1709 68.7892 96.2466 68.8377 96.3165 68.8942C96.3863 68.9507 96.4505 69.0102 96.5105 69.073L96.257 69.3412C96.1542 69.2351 96.0421 69.1445 95.9214 69.0684C95.8007 68.9923 95.6522 68.9542 95.4761 68.9542C95.3467 68.9542 95.226 68.9796 95.1134 69.0309C95.0007 69.0822 94.9031 69.1532 94.8205 69.2437C94.7374 69.3343 94.6732 69.4404 94.6265 69.561C94.5797 69.6815 94.5566 69.8113 94.5566 69.9497C94.5566 70.0881 94.5808 70.2191 94.6288 70.3413C94.6767 70.463 94.7431 70.5698 94.8275 70.6609C94.9118 70.752 95.0111 70.8224 95.1261 70.8737C95.2404 70.925 95.3652 70.9504 95.5009 70.9504C95.6667 70.9504 95.8134 70.9141 95.941 70.8414C96.0687 70.7687 96.1836 70.6776 96.2864 70.568L96.5302 70.7964C96.4008 70.9418 96.2541 71.0623 96.09 71.1558Z" fill="black"/>
<path d="M97.4204 70.4657C97.4735 70.5736 97.5411 70.6642 97.6243 70.7386C97.7069 70.813 97.7999 70.8695 97.9027 70.9076C98.0055 70.9456 98.1129 70.9647 98.2256 70.9647C98.4046 70.9647 98.5577 70.9318 98.6853 70.8655C98.813 70.7997 98.9296 70.7115 99.0353 70.6024L99.2744 70.8159C99.1451 70.9612 98.9978 71.0783 98.832 71.1654C98.6662 71.253 98.4606 71.2975 98.2157 71.2975C98.0401 71.2975 97.8744 71.2646 97.7184 71.2006C97.5625 71.136 97.4268 71.0448 97.3095 70.9272C97.1928 70.8101 97.0999 70.6688 97.0311 70.5032C96.9624 70.3377 96.9277 70.1554 96.9277 69.957C96.9277 69.7719 96.9583 69.5971 97.0196 69.4333C97.0808 69.2701 97.1663 69.1276 97.2754 69.0065C97.3846 68.886 97.5151 68.7908 97.6653 68.7216C97.816 68.6518 97.9812 68.6172 98.1597 68.6172C98.3486 68.6172 98.5178 68.6529 98.6668 68.7239C98.8158 68.7948 98.9417 68.8917 99.0446 69.0146C99.1474 69.1369 99.2253 69.2811 99.2779 69.446C99.331 69.6115 99.3576 69.7892 99.3576 69.9772C99.3576 69.9939 99.3576 70.0124 99.3576 70.032C99.3576 70.0522 99.3559 70.0735 99.353 70.0966H97.3193C97.3343 70.2345 97.3673 70.3579 97.4204 70.4657ZM98.9666 69.8128C98.9562 69.6969 98.9325 69.5856 98.8944 69.48C98.8568 69.3739 98.8037 69.2816 98.7367 69.2026C98.6691 69.123 98.5865 69.059 98.4895 69.0111C98.3925 68.9633 98.2793 68.939 98.151 68.939C98.039 68.939 97.935 68.9615 97.8397 69.0059C97.7439 69.0509 97.6601 69.1126 97.5873 69.1899C97.5146 69.2672 97.4556 69.3595 97.4094 69.4656C97.3632 69.5718 97.3338 69.6871 97.3205 69.8134L98.9666 69.8128Z" fill="black"/>
<path d="M104.097 71.3068L103.55 70.7456C103.39 70.9181 103.218 71.0513 103.032 71.1453C102.846 71.2393 102.639 71.2866 102.411 71.2866C102.255 71.2866 102.11 71.2636 101.976 71.2174C101.842 71.1713 101.725 71.1049 101.627 71.0184C101.53 70.9325 101.454 70.8292 101.399 70.7081C101.344 70.5876 101.317 70.4549 101.317 70.309C101.317 70.0742 101.389 69.8735 101.536 69.7086C101.681 69.543 101.888 69.4075 102.157 69.3014C102.037 69.1624 101.95 69.0337 101.894 68.9167C101.837 68.799 101.809 68.671 101.809 68.5319C101.809 68.416 101.832 68.3076 101.876 68.2072C101.921 68.1057 101.983 68.0186 102.063 67.9436C102.143 67.8692 102.238 67.811 102.352 67.7677C102.464 67.7245 102.59 67.7031 102.729 67.7031C102.852 67.7031 102.964 67.7239 103.067 67.7648C103.17 67.8064 103.258 67.8623 103.333 67.9338C103.407 68.0048 103.466 68.089 103.509 68.1847C103.552 68.2805 103.574 68.3831 103.574 68.4922C103.574 68.7206 103.501 68.9069 103.355 69.051C103.209 69.1947 103.008 69.3112 102.753 69.4006L103.548 70.2098C103.625 70.0973 103.697 69.9762 103.767 69.847C103.836 69.7178 103.902 69.5805 103.965 69.4352L104.289 69.584C104.213 69.7495 104.134 69.9053 104.053 70.0512C103.972 70.1965 103.883 70.3321 103.788 70.4578L104.393 71.0784L104.097 71.3068ZM102.376 69.5448C102.144 69.6307 101.975 69.7397 101.869 69.8718C101.763 70.0039 101.71 70.1452 101.71 70.2934C101.71 70.3897 101.727 70.4774 101.762 70.557C101.797 70.6366 101.846 70.7058 101.911 70.7652C101.976 70.8246 102.052 70.8713 102.142 70.9042C102.232 70.9371 102.329 70.9538 102.435 70.9538C102.601 70.9538 102.756 70.9135 102.9 70.8321C103.045 70.7508 103.179 70.6406 103.306 70.5022L102.376 69.5448ZM103.067 68.1622C102.974 68.0717 102.856 68.0261 102.714 68.0261C102.556 68.0261 102.428 68.074 102.331 68.1697C102.235 68.2661 102.187 68.3866 102.187 68.5325C102.187 68.5856 102.193 68.6352 102.204 68.6813C102.216 68.7281 102.235 68.7759 102.262 68.8255C102.288 68.8751 102.324 68.9288 102.368 68.9864C102.413 69.0447 102.468 69.1081 102.535 69.1774C102.757 69.1012 102.925 69.0107 103.037 68.9045C103.15 68.7984 103.206 68.6681 103.206 68.5123C103.206 68.3699 103.16 68.2534 103.067 68.1622Z" fill="black"/>
<path d="M106.964 67.7625V71.2369H106.572V67.7625H106.964Z" fill="black"/>
<path d="M108.302 71.2376H107.919V68.6715H108.302V69.1179C108.387 68.9789 108.501 68.8607 108.64 68.7632C108.779 68.6651 108.96 68.6167 109.182 68.6167C109.337 68.6167 109.476 68.6415 109.596 68.6911C109.718 68.7407 109.82 68.8111 109.905 68.9016C109.989 68.9928 110.054 69.1012 110.099 69.2269C110.143 69.3527 110.166 69.4917 110.166 69.6439V71.2376H109.783V69.738C109.783 69.4997 109.722 69.3111 109.599 69.1727C109.476 69.0337 109.301 68.9645 109.072 68.9645C108.963 68.9645 108.861 68.9829 108.767 69.0216C108.672 69.0591 108.59 69.1139 108.52 69.1854C108.451 69.2563 108.397 69.3417 108.359 69.4409C108.321 69.5401 108.302 69.6491 108.302 69.7679V71.2376Z" fill="black"/>
<path d="M113.044 71.2375V70.7207C112.991 70.7974 112.932 70.8701 112.868 70.9393C112.803 71.0091 112.731 71.0702 112.651 71.1227C112.571 71.1752 112.483 71.2173 112.385 71.2473C112.287 71.2773 112.179 71.2917 112.06 71.2917C111.904 71.2917 111.754 71.2617 111.607 71.2023C111.462 71.1429 111.331 71.0558 111.215 70.9422C111.099 70.828 111.006 70.6884 110.937 70.5223C110.867 70.3568 110.832 70.1682 110.832 69.9565C110.832 69.7448 110.867 69.5562 110.937 69.3907C111.006 69.2257 111.099 69.0855 111.215 68.9713C111.331 68.8571 111.462 68.7689 111.607 68.7083C111.754 68.6472 111.904 68.6166 112.06 68.6166C112.179 68.6166 112.288 68.631 112.388 68.661C112.487 68.691 112.577 68.7303 112.656 68.7799C112.736 68.83 112.808 68.8877 112.872 68.954C112.937 69.0204 112.994 69.0896 113.044 69.1623V67.613H113.427V71.2369L113.044 71.2375ZM112.981 69.5464C112.93 69.4247 112.861 69.3209 112.773 69.2355C112.685 69.1501 112.586 69.0832 112.474 69.0354C112.363 68.9875 112.248 68.9638 112.129 68.9638C112.002 68.9638 111.885 68.9858 111.776 69.0302C111.667 69.0746 111.572 69.1386 111.49 69.2228C111.409 69.307 111.345 69.4103 111.297 69.5337C111.248 69.6577 111.224 69.7967 111.224 69.9513C111.224 70.103 111.248 70.2397 111.297 70.3614C111.345 70.4836 111.41 70.588 111.493 70.6751C111.576 70.7622 111.672 70.8297 111.781 70.8753C111.89 70.9214 112.006 70.9445 112.13 70.9445C112.248 70.9445 112.363 70.9208 112.475 70.873C112.586 70.8251 112.685 70.7588 112.774 70.6728C112.862 70.5869 112.931 70.4825 112.982 70.3591C113.033 70.2356 113.059 70.1001 113.059 69.9513C113.059 69.8031 113.033 69.6687 112.981 69.5464Z" fill="black"/>
<path d="M116.106 68.6714H116.483V71.2375H116.106V70.791C116.02 70.93 115.907 71.0483 115.768 71.1458C115.628 71.2432 115.448 71.2923 115.226 71.2923C115.07 71.2923 114.932 71.2675 114.811 71.2178C114.69 71.1682 114.587 71.0979 114.503 71.0068C114.418 70.9162 114.354 70.8072 114.309 70.682C114.264 70.5563 114.242 70.4173 114.242 70.265V68.6714H114.625V70.1704C114.625 70.4086 114.686 70.5972 114.808 70.7362C114.931 70.8752 115.107 70.9445 115.335 70.9445C115.444 70.9445 115.546 70.9254 115.641 70.8874C115.735 70.8493 115.817 70.7945 115.884 70.7236C115.952 70.6526 116.006 70.5672 116.046 70.468C116.085 70.3688 116.106 70.2598 116.106 70.1404V68.6714Z" fill="black"/>
<path d="M119.037 70.8425C118.989 70.937 118.924 71.0172 118.843 71.0835C118.761 71.1493 118.665 71.2001 118.554 71.2352C118.444 71.2698 118.323 71.2871 118.194 71.2871C118.009 71.2871 117.821 71.2531 117.632 71.1851C117.443 71.1176 117.276 71.0259 117.13 70.9094L117.324 70.6365C117.463 70.7427 117.608 70.8234 117.759 70.8794C117.91 70.9359 118.061 70.9636 118.214 70.9636C118.37 70.9636 118.497 70.9272 118.597 70.8546C118.696 70.7819 118.746 70.6827 118.746 70.557V70.5466C118.746 70.4837 118.728 70.4289 118.694 70.3828C118.658 70.3366 118.611 70.2962 118.552 70.2611C118.492 70.2265 118.423 70.1959 118.346 70.1694C118.269 70.1428 118.188 70.118 118.105 70.095C118.005 70.065 117.905 70.0332 117.804 69.9981C117.703 69.9629 117.611 69.9196 117.53 69.8666C117.448 69.8135 117.383 69.7472 117.331 69.6676C117.28 69.588 117.254 69.4888 117.254 69.3694V69.3596C117.254 69.2506 117.275 69.1502 117.318 69.0591C117.361 68.9685 117.422 68.8906 117.5 68.826C117.578 68.762 117.67 68.7118 117.778 68.6772C117.886 68.6421 118.002 68.6248 118.128 68.6248C118.286 68.6248 118.448 68.6507 118.61 68.702C118.772 68.7534 118.92 68.822 119.053 68.908L118.878 69.1958C118.759 69.1196 118.634 69.0591 118.504 69.0147C118.373 68.9702 118.244 68.9477 118.118 68.9477C117.965 68.9477 117.845 68.9835 117.755 69.055C117.666 69.126 117.621 69.2142 117.621 69.3203V69.3307C117.621 69.3901 117.64 69.442 117.676 69.487C117.712 69.532 117.761 69.5712 117.823 69.6035C117.884 69.637 117.955 69.6664 118.034 69.6929C118.113 69.7195 118.196 69.746 118.283 69.7725C118.382 69.8025 118.481 69.8354 118.579 69.8717C118.676 69.9081 118.765 69.9548 118.845 70.0107C118.925 70.0667 118.988 70.1348 119.036 70.2143C119.084 70.2939 119.108 70.392 119.108 70.5074V70.5177C119.109 70.6406 119.085 70.7484 119.037 70.8425Z" fill="black"/>
<path d="M120.292 70.5073C120.292 70.6659 120.331 70.7772 120.411 70.8401C120.491 70.903 120.595 70.9341 120.724 70.9341C120.79 70.9341 120.853 70.9278 120.91 70.9145C120.969 70.9018 121.031 70.8782 121.096 70.8453V71.1723C121.031 71.2087 120.96 71.2363 120.886 71.2548C120.811 71.2733 120.727 71.2819 120.634 71.2819C120.531 71.2819 120.435 71.2692 120.346 71.2427C120.257 71.2162 120.179 71.1741 120.115 71.1158C120.05 71.0575 120 70.9831 119.963 70.8897C119.927 70.7974 119.908 70.6861 119.908 70.5575V69.0083H119.55V68.6708H119.908V67.8962H120.291V68.6708H121.106V69.0083H120.291L120.292 70.5073Z" fill="black"/>
<path d="M122.166 71.2375H121.783V68.6714H122.166V69.3411C122.212 69.235 122.271 69.1375 122.34 69.0481C122.409 68.9593 122.489 68.882 122.579 68.818C122.668 68.7534 122.766 68.7043 122.872 68.6714C122.978 68.638 123.093 68.623 123.215 68.6265V69.0389H123.185C123.046 69.0389 122.914 69.0637 122.79 69.1133C122.665 69.1629 122.557 69.2373 122.464 69.337C122.372 69.4363 122.298 69.5597 122.246 69.7068C122.193 69.8544 122.166 70.024 122.166 70.2155V71.2375Z" fill="black"/>
<path d="M125.049 71.3218C124.94 71.5865 124.818 71.7734 124.683 71.883C124.549 71.9925 124.386 72.0468 124.193 72.0468C124.087 72.0468 123.991 72.0352 123.905 72.0139C123.819 71.9925 123.732 71.9603 123.647 71.917L123.776 71.6148C123.839 71.6476 123.901 71.6719 123.962 71.6869C124.024 71.7013 124.096 71.7088 124.179 71.7088C124.294 71.7088 124.393 71.6742 124.472 71.6044C124.552 71.5352 124.629 71.4088 124.706 71.2272L123.538 68.6709H123.96L124.895 70.8102L125.72 68.6709H126.127L125.049 71.3218Z" fill="black"/>
</g>
<defs>
<clipPath id="clip0_267_514">
<rect width="208" height="90" fill="white"/>
</clipPath>
</defs>
</svg>
